G75*
%MOIN*%
%OFA0B0*%
%FSLAX25Y25*%
%IPPOS*%
%LPD*%
%AMOC8*
5,1,8,0,0,1.08239X$1,22.5*
%
%ADD10C,0.00600*%
%ADD11C,0.01000*%
%ADD12R,0.00787X0.00787*%
%ADD13C,0.01600*%
%ADD14R,0.02300X0.01600*%
%ADD15C,0.01200*%
%ADD16C,0.00500*%
%ADD17C,0.00200*%
D10*
X0077500Y0076000D02*
X0094500Y0076000D01*
X0094560Y0076002D01*
X0094621Y0076007D01*
X0094680Y0076016D01*
X0094739Y0076029D01*
X0094798Y0076045D01*
X0094855Y0076065D01*
X0094910Y0076088D01*
X0094965Y0076115D01*
X0095017Y0076144D01*
X0095068Y0076177D01*
X0095117Y0076213D01*
X0095163Y0076251D01*
X0095207Y0076293D01*
X0095249Y0076337D01*
X0095287Y0076383D01*
X0095323Y0076432D01*
X0095356Y0076483D01*
X0095385Y0076535D01*
X0095412Y0076590D01*
X0095435Y0076645D01*
X0095455Y0076702D01*
X0095471Y0076761D01*
X0095484Y0076820D01*
X0095493Y0076879D01*
X0095498Y0076940D01*
X0095500Y0077000D01*
X0095500Y0085000D01*
X0095498Y0085060D01*
X0095493Y0085121D01*
X0095484Y0085180D01*
X0095471Y0085239D01*
X0095455Y0085298D01*
X0095435Y0085355D01*
X0095412Y0085410D01*
X0095385Y0085465D01*
X0095356Y0085517D01*
X0095323Y0085568D01*
X0095287Y0085617D01*
X0095249Y0085663D01*
X0095207Y0085707D01*
X0095163Y0085749D01*
X0095117Y0085787D01*
X0095068Y0085823D01*
X0095017Y0085856D01*
X0094965Y0085885D01*
X0094910Y0085912D01*
X0094855Y0085935D01*
X0094798Y0085955D01*
X0094739Y0085971D01*
X0094680Y0085984D01*
X0094621Y0085993D01*
X0094560Y0085998D01*
X0094500Y0086000D01*
X0077500Y0086000D01*
X0077440Y0085998D01*
X0077379Y0085993D01*
X0077320Y0085984D01*
X0077261Y0085971D01*
X0077202Y0085955D01*
X0077145Y0085935D01*
X0077090Y0085912D01*
X0077035Y0085885D01*
X0076983Y0085856D01*
X0076932Y0085823D01*
X0076883Y0085787D01*
X0076837Y0085749D01*
X0076793Y0085707D01*
X0076751Y0085663D01*
X0076713Y0085617D01*
X0076677Y0085568D01*
X0076644Y0085517D01*
X0076615Y0085465D01*
X0076588Y0085410D01*
X0076565Y0085355D01*
X0076545Y0085298D01*
X0076529Y0085239D01*
X0076516Y0085180D01*
X0076507Y0085121D01*
X0076502Y0085060D01*
X0076500Y0085000D01*
X0076500Y0077000D01*
X0076502Y0076940D01*
X0076507Y0076879D01*
X0076516Y0076820D01*
X0076529Y0076761D01*
X0076545Y0076702D01*
X0076565Y0076645D01*
X0076588Y0076590D01*
X0076615Y0076535D01*
X0076644Y0076483D01*
X0076677Y0076432D01*
X0076713Y0076383D01*
X0076751Y0076337D01*
X0076793Y0076293D01*
X0076837Y0076251D01*
X0076883Y0076213D01*
X0076932Y0076177D01*
X0076983Y0076144D01*
X0077035Y0076115D01*
X0077090Y0076088D01*
X0077145Y0076065D01*
X0077202Y0076045D01*
X0077261Y0076029D01*
X0077320Y0076016D01*
X0077379Y0076007D01*
X0077440Y0076002D01*
X0077500Y0076000D01*
X0084500Y0081000D02*
X0085000Y0081000D01*
X0087000Y0081000D02*
X0087500Y0081000D01*
X0094500Y0101000D02*
X0077500Y0101000D01*
X0077440Y0101002D01*
X0077379Y0101007D01*
X0077320Y0101016D01*
X0077261Y0101029D01*
X0077202Y0101045D01*
X0077145Y0101065D01*
X0077090Y0101088D01*
X0077035Y0101115D01*
X0076983Y0101144D01*
X0076932Y0101177D01*
X0076883Y0101213D01*
X0076837Y0101251D01*
X0076793Y0101293D01*
X0076751Y0101337D01*
X0076713Y0101383D01*
X0076677Y0101432D01*
X0076644Y0101483D01*
X0076615Y0101535D01*
X0076588Y0101590D01*
X0076565Y0101645D01*
X0076545Y0101702D01*
X0076529Y0101761D01*
X0076516Y0101820D01*
X0076507Y0101879D01*
X0076502Y0101940D01*
X0076500Y0102000D01*
X0076500Y0110000D01*
X0076502Y0110060D01*
X0076507Y0110121D01*
X0076516Y0110180D01*
X0076529Y0110239D01*
X0076545Y0110298D01*
X0076565Y0110355D01*
X0076588Y0110410D01*
X0076615Y0110465D01*
X0076644Y0110517D01*
X0076677Y0110568D01*
X0076713Y0110617D01*
X0076751Y0110663D01*
X0076793Y0110707D01*
X0076837Y0110749D01*
X0076883Y0110787D01*
X0076932Y0110823D01*
X0076983Y0110856D01*
X0077035Y0110885D01*
X0077090Y0110912D01*
X0077145Y0110935D01*
X0077202Y0110955D01*
X0077261Y0110971D01*
X0077320Y0110984D01*
X0077379Y0110993D01*
X0077440Y0110998D01*
X0077500Y0111000D01*
X0094500Y0111000D01*
X0094560Y0110998D01*
X0094621Y0110993D01*
X0094680Y0110984D01*
X0094739Y0110971D01*
X0094798Y0110955D01*
X0094855Y0110935D01*
X0094910Y0110912D01*
X0094965Y0110885D01*
X0095017Y0110856D01*
X0095068Y0110823D01*
X0095117Y0110787D01*
X0095163Y0110749D01*
X0095207Y0110707D01*
X0095249Y0110663D01*
X0095287Y0110617D01*
X0095323Y0110568D01*
X0095356Y0110517D01*
X0095385Y0110465D01*
X0095412Y0110410D01*
X0095435Y0110355D01*
X0095455Y0110298D01*
X0095471Y0110239D01*
X0095484Y0110180D01*
X0095493Y0110121D01*
X0095498Y0110060D01*
X0095500Y0110000D01*
X0095500Y0102000D01*
X0095498Y0101940D01*
X0095493Y0101879D01*
X0095484Y0101820D01*
X0095471Y0101761D01*
X0095455Y0101702D01*
X0095435Y0101645D01*
X0095412Y0101590D01*
X0095385Y0101535D01*
X0095356Y0101483D01*
X0095323Y0101432D01*
X0095287Y0101383D01*
X0095249Y0101337D01*
X0095207Y0101293D01*
X0095163Y0101251D01*
X0095117Y0101213D01*
X0095068Y0101177D01*
X0095017Y0101144D01*
X0094965Y0101115D01*
X0094910Y0101088D01*
X0094855Y0101065D01*
X0094798Y0101045D01*
X0094739Y0101029D01*
X0094680Y0101016D01*
X0094621Y0101007D01*
X0094560Y0101002D01*
X0094500Y0101000D01*
X0087500Y0106000D02*
X0087000Y0106000D01*
X0085000Y0106000D02*
X0084500Y0106000D01*
X0077500Y0126000D02*
X0094500Y0126000D01*
X0094560Y0126002D01*
X0094621Y0126007D01*
X0094680Y0126016D01*
X0094739Y0126029D01*
X0094798Y0126045D01*
X0094855Y0126065D01*
X0094910Y0126088D01*
X0094965Y0126115D01*
X0095017Y0126144D01*
X0095068Y0126177D01*
X0095117Y0126213D01*
X0095163Y0126251D01*
X0095207Y0126293D01*
X0095249Y0126337D01*
X0095287Y0126383D01*
X0095323Y0126432D01*
X0095356Y0126483D01*
X0095385Y0126535D01*
X0095412Y0126590D01*
X0095435Y0126645D01*
X0095455Y0126702D01*
X0095471Y0126761D01*
X0095484Y0126820D01*
X0095493Y0126879D01*
X0095498Y0126940D01*
X0095500Y0127000D01*
X0095500Y0135000D01*
X0095498Y0135060D01*
X0095493Y0135121D01*
X0095484Y0135180D01*
X0095471Y0135239D01*
X0095455Y0135298D01*
X0095435Y0135355D01*
X0095412Y0135410D01*
X0095385Y0135465D01*
X0095356Y0135517D01*
X0095323Y0135568D01*
X0095287Y0135617D01*
X0095249Y0135663D01*
X0095207Y0135707D01*
X0095163Y0135749D01*
X0095117Y0135787D01*
X0095068Y0135823D01*
X0095017Y0135856D01*
X0094965Y0135885D01*
X0094910Y0135912D01*
X0094855Y0135935D01*
X0094798Y0135955D01*
X0094739Y0135971D01*
X0094680Y0135984D01*
X0094621Y0135993D01*
X0094560Y0135998D01*
X0094500Y0136000D01*
X0077500Y0136000D01*
X0077440Y0135998D01*
X0077379Y0135993D01*
X0077320Y0135984D01*
X0077261Y0135971D01*
X0077202Y0135955D01*
X0077145Y0135935D01*
X0077090Y0135912D01*
X0077035Y0135885D01*
X0076983Y0135856D01*
X0076932Y0135823D01*
X0076883Y0135787D01*
X0076837Y0135749D01*
X0076793Y0135707D01*
X0076751Y0135663D01*
X0076713Y0135617D01*
X0076677Y0135568D01*
X0076644Y0135517D01*
X0076615Y0135465D01*
X0076588Y0135410D01*
X0076565Y0135355D01*
X0076545Y0135298D01*
X0076529Y0135239D01*
X0076516Y0135180D01*
X0076507Y0135121D01*
X0076502Y0135060D01*
X0076500Y0135000D01*
X0076500Y0127000D01*
X0076502Y0126940D01*
X0076507Y0126879D01*
X0076516Y0126820D01*
X0076529Y0126761D01*
X0076545Y0126702D01*
X0076565Y0126645D01*
X0076588Y0126590D01*
X0076615Y0126535D01*
X0076644Y0126483D01*
X0076677Y0126432D01*
X0076713Y0126383D01*
X0076751Y0126337D01*
X0076793Y0126293D01*
X0076837Y0126251D01*
X0076883Y0126213D01*
X0076932Y0126177D01*
X0076983Y0126144D01*
X0077035Y0126115D01*
X0077090Y0126088D01*
X0077145Y0126065D01*
X0077202Y0126045D01*
X0077261Y0126029D01*
X0077320Y0126016D01*
X0077379Y0126007D01*
X0077440Y0126002D01*
X0077500Y0126000D01*
X0084500Y0131000D02*
X0085000Y0131000D01*
X0087000Y0131000D02*
X0087500Y0131000D01*
X0084500Y0146000D02*
X0107500Y0146000D01*
X0107500Y0246000D01*
X0100000Y0246000D01*
X0099998Y0245874D01*
X0099992Y0245749D01*
X0099982Y0245624D01*
X0099968Y0245499D01*
X0099951Y0245374D01*
X0099929Y0245250D01*
X0099904Y0245127D01*
X0099874Y0245005D01*
X0099841Y0244884D01*
X0099804Y0244764D01*
X0099764Y0244645D01*
X0099719Y0244528D01*
X0099671Y0244411D01*
X0099619Y0244297D01*
X0099564Y0244184D01*
X0099505Y0244073D01*
X0099443Y0243964D01*
X0099377Y0243857D01*
X0099308Y0243752D01*
X0099236Y0243649D01*
X0099161Y0243548D01*
X0099082Y0243450D01*
X0099000Y0243355D01*
X0098916Y0243262D01*
X0098828Y0243172D01*
X0098738Y0243084D01*
X0098645Y0243000D01*
X0098550Y0242918D01*
X0098452Y0242839D01*
X0098351Y0242764D01*
X0098248Y0242692D01*
X0098143Y0242623D01*
X0098036Y0242557D01*
X0097927Y0242495D01*
X0097816Y0242436D01*
X0097703Y0242381D01*
X0097589Y0242329D01*
X0097472Y0242281D01*
X0097355Y0242236D01*
X0097236Y0242196D01*
X0097116Y0242159D01*
X0096995Y0242126D01*
X0096873Y0242096D01*
X0096750Y0242071D01*
X0096626Y0242049D01*
X0096501Y0242032D01*
X0096376Y0242018D01*
X0096251Y0242008D01*
X0096126Y0242002D01*
X0096000Y0242000D01*
X0095874Y0242002D01*
X0095749Y0242008D01*
X0095624Y0242018D01*
X0095499Y0242032D01*
X0095374Y0242049D01*
X0095250Y0242071D01*
X0095127Y0242096D01*
X0095005Y0242126D01*
X0094884Y0242159D01*
X0094764Y0242196D01*
X0094645Y0242236D01*
X0094528Y0242281D01*
X0094411Y0242329D01*
X0094297Y0242381D01*
X0094184Y0242436D01*
X0094073Y0242495D01*
X0093964Y0242557D01*
X0093857Y0242623D01*
X0093752Y0242692D01*
X0093649Y0242764D01*
X0093548Y0242839D01*
X0093450Y0242918D01*
X0093355Y0243000D01*
X0093262Y0243084D01*
X0093172Y0243172D01*
X0093084Y0243262D01*
X0093000Y0243355D01*
X0092918Y0243450D01*
X0092839Y0243548D01*
X0092764Y0243649D01*
X0092692Y0243752D01*
X0092623Y0243857D01*
X0092557Y0243964D01*
X0092495Y0244073D01*
X0092436Y0244184D01*
X0092381Y0244297D01*
X0092329Y0244411D01*
X0092281Y0244528D01*
X0092236Y0244645D01*
X0092196Y0244764D01*
X0092159Y0244884D01*
X0092126Y0245005D01*
X0092096Y0245127D01*
X0092071Y0245250D01*
X0092049Y0245374D01*
X0092032Y0245499D01*
X0092018Y0245624D01*
X0092008Y0245749D01*
X0092002Y0245874D01*
X0092000Y0246000D01*
X0084500Y0246000D01*
X0084500Y0146000D01*
X0104000Y0060000D02*
X0125500Y0060000D01*
X0125560Y0059998D01*
X0125621Y0059993D01*
X0125680Y0059984D01*
X0125739Y0059971D01*
X0125798Y0059955D01*
X0125855Y0059935D01*
X0125910Y0059912D01*
X0125965Y0059885D01*
X0126017Y0059856D01*
X0126068Y0059823D01*
X0126117Y0059787D01*
X0126163Y0059749D01*
X0126207Y0059707D01*
X0126249Y0059663D01*
X0126287Y0059617D01*
X0126323Y0059568D01*
X0126356Y0059517D01*
X0126385Y0059465D01*
X0126412Y0059410D01*
X0126435Y0059355D01*
X0126455Y0059298D01*
X0126471Y0059239D01*
X0126484Y0059180D01*
X0126493Y0059121D01*
X0126498Y0059060D01*
X0126500Y0059000D01*
X0126500Y0053000D01*
X0126498Y0052940D01*
X0126493Y0052879D01*
X0126484Y0052820D01*
X0126471Y0052761D01*
X0126455Y0052702D01*
X0126435Y0052645D01*
X0126412Y0052590D01*
X0126385Y0052535D01*
X0126356Y0052483D01*
X0126323Y0052432D01*
X0126287Y0052383D01*
X0126249Y0052337D01*
X0126207Y0052293D01*
X0126163Y0052251D01*
X0126117Y0052213D01*
X0126068Y0052177D01*
X0126017Y0052144D01*
X0125965Y0052115D01*
X0125910Y0052088D01*
X0125855Y0052065D01*
X0125798Y0052045D01*
X0125739Y0052029D01*
X0125680Y0052016D01*
X0125621Y0052007D01*
X0125560Y0052002D01*
X0125500Y0052000D01*
X0104000Y0052000D01*
X0104000Y0052500D01*
X0104000Y0059500D01*
X0104000Y0060000D01*
X0104000Y0059500D02*
X0102500Y0059500D01*
X0102500Y0052500D01*
X0104000Y0052500D01*
X0110500Y0056000D02*
X0112500Y0056000D01*
X0112500Y0054000D01*
X0114000Y0054000D02*
X0115500Y0054000D01*
X0115500Y0058000D01*
X0114000Y0058000D01*
X0114000Y0054000D01*
X0112500Y0056000D02*
X0112500Y0058000D01*
X0117000Y0058000D02*
X0117000Y0056000D01*
X0117000Y0054000D01*
X0117000Y0056000D02*
X0119000Y0056000D01*
X0140000Y0032000D02*
X0140000Y0240000D01*
X0161000Y0240000D01*
X0161002Y0239860D01*
X0161008Y0239720D01*
X0161018Y0239580D01*
X0161031Y0239440D01*
X0161049Y0239301D01*
X0161071Y0239162D01*
X0161096Y0239025D01*
X0161125Y0238887D01*
X0161158Y0238751D01*
X0161195Y0238616D01*
X0161236Y0238482D01*
X0161281Y0238349D01*
X0161329Y0238217D01*
X0161381Y0238087D01*
X0161436Y0237958D01*
X0161495Y0237831D01*
X0161558Y0237705D01*
X0161624Y0237581D01*
X0161693Y0237460D01*
X0161766Y0237340D01*
X0161843Y0237222D01*
X0161922Y0237107D01*
X0162005Y0236993D01*
X0162091Y0236883D01*
X0162180Y0236774D01*
X0162272Y0236668D01*
X0162367Y0236565D01*
X0162464Y0236464D01*
X0162565Y0236367D01*
X0162668Y0236272D01*
X0162774Y0236180D01*
X0162883Y0236091D01*
X0162993Y0236005D01*
X0163107Y0235922D01*
X0163222Y0235843D01*
X0163340Y0235766D01*
X0163460Y0235693D01*
X0163581Y0235624D01*
X0163705Y0235558D01*
X0163831Y0235495D01*
X0163958Y0235436D01*
X0164087Y0235381D01*
X0164217Y0235329D01*
X0164349Y0235281D01*
X0164482Y0235236D01*
X0164616Y0235195D01*
X0164751Y0235158D01*
X0164887Y0235125D01*
X0165025Y0235096D01*
X0165162Y0235071D01*
X0165301Y0235049D01*
X0165440Y0235031D01*
X0165580Y0235018D01*
X0165720Y0235008D01*
X0165860Y0235002D01*
X0166000Y0235000D01*
X0166140Y0235002D01*
X0166280Y0235008D01*
X0166420Y0235018D01*
X0166560Y0235031D01*
X0166699Y0235049D01*
X0166838Y0235071D01*
X0166975Y0235096D01*
X0167113Y0235125D01*
X0167249Y0235158D01*
X0167384Y0235195D01*
X0167518Y0235236D01*
X0167651Y0235281D01*
X0167783Y0235329D01*
X0167913Y0235381D01*
X0168042Y0235436D01*
X0168169Y0235495D01*
X0168295Y0235558D01*
X0168419Y0235624D01*
X0168540Y0235693D01*
X0168660Y0235766D01*
X0168778Y0235843D01*
X0168893Y0235922D01*
X0169007Y0236005D01*
X0169117Y0236091D01*
X0169226Y0236180D01*
X0169332Y0236272D01*
X0169435Y0236367D01*
X0169536Y0236464D01*
X0169633Y0236565D01*
X0169728Y0236668D01*
X0169820Y0236774D01*
X0169909Y0236883D01*
X0169995Y0236993D01*
X0170078Y0237107D01*
X0170157Y0237222D01*
X0170234Y0237340D01*
X0170307Y0237460D01*
X0170376Y0237581D01*
X0170442Y0237705D01*
X0170505Y0237831D01*
X0170564Y0237958D01*
X0170619Y0238087D01*
X0170671Y0238217D01*
X0170719Y0238349D01*
X0170764Y0238482D01*
X0170805Y0238616D01*
X0170842Y0238751D01*
X0170875Y0238887D01*
X0170904Y0239025D01*
X0170929Y0239162D01*
X0170951Y0239301D01*
X0170969Y0239440D01*
X0170982Y0239580D01*
X0170992Y0239720D01*
X0170998Y0239860D01*
X0171000Y0240000D01*
X0192000Y0240000D01*
X0192000Y0032000D01*
X0140000Y0032000D01*
X0238000Y0038000D02*
X0239000Y0038000D01*
X0239000Y0037000D01*
X0238000Y0038000D02*
X0238000Y0044000D01*
X0239000Y0044000D01*
X0239000Y0045000D01*
X0242500Y0053000D02*
X0246500Y0053000D01*
X0256000Y0053000D01*
X0259500Y0053000D01*
X0263000Y0045000D02*
X0263000Y0044000D01*
X0264000Y0044000D01*
X0264000Y0038000D01*
X0263000Y0038000D01*
X0263000Y0037000D01*
X0259500Y0029000D02*
X0256000Y0029000D01*
X0246000Y0029000D01*
X0242500Y0029000D01*
X0250000Y0041000D02*
X0250002Y0041063D01*
X0250008Y0041125D01*
X0250018Y0041187D01*
X0250031Y0041249D01*
X0250049Y0041309D01*
X0250070Y0041368D01*
X0250095Y0041426D01*
X0250124Y0041482D01*
X0250156Y0041536D01*
X0250191Y0041588D01*
X0250229Y0041637D01*
X0250271Y0041685D01*
X0250315Y0041729D01*
X0250363Y0041771D01*
X0250412Y0041809D01*
X0250464Y0041844D01*
X0250518Y0041876D01*
X0250574Y0041905D01*
X0250632Y0041930D01*
X0250691Y0041951D01*
X0250751Y0041969D01*
X0250813Y0041982D01*
X0250875Y0041992D01*
X0250937Y0041998D01*
X0251000Y0042000D01*
X0251063Y0041998D01*
X0251125Y0041992D01*
X0251187Y0041982D01*
X0251249Y0041969D01*
X0251309Y0041951D01*
X0251368Y0041930D01*
X0251426Y0041905D01*
X0251482Y0041876D01*
X0251536Y0041844D01*
X0251588Y0041809D01*
X0251637Y0041771D01*
X0251685Y0041729D01*
X0251729Y0041685D01*
X0251771Y0041637D01*
X0251809Y0041588D01*
X0251844Y0041536D01*
X0251876Y0041482D01*
X0251905Y0041426D01*
X0251930Y0041368D01*
X0251951Y0041309D01*
X0251969Y0041249D01*
X0251982Y0041187D01*
X0251992Y0041125D01*
X0251998Y0041063D01*
X0252000Y0041000D01*
X0251998Y0040937D01*
X0251992Y0040875D01*
X0251982Y0040813D01*
X0251969Y0040751D01*
X0251951Y0040691D01*
X0251930Y0040632D01*
X0251905Y0040574D01*
X0251876Y0040518D01*
X0251844Y0040464D01*
X0251809Y0040412D01*
X0251771Y0040363D01*
X0251729Y0040315D01*
X0251685Y0040271D01*
X0251637Y0040229D01*
X0251588Y0040191D01*
X0251536Y0040156D01*
X0251482Y0040124D01*
X0251426Y0040095D01*
X0251368Y0040070D01*
X0251309Y0040049D01*
X0251249Y0040031D01*
X0251187Y0040018D01*
X0251125Y0040008D01*
X0251063Y0040002D01*
X0251000Y0040000D01*
X0250937Y0040002D01*
X0250875Y0040008D01*
X0250813Y0040018D01*
X0250751Y0040031D01*
X0250691Y0040049D01*
X0250632Y0040070D01*
X0250574Y0040095D01*
X0250518Y0040124D01*
X0250464Y0040156D01*
X0250412Y0040191D01*
X0250363Y0040229D01*
X0250315Y0040271D01*
X0250271Y0040315D01*
X0250229Y0040363D01*
X0250191Y0040412D01*
X0250156Y0040464D01*
X0250124Y0040518D01*
X0250095Y0040574D01*
X0250070Y0040632D01*
X0250049Y0040691D01*
X0250031Y0040751D01*
X0250018Y0040813D01*
X0250008Y0040875D01*
X0250002Y0040937D01*
X0250000Y0041000D01*
X0244000Y0041000D02*
X0244002Y0041172D01*
X0244008Y0041343D01*
X0244019Y0041515D01*
X0244034Y0041686D01*
X0244053Y0041857D01*
X0244076Y0042027D01*
X0244103Y0042197D01*
X0244135Y0042366D01*
X0244170Y0042534D01*
X0244210Y0042701D01*
X0244254Y0042867D01*
X0244301Y0043032D01*
X0244353Y0043196D01*
X0244409Y0043358D01*
X0244469Y0043519D01*
X0244533Y0043679D01*
X0244601Y0043837D01*
X0244672Y0043993D01*
X0244747Y0044147D01*
X0244827Y0044300D01*
X0244909Y0044450D01*
X0244996Y0044599D01*
X0245086Y0044745D01*
X0245180Y0044889D01*
X0245277Y0045031D01*
X0245378Y0045170D01*
X0245482Y0045307D01*
X0245589Y0045441D01*
X0245700Y0045572D01*
X0245813Y0045701D01*
X0245930Y0045827D01*
X0246050Y0045950D01*
X0246173Y0046070D01*
X0246299Y0046187D01*
X0246428Y0046300D01*
X0246559Y0046411D01*
X0246693Y0046518D01*
X0246830Y0046622D01*
X0246969Y0046723D01*
X0247111Y0046820D01*
X0247255Y0046914D01*
X0247401Y0047004D01*
X0247550Y0047091D01*
X0247700Y0047173D01*
X0247853Y0047253D01*
X0248007Y0047328D01*
X0248163Y0047399D01*
X0248321Y0047467D01*
X0248481Y0047531D01*
X0248642Y0047591D01*
X0248804Y0047647D01*
X0248968Y0047699D01*
X0249133Y0047746D01*
X0249299Y0047790D01*
X0249466Y0047830D01*
X0249634Y0047865D01*
X0249803Y0047897D01*
X0249973Y0047924D01*
X0250143Y0047947D01*
X0250314Y0047966D01*
X0250485Y0047981D01*
X0250657Y0047992D01*
X0250828Y0047998D01*
X0251000Y0048000D01*
X0251172Y0047998D01*
X0251343Y0047992D01*
X0251515Y0047981D01*
X0251686Y0047966D01*
X0251857Y0047947D01*
X0252027Y0047924D01*
X0252197Y0047897D01*
X0252366Y0047865D01*
X0252534Y0047830D01*
X0252701Y0047790D01*
X0252867Y0047746D01*
X0253032Y0047699D01*
X0253196Y0047647D01*
X0253358Y0047591D01*
X0253519Y0047531D01*
X0253679Y0047467D01*
X0253837Y0047399D01*
X0253993Y0047328D01*
X0254147Y0047253D01*
X0254300Y0047173D01*
X0254450Y0047091D01*
X0254599Y0047004D01*
X0254745Y0046914D01*
X0254889Y0046820D01*
X0255031Y0046723D01*
X0255170Y0046622D01*
X0255307Y0046518D01*
X0255441Y0046411D01*
X0255572Y0046300D01*
X0255701Y0046187D01*
X0255827Y0046070D01*
X0255950Y0045950D01*
X0256070Y0045827D01*
X0256187Y0045701D01*
X0256300Y0045572D01*
X0256411Y0045441D01*
X0256518Y0045307D01*
X0256622Y0045170D01*
X0256723Y0045031D01*
X0256820Y0044889D01*
X0256914Y0044745D01*
X0257004Y0044599D01*
X0257091Y0044450D01*
X0257173Y0044300D01*
X0257253Y0044147D01*
X0257328Y0043993D01*
X0257399Y0043837D01*
X0257467Y0043679D01*
X0257531Y0043519D01*
X0257591Y0043358D01*
X0257647Y0043196D01*
X0257699Y0043032D01*
X0257746Y0042867D01*
X0257790Y0042701D01*
X0257830Y0042534D01*
X0257865Y0042366D01*
X0257897Y0042197D01*
X0257924Y0042027D01*
X0257947Y0041857D01*
X0257966Y0041686D01*
X0257981Y0041515D01*
X0257992Y0041343D01*
X0257998Y0041172D01*
X0258000Y0041000D01*
X0257998Y0040828D01*
X0257992Y0040657D01*
X0257981Y0040485D01*
X0257966Y0040314D01*
X0257947Y0040143D01*
X0257924Y0039973D01*
X0257897Y0039803D01*
X0257865Y0039634D01*
X0257830Y0039466D01*
X0257790Y0039299D01*
X0257746Y0039133D01*
X0257699Y0038968D01*
X0257647Y0038804D01*
X0257591Y0038642D01*
X0257531Y0038481D01*
X0257467Y0038321D01*
X0257399Y0038163D01*
X0257328Y0038007D01*
X0257253Y0037853D01*
X0257173Y0037700D01*
X0257091Y0037550D01*
X0257004Y0037401D01*
X0256914Y0037255D01*
X0256820Y0037111D01*
X0256723Y0036969D01*
X0256622Y0036830D01*
X0256518Y0036693D01*
X0256411Y0036559D01*
X0256300Y0036428D01*
X0256187Y0036299D01*
X0256070Y0036173D01*
X0255950Y0036050D01*
X0255827Y0035930D01*
X0255701Y0035813D01*
X0255572Y0035700D01*
X0255441Y0035589D01*
X0255307Y0035482D01*
X0255170Y0035378D01*
X0255031Y0035277D01*
X0254889Y0035180D01*
X0254745Y0035086D01*
X0254599Y0034996D01*
X0254450Y0034909D01*
X0254300Y0034827D01*
X0254147Y0034747D01*
X0253993Y0034672D01*
X0253837Y0034601D01*
X0253679Y0034533D01*
X0253519Y0034469D01*
X0253358Y0034409D01*
X0253196Y0034353D01*
X0253032Y0034301D01*
X0252867Y0034254D01*
X0252701Y0034210D01*
X0252534Y0034170D01*
X0252366Y0034135D01*
X0252197Y0034103D01*
X0252027Y0034076D01*
X0251857Y0034053D01*
X0251686Y0034034D01*
X0251515Y0034019D01*
X0251343Y0034008D01*
X0251172Y0034002D01*
X0251000Y0034000D01*
X0250828Y0034002D01*
X0250657Y0034008D01*
X0250485Y0034019D01*
X0250314Y0034034D01*
X0250143Y0034053D01*
X0249973Y0034076D01*
X0249803Y0034103D01*
X0249634Y0034135D01*
X0249466Y0034170D01*
X0249299Y0034210D01*
X0249133Y0034254D01*
X0248968Y0034301D01*
X0248804Y0034353D01*
X0248642Y0034409D01*
X0248481Y0034469D01*
X0248321Y0034533D01*
X0248163Y0034601D01*
X0248007Y0034672D01*
X0247853Y0034747D01*
X0247700Y0034827D01*
X0247550Y0034909D01*
X0247401Y0034996D01*
X0247255Y0035086D01*
X0247111Y0035180D01*
X0246969Y0035277D01*
X0246830Y0035378D01*
X0246693Y0035482D01*
X0246559Y0035589D01*
X0246428Y0035700D01*
X0246299Y0035813D01*
X0246173Y0035930D01*
X0246050Y0036050D01*
X0245930Y0036173D01*
X0245813Y0036299D01*
X0245700Y0036428D01*
X0245589Y0036559D01*
X0245482Y0036693D01*
X0245378Y0036830D01*
X0245277Y0036969D01*
X0245180Y0037111D01*
X0245086Y0037255D01*
X0244996Y0037401D01*
X0244909Y0037550D01*
X0244827Y0037700D01*
X0244747Y0037853D01*
X0244672Y0038007D01*
X0244601Y0038163D01*
X0244533Y0038321D01*
X0244469Y0038481D01*
X0244409Y0038642D01*
X0244353Y0038804D01*
X0244301Y0038968D01*
X0244254Y0039133D01*
X0244210Y0039299D01*
X0244170Y0039466D01*
X0244135Y0039634D01*
X0244103Y0039803D01*
X0244076Y0039973D01*
X0244053Y0040143D01*
X0244034Y0040314D01*
X0244019Y0040485D01*
X0244008Y0040657D01*
X0244002Y0040828D01*
X0244000Y0041000D01*
X0251500Y0100000D02*
X0251500Y0101000D01*
X0250500Y0101000D01*
X0251500Y0101000D02*
X0251500Y0102000D01*
X0251500Y0101000D02*
X0252500Y0101000D01*
X0236000Y0106000D02*
X0236003Y0106245D01*
X0236012Y0106491D01*
X0236027Y0106736D01*
X0236048Y0106980D01*
X0236075Y0107224D01*
X0236108Y0107467D01*
X0236147Y0107710D01*
X0236192Y0107951D01*
X0236243Y0108191D01*
X0236300Y0108430D01*
X0236362Y0108667D01*
X0236431Y0108903D01*
X0236505Y0109137D01*
X0236585Y0109369D01*
X0236670Y0109599D01*
X0236761Y0109827D01*
X0236858Y0110052D01*
X0236960Y0110276D01*
X0237068Y0110496D01*
X0237181Y0110714D01*
X0237299Y0110929D01*
X0237423Y0111141D01*
X0237551Y0111350D01*
X0237685Y0111556D01*
X0237824Y0111758D01*
X0237968Y0111957D01*
X0238117Y0112152D01*
X0238270Y0112344D01*
X0238428Y0112532D01*
X0238590Y0112716D01*
X0238758Y0112895D01*
X0238929Y0113071D01*
X0239105Y0113242D01*
X0239284Y0113410D01*
X0239468Y0113572D01*
X0239656Y0113730D01*
X0239848Y0113883D01*
X0240043Y0114032D01*
X0240242Y0114176D01*
X0240444Y0114315D01*
X0240650Y0114449D01*
X0240859Y0114577D01*
X0241071Y0114701D01*
X0241286Y0114819D01*
X0241504Y0114932D01*
X0241724Y0115040D01*
X0241948Y0115142D01*
X0242173Y0115239D01*
X0242401Y0115330D01*
X0242631Y0115415D01*
X0242863Y0115495D01*
X0243097Y0115569D01*
X0243333Y0115638D01*
X0243570Y0115700D01*
X0243809Y0115757D01*
X0244049Y0115808D01*
X0244290Y0115853D01*
X0244533Y0115892D01*
X0244776Y0115925D01*
X0245020Y0115952D01*
X0245264Y0115973D01*
X0245509Y0115988D01*
X0245755Y0115997D01*
X0246000Y0116000D01*
X0246245Y0115997D01*
X0246491Y0115988D01*
X0246736Y0115973D01*
X0246980Y0115952D01*
X0247224Y0115925D01*
X0247467Y0115892D01*
X0247710Y0115853D01*
X0247951Y0115808D01*
X0248191Y0115757D01*
X0248430Y0115700D01*
X0248667Y0115638D01*
X0248903Y0115569D01*
X0249137Y0115495D01*
X0249369Y0115415D01*
X0249599Y0115330D01*
X0249827Y0115239D01*
X0250052Y0115142D01*
X0250276Y0115040D01*
X0250496Y0114932D01*
X0250714Y0114819D01*
X0250929Y0114701D01*
X0251141Y0114577D01*
X0251350Y0114449D01*
X0251556Y0114315D01*
X0251758Y0114176D01*
X0251957Y0114032D01*
X0252152Y0113883D01*
X0252344Y0113730D01*
X0252532Y0113572D01*
X0252716Y0113410D01*
X0252895Y0113242D01*
X0253071Y0113071D01*
X0253242Y0112895D01*
X0253410Y0112716D01*
X0253572Y0112532D01*
X0253730Y0112344D01*
X0253883Y0112152D01*
X0254032Y0111957D01*
X0254176Y0111758D01*
X0254315Y0111556D01*
X0254449Y0111350D01*
X0254577Y0111141D01*
X0254701Y0110929D01*
X0254819Y0110714D01*
X0254932Y0110496D01*
X0255040Y0110276D01*
X0255142Y0110052D01*
X0255239Y0109827D01*
X0255330Y0109599D01*
X0255415Y0109369D01*
X0255495Y0109137D01*
X0255569Y0108903D01*
X0255638Y0108667D01*
X0255700Y0108430D01*
X0255757Y0108191D01*
X0255808Y0107951D01*
X0255853Y0107710D01*
X0255892Y0107467D01*
X0255925Y0107224D01*
X0255952Y0106980D01*
X0255973Y0106736D01*
X0255988Y0106491D01*
X0255997Y0106245D01*
X0256000Y0106000D01*
X0255997Y0105755D01*
X0255988Y0105509D01*
X0255973Y0105264D01*
X0255952Y0105020D01*
X0255925Y0104776D01*
X0255892Y0104533D01*
X0255853Y0104290D01*
X0255808Y0104049D01*
X0255757Y0103809D01*
X0255700Y0103570D01*
X0255638Y0103333D01*
X0255569Y0103097D01*
X0255495Y0102863D01*
X0255415Y0102631D01*
X0255330Y0102401D01*
X0255239Y0102173D01*
X0255142Y0101948D01*
X0255040Y0101724D01*
X0254932Y0101504D01*
X0254819Y0101286D01*
X0254701Y0101071D01*
X0254577Y0100859D01*
X0254449Y0100650D01*
X0254315Y0100444D01*
X0254176Y0100242D01*
X0254032Y0100043D01*
X0253883Y0099848D01*
X0253730Y0099656D01*
X0253572Y0099468D01*
X0253410Y0099284D01*
X0253242Y0099105D01*
X0253071Y0098929D01*
X0252895Y0098758D01*
X0252716Y0098590D01*
X0252532Y0098428D01*
X0252344Y0098270D01*
X0252152Y0098117D01*
X0251957Y0097968D01*
X0251758Y0097824D01*
X0251556Y0097685D01*
X0251350Y0097551D01*
X0251141Y0097423D01*
X0250929Y0097299D01*
X0250714Y0097181D01*
X0250496Y0097068D01*
X0250276Y0096960D01*
X0250052Y0096858D01*
X0249827Y0096761D01*
X0249599Y0096670D01*
X0249369Y0096585D01*
X0249137Y0096505D01*
X0248903Y0096431D01*
X0248667Y0096362D01*
X0248430Y0096300D01*
X0248191Y0096243D01*
X0247951Y0096192D01*
X0247710Y0096147D01*
X0247467Y0096108D01*
X0247224Y0096075D01*
X0246980Y0096048D01*
X0246736Y0096027D01*
X0246491Y0096012D01*
X0246245Y0096003D01*
X0246000Y0096000D01*
X0245755Y0096003D01*
X0245509Y0096012D01*
X0245264Y0096027D01*
X0245020Y0096048D01*
X0244776Y0096075D01*
X0244533Y0096108D01*
X0244290Y0096147D01*
X0244049Y0096192D01*
X0243809Y0096243D01*
X0243570Y0096300D01*
X0243333Y0096362D01*
X0243097Y0096431D01*
X0242863Y0096505D01*
X0242631Y0096585D01*
X0242401Y0096670D01*
X0242173Y0096761D01*
X0241948Y0096858D01*
X0241724Y0096960D01*
X0241504Y0097068D01*
X0241286Y0097181D01*
X0241071Y0097299D01*
X0240859Y0097423D01*
X0240650Y0097551D01*
X0240444Y0097685D01*
X0240242Y0097824D01*
X0240043Y0097968D01*
X0239848Y0098117D01*
X0239656Y0098270D01*
X0239468Y0098428D01*
X0239284Y0098590D01*
X0239105Y0098758D01*
X0238929Y0098929D01*
X0238758Y0099105D01*
X0238590Y0099284D01*
X0238428Y0099468D01*
X0238270Y0099656D01*
X0238117Y0099848D01*
X0237968Y0100043D01*
X0237824Y0100242D01*
X0237685Y0100444D01*
X0237551Y0100650D01*
X0237423Y0100859D01*
X0237299Y0101071D01*
X0237181Y0101286D01*
X0237068Y0101504D01*
X0236960Y0101724D01*
X0236858Y0101948D01*
X0236761Y0102173D01*
X0236670Y0102401D01*
X0236585Y0102631D01*
X0236505Y0102863D01*
X0236431Y0103097D01*
X0236362Y0103333D01*
X0236300Y0103570D01*
X0236243Y0103809D01*
X0236192Y0104049D01*
X0236147Y0104290D01*
X0236108Y0104533D01*
X0236075Y0104776D01*
X0236048Y0105020D01*
X0236027Y0105264D01*
X0236012Y0105509D01*
X0236003Y0105755D01*
X0236000Y0106000D01*
X0148500Y0252500D02*
X0123500Y0252500D01*
X0122500Y0253500D01*
X0122500Y0267000D01*
X0122500Y0272000D02*
X0122500Y0278500D01*
X0123500Y0279500D01*
X0146000Y0279500D01*
X0146000Y0278000D01*
X0126000Y0278000D01*
X0126000Y0279500D01*
X0130000Y0266000D02*
X0130000Y0263000D01*
X0133000Y0263000D01*
X0134500Y0261500D01*
X0134500Y0260000D01*
X0134500Y0257000D01*
X0137500Y0257000D01*
X0137500Y0260000D01*
X0137500Y0261500D01*
X0139000Y0263000D01*
X0142000Y0263000D01*
X0142000Y0266000D01*
X0139000Y0266000D01*
X0137500Y0260000D02*
X0134500Y0260000D01*
X0133000Y0266000D02*
X0130000Y0266000D01*
X0149500Y0267000D02*
X0149500Y0253500D01*
X0148500Y0252500D01*
X0149500Y0272000D02*
X0149500Y0278500D01*
X0148500Y0279500D01*
X0146000Y0279500D01*
D11*
X0087000Y0134000D02*
X0087000Y0131000D01*
X0087000Y0128000D01*
X0085000Y0128000D02*
X0085000Y0131000D01*
X0085000Y0134000D01*
X0085000Y0109000D02*
X0085000Y0106000D01*
X0085000Y0103000D01*
X0087000Y0103000D02*
X0087000Y0106000D01*
X0087000Y0109000D01*
X0087000Y0084000D02*
X0087000Y0081000D01*
X0087000Y0078000D01*
X0085000Y0078000D02*
X0085000Y0081000D01*
X0085000Y0084000D01*
D12*
X0245606Y0136000D03*
X0245606Y0151000D03*
X0245606Y0166000D03*
X0245606Y0181000D03*
X0245606Y0196000D03*
X0245606Y0211000D03*
X0245606Y0226000D03*
X0245606Y0236000D03*
D13*
X0101000Y0058000D02*
X0099000Y0058000D01*
X0099000Y0054000D02*
X0100500Y0054000D01*
D14*
X0101150Y0054000D03*
X0101150Y0058000D03*
D15*
X0136000Y0253800D02*
X0136000Y0255300D01*
X0129000Y0258000D02*
X0128000Y0257000D01*
X0126600Y0264500D02*
X0125100Y0264500D01*
X0143500Y0258000D02*
X0144500Y0257000D01*
X0145400Y0264500D02*
X0146900Y0264500D01*
D16*
X0146860Y0273350D02*
X0145726Y0273350D01*
X0145159Y0273917D01*
X0146293Y0275051D02*
X0146860Y0275051D01*
X0147428Y0274484D01*
X0147428Y0273917D01*
X0146860Y0273350D01*
X0146860Y0275051D02*
X0147428Y0275619D01*
X0147428Y0276186D01*
X0146860Y0276753D01*
X0145726Y0276753D01*
X0145159Y0276186D01*
X0125428Y0273350D02*
X0123159Y0273350D01*
X0124293Y0273350D02*
X0124293Y0276753D01*
X0123159Y0275619D01*
D17*
X0246500Y0053000D02*
X0246500Y0052000D01*
X0256000Y0052000D01*
X0256000Y0053000D01*
X0256000Y0030000D02*
X0246000Y0030000D01*
X0246000Y0029000D01*
X0256000Y0029000D02*
X0256000Y0030000D01*
M02*
