G75*
%MOIN*%
%OFA0B0*%
%FSLAX25Y25*%
%IPPOS*%
%LPD*%
%AMOC8*
5,1,8,0,0,1.08239X$1,22.5*
%
%ADD10OC8,0.05200*%
%ADD11OC8,0.06300*%
%ADD12C,0.06300*%
%ADD13C,0.05200*%
%ADD14C,0.05200*%
%ADD15C,0.06000*%
%ADD16C,0.01600*%
%ADD17R,0.05315X0.05315*%
D10*
X0081000Y0081000D03*
X0091000Y0081000D03*
X0091000Y0106000D03*
X0081000Y0106000D03*
X0081000Y0131000D03*
X0091000Y0131000D03*
D11*
X0241000Y0106000D03*
D12*
X0251000Y0106000D03*
D13*
X0198600Y0101000D02*
X0193400Y0101000D01*
X0193400Y0091000D02*
X0198600Y0091000D01*
X0198600Y0081000D02*
X0193400Y0081000D01*
X0193400Y0071000D02*
X0198600Y0071000D01*
X0198600Y0061000D02*
X0193400Y0061000D01*
X0193400Y0051000D02*
X0198600Y0051000D01*
X0198600Y0041000D02*
X0193400Y0041000D01*
X0138600Y0041000D02*
X0133400Y0041000D01*
X0133400Y0051000D02*
X0138600Y0051000D01*
X0138600Y0061000D02*
X0133400Y0061000D01*
X0133400Y0071000D02*
X0138600Y0071000D01*
X0138600Y0081000D02*
X0133400Y0081000D01*
X0133400Y0091000D02*
X0138600Y0091000D01*
X0138600Y0101000D02*
X0133400Y0101000D01*
X0133400Y0111000D02*
X0138600Y0111000D01*
X0138600Y0121000D02*
X0133400Y0121000D01*
X0133400Y0131000D02*
X0138600Y0131000D01*
X0138600Y0141000D02*
X0133400Y0141000D01*
X0133400Y0151000D02*
X0138600Y0151000D01*
X0138600Y0161000D02*
X0133400Y0161000D01*
X0133400Y0171000D02*
X0138600Y0171000D01*
X0138600Y0181000D02*
X0133400Y0181000D01*
X0133400Y0191000D02*
X0138600Y0191000D01*
X0138600Y0201000D02*
X0133400Y0201000D01*
X0133400Y0211000D02*
X0138600Y0211000D01*
X0138600Y0221000D02*
X0133400Y0221000D01*
X0133400Y0231000D02*
X0138600Y0231000D01*
X0113600Y0231000D02*
X0108400Y0231000D01*
X0108400Y0221000D02*
X0113600Y0221000D01*
X0113600Y0211000D02*
X0108400Y0211000D01*
X0108400Y0201000D02*
X0113600Y0201000D01*
X0113600Y0191000D02*
X0108400Y0191000D01*
X0108400Y0181000D02*
X0113600Y0181000D01*
X0113600Y0171000D02*
X0108400Y0171000D01*
X0108400Y0161000D02*
X0113600Y0161000D01*
X0113600Y0151000D02*
X0108400Y0151000D01*
X0083600Y0151000D02*
X0078400Y0151000D01*
X0078400Y0161000D02*
X0083600Y0161000D01*
X0083600Y0171000D02*
X0078400Y0171000D01*
X0078400Y0181000D02*
X0083600Y0181000D01*
X0083600Y0191000D02*
X0078400Y0191000D01*
X0078400Y0201000D02*
X0083600Y0201000D01*
X0083600Y0211000D02*
X0078400Y0211000D01*
X0078400Y0221000D02*
X0083600Y0221000D01*
X0083600Y0231000D02*
X0078400Y0231000D01*
X0078400Y0241000D02*
X0083600Y0241000D01*
X0108400Y0241000D02*
X0113600Y0241000D01*
X0126000Y0266900D02*
X0126000Y0272100D01*
X0136000Y0272100D02*
X0136000Y0266900D01*
X0146000Y0266900D02*
X0146000Y0272100D01*
X0193400Y0231000D02*
X0198600Y0231000D01*
X0198600Y0221000D02*
X0193400Y0221000D01*
X0193400Y0211000D02*
X0198600Y0211000D01*
X0198600Y0201000D02*
X0193400Y0201000D01*
X0193400Y0191000D02*
X0198600Y0191000D01*
X0198600Y0181000D02*
X0193400Y0181000D01*
X0193400Y0171000D02*
X0198600Y0171000D01*
X0198600Y0161000D02*
X0193400Y0161000D01*
X0193400Y0151000D02*
X0198600Y0151000D01*
X0198600Y0141000D02*
X0193400Y0141000D01*
X0193400Y0131000D02*
X0198600Y0131000D01*
X0198600Y0121000D02*
X0193400Y0121000D01*
X0193400Y0111000D02*
X0198600Y0111000D01*
D14*
X0096000Y0061000D03*
X0096000Y0051000D03*
D15*
X0235200Y0049900D02*
X0241200Y0049900D01*
X0241200Y0032100D02*
X0235200Y0032100D01*
X0260800Y0032100D02*
X0266800Y0032100D01*
X0266800Y0049900D02*
X0260800Y0049900D01*
D16*
X0051000Y0021000D02*
X0051000Y0301000D01*
X0341000Y0301000D01*
X0341000Y0021000D01*
X0051000Y0021000D01*
X0051000Y0021781D02*
X0341000Y0021781D01*
X0341000Y0023379D02*
X0051000Y0023379D01*
X0051000Y0024978D02*
X0341000Y0024978D01*
X0341000Y0026576D02*
X0051000Y0026576D01*
X0051000Y0028175D02*
X0232656Y0028175D01*
X0232594Y0028200D02*
X0234285Y0027500D01*
X0242115Y0027500D01*
X0243806Y0028200D01*
X0245100Y0029494D01*
X0245800Y0031185D01*
X0245800Y0033015D01*
X0245100Y0034706D01*
X0243806Y0036000D01*
X0242115Y0036700D01*
X0234285Y0036700D01*
X0232594Y0036000D01*
X0231300Y0034706D01*
X0230600Y0033015D01*
X0230600Y0031185D01*
X0231300Y0029494D01*
X0232594Y0028200D01*
X0231185Y0029773D02*
X0051000Y0029773D01*
X0051000Y0031372D02*
X0230600Y0031372D01*
X0230600Y0032970D02*
X0051000Y0032970D01*
X0051000Y0034569D02*
X0231244Y0034569D01*
X0232999Y0036167D02*
X0051000Y0036167D01*
X0051000Y0037766D02*
X0130412Y0037766D01*
X0130534Y0037644D02*
X0131094Y0037237D01*
X0131711Y0036922D01*
X0132370Y0036708D01*
X0133054Y0036600D01*
X0136000Y0036600D01*
X0138946Y0036600D01*
X0139630Y0036708D01*
X0140289Y0036922D01*
X0140906Y0037237D01*
X0141466Y0037644D01*
X0141956Y0038134D01*
X0142363Y0038694D01*
X0142678Y0039311D01*
X0142892Y0039970D01*
X0143000Y0040654D01*
X0143000Y0041000D01*
X0143000Y0041346D01*
X0142892Y0042030D01*
X0142678Y0042689D01*
X0142363Y0043306D01*
X0141956Y0043866D01*
X0141466Y0044356D01*
X0140906Y0044763D01*
X0140289Y0045078D01*
X0139630Y0045292D01*
X0138946Y0045400D01*
X0136000Y0045400D01*
X0136000Y0041000D01*
X0096000Y0041000D01*
X0081000Y0056000D01*
X0081000Y0081000D01*
X0081000Y0106000D01*
X0081000Y0131000D01*
X0081000Y0151000D01*
X0081000Y0151000D01*
X0081000Y0155400D01*
X0083946Y0155400D01*
X0084630Y0155292D01*
X0085289Y0155078D01*
X0085906Y0154763D01*
X0086466Y0154356D01*
X0086956Y0153866D01*
X0087363Y0153306D01*
X0087678Y0152689D01*
X0087892Y0152030D01*
X0088000Y0151346D01*
X0088000Y0151000D01*
X0081000Y0151000D01*
X0081000Y0151000D01*
X0081000Y0146600D01*
X0083946Y0146600D01*
X0084630Y0146708D01*
X0085289Y0146922D01*
X0085906Y0147237D01*
X0086466Y0147644D01*
X0086956Y0148134D01*
X0087363Y0148694D01*
X0087678Y0149311D01*
X0087892Y0149970D01*
X0088000Y0150654D01*
X0088000Y0151000D01*
X0081000Y0151000D01*
X0081000Y0151000D01*
X0081000Y0151000D01*
X0074000Y0151000D01*
X0074000Y0151346D01*
X0074108Y0152030D01*
X0074322Y0152689D01*
X0074637Y0153306D01*
X0075044Y0153866D01*
X0075534Y0154356D01*
X0076094Y0154763D01*
X0076711Y0155078D01*
X0077370Y0155292D01*
X0078054Y0155400D01*
X0081000Y0155400D01*
X0081000Y0151000D01*
X0081000Y0146600D01*
X0078054Y0146600D01*
X0077370Y0146708D01*
X0076711Y0146922D01*
X0076094Y0147237D01*
X0075534Y0147644D01*
X0075044Y0148134D01*
X0074637Y0148694D01*
X0074322Y0149311D01*
X0074108Y0149970D01*
X0074000Y0150654D01*
X0074000Y0151000D01*
X0081000Y0151000D01*
X0081000Y0151260D02*
X0081000Y0151260D01*
X0081000Y0149662D02*
X0081000Y0149662D01*
X0081000Y0148063D02*
X0081000Y0148063D01*
X0086886Y0148063D02*
X0105397Y0148063D01*
X0104839Y0148621D02*
X0106021Y0147439D01*
X0107565Y0146800D01*
X0114435Y0146800D01*
X0115979Y0147439D01*
X0117140Y0148600D01*
X0126477Y0148600D01*
X0127359Y0148965D01*
X0128035Y0149641D01*
X0129200Y0150806D01*
X0129200Y0150165D01*
X0129839Y0148621D01*
X0131021Y0147439D01*
X0132565Y0146800D01*
X0139435Y0146800D01*
X0140979Y0147439D01*
X0142161Y0148621D01*
X0142800Y0150165D01*
X0142800Y0151835D01*
X0142161Y0153379D01*
X0140979Y0154561D01*
X0139435Y0155200D01*
X0133594Y0155200D01*
X0135194Y0156800D01*
X0139435Y0156800D01*
X0140979Y0157439D01*
X0142161Y0158621D01*
X0142800Y0160165D01*
X0142800Y0161835D01*
X0142161Y0163379D01*
X0140979Y0164561D01*
X0139435Y0165200D01*
X0133594Y0165200D01*
X0135194Y0166800D01*
X0139435Y0166800D01*
X0140979Y0167439D01*
X0142161Y0168621D01*
X0142800Y0170165D01*
X0142800Y0171835D01*
X0142161Y0173379D01*
X0140979Y0174561D01*
X0139435Y0175200D01*
X0132565Y0175200D01*
X0131021Y0174561D01*
X0129839Y0173379D01*
X0129200Y0171835D01*
X0129200Y0170165D01*
X0129839Y0168621D01*
X0130033Y0168427D01*
X0125006Y0163400D01*
X0117140Y0163400D01*
X0115979Y0164561D01*
X0114435Y0165200D01*
X0107565Y0165200D01*
X0106021Y0164561D01*
X0104839Y0163379D01*
X0104200Y0161835D01*
X0104200Y0160165D01*
X0104839Y0158621D01*
X0106021Y0157439D01*
X0107565Y0156800D01*
X0114435Y0156800D01*
X0115979Y0157439D01*
X0117140Y0158600D01*
X0126477Y0158600D01*
X0127359Y0158965D01*
X0129200Y0160806D01*
X0129200Y0160165D01*
X0129839Y0158621D01*
X0130033Y0158427D01*
X0125006Y0153400D01*
X0117140Y0153400D01*
X0115979Y0154561D01*
X0114435Y0155200D01*
X0107565Y0155200D01*
X0106021Y0154561D01*
X0104839Y0153379D01*
X0104200Y0151835D01*
X0104200Y0150165D01*
X0104839Y0148621D01*
X0104408Y0149662D02*
X0087792Y0149662D01*
X0088000Y0151260D02*
X0104200Y0151260D01*
X0104624Y0152859D02*
X0087591Y0152859D01*
X0086327Y0154457D02*
X0105917Y0154457D01*
X0105806Y0157654D02*
X0086194Y0157654D01*
X0085979Y0157439D02*
X0087161Y0158621D01*
X0087800Y0160165D01*
X0087800Y0161835D01*
X0087161Y0163379D01*
X0086967Y0163573D01*
X0104200Y0180806D01*
X0104200Y0180165D01*
X0104839Y0178621D01*
X0106021Y0177439D01*
X0107565Y0176800D01*
X0114435Y0176800D01*
X0115979Y0177439D01*
X0117140Y0178600D01*
X0121477Y0178600D01*
X0122359Y0178965D01*
X0130927Y0187533D01*
X0131021Y0187439D01*
X0132565Y0186800D01*
X0139435Y0186800D01*
X0140979Y0187439D01*
X0142161Y0188621D01*
X0142800Y0190165D01*
X0142800Y0191835D01*
X0142161Y0193379D01*
X0141804Y0193735D01*
X0142359Y0193965D01*
X0146994Y0198600D01*
X0176477Y0198600D01*
X0177359Y0198965D01*
X0182359Y0203965D01*
X0183035Y0204641D01*
X0183400Y0205523D01*
X0183400Y0225006D01*
X0183600Y0225206D01*
X0183600Y0150523D01*
X0183965Y0149641D01*
X0184641Y0148965D01*
X0190033Y0143573D01*
X0189839Y0143379D01*
X0189200Y0141835D01*
X0189200Y0140165D01*
X0189839Y0138621D01*
X0191021Y0137439D01*
X0192565Y0136800D01*
X0199435Y0136800D01*
X0200979Y0137439D01*
X0202140Y0138600D01*
X0230006Y0138600D01*
X0233600Y0135006D01*
X0233600Y0130523D01*
X0233965Y0129641D01*
X0248600Y0115006D01*
X0248600Y0110147D01*
X0248309Y0110027D01*
X0246973Y0108691D01*
X0246250Y0106945D01*
X0246250Y0105055D01*
X0246973Y0103309D01*
X0248309Y0101973D01*
X0250055Y0101250D01*
X0251945Y0101250D01*
X0252235Y0101370D01*
X0253965Y0099641D01*
X0254641Y0098965D01*
X0255523Y0098600D01*
X0281477Y0098600D01*
X0282359Y0098965D01*
X0287359Y0103965D01*
X0288035Y0104641D01*
X0288400Y0105523D01*
X0288400Y0106743D01*
X0289320Y0106743D01*
X0290257Y0107680D01*
X0290257Y0114320D01*
X0289320Y0115257D01*
X0282680Y0115257D01*
X0281743Y0114320D01*
X0281743Y0107680D01*
X0282680Y0106743D01*
X0283348Y0106743D01*
X0280006Y0103400D01*
X0256994Y0103400D01*
X0255630Y0104765D01*
X0255750Y0105055D01*
X0255750Y0106945D01*
X0255027Y0108691D01*
X0253691Y0110027D01*
X0253400Y0110147D01*
X0253400Y0116477D01*
X0253035Y0117359D01*
X0252359Y0118035D01*
X0238400Y0131994D01*
X0238400Y0136477D01*
X0238035Y0137359D01*
X0237359Y0138035D01*
X0232359Y0143035D01*
X0231477Y0143400D01*
X0202140Y0143400D01*
X0200979Y0144561D01*
X0199435Y0145200D01*
X0195194Y0145200D01*
X0193594Y0146800D01*
X0199435Y0146800D01*
X0200979Y0147439D01*
X0202140Y0148600D01*
X0211743Y0148600D01*
X0211743Y0147680D01*
X0212680Y0146743D01*
X0219320Y0146743D01*
X0220257Y0147680D01*
X0220257Y0154320D01*
X0219320Y0155257D01*
X0212680Y0155257D01*
X0211743Y0154320D01*
X0211743Y0153400D01*
X0202140Y0153400D01*
X0200979Y0154561D01*
X0199435Y0155200D01*
X0192565Y0155200D01*
X0191021Y0154561D01*
X0189839Y0153379D01*
X0189200Y0151835D01*
X0189200Y0151194D01*
X0188400Y0151994D01*
X0188400Y0225006D01*
X0190927Y0227533D01*
X0191021Y0227439D01*
X0192565Y0226800D01*
X0199435Y0226800D01*
X0200979Y0227439D01*
X0202161Y0228621D01*
X0202800Y0230165D01*
X0202800Y0231835D01*
X0202161Y0233379D01*
X0200979Y0234561D01*
X0199435Y0235200D01*
X0198400Y0235200D01*
X0198400Y0241477D01*
X0198035Y0242359D01*
X0197359Y0243035D01*
X0193035Y0247359D01*
X0193035Y0247359D01*
X0192359Y0248035D01*
X0191477Y0248400D01*
X0161994Y0248400D01*
X0158400Y0251994D01*
X0158400Y0281477D01*
X0158035Y0282359D01*
X0153035Y0287359D01*
X0152359Y0288035D01*
X0151477Y0288400D01*
X0130523Y0288400D01*
X0129641Y0288035D01*
X0124641Y0283035D01*
X0123965Y0282359D01*
X0123600Y0281477D01*
X0123600Y0275640D01*
X0122439Y0274479D01*
X0121800Y0272935D01*
X0121800Y0271900D01*
X0119023Y0271900D01*
X0118141Y0271535D01*
X0117465Y0270859D01*
X0113965Y0267359D01*
X0113600Y0266477D01*
X0113600Y0246994D01*
X0111806Y0245200D01*
X0107565Y0245200D01*
X0106021Y0244561D01*
X0105257Y0243797D01*
X0105257Y0244320D01*
X0104320Y0245257D01*
X0097680Y0245257D01*
X0096743Y0244320D01*
X0096743Y0237680D01*
X0097680Y0236743D01*
X0101863Y0236743D01*
X0105033Y0233573D01*
X0104839Y0233379D01*
X0104200Y0231835D01*
X0104200Y0230165D01*
X0104839Y0228621D01*
X0105196Y0228265D01*
X0104641Y0228035D01*
X0099641Y0223035D01*
X0098965Y0222359D01*
X0098600Y0221477D01*
X0098600Y0201994D01*
X0087800Y0191194D01*
X0087800Y0191835D01*
X0087161Y0193379D01*
X0086967Y0193573D01*
X0092359Y0198965D01*
X0093035Y0199641D01*
X0093400Y0200523D01*
X0093400Y0225006D01*
X0095137Y0226743D01*
X0099320Y0226743D01*
X0100257Y0227680D01*
X0100257Y0234320D01*
X0099320Y0235257D01*
X0092680Y0235257D01*
X0091743Y0234320D01*
X0091743Y0230137D01*
X0088965Y0227359D01*
X0088600Y0226477D01*
X0088600Y0201994D01*
X0087800Y0201194D01*
X0087800Y0201835D01*
X0087161Y0203379D01*
X0085979Y0204561D01*
X0084435Y0205200D01*
X0077565Y0205200D01*
X0076021Y0204561D01*
X0074839Y0203379D01*
X0074200Y0201835D01*
X0074200Y0200165D01*
X0074839Y0198621D01*
X0076021Y0197439D01*
X0077565Y0196800D01*
X0083406Y0196800D01*
X0081806Y0195200D01*
X0077565Y0195200D01*
X0076021Y0194561D01*
X0074839Y0193379D01*
X0074200Y0191835D01*
X0074200Y0190165D01*
X0074839Y0188621D01*
X0076021Y0187439D01*
X0077565Y0186800D01*
X0083406Y0186800D01*
X0081806Y0185200D01*
X0077565Y0185200D01*
X0076021Y0184561D01*
X0074839Y0183379D01*
X0074200Y0181835D01*
X0074200Y0180165D01*
X0074839Y0178621D01*
X0076021Y0177439D01*
X0077565Y0176800D01*
X0078600Y0176800D01*
X0078600Y0175200D01*
X0077565Y0175200D01*
X0076021Y0174561D01*
X0074839Y0173379D01*
X0074200Y0171835D01*
X0074200Y0170165D01*
X0074839Y0168621D01*
X0076021Y0167439D01*
X0077565Y0166800D01*
X0083406Y0166800D01*
X0081806Y0165200D01*
X0077565Y0165200D01*
X0076021Y0164561D01*
X0074839Y0163379D01*
X0074200Y0161835D01*
X0074200Y0160165D01*
X0074839Y0158621D01*
X0076021Y0157439D01*
X0077565Y0156800D01*
X0084435Y0156800D01*
X0085979Y0157439D01*
X0087422Y0159253D02*
X0104578Y0159253D01*
X0104200Y0160851D02*
X0087800Y0160851D01*
X0087546Y0162450D02*
X0104454Y0162450D01*
X0105508Y0164048D02*
X0087442Y0164048D01*
X0089041Y0165647D02*
X0127253Y0165647D01*
X0128851Y0167245D02*
X0115510Y0167245D01*
X0115979Y0167439D02*
X0117140Y0168600D01*
X0121477Y0168600D01*
X0122359Y0168965D01*
X0130927Y0177533D01*
X0131021Y0177439D01*
X0132565Y0176800D01*
X0139435Y0176800D01*
X0140979Y0177439D01*
X0142161Y0178621D01*
X0142800Y0180165D01*
X0142800Y0181835D01*
X0142161Y0183379D01*
X0140979Y0184561D01*
X0139435Y0185200D01*
X0132565Y0185200D01*
X0131021Y0184561D01*
X0129839Y0183379D01*
X0129708Y0183063D01*
X0129641Y0183035D01*
X0128965Y0182359D01*
X0120006Y0173400D01*
X0117140Y0173400D01*
X0115979Y0174561D01*
X0114435Y0175200D01*
X0107565Y0175200D01*
X0106021Y0174561D01*
X0104839Y0173379D01*
X0104200Y0171835D01*
X0104200Y0170165D01*
X0104839Y0168621D01*
X0106021Y0167439D01*
X0107565Y0166800D01*
X0114435Y0166800D01*
X0115979Y0167439D01*
X0116492Y0164048D02*
X0125654Y0164048D01*
X0126000Y0161000D02*
X0136000Y0171000D01*
X0134041Y0165647D02*
X0183600Y0165647D01*
X0183600Y0167245D02*
X0140510Y0167245D01*
X0142253Y0168844D02*
X0183600Y0168844D01*
X0183600Y0170442D02*
X0142800Y0170442D01*
X0142715Y0172041D02*
X0183600Y0172041D01*
X0183600Y0173639D02*
X0141900Y0173639D01*
X0139523Y0176836D02*
X0183600Y0176836D01*
X0183600Y0175238D02*
X0128632Y0175238D01*
X0130100Y0173639D02*
X0127033Y0173639D01*
X0125435Y0172041D02*
X0129285Y0172041D01*
X0129200Y0170442D02*
X0123836Y0170442D01*
X0122066Y0168844D02*
X0129747Y0168844D01*
X0130230Y0176836D02*
X0132477Y0176836D01*
X0126639Y0180033D02*
X0123427Y0180033D01*
X0125026Y0181632D02*
X0128238Y0181632D01*
X0129778Y0183230D02*
X0126624Y0183230D01*
X0128223Y0184829D02*
X0131668Y0184829D01*
X0129821Y0186427D02*
X0183600Y0186427D01*
X0183600Y0184829D02*
X0140332Y0184829D01*
X0142222Y0183230D02*
X0183600Y0183230D01*
X0183600Y0181632D02*
X0142800Y0181632D01*
X0142746Y0180033D02*
X0183600Y0180033D01*
X0183600Y0178435D02*
X0141974Y0178435D01*
X0136000Y0181000D02*
X0131000Y0181000D01*
X0121000Y0171000D01*
X0111000Y0171000D01*
X0116900Y0173639D02*
X0120245Y0173639D01*
X0121844Y0175238D02*
X0098632Y0175238D01*
X0100230Y0176836D02*
X0107477Y0176836D01*
X0105026Y0178435D02*
X0101829Y0178435D01*
X0103427Y0180033D02*
X0104254Y0180033D01*
X0106000Y0186000D02*
X0121000Y0186000D01*
X0131000Y0196000D01*
X0141000Y0196000D01*
X0146000Y0201000D01*
X0176000Y0201000D01*
X0181000Y0206000D01*
X0181000Y0226000D01*
X0186000Y0231000D01*
X0196000Y0231000D01*
X0196000Y0241000D01*
X0191000Y0246000D01*
X0161000Y0246000D01*
X0156000Y0251000D01*
X0156000Y0281000D01*
X0151000Y0286000D01*
X0131000Y0286000D01*
X0126000Y0281000D01*
X0126000Y0269500D01*
X0119500Y0269500D01*
X0116000Y0266000D01*
X0116000Y0246000D01*
X0111000Y0241000D01*
X0112178Y0245572D02*
X0068966Y0245572D01*
X0068400Y0245006D02*
X0073035Y0249641D01*
X0073400Y0250523D01*
X0073400Y0251477D01*
X0073035Y0252359D01*
X0072359Y0253035D01*
X0071477Y0253400D01*
X0070523Y0253400D01*
X0069641Y0253035D01*
X0063965Y0247359D01*
X0063600Y0246477D01*
X0063600Y0220523D01*
X0063965Y0219641D01*
X0074641Y0208965D01*
X0074708Y0208937D01*
X0074839Y0208621D01*
X0076021Y0207439D01*
X0077565Y0206800D01*
X0084435Y0206800D01*
X0085979Y0207439D01*
X0087161Y0208621D01*
X0087800Y0210165D01*
X0087800Y0211835D01*
X0087161Y0213379D01*
X0085979Y0214561D01*
X0084435Y0215200D01*
X0077565Y0215200D01*
X0076021Y0214561D01*
X0075927Y0214467D01*
X0068400Y0221994D01*
X0068400Y0245006D01*
X0068400Y0243974D02*
X0075434Y0243974D01*
X0076021Y0244561D02*
X0074839Y0243379D01*
X0074200Y0241835D01*
X0074200Y0240165D01*
X0074839Y0238621D01*
X0076021Y0237439D01*
X0077565Y0236800D01*
X0084435Y0236800D01*
X0085979Y0237439D01*
X0087161Y0238621D01*
X0087800Y0240165D01*
X0087800Y0241835D01*
X0087161Y0243379D01*
X0085979Y0244561D01*
X0084435Y0245200D01*
X0077565Y0245200D01*
X0076021Y0244561D01*
X0074424Y0242375D02*
X0068400Y0242375D01*
X0068400Y0240777D02*
X0074200Y0240777D01*
X0074609Y0239178D02*
X0068400Y0239178D01*
X0068400Y0237580D02*
X0075881Y0237580D01*
X0077565Y0235200D02*
X0076021Y0234561D01*
X0074839Y0233379D01*
X0074200Y0231835D01*
X0074200Y0230165D01*
X0074839Y0228621D01*
X0076021Y0227439D01*
X0077565Y0226800D01*
X0084435Y0226800D01*
X0085979Y0227439D01*
X0087161Y0228621D01*
X0087800Y0230165D01*
X0087800Y0231835D01*
X0087161Y0233379D01*
X0085979Y0234561D01*
X0084435Y0235200D01*
X0077565Y0235200D01*
X0075843Y0234383D02*
X0068400Y0234383D01*
X0068400Y0235981D02*
X0102625Y0235981D01*
X0104223Y0234383D02*
X0100195Y0234383D01*
X0100257Y0232784D02*
X0104593Y0232784D01*
X0104200Y0231186D02*
X0100257Y0231186D01*
X0100257Y0229587D02*
X0104439Y0229587D01*
X0104595Y0227989D02*
X0100257Y0227989D01*
X0102996Y0226390D02*
X0094784Y0226390D01*
X0093400Y0224792D02*
X0101397Y0224792D01*
X0099799Y0223193D02*
X0093400Y0223193D01*
X0093400Y0221595D02*
X0098649Y0221595D01*
X0098600Y0219996D02*
X0093400Y0219996D01*
X0093400Y0218398D02*
X0098600Y0218398D01*
X0098600Y0216799D02*
X0093400Y0216799D01*
X0093400Y0215201D02*
X0098600Y0215201D01*
X0098600Y0213602D02*
X0093400Y0213602D01*
X0093400Y0212003D02*
X0098600Y0212003D01*
X0098600Y0210405D02*
X0093400Y0210405D01*
X0093400Y0208806D02*
X0098600Y0208806D01*
X0098600Y0207208D02*
X0093400Y0207208D01*
X0093400Y0205609D02*
X0098600Y0205609D01*
X0098600Y0204011D02*
X0093400Y0204011D01*
X0093400Y0202412D02*
X0098600Y0202412D01*
X0097420Y0200814D02*
X0093400Y0200814D01*
X0092610Y0199215D02*
X0095821Y0199215D01*
X0094223Y0197617D02*
X0091011Y0197617D01*
X0089412Y0196018D02*
X0092624Y0196018D01*
X0091026Y0194420D02*
X0087814Y0194420D01*
X0087392Y0192821D02*
X0089427Y0192821D01*
X0087829Y0191223D02*
X0087800Y0191223D01*
X0083033Y0186427D02*
X0051000Y0186427D01*
X0051000Y0184829D02*
X0076668Y0184829D01*
X0074778Y0183230D02*
X0051000Y0183230D01*
X0051000Y0181632D02*
X0074200Y0181632D01*
X0074254Y0180033D02*
X0051000Y0180033D01*
X0051000Y0178435D02*
X0075026Y0178435D01*
X0077477Y0176836D02*
X0051000Y0176836D01*
X0051000Y0175238D02*
X0078600Y0175238D01*
X0075100Y0173639D02*
X0051000Y0173639D01*
X0051000Y0172041D02*
X0074285Y0172041D01*
X0074200Y0170442D02*
X0051000Y0170442D01*
X0051000Y0168844D02*
X0074747Y0168844D01*
X0076490Y0167245D02*
X0051000Y0167245D01*
X0051000Y0165647D02*
X0082253Y0165647D01*
X0081000Y0171000D02*
X0081000Y0181000D01*
X0101000Y0201000D01*
X0101000Y0221000D01*
X0106000Y0226000D01*
X0116000Y0226000D01*
X0146000Y0256000D01*
X0146000Y0269500D01*
X0158400Y0269550D02*
X0341000Y0269550D01*
X0341000Y0271148D02*
X0158400Y0271148D01*
X0158400Y0272747D02*
X0341000Y0272747D01*
X0341000Y0274345D02*
X0158400Y0274345D01*
X0158400Y0275944D02*
X0341000Y0275944D01*
X0341000Y0277542D02*
X0158400Y0277542D01*
X0158400Y0279141D02*
X0341000Y0279141D01*
X0341000Y0280739D02*
X0158400Y0280739D01*
X0158044Y0282338D02*
X0341000Y0282338D01*
X0341000Y0283937D02*
X0156458Y0283937D01*
X0154859Y0285535D02*
X0341000Y0285535D01*
X0341000Y0287134D02*
X0153261Y0287134D01*
X0158400Y0267951D02*
X0341000Y0267951D01*
X0341000Y0266353D02*
X0158400Y0266353D01*
X0158400Y0264754D02*
X0341000Y0264754D01*
X0341000Y0263156D02*
X0158400Y0263156D01*
X0158400Y0261557D02*
X0341000Y0261557D01*
X0341000Y0259959D02*
X0158400Y0259959D01*
X0158400Y0258360D02*
X0341000Y0258360D01*
X0341000Y0256762D02*
X0158400Y0256762D01*
X0158400Y0255163D02*
X0341000Y0255163D01*
X0341000Y0253565D02*
X0158400Y0253565D01*
X0158428Y0251966D02*
X0341000Y0251966D01*
X0341000Y0250368D02*
X0160026Y0250368D01*
X0161625Y0248769D02*
X0341000Y0248769D01*
X0341000Y0247171D02*
X0193223Y0247171D01*
X0194822Y0245572D02*
X0341000Y0245572D01*
X0341000Y0243974D02*
X0196420Y0243974D01*
X0197359Y0243035D02*
X0197359Y0243035D01*
X0198019Y0242375D02*
X0341000Y0242375D01*
X0341000Y0240777D02*
X0198400Y0240777D01*
X0198400Y0239178D02*
X0341000Y0239178D01*
X0341000Y0237580D02*
X0198400Y0237580D01*
X0198400Y0235981D02*
X0341000Y0235981D01*
X0341000Y0234383D02*
X0201157Y0234383D01*
X0202407Y0232784D02*
X0341000Y0232784D01*
X0341000Y0231186D02*
X0202800Y0231186D01*
X0202561Y0229587D02*
X0341000Y0229587D01*
X0341000Y0227989D02*
X0201528Y0227989D01*
X0200421Y0224792D02*
X0212214Y0224792D01*
X0212680Y0225257D02*
X0211743Y0224320D01*
X0211743Y0223400D01*
X0202140Y0223400D01*
X0200979Y0224561D01*
X0199435Y0225200D01*
X0192565Y0225200D01*
X0191021Y0224561D01*
X0189839Y0223379D01*
X0189200Y0221835D01*
X0189200Y0220165D01*
X0189839Y0218621D01*
X0191021Y0217439D01*
X0192565Y0216800D01*
X0199435Y0216800D01*
X0200979Y0217439D01*
X0202140Y0218600D01*
X0211743Y0218600D01*
X0211743Y0217680D01*
X0212680Y0216743D01*
X0219320Y0216743D01*
X0220257Y0217680D01*
X0220257Y0224320D01*
X0219320Y0225257D01*
X0212680Y0225257D01*
X0216000Y0221000D02*
X0196000Y0221000D01*
X0191579Y0224792D02*
X0188400Y0224792D01*
X0188400Y0223193D02*
X0189762Y0223193D01*
X0189200Y0221595D02*
X0188400Y0221595D01*
X0188400Y0219996D02*
X0189270Y0219996D01*
X0190063Y0218398D02*
X0188400Y0218398D01*
X0188400Y0216799D02*
X0212623Y0216799D01*
X0212680Y0215257D02*
X0211743Y0214320D01*
X0211743Y0213400D01*
X0202140Y0213400D01*
X0200979Y0214561D01*
X0199435Y0215200D01*
X0192565Y0215200D01*
X0191021Y0214561D01*
X0189839Y0213379D01*
X0189200Y0211835D01*
X0189200Y0210165D01*
X0189839Y0208621D01*
X0191021Y0207439D01*
X0192565Y0206800D01*
X0199435Y0206800D01*
X0200979Y0207439D01*
X0202140Y0208600D01*
X0211743Y0208600D01*
X0211743Y0207680D01*
X0212680Y0206743D01*
X0219320Y0206743D01*
X0220257Y0207680D01*
X0220257Y0214320D01*
X0219320Y0215257D01*
X0212680Y0215257D01*
X0212623Y0215201D02*
X0188400Y0215201D01*
X0188400Y0213602D02*
X0190062Y0213602D01*
X0189270Y0212003D02*
X0188400Y0212003D01*
X0188400Y0210405D02*
X0189200Y0210405D01*
X0189763Y0208806D02*
X0188400Y0208806D01*
X0188400Y0207208D02*
X0191580Y0207208D01*
X0192565Y0205200D02*
X0191021Y0204561D01*
X0189839Y0203379D01*
X0189200Y0201835D01*
X0189200Y0200165D01*
X0189839Y0198621D01*
X0191021Y0197439D01*
X0192565Y0196800D01*
X0199435Y0196800D01*
X0200979Y0197439D01*
X0202140Y0198600D01*
X0211743Y0198600D01*
X0211743Y0197680D01*
X0212680Y0196743D01*
X0219320Y0196743D01*
X0220257Y0197680D01*
X0220257Y0204320D01*
X0219320Y0205257D01*
X0212680Y0205257D01*
X0211743Y0204320D01*
X0211743Y0203400D01*
X0202140Y0203400D01*
X0200979Y0204561D01*
X0199435Y0205200D01*
X0192565Y0205200D01*
X0190471Y0204011D02*
X0188400Y0204011D01*
X0188400Y0205609D02*
X0341000Y0205609D01*
X0341000Y0204011D02*
X0220257Y0204011D01*
X0220257Y0202412D02*
X0341000Y0202412D01*
X0341000Y0200814D02*
X0220257Y0200814D01*
X0220257Y0199215D02*
X0341000Y0199215D01*
X0341000Y0197617D02*
X0220195Y0197617D01*
X0219320Y0195257D02*
X0212680Y0195257D01*
X0211743Y0194320D01*
X0211743Y0193400D01*
X0202140Y0193400D01*
X0200979Y0194561D01*
X0199435Y0195200D01*
X0192565Y0195200D01*
X0191021Y0194561D01*
X0189839Y0193379D01*
X0189200Y0191835D01*
X0189200Y0190165D01*
X0189839Y0188621D01*
X0191021Y0187439D01*
X0192565Y0186800D01*
X0199435Y0186800D01*
X0200979Y0187439D01*
X0202140Y0188600D01*
X0211743Y0188600D01*
X0211743Y0187680D01*
X0212680Y0186743D01*
X0219320Y0186743D01*
X0220257Y0187680D01*
X0220257Y0194320D01*
X0219320Y0195257D01*
X0220158Y0194420D02*
X0341000Y0194420D01*
X0341000Y0196018D02*
X0188400Y0196018D01*
X0188400Y0194420D02*
X0190880Y0194420D01*
X0189608Y0192821D02*
X0188400Y0192821D01*
X0188400Y0191223D02*
X0189200Y0191223D01*
X0189424Y0189624D02*
X0188400Y0189624D01*
X0188400Y0188026D02*
X0190434Y0188026D01*
X0188400Y0186427D02*
X0341000Y0186427D01*
X0341000Y0184829D02*
X0219749Y0184829D01*
X0219320Y0185257D02*
X0212680Y0185257D01*
X0211743Y0184320D01*
X0211743Y0183400D01*
X0202140Y0183400D01*
X0200979Y0184561D01*
X0199435Y0185200D01*
X0192565Y0185200D01*
X0191021Y0184561D01*
X0189839Y0183379D01*
X0189200Y0181835D01*
X0189200Y0180165D01*
X0189839Y0178621D01*
X0191021Y0177439D01*
X0192565Y0176800D01*
X0199435Y0176800D01*
X0200979Y0177439D01*
X0202140Y0178600D01*
X0211743Y0178600D01*
X0211743Y0177680D01*
X0212680Y0176743D01*
X0219320Y0176743D01*
X0220257Y0177680D01*
X0220257Y0184320D01*
X0219320Y0185257D01*
X0220257Y0183230D02*
X0341000Y0183230D01*
X0341000Y0181632D02*
X0220257Y0181632D01*
X0220257Y0180033D02*
X0341000Y0180033D01*
X0341000Y0178435D02*
X0220257Y0178435D01*
X0219414Y0176836D02*
X0341000Y0176836D01*
X0341000Y0175238D02*
X0219340Y0175238D01*
X0219320Y0175257D02*
X0212680Y0175257D01*
X0211743Y0174320D01*
X0211743Y0173400D01*
X0202140Y0173400D01*
X0200979Y0174561D01*
X0199435Y0175200D01*
X0192565Y0175200D01*
X0191021Y0174561D01*
X0189839Y0173379D01*
X0189200Y0171835D01*
X0189200Y0170165D01*
X0189839Y0168621D01*
X0191021Y0167439D01*
X0192565Y0166800D01*
X0199435Y0166800D01*
X0200979Y0167439D01*
X0202140Y0168600D01*
X0211743Y0168600D01*
X0211743Y0167680D01*
X0212680Y0166743D01*
X0219320Y0166743D01*
X0220257Y0167680D01*
X0220257Y0174320D01*
X0219320Y0175257D01*
X0220257Y0173639D02*
X0341000Y0173639D01*
X0341000Y0172041D02*
X0220257Y0172041D01*
X0220257Y0170442D02*
X0341000Y0170442D01*
X0341000Y0168844D02*
X0220257Y0168844D01*
X0219823Y0167245D02*
X0341000Y0167245D01*
X0341000Y0165647D02*
X0188400Y0165647D01*
X0188400Y0167245D02*
X0191490Y0167245D01*
X0192565Y0165200D02*
X0191021Y0164561D01*
X0189839Y0163379D01*
X0189200Y0161835D01*
X0189200Y0160165D01*
X0189839Y0158621D01*
X0191021Y0157439D01*
X0192565Y0156800D01*
X0199435Y0156800D01*
X0200979Y0157439D01*
X0202140Y0158600D01*
X0211743Y0158600D01*
X0211743Y0157680D01*
X0212680Y0156743D01*
X0219320Y0156743D01*
X0220257Y0157680D01*
X0220257Y0164320D01*
X0219320Y0165257D01*
X0212680Y0165257D01*
X0211743Y0164320D01*
X0211743Y0163400D01*
X0202140Y0163400D01*
X0200979Y0164561D01*
X0199435Y0165200D01*
X0192565Y0165200D01*
X0190508Y0164048D02*
X0188400Y0164048D01*
X0188400Y0162450D02*
X0189454Y0162450D01*
X0189200Y0160851D02*
X0188400Y0160851D01*
X0188400Y0159253D02*
X0189578Y0159253D01*
X0188400Y0157654D02*
X0190806Y0157654D01*
X0188400Y0156056D02*
X0341000Y0156056D01*
X0341000Y0157654D02*
X0220232Y0157654D01*
X0220257Y0159253D02*
X0341000Y0159253D01*
X0341000Y0160851D02*
X0220257Y0160851D01*
X0220257Y0162450D02*
X0341000Y0162450D01*
X0341000Y0164048D02*
X0220257Y0164048D01*
X0216000Y0161000D02*
X0196000Y0161000D01*
X0201194Y0157654D02*
X0211768Y0157654D01*
X0211879Y0154457D02*
X0201083Y0154457D01*
X0196000Y0151000D02*
X0216000Y0151000D01*
X0220257Y0151260D02*
X0341000Y0151260D01*
X0341000Y0149662D02*
X0220257Y0149662D01*
X0220257Y0148063D02*
X0341000Y0148063D01*
X0341000Y0146465D02*
X0193930Y0146465D01*
X0200242Y0144866D02*
X0341000Y0144866D01*
X0341000Y0143268D02*
X0231797Y0143268D01*
X0231000Y0141000D02*
X0236000Y0136000D01*
X0236000Y0131000D01*
X0251000Y0116000D01*
X0251000Y0106000D01*
X0256000Y0101000D01*
X0281000Y0101000D01*
X0286000Y0106000D01*
X0286000Y0111000D01*
X0290257Y0111297D02*
X0341000Y0111297D01*
X0341000Y0109699D02*
X0290257Y0109699D01*
X0290257Y0108100D02*
X0341000Y0108100D01*
X0341000Y0106502D02*
X0288400Y0106502D01*
X0288143Y0104903D02*
X0341000Y0104903D01*
X0341000Y0103305D02*
X0286699Y0103305D01*
X0285100Y0101706D02*
X0341000Y0101706D01*
X0341000Y0100108D02*
X0283502Y0100108D01*
X0281509Y0104903D02*
X0255687Y0104903D01*
X0255750Y0106502D02*
X0283108Y0106502D01*
X0281743Y0108100D02*
X0255271Y0108100D01*
X0254019Y0109699D02*
X0281743Y0109699D01*
X0281743Y0111297D02*
X0253400Y0111297D01*
X0253400Y0112896D02*
X0281743Y0112896D01*
X0281917Y0114494D02*
X0253400Y0114494D01*
X0253400Y0116093D02*
X0341000Y0116093D01*
X0341000Y0117691D02*
X0252703Y0117691D01*
X0252359Y0118035D02*
X0252359Y0118035D01*
X0251104Y0119290D02*
X0341000Y0119290D01*
X0341000Y0120888D02*
X0249506Y0120888D01*
X0247907Y0122487D02*
X0341000Y0122487D01*
X0341000Y0124085D02*
X0246309Y0124085D01*
X0244710Y0125684D02*
X0341000Y0125684D01*
X0341000Y0127282D02*
X0243112Y0127282D01*
X0241513Y0128881D02*
X0341000Y0128881D01*
X0341000Y0130479D02*
X0239915Y0130479D01*
X0238400Y0132078D02*
X0341000Y0132078D01*
X0341000Y0133676D02*
X0238400Y0133676D01*
X0238400Y0135275D02*
X0341000Y0135275D01*
X0341000Y0136873D02*
X0238236Y0136873D01*
X0236922Y0138472D02*
X0341000Y0138472D01*
X0341000Y0140070D02*
X0235324Y0140070D01*
X0233725Y0141669D02*
X0341000Y0141669D01*
X0341000Y0152859D02*
X0220257Y0152859D01*
X0220121Y0154457D02*
X0341000Y0154457D01*
X0341000Y0188026D02*
X0220257Y0188026D01*
X0220257Y0189624D02*
X0341000Y0189624D01*
X0341000Y0191223D02*
X0220257Y0191223D01*
X0220257Y0192821D02*
X0341000Y0192821D01*
X0341000Y0207208D02*
X0219786Y0207208D01*
X0220257Y0208806D02*
X0341000Y0208806D01*
X0341000Y0210405D02*
X0220257Y0210405D01*
X0220257Y0212003D02*
X0341000Y0212003D01*
X0341000Y0213602D02*
X0220257Y0213602D01*
X0219377Y0215201D02*
X0341000Y0215201D01*
X0341000Y0216799D02*
X0219377Y0216799D01*
X0220257Y0218398D02*
X0341000Y0218398D01*
X0341000Y0219996D02*
X0220257Y0219996D01*
X0220257Y0221595D02*
X0341000Y0221595D01*
X0341000Y0223193D02*
X0220257Y0223193D01*
X0219786Y0224792D02*
X0341000Y0224792D01*
X0341000Y0226390D02*
X0189784Y0226390D01*
X0186000Y0226000D02*
X0191000Y0231000D01*
X0196000Y0231000D01*
X0186000Y0226000D02*
X0186000Y0151000D01*
X0196000Y0141000D01*
X0231000Y0141000D01*
X0230134Y0138472D02*
X0202012Y0138472D01*
X0199613Y0136873D02*
X0231732Y0136873D01*
X0233331Y0135275D02*
X0098669Y0135275D01*
X0097071Y0133676D02*
X0130137Y0133676D01*
X0129839Y0133379D02*
X0129200Y0131835D01*
X0129200Y0130165D01*
X0129839Y0128621D01*
X0131021Y0127439D01*
X0132565Y0126800D01*
X0139435Y0126800D01*
X0140979Y0127439D01*
X0142161Y0128621D01*
X0142800Y0130165D01*
X0142800Y0131835D01*
X0142161Y0133379D01*
X0140979Y0134561D01*
X0139435Y0135200D01*
X0132565Y0135200D01*
X0131021Y0134561D01*
X0129839Y0133379D01*
X0129300Y0132078D02*
X0095472Y0132078D01*
X0095200Y0131806D02*
X0101994Y0138600D01*
X0116743Y0138600D01*
X0116743Y0137680D01*
X0117680Y0136743D01*
X0124320Y0136743D01*
X0125257Y0137680D01*
X0125257Y0144320D01*
X0124320Y0145257D01*
X0117680Y0145257D01*
X0116743Y0144320D01*
X0116743Y0143400D01*
X0100523Y0143400D01*
X0099641Y0143035D01*
X0098965Y0142359D01*
X0091806Y0135200D01*
X0089260Y0135200D01*
X0086800Y0132740D01*
X0086800Y0129260D01*
X0089260Y0126800D01*
X0092740Y0126800D01*
X0095200Y0129260D01*
X0095200Y0131806D01*
X0095200Y0130479D02*
X0129200Y0130479D01*
X0129732Y0128881D02*
X0094821Y0128881D01*
X0093222Y0127282D02*
X0131400Y0127282D01*
X0132565Y0125200D02*
X0131021Y0124561D01*
X0129839Y0123379D01*
X0129200Y0121835D01*
X0129200Y0120165D01*
X0129839Y0118621D01*
X0131021Y0117439D01*
X0132565Y0116800D01*
X0139435Y0116800D01*
X0140979Y0117439D01*
X0142161Y0118621D01*
X0142800Y0120165D01*
X0142800Y0121835D01*
X0142161Y0123379D01*
X0140979Y0124561D01*
X0139435Y0125200D01*
X0132565Y0125200D01*
X0130546Y0124085D02*
X0051000Y0124085D01*
X0051000Y0122487D02*
X0129470Y0122487D01*
X0129200Y0120888D02*
X0051000Y0120888D01*
X0051000Y0119290D02*
X0129562Y0119290D01*
X0130769Y0117691D02*
X0051000Y0117691D01*
X0051000Y0116093D02*
X0247513Y0116093D01*
X0248600Y0114494D02*
X0201045Y0114494D01*
X0200979Y0114561D02*
X0199435Y0115200D01*
X0192565Y0115200D01*
X0191021Y0114561D01*
X0189839Y0113379D01*
X0189200Y0111835D01*
X0189200Y0110165D01*
X0189839Y0108621D01*
X0191021Y0107439D01*
X0192565Y0106800D01*
X0199435Y0106800D01*
X0200979Y0107439D01*
X0202161Y0108621D01*
X0202800Y0110165D01*
X0202800Y0111835D01*
X0202161Y0113379D01*
X0200979Y0114561D01*
X0202361Y0112896D02*
X0248600Y0112896D01*
X0248600Y0111297D02*
X0202800Y0111297D01*
X0202607Y0109699D02*
X0237981Y0109699D01*
X0239032Y0110750D02*
X0236250Y0107968D01*
X0236250Y0104032D01*
X0238600Y0101682D01*
X0238600Y0071994D01*
X0231863Y0065257D01*
X0227680Y0065257D01*
X0226743Y0064320D01*
X0226743Y0057680D01*
X0227680Y0056743D01*
X0228600Y0056743D01*
X0228600Y0056623D01*
X0228965Y0055741D01*
X0229641Y0055065D01*
X0231750Y0052956D01*
X0231300Y0052506D01*
X0230600Y0050815D01*
X0230600Y0048985D01*
X0231300Y0047294D01*
X0232594Y0046000D01*
X0234285Y0045300D01*
X0242115Y0045300D01*
X0243806Y0046000D01*
X0245100Y0047294D01*
X0245185Y0047500D01*
X0256815Y0047500D01*
X0256900Y0047294D01*
X0258194Y0046000D01*
X0259885Y0045300D01*
X0267715Y0045300D01*
X0269406Y0046000D01*
X0270700Y0047294D01*
X0271400Y0048985D01*
X0271400Y0050815D01*
X0270700Y0052506D01*
X0269406Y0053800D01*
X0267715Y0054500D01*
X0259885Y0054500D01*
X0258194Y0053800D01*
X0256900Y0052506D01*
X0256815Y0052300D01*
X0245185Y0052300D01*
X0245100Y0052506D01*
X0243806Y0053800D01*
X0242115Y0054500D01*
X0236994Y0054500D01*
X0234536Y0056958D01*
X0235257Y0057680D01*
X0235257Y0061863D01*
X0243035Y0069641D01*
X0243400Y0070523D01*
X0243400Y0101682D01*
X0245750Y0104032D01*
X0245750Y0107968D01*
X0242968Y0110750D01*
X0239032Y0110750D01*
X0236383Y0108100D02*
X0201640Y0108100D01*
X0200152Y0104903D02*
X0236250Y0104903D01*
X0236250Y0106502D02*
X0095200Y0106502D01*
X0095200Y0107740D02*
X0095200Y0105194D01*
X0097359Y0103035D01*
X0098035Y0102359D01*
X0098400Y0101477D01*
X0098400Y0064540D01*
X0099540Y0063400D01*
X0129860Y0063400D01*
X0131021Y0064561D01*
X0132565Y0065200D01*
X0139435Y0065200D01*
X0140979Y0064561D01*
X0142161Y0063379D01*
X0142800Y0061835D01*
X0142800Y0060165D01*
X0142161Y0058621D01*
X0140979Y0057439D01*
X0139435Y0056800D01*
X0132565Y0056800D01*
X0131021Y0057439D01*
X0129860Y0058600D01*
X0099540Y0058600D01*
X0098379Y0057439D01*
X0096835Y0056800D01*
X0095165Y0056800D01*
X0093621Y0057439D01*
X0093400Y0057660D01*
X0093400Y0056994D01*
X0095194Y0055200D01*
X0096835Y0055200D01*
X0098379Y0054561D01*
X0099540Y0053400D01*
X0129860Y0053400D01*
X0131021Y0054561D01*
X0132565Y0055200D01*
X0139435Y0055200D01*
X0140979Y0054561D01*
X0142161Y0053379D01*
X0142800Y0051835D01*
X0142800Y0050165D01*
X0142161Y0048621D01*
X0140979Y0047439D01*
X0139435Y0046800D01*
X0132565Y0046800D01*
X0131021Y0047439D01*
X0129860Y0048600D01*
X0099540Y0048600D01*
X0098379Y0047439D01*
X0096835Y0046800D01*
X0095165Y0046800D01*
X0093621Y0047439D01*
X0092439Y0048621D01*
X0091800Y0050165D01*
X0091800Y0051806D01*
X0088965Y0054641D01*
X0088600Y0055523D01*
X0088600Y0077460D01*
X0086800Y0079260D01*
X0086800Y0082740D01*
X0089260Y0085200D01*
X0092740Y0085200D01*
X0093600Y0084340D01*
X0093600Y0100006D01*
X0091806Y0101800D01*
X0089260Y0101800D01*
X0086800Y0104260D01*
X0086800Y0107740D01*
X0089260Y0110200D01*
X0092740Y0110200D01*
X0095200Y0107740D01*
X0094839Y0108100D02*
X0130360Y0108100D01*
X0129839Y0108621D02*
X0131021Y0107439D01*
X0132565Y0106800D01*
X0139435Y0106800D01*
X0140979Y0107439D01*
X0142161Y0108621D01*
X0142800Y0110165D01*
X0142800Y0111835D01*
X0142161Y0113379D01*
X0140979Y0114561D01*
X0139435Y0115200D01*
X0132565Y0115200D01*
X0131021Y0114561D01*
X0129839Y0113379D01*
X0129200Y0111835D01*
X0129200Y0110165D01*
X0129839Y0108621D01*
X0129393Y0109699D02*
X0093241Y0109699D01*
X0091000Y0106000D02*
X0096000Y0101000D01*
X0096000Y0061000D01*
X0136000Y0061000D01*
X0131938Y0064940D02*
X0098400Y0064940D01*
X0098400Y0066539D02*
X0233145Y0066539D01*
X0234743Y0068137D02*
X0201677Y0068137D01*
X0202161Y0068621D02*
X0200979Y0067439D01*
X0199435Y0066800D01*
X0192565Y0066800D01*
X0191021Y0067439D01*
X0189839Y0068621D01*
X0189200Y0070165D01*
X0189200Y0071835D01*
X0189839Y0073379D01*
X0191021Y0074561D01*
X0192565Y0075200D01*
X0199435Y0075200D01*
X0200979Y0074561D01*
X0202161Y0073379D01*
X0202800Y0071835D01*
X0202800Y0070165D01*
X0202161Y0068621D01*
X0202622Y0069736D02*
X0236342Y0069736D01*
X0237940Y0071334D02*
X0202800Y0071334D01*
X0202345Y0072933D02*
X0238600Y0072933D01*
X0238600Y0074532D02*
X0201008Y0074532D01*
X0199435Y0076800D02*
X0200979Y0077439D01*
X0202161Y0078621D01*
X0202800Y0080165D01*
X0202800Y0081835D01*
X0202161Y0083379D01*
X0200979Y0084561D01*
X0199435Y0085200D01*
X0192565Y0085200D01*
X0191021Y0084561D01*
X0189839Y0083379D01*
X0189200Y0081835D01*
X0189200Y0080165D01*
X0189839Y0078621D01*
X0191021Y0077439D01*
X0192565Y0076800D01*
X0199435Y0076800D01*
X0201268Y0077729D02*
X0238600Y0077729D01*
X0238600Y0079327D02*
X0202453Y0079327D01*
X0202800Y0080926D02*
X0238600Y0080926D01*
X0238600Y0082524D02*
X0202515Y0082524D01*
X0201417Y0084123D02*
X0238600Y0084123D01*
X0238600Y0085721D02*
X0098400Y0085721D01*
X0098400Y0084123D02*
X0130583Y0084123D01*
X0131021Y0084561D02*
X0129839Y0083379D01*
X0129200Y0081835D01*
X0129200Y0080165D01*
X0129839Y0078621D01*
X0131021Y0077439D01*
X0132565Y0076800D01*
X0139435Y0076800D01*
X0140979Y0077439D01*
X0142161Y0078621D01*
X0142800Y0080165D01*
X0142800Y0081835D01*
X0142161Y0083379D01*
X0140979Y0084561D01*
X0139435Y0085200D01*
X0132565Y0085200D01*
X0131021Y0084561D01*
X0129485Y0082524D02*
X0098400Y0082524D01*
X0098400Y0080926D02*
X0129200Y0080926D01*
X0129547Y0079327D02*
X0098400Y0079327D01*
X0098400Y0077729D02*
X0130732Y0077729D01*
X0132565Y0075200D02*
X0131021Y0074561D01*
X0129839Y0073379D01*
X0129200Y0071835D01*
X0129200Y0070165D01*
X0129839Y0068621D01*
X0131021Y0067439D01*
X0132565Y0066800D01*
X0139435Y0066800D01*
X0140979Y0067439D01*
X0142161Y0068621D01*
X0142800Y0070165D01*
X0142800Y0071835D01*
X0142161Y0073379D01*
X0140979Y0074561D01*
X0139435Y0075200D01*
X0132565Y0075200D01*
X0130992Y0074532D02*
X0098400Y0074532D01*
X0098400Y0076130D02*
X0238600Y0076130D01*
X0243400Y0076130D02*
X0341000Y0076130D01*
X0341000Y0074532D02*
X0243400Y0074532D01*
X0243400Y0072933D02*
X0341000Y0072933D01*
X0341000Y0071334D02*
X0243400Y0071334D01*
X0243074Y0069736D02*
X0341000Y0069736D01*
X0341000Y0068137D02*
X0241532Y0068137D01*
X0239933Y0066539D02*
X0341000Y0066539D01*
X0341000Y0064940D02*
X0238335Y0064940D01*
X0236736Y0063342D02*
X0341000Y0063342D01*
X0341000Y0061743D02*
X0235257Y0061743D01*
X0235257Y0060145D02*
X0341000Y0060145D01*
X0341000Y0058546D02*
X0235257Y0058546D01*
X0234546Y0056948D02*
X0341000Y0056948D01*
X0341000Y0055349D02*
X0236145Y0055349D01*
X0230955Y0053751D02*
X0201789Y0053751D01*
X0202161Y0053379D02*
X0200979Y0054561D01*
X0199435Y0055200D01*
X0192565Y0055200D01*
X0191021Y0054561D01*
X0189839Y0053379D01*
X0189200Y0051835D01*
X0189200Y0050165D01*
X0189839Y0048621D01*
X0191021Y0047439D01*
X0192565Y0046800D01*
X0199435Y0046800D01*
X0200979Y0047439D01*
X0202161Y0048621D01*
X0202800Y0050165D01*
X0202800Y0051835D01*
X0202161Y0053379D01*
X0202669Y0052152D02*
X0231154Y0052152D01*
X0230600Y0050554D02*
X0202800Y0050554D01*
X0202299Y0048955D02*
X0230612Y0048955D01*
X0231274Y0047357D02*
X0200780Y0047357D01*
X0199435Y0045200D02*
X0200979Y0044561D01*
X0202161Y0043379D01*
X0202800Y0041835D01*
X0202800Y0040165D01*
X0202161Y0038621D01*
X0200979Y0037439D01*
X0199435Y0036800D01*
X0192565Y0036800D01*
X0191021Y0037439D01*
X0189839Y0038621D01*
X0189200Y0040165D01*
X0189200Y0041835D01*
X0189839Y0043379D01*
X0191021Y0044561D01*
X0192565Y0045200D01*
X0199435Y0045200D01*
X0201380Y0044160D02*
X0341000Y0044160D01*
X0341000Y0045758D02*
X0268821Y0045758D01*
X0270726Y0047357D02*
X0341000Y0047357D01*
X0341000Y0048955D02*
X0271388Y0048955D01*
X0271400Y0050554D02*
X0341000Y0050554D01*
X0341000Y0052152D02*
X0270846Y0052152D01*
X0269454Y0053751D02*
X0341000Y0053751D01*
X0341000Y0042561D02*
X0202499Y0042561D01*
X0202800Y0040963D02*
X0341000Y0040963D01*
X0341000Y0039364D02*
X0280213Y0039364D01*
X0280257Y0039320D02*
X0279320Y0040257D01*
X0272680Y0040257D01*
X0271743Y0039320D01*
X0271743Y0038400D01*
X0267223Y0038400D01*
X0266341Y0038035D01*
X0265665Y0037359D01*
X0265006Y0036700D01*
X0259885Y0036700D01*
X0258194Y0036000D01*
X0256900Y0034706D01*
X0256200Y0033015D01*
X0256200Y0031185D01*
X0256900Y0029494D01*
X0258194Y0028200D01*
X0259885Y0027500D01*
X0267715Y0027500D01*
X0269406Y0028200D01*
X0270700Y0029494D01*
X0271400Y0031185D01*
X0271400Y0033015D01*
X0271158Y0033600D01*
X0271743Y0033600D01*
X0271743Y0032680D01*
X0272680Y0031743D01*
X0279320Y0031743D01*
X0280257Y0032680D01*
X0280257Y0039320D01*
X0280257Y0037766D02*
X0341000Y0037766D01*
X0341000Y0036167D02*
X0280257Y0036167D01*
X0280257Y0034569D02*
X0341000Y0034569D01*
X0341000Y0032970D02*
X0280257Y0032970D01*
X0276000Y0036000D02*
X0267700Y0036000D01*
X0263800Y0032100D01*
X0266072Y0037766D02*
X0201305Y0037766D01*
X0202468Y0039364D02*
X0271787Y0039364D01*
X0271743Y0032970D02*
X0271400Y0032970D01*
X0271400Y0031372D02*
X0341000Y0031372D01*
X0341000Y0029773D02*
X0270815Y0029773D01*
X0269344Y0028175D02*
X0341000Y0028175D01*
X0341000Y0077729D02*
X0243400Y0077729D01*
X0243400Y0079327D02*
X0341000Y0079327D01*
X0341000Y0080926D02*
X0243400Y0080926D01*
X0243400Y0082524D02*
X0341000Y0082524D01*
X0341000Y0084123D02*
X0243400Y0084123D01*
X0243400Y0085721D02*
X0341000Y0085721D01*
X0341000Y0087320D02*
X0243400Y0087320D01*
X0243400Y0088918D02*
X0341000Y0088918D01*
X0341000Y0090517D02*
X0243400Y0090517D01*
X0243400Y0092115D02*
X0341000Y0092115D01*
X0341000Y0093714D02*
X0243400Y0093714D01*
X0243400Y0095312D02*
X0341000Y0095312D01*
X0341000Y0096911D02*
X0243400Y0096911D01*
X0243400Y0098509D02*
X0341000Y0098509D01*
X0341000Y0112896D02*
X0290257Y0112896D01*
X0290083Y0114494D02*
X0341000Y0114494D01*
X0263800Y0049900D02*
X0238200Y0049900D01*
X0231000Y0057100D01*
X0231000Y0061000D01*
X0241000Y0071000D01*
X0241000Y0106000D01*
X0244019Y0109699D02*
X0247981Y0109699D01*
X0246729Y0108100D02*
X0245617Y0108100D01*
X0245750Y0106502D02*
X0246250Y0106502D01*
X0246313Y0104903D02*
X0245750Y0104903D01*
X0245022Y0103305D02*
X0246978Y0103305D01*
X0248954Y0101706D02*
X0243424Y0101706D01*
X0243400Y0100108D02*
X0253498Y0100108D01*
X0238600Y0100108D02*
X0202776Y0100108D01*
X0202800Y0100165D02*
X0202800Y0101835D01*
X0202161Y0103379D01*
X0200979Y0104561D01*
X0199435Y0105200D01*
X0192565Y0105200D01*
X0191021Y0104561D01*
X0189839Y0103379D01*
X0189200Y0101835D01*
X0189200Y0100165D01*
X0189839Y0098621D01*
X0191021Y0097439D01*
X0192565Y0096800D01*
X0199435Y0096800D01*
X0200979Y0097439D01*
X0202161Y0098621D01*
X0202800Y0100165D01*
X0202800Y0101706D02*
X0238576Y0101706D01*
X0236978Y0103305D02*
X0202191Y0103305D01*
X0202049Y0098509D02*
X0238600Y0098509D01*
X0238600Y0096911D02*
X0199703Y0096911D01*
X0199435Y0095200D02*
X0200979Y0094561D01*
X0202161Y0093379D01*
X0202800Y0091835D01*
X0202800Y0090165D01*
X0202161Y0088621D01*
X0200979Y0087439D01*
X0199435Y0086800D01*
X0192565Y0086800D01*
X0191021Y0087439D01*
X0189839Y0088621D01*
X0189200Y0090165D01*
X0189200Y0091835D01*
X0189839Y0093379D01*
X0191021Y0094561D01*
X0192565Y0095200D01*
X0199435Y0095200D01*
X0201826Y0093714D02*
X0238600Y0093714D01*
X0238600Y0095312D02*
X0098400Y0095312D01*
X0098400Y0093714D02*
X0130174Y0093714D01*
X0129839Y0093379D02*
X0129200Y0091835D01*
X0129200Y0090165D01*
X0129839Y0088621D01*
X0131021Y0087439D01*
X0132565Y0086800D01*
X0139435Y0086800D01*
X0140979Y0087439D01*
X0142161Y0088621D01*
X0142800Y0090165D01*
X0142800Y0091835D01*
X0142161Y0093379D01*
X0140979Y0094561D01*
X0139435Y0095200D01*
X0132565Y0095200D01*
X0131021Y0094561D01*
X0129839Y0093379D01*
X0129316Y0092115D02*
X0098400Y0092115D01*
X0098400Y0090517D02*
X0129200Y0090517D01*
X0129716Y0088918D02*
X0098400Y0088918D01*
X0098400Y0087320D02*
X0131310Y0087320D01*
X0140690Y0087320D02*
X0191310Y0087320D01*
X0189716Y0088918D02*
X0142284Y0088918D01*
X0142800Y0090517D02*
X0189200Y0090517D01*
X0189316Y0092115D02*
X0142684Y0092115D01*
X0141826Y0093714D02*
X0190174Y0093714D01*
X0192297Y0096911D02*
X0139703Y0096911D01*
X0139435Y0096800D02*
X0140979Y0097439D01*
X0142161Y0098621D01*
X0142800Y0100165D01*
X0142800Y0101835D01*
X0142161Y0103379D01*
X0140979Y0104561D01*
X0139435Y0105200D01*
X0132565Y0105200D01*
X0131021Y0104561D01*
X0129839Y0103379D01*
X0129200Y0101835D01*
X0129200Y0100165D01*
X0129839Y0098621D01*
X0131021Y0097439D01*
X0132565Y0096800D01*
X0139435Y0096800D01*
X0142049Y0098509D02*
X0189951Y0098509D01*
X0189224Y0100108D02*
X0142776Y0100108D01*
X0142800Y0101706D02*
X0189200Y0101706D01*
X0189809Y0103305D02*
X0142191Y0103305D01*
X0140152Y0104903D02*
X0191848Y0104903D01*
X0190360Y0108100D02*
X0141640Y0108100D01*
X0142607Y0109699D02*
X0189393Y0109699D01*
X0189200Y0111297D02*
X0142800Y0111297D01*
X0142361Y0112896D02*
X0189639Y0112896D01*
X0190955Y0114494D02*
X0141045Y0114494D01*
X0141231Y0117691D02*
X0190769Y0117691D01*
X0191021Y0117439D02*
X0192565Y0116800D01*
X0199435Y0116800D01*
X0200979Y0117439D01*
X0202161Y0118621D01*
X0202800Y0120165D01*
X0202800Y0121835D01*
X0202161Y0123379D01*
X0200979Y0124561D01*
X0199435Y0125200D01*
X0192565Y0125200D01*
X0191021Y0124561D01*
X0189839Y0123379D01*
X0189200Y0121835D01*
X0189200Y0120165D01*
X0189839Y0118621D01*
X0191021Y0117439D01*
X0189562Y0119290D02*
X0142438Y0119290D01*
X0142800Y0120888D02*
X0189200Y0120888D01*
X0189470Y0122487D02*
X0142530Y0122487D01*
X0141454Y0124085D02*
X0190546Y0124085D01*
X0191400Y0127282D02*
X0140600Y0127282D01*
X0142268Y0128881D02*
X0189732Y0128881D01*
X0189839Y0128621D02*
X0191021Y0127439D01*
X0192565Y0126800D01*
X0199435Y0126800D01*
X0200979Y0127439D01*
X0202161Y0128621D01*
X0202800Y0130165D01*
X0202800Y0131835D01*
X0202161Y0133379D01*
X0200979Y0134561D01*
X0199435Y0135200D01*
X0192565Y0135200D01*
X0191021Y0134561D01*
X0189839Y0133379D01*
X0189200Y0131835D01*
X0189200Y0130165D01*
X0189839Y0128621D01*
X0189200Y0130479D02*
X0142800Y0130479D01*
X0142700Y0132078D02*
X0189300Y0132078D01*
X0190137Y0133676D02*
X0141863Y0133676D01*
X0140979Y0137439D02*
X0142161Y0138621D01*
X0142800Y0140165D01*
X0142800Y0141835D01*
X0142161Y0143379D01*
X0140979Y0144561D01*
X0139435Y0145200D01*
X0132565Y0145200D01*
X0131021Y0144561D01*
X0129839Y0143379D01*
X0129200Y0141835D01*
X0129200Y0140165D01*
X0129839Y0138621D01*
X0131021Y0137439D01*
X0132565Y0136800D01*
X0139435Y0136800D01*
X0140979Y0137439D01*
X0142012Y0138472D02*
X0189988Y0138472D01*
X0189239Y0140070D02*
X0142761Y0140070D01*
X0142800Y0141669D02*
X0189200Y0141669D01*
X0189793Y0143268D02*
X0142207Y0143268D01*
X0140242Y0144866D02*
X0188740Y0144866D01*
X0187141Y0146465D02*
X0051000Y0146465D01*
X0051000Y0148063D02*
X0075114Y0148063D01*
X0074208Y0149662D02*
X0051000Y0149662D01*
X0051000Y0151260D02*
X0074000Y0151260D01*
X0074409Y0152859D02*
X0051000Y0152859D01*
X0051000Y0154457D02*
X0075673Y0154457D01*
X0075806Y0157654D02*
X0051000Y0157654D01*
X0051000Y0156056D02*
X0127662Y0156056D01*
X0129260Y0157654D02*
X0116194Y0157654D01*
X0116083Y0154457D02*
X0126063Y0154457D01*
X0126000Y0151000D02*
X0111000Y0151000D01*
X0116603Y0148063D02*
X0130397Y0148063D01*
X0129408Y0149662D02*
X0128056Y0149662D01*
X0126000Y0151000D02*
X0136000Y0161000D01*
X0134450Y0156056D02*
X0183600Y0156056D01*
X0183600Y0157654D02*
X0141194Y0157654D01*
X0142422Y0159253D02*
X0183600Y0159253D01*
X0183600Y0160851D02*
X0142800Y0160851D01*
X0142546Y0162450D02*
X0183600Y0162450D01*
X0183600Y0164048D02*
X0141492Y0164048D01*
X0141083Y0154457D02*
X0183600Y0154457D01*
X0183600Y0152859D02*
X0142376Y0152859D01*
X0142800Y0151260D02*
X0183600Y0151260D01*
X0183957Y0149662D02*
X0142592Y0149662D01*
X0141603Y0148063D02*
X0185543Y0148063D01*
X0189134Y0151260D02*
X0189200Y0151260D01*
X0189624Y0152859D02*
X0188400Y0152859D01*
X0188400Y0154457D02*
X0190917Y0154457D01*
X0201603Y0148063D02*
X0211743Y0148063D01*
X0201863Y0133676D02*
X0233600Y0133676D01*
X0233600Y0132078D02*
X0202700Y0132078D01*
X0202800Y0130479D02*
X0233618Y0130479D01*
X0234725Y0128881D02*
X0202268Y0128881D01*
X0200600Y0127282D02*
X0236323Y0127282D01*
X0237922Y0125684D02*
X0051000Y0125684D01*
X0051000Y0127282D02*
X0078495Y0127282D01*
X0079177Y0126600D02*
X0076600Y0129177D01*
X0076600Y0131000D01*
X0081000Y0131000D01*
X0085400Y0131000D01*
X0085400Y0132823D01*
X0082823Y0135400D01*
X0081000Y0135400D01*
X0081000Y0131000D01*
X0081000Y0131000D01*
X0081000Y0131000D01*
X0085400Y0131000D01*
X0085400Y0129177D01*
X0082823Y0126600D01*
X0081000Y0126600D01*
X0081000Y0131000D01*
X0081000Y0131000D01*
X0081000Y0131000D01*
X0081000Y0135400D01*
X0079177Y0135400D01*
X0076600Y0132823D01*
X0076600Y0131000D01*
X0081000Y0131000D01*
X0081000Y0126600D01*
X0079177Y0126600D01*
X0081000Y0127282D02*
X0081000Y0127282D01*
X0081000Y0128881D02*
X0081000Y0128881D01*
X0081000Y0130479D02*
X0081000Y0130479D01*
X0081000Y0132078D02*
X0081000Y0132078D01*
X0081000Y0133676D02*
X0081000Y0133676D01*
X0081000Y0135275D02*
X0081000Y0135275D01*
X0082948Y0135275D02*
X0091881Y0135275D01*
X0093479Y0136873D02*
X0051000Y0136873D01*
X0051000Y0135275D02*
X0079052Y0135275D01*
X0077454Y0133676D02*
X0051000Y0133676D01*
X0051000Y0132078D02*
X0076600Y0132078D01*
X0076600Y0130479D02*
X0051000Y0130479D01*
X0051000Y0128881D02*
X0076897Y0128881D01*
X0083505Y0127282D02*
X0088778Y0127282D01*
X0087179Y0128881D02*
X0085103Y0128881D01*
X0085400Y0130479D02*
X0086800Y0130479D01*
X0086800Y0132078D02*
X0085400Y0132078D01*
X0084546Y0133676D02*
X0087737Y0133676D01*
X0091000Y0131000D02*
X0101000Y0141000D01*
X0121000Y0141000D01*
X0125257Y0141669D02*
X0129200Y0141669D01*
X0129239Y0140070D02*
X0125257Y0140070D01*
X0125257Y0138472D02*
X0129988Y0138472D01*
X0132387Y0136873D02*
X0124451Y0136873D01*
X0125257Y0143268D02*
X0129793Y0143268D01*
X0131758Y0144866D02*
X0124712Y0144866D01*
X0117288Y0144866D02*
X0051000Y0144866D01*
X0051000Y0143268D02*
X0100203Y0143268D01*
X0098275Y0141669D02*
X0051000Y0141669D01*
X0051000Y0140070D02*
X0096676Y0140070D01*
X0095078Y0138472D02*
X0051000Y0138472D01*
X0051000Y0159253D02*
X0074578Y0159253D01*
X0074200Y0160851D02*
X0051000Y0160851D01*
X0051000Y0162450D02*
X0074454Y0162450D01*
X0075508Y0164048D02*
X0051000Y0164048D01*
X0051000Y0188026D02*
X0075434Y0188026D01*
X0074424Y0189624D02*
X0051000Y0189624D01*
X0051000Y0191223D02*
X0074200Y0191223D01*
X0074608Y0192821D02*
X0051000Y0192821D01*
X0051000Y0194420D02*
X0075880Y0194420D01*
X0075843Y0197617D02*
X0051000Y0197617D01*
X0051000Y0199215D02*
X0074593Y0199215D01*
X0074200Y0200814D02*
X0051000Y0200814D01*
X0051000Y0202412D02*
X0074439Y0202412D01*
X0075471Y0204011D02*
X0051000Y0204011D01*
X0051000Y0205609D02*
X0088600Y0205609D01*
X0088600Y0204011D02*
X0086529Y0204011D01*
X0087561Y0202412D02*
X0088600Y0202412D01*
X0091000Y0201000D02*
X0091000Y0226000D01*
X0096000Y0231000D01*
X0091743Y0231186D02*
X0087800Y0231186D01*
X0087561Y0229587D02*
X0091193Y0229587D01*
X0089595Y0227989D02*
X0086528Y0227989D01*
X0088600Y0226390D02*
X0068400Y0226390D01*
X0068400Y0224792D02*
X0076579Y0224792D01*
X0076021Y0224561D02*
X0074839Y0223379D01*
X0074200Y0221835D01*
X0074200Y0220165D01*
X0074839Y0218621D01*
X0076021Y0217439D01*
X0077565Y0216800D01*
X0084435Y0216800D01*
X0085979Y0217439D01*
X0087161Y0218621D01*
X0087800Y0220165D01*
X0087800Y0221835D01*
X0087161Y0223379D01*
X0085979Y0224561D01*
X0084435Y0225200D01*
X0077565Y0225200D01*
X0076021Y0224561D01*
X0074762Y0223193D02*
X0068400Y0223193D01*
X0068800Y0221595D02*
X0074200Y0221595D01*
X0074270Y0219996D02*
X0070398Y0219996D01*
X0071997Y0218398D02*
X0075063Y0218398D01*
X0073595Y0216799D02*
X0088600Y0216799D01*
X0088600Y0215201D02*
X0075194Y0215201D01*
X0076000Y0211000D02*
X0066000Y0221000D01*
X0066000Y0246000D01*
X0071000Y0251000D01*
X0073197Y0251966D02*
X0113600Y0251966D01*
X0113600Y0250368D02*
X0073336Y0250368D01*
X0072163Y0248769D02*
X0113600Y0248769D01*
X0113600Y0247171D02*
X0070565Y0247171D01*
X0066974Y0250368D02*
X0051000Y0250368D01*
X0051000Y0251966D02*
X0068572Y0251966D01*
X0065375Y0248769D02*
X0051000Y0248769D01*
X0051000Y0247171D02*
X0063887Y0247171D01*
X0063600Y0245572D02*
X0051000Y0245572D01*
X0051000Y0243974D02*
X0063600Y0243974D01*
X0063600Y0242375D02*
X0051000Y0242375D01*
X0051000Y0240777D02*
X0063600Y0240777D01*
X0063600Y0239178D02*
X0051000Y0239178D01*
X0051000Y0237580D02*
X0063600Y0237580D01*
X0063600Y0235981D02*
X0051000Y0235981D01*
X0051000Y0234383D02*
X0063600Y0234383D01*
X0063600Y0232784D02*
X0051000Y0232784D01*
X0051000Y0231186D02*
X0063600Y0231186D01*
X0063600Y0229587D02*
X0051000Y0229587D01*
X0051000Y0227989D02*
X0063600Y0227989D01*
X0063600Y0226390D02*
X0051000Y0226390D01*
X0051000Y0224792D02*
X0063600Y0224792D01*
X0063600Y0223193D02*
X0051000Y0223193D01*
X0051000Y0221595D02*
X0063600Y0221595D01*
X0063818Y0219996D02*
X0051000Y0219996D01*
X0051000Y0218398D02*
X0065208Y0218398D01*
X0066807Y0216799D02*
X0051000Y0216799D01*
X0051000Y0215201D02*
X0068405Y0215201D01*
X0070004Y0213602D02*
X0051000Y0213602D01*
X0051000Y0212003D02*
X0071602Y0212003D01*
X0073201Y0210405D02*
X0051000Y0210405D01*
X0051000Y0208806D02*
X0074763Y0208806D01*
X0076580Y0207208D02*
X0051000Y0207208D01*
X0051000Y0196018D02*
X0082624Y0196018D01*
X0081000Y0191000D02*
X0091000Y0201000D01*
X0088600Y0207208D02*
X0085420Y0207208D01*
X0087237Y0208806D02*
X0088600Y0208806D01*
X0088600Y0210405D02*
X0087800Y0210405D01*
X0087730Y0212003D02*
X0088600Y0212003D01*
X0088600Y0213602D02*
X0086938Y0213602D01*
X0086937Y0218398D02*
X0088600Y0218398D01*
X0088600Y0219996D02*
X0087730Y0219996D01*
X0087800Y0221595D02*
X0088600Y0221595D01*
X0088600Y0223193D02*
X0087238Y0223193D01*
X0088600Y0224792D02*
X0085421Y0224792D01*
X0075472Y0227989D02*
X0068400Y0227989D01*
X0068400Y0229587D02*
X0074439Y0229587D01*
X0074200Y0231186D02*
X0068400Y0231186D01*
X0068400Y0232784D02*
X0074593Y0232784D01*
X0086157Y0234383D02*
X0091805Y0234383D01*
X0091743Y0232784D02*
X0087407Y0232784D01*
X0086119Y0237580D02*
X0096843Y0237580D01*
X0096743Y0239178D02*
X0087391Y0239178D01*
X0087800Y0240777D02*
X0096743Y0240777D01*
X0096743Y0242375D02*
X0087576Y0242375D01*
X0086566Y0243974D02*
X0096743Y0243974D01*
X0101000Y0241000D02*
X0111000Y0231000D01*
X0111000Y0221000D02*
X0121000Y0221000D01*
X0131000Y0231000D01*
X0136000Y0231000D01*
X0136000Y0221000D02*
X0131000Y0221000D01*
X0121000Y0211000D01*
X0111000Y0211000D01*
X0111000Y0201000D02*
X0121000Y0201000D01*
X0131000Y0211000D01*
X0136000Y0211000D01*
X0136000Y0201000D02*
X0131000Y0201000D01*
X0121000Y0191000D01*
X0111000Y0191000D01*
X0106000Y0186000D02*
X0081000Y0161000D01*
X0081000Y0154457D02*
X0081000Y0154457D01*
X0081000Y0152859D02*
X0081000Y0152859D01*
X0090639Y0167245D02*
X0106490Y0167245D01*
X0104747Y0168844D02*
X0092238Y0168844D01*
X0093836Y0170442D02*
X0104200Y0170442D01*
X0104285Y0172041D02*
X0095435Y0172041D01*
X0097033Y0173639D02*
X0105100Y0173639D01*
X0114523Y0176836D02*
X0123442Y0176836D01*
X0125041Y0178435D02*
X0116974Y0178435D01*
X0121000Y0181000D02*
X0111000Y0181000D01*
X0121000Y0181000D02*
X0131000Y0191000D01*
X0136000Y0191000D01*
X0141566Y0188026D02*
X0183600Y0188026D01*
X0183600Y0189624D02*
X0142576Y0189624D01*
X0142800Y0191223D02*
X0183600Y0191223D01*
X0183600Y0192821D02*
X0142392Y0192821D01*
X0142814Y0194420D02*
X0183600Y0194420D01*
X0183600Y0196018D02*
X0144412Y0196018D01*
X0146011Y0197617D02*
X0183600Y0197617D01*
X0183600Y0199215D02*
X0177610Y0199215D01*
X0179208Y0200814D02*
X0183600Y0200814D01*
X0183600Y0202412D02*
X0180807Y0202412D01*
X0182405Y0204011D02*
X0183600Y0204011D01*
X0183600Y0205609D02*
X0183400Y0205609D01*
X0183400Y0207208D02*
X0183600Y0207208D01*
X0183600Y0208806D02*
X0183400Y0208806D01*
X0183400Y0210405D02*
X0183600Y0210405D01*
X0183600Y0212003D02*
X0183400Y0212003D01*
X0183400Y0213602D02*
X0183600Y0213602D01*
X0183600Y0215201D02*
X0183400Y0215201D01*
X0183400Y0216799D02*
X0183600Y0216799D01*
X0183600Y0218398D02*
X0183400Y0218398D01*
X0183400Y0219996D02*
X0183600Y0219996D01*
X0183600Y0221595D02*
X0183400Y0221595D01*
X0183400Y0223193D02*
X0183600Y0223193D01*
X0183600Y0224792D02*
X0183400Y0224792D01*
X0196000Y0211000D02*
X0216000Y0211000D01*
X0211743Y0213602D02*
X0201938Y0213602D01*
X0201937Y0218398D02*
X0211743Y0218398D01*
X0212214Y0207208D02*
X0200420Y0207208D01*
X0201529Y0204011D02*
X0211743Y0204011D01*
X0216000Y0201000D02*
X0196000Y0201000D01*
X0201157Y0197617D02*
X0211805Y0197617D01*
X0211842Y0194420D02*
X0201120Y0194420D01*
X0196000Y0191000D02*
X0216000Y0191000D01*
X0211743Y0188026D02*
X0201566Y0188026D01*
X0200332Y0184829D02*
X0212251Y0184829D01*
X0216000Y0181000D02*
X0196000Y0181000D01*
X0191668Y0184829D02*
X0188400Y0184829D01*
X0188400Y0183230D02*
X0189778Y0183230D01*
X0189200Y0181632D02*
X0188400Y0181632D01*
X0188400Y0180033D02*
X0189254Y0180033D01*
X0190026Y0178435D02*
X0188400Y0178435D01*
X0188400Y0176836D02*
X0192477Y0176836D01*
X0190100Y0173639D02*
X0188400Y0173639D01*
X0188400Y0172041D02*
X0189285Y0172041D01*
X0189200Y0170442D02*
X0188400Y0170442D01*
X0188400Y0168844D02*
X0189747Y0168844D01*
X0188400Y0175238D02*
X0212660Y0175238D01*
X0212586Y0176836D02*
X0199523Y0176836D01*
X0201974Y0178435D02*
X0211743Y0178435D01*
X0211743Y0173639D02*
X0201900Y0173639D01*
X0196000Y0171000D02*
X0216000Y0171000D01*
X0212177Y0167245D02*
X0200510Y0167245D01*
X0201492Y0164048D02*
X0211743Y0164048D01*
X0192387Y0136873D02*
X0139613Y0136873D01*
X0117549Y0136873D02*
X0100268Y0136873D01*
X0101866Y0138472D02*
X0116743Y0138472D01*
X0111000Y0161000D02*
X0126000Y0161000D01*
X0127647Y0159253D02*
X0129578Y0159253D01*
X0130955Y0114494D02*
X0051000Y0114494D01*
X0051000Y0112896D02*
X0129639Y0112896D01*
X0129200Y0111297D02*
X0051000Y0111297D01*
X0051000Y0109699D02*
X0078476Y0109699D01*
X0079177Y0110400D02*
X0076600Y0107823D01*
X0076600Y0106000D01*
X0081000Y0106000D01*
X0085400Y0106000D01*
X0085400Y0107823D01*
X0082823Y0110400D01*
X0081000Y0110400D01*
X0081000Y0106000D01*
X0081000Y0106000D01*
X0081000Y0106000D01*
X0085400Y0106000D01*
X0085400Y0104177D01*
X0082823Y0101600D01*
X0081000Y0101600D01*
X0081000Y0106000D01*
X0081000Y0106000D01*
X0081000Y0106000D01*
X0081000Y0110400D01*
X0079177Y0110400D01*
X0081000Y0109699D02*
X0081000Y0109699D01*
X0081000Y0108100D02*
X0081000Y0108100D01*
X0081000Y0106502D02*
X0081000Y0106502D01*
X0081000Y0106000D02*
X0076600Y0106000D01*
X0076600Y0104177D01*
X0079177Y0101600D01*
X0081000Y0101600D01*
X0081000Y0106000D01*
X0081000Y0104903D02*
X0081000Y0104903D01*
X0081000Y0103305D02*
X0081000Y0103305D01*
X0081000Y0101706D02*
X0081000Y0101706D01*
X0082929Y0101706D02*
X0091900Y0101706D01*
X0093498Y0100108D02*
X0051000Y0100108D01*
X0051000Y0101706D02*
X0079071Y0101706D01*
X0077473Y0103305D02*
X0051000Y0103305D01*
X0051000Y0104903D02*
X0076600Y0104903D01*
X0076600Y0106502D02*
X0051000Y0106502D01*
X0051000Y0108100D02*
X0076878Y0108100D01*
X0083524Y0109699D02*
X0088759Y0109699D01*
X0087161Y0108100D02*
X0085122Y0108100D01*
X0085400Y0106502D02*
X0086800Y0106502D01*
X0086800Y0104903D02*
X0085400Y0104903D01*
X0084527Y0103305D02*
X0087756Y0103305D01*
X0093600Y0098509D02*
X0051000Y0098509D01*
X0051000Y0096911D02*
X0093600Y0096911D01*
X0093600Y0095312D02*
X0051000Y0095312D01*
X0051000Y0093714D02*
X0093600Y0093714D01*
X0093600Y0092115D02*
X0051000Y0092115D01*
X0051000Y0090517D02*
X0093600Y0090517D01*
X0093600Y0088918D02*
X0051000Y0088918D01*
X0051000Y0087320D02*
X0093600Y0087320D01*
X0093600Y0085721D02*
X0051000Y0085721D01*
X0051000Y0084123D02*
X0077900Y0084123D01*
X0079177Y0085400D02*
X0076600Y0082823D01*
X0076600Y0081000D01*
X0081000Y0081000D01*
X0085400Y0081000D01*
X0085400Y0082823D01*
X0082823Y0085400D01*
X0081000Y0085400D01*
X0081000Y0081000D01*
X0081000Y0081000D01*
X0081000Y0081000D01*
X0085400Y0081000D01*
X0085400Y0079177D01*
X0082823Y0076600D01*
X0081000Y0076600D01*
X0081000Y0081000D01*
X0081000Y0081000D01*
X0081000Y0081000D01*
X0081000Y0085400D01*
X0079177Y0085400D01*
X0081000Y0084123D02*
X0081000Y0084123D01*
X0081000Y0082524D02*
X0081000Y0082524D01*
X0081000Y0081000D02*
X0076600Y0081000D01*
X0076600Y0079177D01*
X0079177Y0076600D01*
X0081000Y0076600D01*
X0081000Y0081000D01*
X0081000Y0080926D02*
X0081000Y0080926D01*
X0081000Y0079327D02*
X0081000Y0079327D01*
X0081000Y0077729D02*
X0081000Y0077729D01*
X0083951Y0077729D02*
X0088332Y0077729D01*
X0088600Y0076130D02*
X0051000Y0076130D01*
X0051000Y0074532D02*
X0088600Y0074532D01*
X0088600Y0072933D02*
X0051000Y0072933D01*
X0051000Y0071334D02*
X0088600Y0071334D01*
X0088600Y0069736D02*
X0051000Y0069736D01*
X0051000Y0068137D02*
X0088600Y0068137D01*
X0088600Y0066539D02*
X0051000Y0066539D01*
X0051000Y0064940D02*
X0088600Y0064940D01*
X0088600Y0063342D02*
X0051000Y0063342D01*
X0051000Y0061743D02*
X0088600Y0061743D01*
X0088600Y0060145D02*
X0051000Y0060145D01*
X0051000Y0058546D02*
X0088600Y0058546D01*
X0088600Y0056948D02*
X0051000Y0056948D01*
X0051000Y0055349D02*
X0088672Y0055349D01*
X0089855Y0053751D02*
X0051000Y0053751D01*
X0051000Y0052152D02*
X0091454Y0052152D01*
X0091800Y0050554D02*
X0051000Y0050554D01*
X0051000Y0048955D02*
X0092301Y0048955D01*
X0093820Y0047357D02*
X0051000Y0047357D01*
X0051000Y0045758D02*
X0233179Y0045758D01*
X0243221Y0045758D02*
X0258779Y0045758D01*
X0256874Y0047357D02*
X0245126Y0047357D01*
X0243854Y0053751D02*
X0258145Y0053751D01*
X0258599Y0036167D02*
X0243401Y0036167D01*
X0245156Y0034569D02*
X0256844Y0034569D01*
X0256200Y0032970D02*
X0245800Y0032970D01*
X0245800Y0031372D02*
X0256200Y0031372D01*
X0256785Y0029773D02*
X0245215Y0029773D01*
X0243744Y0028175D02*
X0258256Y0028175D01*
X0229356Y0055349D02*
X0095045Y0055349D01*
X0094807Y0056948D02*
X0093446Y0056948D01*
X0091000Y0056000D02*
X0096000Y0051000D01*
X0136000Y0051000D01*
X0141789Y0053751D02*
X0190211Y0053751D01*
X0189331Y0052152D02*
X0142669Y0052152D01*
X0142800Y0050554D02*
X0189200Y0050554D01*
X0189701Y0048955D02*
X0142299Y0048955D01*
X0140780Y0047357D02*
X0191220Y0047357D01*
X0190620Y0044160D02*
X0141663Y0044160D01*
X0142719Y0042561D02*
X0189501Y0042561D01*
X0189200Y0040963D02*
X0143000Y0040963D01*
X0143000Y0041000D02*
X0136000Y0041000D01*
X0136000Y0036000D01*
X0141000Y0031000D01*
X0196000Y0031000D01*
X0190695Y0037766D02*
X0141588Y0037766D01*
X0142695Y0039364D02*
X0189531Y0039364D01*
X0192565Y0056800D02*
X0199435Y0056800D01*
X0200979Y0057439D01*
X0202161Y0058621D01*
X0202800Y0060165D01*
X0202800Y0061835D01*
X0202161Y0063379D01*
X0200979Y0064561D01*
X0199435Y0065200D01*
X0192565Y0065200D01*
X0191021Y0064561D01*
X0189839Y0063379D01*
X0189200Y0061835D01*
X0189200Y0060165D01*
X0189839Y0058621D01*
X0191021Y0057439D01*
X0192565Y0056800D01*
X0192207Y0056948D02*
X0139792Y0056948D01*
X0142086Y0058546D02*
X0189914Y0058546D01*
X0189208Y0060145D02*
X0142792Y0060145D01*
X0142800Y0061743D02*
X0189200Y0061743D01*
X0189824Y0063342D02*
X0142176Y0063342D01*
X0140062Y0064940D02*
X0191938Y0064940D01*
X0190323Y0068137D02*
X0141677Y0068137D01*
X0142622Y0069736D02*
X0189378Y0069736D01*
X0189200Y0071334D02*
X0142800Y0071334D01*
X0142345Y0072933D02*
X0189655Y0072933D01*
X0190992Y0074532D02*
X0141008Y0074532D01*
X0141268Y0077729D02*
X0190732Y0077729D01*
X0189547Y0079327D02*
X0142453Y0079327D01*
X0142800Y0080926D02*
X0189200Y0080926D01*
X0189485Y0082524D02*
X0142515Y0082524D01*
X0141417Y0084123D02*
X0190583Y0084123D01*
X0200690Y0087320D02*
X0238600Y0087320D01*
X0238600Y0088918D02*
X0202284Y0088918D01*
X0202800Y0090517D02*
X0238600Y0090517D01*
X0238600Y0092115D02*
X0202684Y0092115D01*
X0201231Y0117691D02*
X0245915Y0117691D01*
X0244316Y0119290D02*
X0202438Y0119290D01*
X0202800Y0120888D02*
X0242718Y0120888D01*
X0241119Y0122487D02*
X0202530Y0122487D01*
X0201454Y0124085D02*
X0239521Y0124085D01*
X0227363Y0064940D02*
X0200062Y0064940D01*
X0202176Y0063342D02*
X0226743Y0063342D01*
X0226743Y0061743D02*
X0202800Y0061743D01*
X0202792Y0060145D02*
X0226743Y0060145D01*
X0226743Y0058546D02*
X0202086Y0058546D01*
X0199792Y0056948D02*
X0227474Y0056948D01*
X0143000Y0041000D02*
X0136000Y0041000D01*
X0136000Y0041000D01*
X0136000Y0041000D01*
X0136000Y0036600D01*
X0136000Y0041000D01*
X0136000Y0041000D01*
X0136000Y0041000D01*
X0129000Y0041000D01*
X0129000Y0041346D01*
X0129108Y0042030D01*
X0129322Y0042689D01*
X0129637Y0043306D01*
X0130044Y0043866D01*
X0130534Y0044356D01*
X0131094Y0044763D01*
X0131711Y0045078D01*
X0132370Y0045292D01*
X0133054Y0045400D01*
X0136000Y0045400D01*
X0136000Y0041000D01*
X0129000Y0041000D01*
X0129000Y0040654D01*
X0129108Y0039970D01*
X0129322Y0039311D01*
X0129637Y0038694D01*
X0130044Y0038134D01*
X0130534Y0037644D01*
X0129305Y0039364D02*
X0051000Y0039364D01*
X0051000Y0040963D02*
X0129000Y0040963D01*
X0129281Y0042561D02*
X0051000Y0042561D01*
X0051000Y0044160D02*
X0130337Y0044160D01*
X0131220Y0047357D02*
X0098180Y0047357D01*
X0099189Y0053751D02*
X0130211Y0053751D01*
X0132207Y0056948D02*
X0097192Y0056948D01*
X0099486Y0058546D02*
X0129914Y0058546D01*
X0130323Y0068137D02*
X0098400Y0068137D01*
X0098400Y0069736D02*
X0129378Y0069736D01*
X0129200Y0071334D02*
X0098400Y0071334D01*
X0098400Y0072933D02*
X0129655Y0072933D01*
X0132297Y0096911D02*
X0098400Y0096911D01*
X0098400Y0098509D02*
X0129951Y0098509D01*
X0129224Y0100108D02*
X0098400Y0100108D01*
X0098305Y0101706D02*
X0129200Y0101706D01*
X0129809Y0103305D02*
X0097089Y0103305D01*
X0095491Y0104903D02*
X0131848Y0104903D01*
X0091000Y0081000D02*
X0091000Y0056000D01*
X0078049Y0077729D02*
X0051000Y0077729D01*
X0051000Y0079327D02*
X0076600Y0079327D01*
X0076600Y0080926D02*
X0051000Y0080926D01*
X0051000Y0082524D02*
X0076600Y0082524D01*
X0084100Y0084123D02*
X0088183Y0084123D01*
X0086800Y0082524D02*
X0085400Y0082524D01*
X0085400Y0080926D02*
X0086800Y0080926D01*
X0086800Y0079327D02*
X0085400Y0079327D01*
X0136000Y0044160D02*
X0136000Y0044160D01*
X0136000Y0042561D02*
X0136000Y0042561D01*
X0136000Y0040963D02*
X0136000Y0040963D01*
X0136000Y0039364D02*
X0136000Y0039364D01*
X0136000Y0037766D02*
X0136000Y0037766D01*
X0188400Y0197617D02*
X0190843Y0197617D01*
X0189593Y0199215D02*
X0188400Y0199215D01*
X0188400Y0200814D02*
X0189200Y0200814D01*
X0189439Y0202412D02*
X0188400Y0202412D01*
X0113600Y0253565D02*
X0051000Y0253565D01*
X0051000Y0255163D02*
X0113600Y0255163D01*
X0113600Y0256762D02*
X0051000Y0256762D01*
X0051000Y0258360D02*
X0113600Y0258360D01*
X0113600Y0259959D02*
X0051000Y0259959D01*
X0051000Y0261557D02*
X0113600Y0261557D01*
X0113600Y0263156D02*
X0051000Y0263156D01*
X0051000Y0264754D02*
X0113600Y0264754D01*
X0113600Y0266353D02*
X0051000Y0266353D01*
X0051000Y0267951D02*
X0114557Y0267951D01*
X0116156Y0269550D02*
X0051000Y0269550D01*
X0051000Y0271148D02*
X0117754Y0271148D01*
X0121800Y0272747D02*
X0051000Y0272747D01*
X0051000Y0274345D02*
X0122384Y0274345D01*
X0123600Y0275944D02*
X0051000Y0275944D01*
X0051000Y0277542D02*
X0123600Y0277542D01*
X0123600Y0279141D02*
X0051000Y0279141D01*
X0051000Y0280739D02*
X0123600Y0280739D01*
X0123956Y0282338D02*
X0051000Y0282338D01*
X0051000Y0283937D02*
X0125542Y0283937D01*
X0127141Y0285535D02*
X0051000Y0285535D01*
X0051000Y0287134D02*
X0128739Y0287134D01*
X0105434Y0243974D02*
X0105257Y0243974D01*
X0081000Y0211000D02*
X0076000Y0211000D01*
X0051000Y0288732D02*
X0341000Y0288732D01*
X0341000Y0290331D02*
X0051000Y0290331D01*
X0051000Y0291929D02*
X0341000Y0291929D01*
X0341000Y0293528D02*
X0051000Y0293528D01*
X0051000Y0295126D02*
X0341000Y0295126D01*
X0341000Y0296725D02*
X0051000Y0296725D01*
X0051000Y0298323D02*
X0341000Y0298323D01*
X0341000Y0299922D02*
X0051000Y0299922D01*
D17*
X0101000Y0241000D03*
X0096000Y0231000D03*
X0121000Y0141000D03*
X0216000Y0151000D03*
X0216000Y0161000D03*
X0216000Y0171000D03*
X0216000Y0181000D03*
X0216000Y0191000D03*
X0216000Y0201000D03*
X0216000Y0211000D03*
X0216000Y0221000D03*
X0286000Y0111000D03*
X0231000Y0061000D03*
X0196000Y0031000D03*
X0276000Y0036000D03*
M02*
