G75*
%MOIN*%
%OFA0B0*%
%FSLAX25Y25*%
%IPPOS*%
%LPD*%
%AMOC8*
5,1,8,0,0,1.08239X$1,22.5*
%
%ADD10OC8,0.06000*%
%ADD11OC8,0.07100*%
%ADD12C,0.07100*%
%ADD13C,0.06000*%
%ADD14R,0.05524X0.05524*%
%ADD15C,0.06000*%
%ADD16R,0.07887X0.13398*%
%ADD17R,0.13398X0.07887*%
%ADD18C,0.06800*%
%ADD19R,0.06115X0.06115*%
D10*
X0081000Y0081000D03*
X0091000Y0081000D03*
X0091000Y0106000D03*
X0081000Y0106000D03*
X0081000Y0131000D03*
X0091000Y0131000D03*
D11*
X0241000Y0106000D03*
D12*
X0251000Y0106000D03*
D13*
X0198600Y0101000D02*
X0193400Y0101000D01*
X0193400Y0091000D02*
X0198600Y0091000D01*
X0198600Y0081000D02*
X0193400Y0081000D01*
X0193400Y0071000D02*
X0198600Y0071000D01*
X0198600Y0061000D02*
X0193400Y0061000D01*
X0193400Y0051000D02*
X0198600Y0051000D01*
X0198600Y0041000D02*
X0193400Y0041000D01*
X0138600Y0041000D02*
X0133400Y0041000D01*
X0133400Y0051000D02*
X0138600Y0051000D01*
X0138600Y0061000D02*
X0133400Y0061000D01*
X0133400Y0071000D02*
X0138600Y0071000D01*
X0138600Y0081000D02*
X0133400Y0081000D01*
X0133400Y0091000D02*
X0138600Y0091000D01*
X0138600Y0101000D02*
X0133400Y0101000D01*
X0133400Y0111000D02*
X0138600Y0111000D01*
X0138600Y0121000D02*
X0133400Y0121000D01*
X0133400Y0131000D02*
X0138600Y0131000D01*
X0138600Y0141000D02*
X0133400Y0141000D01*
X0133400Y0151000D02*
X0138600Y0151000D01*
X0138600Y0161000D02*
X0133400Y0161000D01*
X0133400Y0171000D02*
X0138600Y0171000D01*
X0138600Y0181000D02*
X0133400Y0181000D01*
X0133400Y0191000D02*
X0138600Y0191000D01*
X0138600Y0201000D02*
X0133400Y0201000D01*
X0133400Y0211000D02*
X0138600Y0211000D01*
X0138600Y0221000D02*
X0133400Y0221000D01*
X0133400Y0231000D02*
X0138600Y0231000D01*
X0113600Y0231000D02*
X0108400Y0231000D01*
X0108400Y0221000D02*
X0113600Y0221000D01*
X0113600Y0211000D02*
X0108400Y0211000D01*
X0108400Y0201000D02*
X0113600Y0201000D01*
X0113600Y0191000D02*
X0108400Y0191000D01*
X0108400Y0181000D02*
X0113600Y0181000D01*
X0113600Y0171000D02*
X0108400Y0171000D01*
X0108400Y0161000D02*
X0113600Y0161000D01*
X0113600Y0151000D02*
X0108400Y0151000D01*
X0083600Y0151000D02*
X0078400Y0151000D01*
X0078400Y0161000D02*
X0083600Y0161000D01*
X0083600Y0171000D02*
X0078400Y0171000D01*
X0078400Y0181000D02*
X0083600Y0181000D01*
X0083600Y0191000D02*
X0078400Y0191000D01*
X0078400Y0201000D02*
X0083600Y0201000D01*
X0083600Y0211000D02*
X0078400Y0211000D01*
X0078400Y0221000D02*
X0083600Y0221000D01*
X0083600Y0231000D02*
X0078400Y0231000D01*
X0078400Y0241000D02*
X0083600Y0241000D01*
X0108400Y0241000D02*
X0113600Y0241000D01*
X0126000Y0266900D02*
X0126000Y0272100D01*
X0136000Y0272100D02*
X0136000Y0266900D01*
X0146000Y0266900D02*
X0146000Y0272100D01*
X0193400Y0231000D02*
X0198600Y0231000D01*
X0198600Y0221000D02*
X0193400Y0221000D01*
X0193400Y0211000D02*
X0198600Y0211000D01*
X0198600Y0201000D02*
X0193400Y0201000D01*
X0193400Y0191000D02*
X0198600Y0191000D01*
X0198600Y0181000D02*
X0193400Y0181000D01*
X0193400Y0171000D02*
X0198600Y0171000D01*
X0198600Y0161000D02*
X0193400Y0161000D01*
X0193400Y0151000D02*
X0198600Y0151000D01*
X0198600Y0141000D02*
X0193400Y0141000D01*
X0193400Y0131000D02*
X0198600Y0131000D01*
X0198600Y0121000D02*
X0193400Y0121000D01*
X0193400Y0111000D02*
X0198600Y0111000D01*
D14*
X0241866Y0136000D03*
X0250134Y0136000D03*
X0250134Y0151000D03*
X0241866Y0151000D03*
X0241866Y0166000D03*
X0250134Y0166000D03*
X0250134Y0181000D03*
X0241866Y0181000D03*
X0241866Y0196000D03*
X0250134Y0196000D03*
X0250134Y0211000D03*
X0241866Y0211000D03*
X0241866Y0226000D03*
X0250134Y0226000D03*
X0250134Y0236000D03*
X0241866Y0236000D03*
D15*
X0096000Y0051000D03*
X0096000Y0061000D03*
D16*
X0274976Y0061000D03*
X0297024Y0061000D03*
X0297024Y0086000D03*
X0274976Y0086000D03*
X0274976Y0111000D03*
X0297024Y0111000D03*
X0297024Y0136000D03*
X0274976Y0136000D03*
X0274976Y0161000D03*
X0297024Y0161000D03*
X0297024Y0186000D03*
X0274976Y0186000D03*
X0274976Y0211000D03*
X0297024Y0211000D03*
X0297024Y0236000D03*
X0274976Y0236000D03*
X0107024Y0261000D03*
X0084976Y0261000D03*
D17*
X0216000Y0057024D03*
X0216000Y0034976D03*
D18*
X0235200Y0032100D02*
X0241200Y0032100D01*
X0241200Y0049900D02*
X0235200Y0049900D01*
X0260800Y0049900D02*
X0266800Y0049900D01*
X0266800Y0032100D02*
X0260800Y0032100D01*
D19*
X0276000Y0036000D03*
X0231000Y0061000D03*
X0196000Y0031000D03*
X0286000Y0111000D03*
X0216000Y0151000D03*
X0216000Y0161000D03*
X0216000Y0171000D03*
X0216000Y0181000D03*
X0216000Y0191000D03*
X0216000Y0201000D03*
X0216000Y0211000D03*
X0216000Y0221000D03*
X0121000Y0141000D03*
X0096000Y0231000D03*
X0101000Y0241000D03*
M02*
