%
M48
M72
T01C0.03200
T02C0.03543
T03C0.04000
%
T01
X96000Y51000
X96000Y61000
X91000Y81000
X81000Y81000
X81000Y106000
X91000Y106000
X91000Y131000
X81000Y131000
X81000Y151000
X81000Y161000
X81000Y171000
X81000Y181000
X81000Y191000
X81000Y201000
X81000Y211000
X81000Y221000
X81000Y231000
X81000Y241000
X111000Y241000
X111000Y231000
X111000Y221000
X111000Y211000
X111000Y201000
X111000Y191000
X111000Y181000
X111000Y171000
X111000Y161000
X111000Y151000
X136000Y151000
X136000Y141000
X136000Y131000
X136000Y121000
X136000Y111000
X136000Y101000
X136000Y91000
X136000Y81000
X136000Y71000
X136000Y61000
X136000Y51000
X136000Y41000
X196000Y41000
X196000Y51000
X196000Y61000
X196000Y71000
X196000Y81000
X196000Y91000
X196000Y101000
X196000Y111000
X196000Y121000
X196000Y131000
X196000Y141000
X196000Y151000
X196000Y161000
X196000Y171000
X196000Y181000
X196000Y191000
X196000Y201000
X196000Y211000
X196000Y221000
X196000Y231000
X146000Y269500
X136000Y269500
X126000Y269500
X136000Y231000
X136000Y221000
X136000Y211000
X136000Y201000
X136000Y191000
X136000Y181000
X136000Y171000
X136000Y161000
X241000Y106000
X251000Y106000
T02
X286000Y111000
X231000Y61000
X196000Y31000
X276000Y36000
X216000Y151000
X216000Y161000
X216000Y171000
X216000Y181000
X216000Y191000
X216000Y201000
X216000Y211000
X216000Y221000
X121000Y141000
X96000Y231000
X101000Y241000
T03
X238200Y49900
X238200Y32100
X263800Y32100
X263800Y49900
M30
