%
M48
M72
T01C0.03200
T02C0.03543
T03C0.04000
%
T01
X131000Y146000
X141000Y146000
X246000Y206000
X256000Y206000
X251000Y181000
X261000Y181000
X261000Y156000
X251000Y156000
X136000Y246000
X136000Y256000
X136000Y266000
X136000Y276000
X136000Y286000
X116000Y286000
X116000Y276000
X116000Y266000
X116000Y256000
X116000Y246000
T02
X191000Y166000
X221000Y206000
X221000Y231000
T03
X166000Y126000
X176000Y126000
X186000Y126000
X196000Y126000
X206000Y126000
X216000Y126000
X226000Y126000
X236000Y126000
X233200Y252100
X233200Y269900
X258800Y269900
X258800Y252100
M30
