G75*
%MOIN*%
%OFA0B0*%
%FSLAX25Y25*%
%IPPOS*%
%LPD*%
%AMOC8*
5,1,8,0,0,1.08239X$1,22.5*
%
%ADD10C,0.00000*%
%ADD11OC8,0.05200*%
%ADD12OC8,0.06300*%
%ADD13C,0.06300*%
%ADD14C,0.05200*%
%ADD15R,0.02992X0.07087*%
%ADD16R,0.07087X0.02992*%
%ADD17C,0.05200*%
%ADD18R,0.07087X0.12598*%
%ADD19R,0.12598X0.07087*%
%ADD20C,0.06000*%
%ADD21C,0.01600*%
%ADD22R,0.05315X0.05315*%
D10*
X0001000Y0001000D02*
X0001000Y0315961D01*
X0394701Y0315961D01*
X0394701Y0001000D01*
X0001000Y0001000D01*
D11*
X0251000Y0156000D03*
X0261000Y0156000D03*
X0261000Y0181000D03*
X0251000Y0181000D03*
D12*
X0141000Y0146000D03*
D13*
X0131000Y0146000D03*
D14*
X0133400Y0246000D02*
X0138600Y0246000D01*
X0138600Y0256000D02*
X0133400Y0256000D01*
X0133400Y0266000D02*
X0138600Y0266000D01*
X0138600Y0276000D02*
X0133400Y0276000D01*
X0133400Y0286000D02*
X0138600Y0286000D01*
X0118600Y0286000D02*
X0113400Y0286000D01*
X0113400Y0276000D02*
X0118600Y0276000D01*
X0118600Y0266000D02*
X0113400Y0266000D01*
X0113400Y0256000D02*
X0118600Y0256000D01*
X0118600Y0246000D02*
X0113400Y0246000D01*
D15*
X0176000Y0216945D03*
X0181000Y0216945D03*
X0186000Y0216945D03*
X0191000Y0216945D03*
X0196000Y0216945D03*
X0201000Y0216945D03*
X0206000Y0216945D03*
X0211000Y0216945D03*
X0216000Y0216945D03*
X0221000Y0216945D03*
X0226000Y0216945D03*
X0226000Y0155055D03*
X0221000Y0155055D03*
X0216000Y0155055D03*
X0211000Y0155055D03*
X0206000Y0155055D03*
X0201000Y0155055D03*
X0196000Y0155055D03*
X0191000Y0155055D03*
X0186000Y0155055D03*
X0181000Y0155055D03*
X0176000Y0155055D03*
D16*
X0170055Y0161000D03*
X0170055Y0166000D03*
X0170055Y0171000D03*
X0170055Y0176000D03*
X0170055Y0181000D03*
X0170055Y0186000D03*
X0170055Y0191000D03*
X0170055Y0196000D03*
X0170055Y0201000D03*
X0170055Y0206000D03*
X0170055Y0211000D03*
X0231945Y0211000D03*
X0231945Y0206000D03*
X0231945Y0201000D03*
X0231945Y0196000D03*
X0231945Y0191000D03*
X0231945Y0186000D03*
X0231945Y0181000D03*
X0231945Y0176000D03*
X0231945Y0171000D03*
X0231945Y0166000D03*
X0231945Y0161000D03*
D17*
X0246000Y0206000D03*
X0256000Y0206000D03*
D18*
X0232024Y0231000D03*
X0209976Y0231000D03*
X0137024Y0231000D03*
X0114976Y0231000D03*
X0114976Y0211000D03*
X0137024Y0211000D03*
X0137024Y0191000D03*
X0114976Y0191000D03*
X0114976Y0171000D03*
X0137024Y0171000D03*
D19*
X0151000Y0249976D03*
X0171000Y0249976D03*
X0191000Y0249976D03*
X0211000Y0249976D03*
X0211000Y0272024D03*
X0191000Y0272024D03*
X0171000Y0272024D03*
X0151000Y0272024D03*
D20*
X0230200Y0269900D02*
X0236200Y0269900D01*
X0255800Y0269900D02*
X0261800Y0269900D01*
X0261800Y0252100D02*
X0255800Y0252100D01*
X0236200Y0252100D02*
X0230200Y0252100D01*
X0226000Y0129000D02*
X0226000Y0123000D01*
X0236000Y0123000D02*
X0236000Y0129000D01*
X0216000Y0129000D02*
X0216000Y0123000D01*
X0206000Y0123000D02*
X0206000Y0129000D01*
X0196000Y0129000D02*
X0196000Y0123000D01*
X0186000Y0123000D02*
X0186000Y0129000D01*
X0176000Y0129000D02*
X0176000Y0123000D01*
X0166000Y0123000D02*
X0166000Y0129000D01*
D21*
X0166000Y0126000D02*
X0166000Y0136000D01*
X0156000Y0146000D01*
X0156000Y0173500D01*
X0163500Y0181000D01*
X0170055Y0181000D01*
X0170055Y0176000D02*
X0163500Y0176000D01*
X0158500Y0171000D01*
X0158500Y0148500D01*
X0176000Y0131000D01*
X0176000Y0126000D01*
X0180600Y0125684D02*
X0181400Y0125684D01*
X0181400Y0127282D02*
X0180600Y0127282D01*
X0180600Y0128881D02*
X0181400Y0128881D01*
X0181400Y0129915D02*
X0181400Y0122085D01*
X0182100Y0120394D01*
X0183394Y0119100D01*
X0185085Y0118400D01*
X0186915Y0118400D01*
X0188606Y0119100D01*
X0189900Y0120394D01*
X0190600Y0122085D01*
X0190600Y0129915D01*
X0189900Y0131606D01*
X0188606Y0132900D01*
X0186915Y0133600D01*
X0186794Y0133600D01*
X0192506Y0133600D01*
X0193300Y0132806D01*
X0192100Y0131606D01*
X0191400Y0129915D01*
X0191400Y0122085D01*
X0192100Y0120394D01*
X0193394Y0119100D01*
X0195085Y0118400D01*
X0196915Y0118400D01*
X0198606Y0119100D01*
X0199900Y0120394D01*
X0200600Y0122085D01*
X0200600Y0129915D01*
X0199900Y0131606D01*
X0198606Y0132900D01*
X0198400Y0132985D01*
X0198400Y0133977D01*
X0198035Y0134859D01*
X0196794Y0136100D01*
X0202506Y0136100D01*
X0203600Y0135006D01*
X0203600Y0132985D01*
X0203394Y0132900D01*
X0202100Y0131606D01*
X0201400Y0129915D01*
X0201400Y0122085D01*
X0202100Y0120394D01*
X0203394Y0119100D01*
X0205085Y0118400D01*
X0206915Y0118400D01*
X0208606Y0119100D01*
X0209900Y0120394D01*
X0210600Y0122085D01*
X0210600Y0129915D01*
X0209900Y0131606D01*
X0208606Y0132900D01*
X0208400Y0132985D01*
X0208400Y0136477D01*
X0208035Y0137359D01*
X0206794Y0138600D01*
X0210006Y0138600D01*
X0213600Y0135006D01*
X0213600Y0132985D01*
X0213394Y0132900D01*
X0212100Y0131606D01*
X0211400Y0129915D01*
X0211400Y0122085D01*
X0212100Y0120394D01*
X0213394Y0119100D01*
X0215085Y0118400D01*
X0216915Y0118400D01*
X0218606Y0119100D01*
X0219900Y0120394D01*
X0220600Y0122085D01*
X0220600Y0129915D01*
X0219900Y0131606D01*
X0218606Y0132900D01*
X0218400Y0132985D01*
X0218400Y0136477D01*
X0218035Y0137359D01*
X0214294Y0141100D01*
X0220006Y0141100D01*
X0223600Y0137506D01*
X0223600Y0132985D01*
X0223394Y0132900D01*
X0222100Y0131606D01*
X0221400Y0129915D01*
X0221400Y0122085D01*
X0222100Y0120394D01*
X0223394Y0119100D01*
X0225085Y0118400D01*
X0226915Y0118400D01*
X0228606Y0119100D01*
X0229900Y0120394D01*
X0230600Y0122085D01*
X0230600Y0129915D01*
X0229900Y0131606D01*
X0228606Y0132900D01*
X0228400Y0132985D01*
X0228400Y0138977D01*
X0228035Y0139859D01*
X0224294Y0143600D01*
X0230006Y0143600D01*
X0233600Y0140006D01*
X0233600Y0132985D01*
X0233394Y0132900D01*
X0232100Y0131606D01*
X0231400Y0129915D01*
X0231400Y0122085D01*
X0232100Y0120394D01*
X0233394Y0119100D01*
X0235085Y0118400D01*
X0236915Y0118400D01*
X0238606Y0119100D01*
X0239900Y0120394D01*
X0240600Y0122085D01*
X0240600Y0129915D01*
X0239900Y0131606D01*
X0238606Y0132900D01*
X0238400Y0132985D01*
X0238400Y0141477D01*
X0238035Y0142359D01*
X0237359Y0143035D01*
X0232359Y0148035D01*
X0231477Y0148400D01*
X0191994Y0148400D01*
X0190482Y0149912D01*
X0193159Y0149912D01*
X0193500Y0150253D01*
X0193841Y0149912D01*
X0198159Y0149912D01*
X0198500Y0150253D01*
X0198841Y0149912D01*
X0203159Y0149912D01*
X0203500Y0150253D01*
X0203841Y0149912D01*
X0208159Y0149912D01*
X0208500Y0150253D01*
X0208841Y0149912D01*
X0213159Y0149912D01*
X0213500Y0150253D01*
X0213841Y0149912D01*
X0218159Y0149912D01*
X0218500Y0150253D01*
X0218841Y0149912D01*
X0223159Y0149912D01*
X0223500Y0150253D01*
X0223841Y0149912D01*
X0228159Y0149912D01*
X0229096Y0150849D01*
X0229096Y0157904D01*
X0236151Y0157904D01*
X0237088Y0158841D01*
X0237088Y0163159D01*
X0236747Y0163500D01*
X0237088Y0163841D01*
X0237088Y0168159D01*
X0236747Y0168500D01*
X0236847Y0168600D01*
X0255006Y0168600D01*
X0258600Y0165006D01*
X0258600Y0159540D01*
X0256800Y0157740D01*
X0256800Y0154260D01*
X0259260Y0151800D01*
X0262740Y0151800D01*
X0265200Y0154260D01*
X0265200Y0157740D01*
X0263400Y0159540D01*
X0263400Y0166477D01*
X0263035Y0167359D01*
X0262359Y0168035D01*
X0257359Y0173035D01*
X0256477Y0173400D01*
X0236847Y0173400D01*
X0236747Y0173500D01*
X0236847Y0173600D01*
X0256477Y0173600D01*
X0257359Y0173965D01*
X0260194Y0176800D01*
X0262740Y0176800D01*
X0265200Y0179260D01*
X0265200Y0182740D01*
X0262740Y0185200D01*
X0259260Y0185200D01*
X0256800Y0182740D01*
X0256800Y0180194D01*
X0255006Y0178400D01*
X0254623Y0178400D01*
X0255400Y0179177D01*
X0255400Y0181000D01*
X0255400Y0182823D01*
X0252823Y0185400D01*
X0251000Y0185400D01*
X0251000Y0181000D01*
X0251000Y0212024D01*
X0232024Y0231000D01*
X0232824Y0231186D02*
X0281000Y0231186D01*
X0281000Y0232784D02*
X0237367Y0232784D01*
X0237367Y0231800D02*
X0237367Y0237536D01*
X0237244Y0237994D01*
X0237007Y0238404D01*
X0236672Y0238740D01*
X0236262Y0238977D01*
X0235804Y0239099D01*
X0232824Y0239099D01*
X0232824Y0231800D01*
X0237367Y0231800D01*
X0237367Y0230200D02*
X0232824Y0230200D01*
X0232824Y0231800D01*
X0231224Y0231800D01*
X0231224Y0239099D01*
X0229993Y0239099D01*
X0231994Y0241100D01*
X0253977Y0241100D01*
X0254859Y0241465D01*
X0259859Y0246465D01*
X0260535Y0247141D01*
X0260684Y0247500D01*
X0262715Y0247500D01*
X0264406Y0248200D01*
X0265700Y0249494D01*
X0266400Y0251185D01*
X0266400Y0253015D01*
X0265700Y0254706D01*
X0264406Y0256000D01*
X0262715Y0256700D01*
X0254885Y0256700D01*
X0253194Y0256000D01*
X0251900Y0254706D01*
X0251200Y0253015D01*
X0251200Y0251185D01*
X0251900Y0249494D01*
X0253194Y0248200D01*
X0254334Y0247728D01*
X0252506Y0245900D01*
X0230523Y0245900D01*
X0229641Y0245535D01*
X0228965Y0244859D01*
X0219363Y0235257D01*
X0217680Y0235257D01*
X0216743Y0234320D01*
X0216743Y0233400D01*
X0215120Y0233400D01*
X0215120Y0237962D01*
X0214182Y0238899D01*
X0207293Y0238899D01*
X0209494Y0241100D01*
X0221477Y0241100D01*
X0222359Y0241465D01*
X0223035Y0242141D01*
X0225535Y0244641D01*
X0225900Y0245523D01*
X0225900Y0250461D01*
X0226300Y0249494D01*
X0227594Y0248200D01*
X0229285Y0247500D01*
X0237115Y0247500D01*
X0238806Y0248200D01*
X0240100Y0249494D01*
X0240800Y0251185D01*
X0240800Y0253015D01*
X0240100Y0254706D01*
X0238806Y0256000D01*
X0237115Y0256700D01*
X0230094Y0256700D01*
X0231994Y0258600D01*
X0236477Y0258600D01*
X0237359Y0258965D01*
X0238035Y0259641D01*
X0245894Y0267500D01*
X0251815Y0267500D01*
X0251900Y0267294D01*
X0253194Y0266000D01*
X0254885Y0265300D01*
X0262715Y0265300D01*
X0264406Y0266000D01*
X0265700Y0267294D01*
X0266400Y0268985D01*
X0266400Y0270815D01*
X0265700Y0272506D01*
X0264406Y0273800D01*
X0262715Y0274500D01*
X0254885Y0274500D01*
X0253194Y0273800D01*
X0251900Y0272506D01*
X0251815Y0272300D01*
X0244423Y0272300D01*
X0243541Y0271935D01*
X0240800Y0269194D01*
X0240800Y0270815D01*
X0240100Y0272506D01*
X0238806Y0273800D01*
X0237115Y0274500D01*
X0229285Y0274500D01*
X0227594Y0273800D01*
X0226300Y0272506D01*
X0225600Y0270815D01*
X0225600Y0268985D01*
X0226300Y0267294D01*
X0227594Y0266000D01*
X0229285Y0265300D01*
X0236906Y0265300D01*
X0235006Y0263400D01*
X0230523Y0263400D01*
X0229641Y0263035D01*
X0222141Y0255535D01*
X0221465Y0254859D01*
X0221100Y0253977D01*
X0221100Y0246994D01*
X0220006Y0245900D01*
X0218899Y0245900D01*
X0218899Y0254182D01*
X0217962Y0255120D01*
X0204038Y0255120D01*
X0203101Y0254182D01*
X0203101Y0246495D01*
X0198965Y0242359D01*
X0198600Y0241477D01*
X0198600Y0234494D01*
X0193400Y0229294D01*
X0193400Y0244833D01*
X0197962Y0244833D01*
X0198899Y0245770D01*
X0198899Y0254182D01*
X0197962Y0255120D01*
X0184038Y0255120D01*
X0183101Y0254182D01*
X0183101Y0245770D01*
X0184038Y0244833D01*
X0188600Y0244833D01*
X0188600Y0229494D01*
X0183965Y0224859D01*
X0183600Y0223977D01*
X0183600Y0221847D01*
X0183500Y0221747D01*
X0183400Y0221847D01*
X0183400Y0223977D01*
X0183035Y0224859D01*
X0182359Y0225535D01*
X0173400Y0234494D01*
X0173400Y0244833D01*
X0177962Y0244833D01*
X0178899Y0245770D01*
X0178899Y0254182D01*
X0177962Y0255120D01*
X0164038Y0255120D01*
X0163101Y0254182D01*
X0163101Y0245770D01*
X0164038Y0244833D01*
X0168600Y0244833D01*
X0168600Y0233023D01*
X0168965Y0232141D01*
X0178600Y0222506D01*
X0178600Y0221847D01*
X0178500Y0221747D01*
X0178159Y0222088D01*
X0173841Y0222088D01*
X0172904Y0221151D01*
X0172904Y0219345D01*
X0168549Y0219345D01*
X0153400Y0234494D01*
X0153400Y0244833D01*
X0157962Y0244833D01*
X0158899Y0245770D01*
X0158899Y0254182D01*
X0157962Y0255120D01*
X0144038Y0255120D01*
X0143101Y0254182D01*
X0143101Y0245770D01*
X0144038Y0244833D01*
X0148600Y0244833D01*
X0148600Y0233023D01*
X0148965Y0232141D01*
X0166196Y0214910D01*
X0167078Y0214545D01*
X0172904Y0214545D01*
X0172904Y0214096D01*
X0165849Y0214096D01*
X0165153Y0213400D01*
X0164494Y0213400D01*
X0144859Y0233035D01*
X0143977Y0233400D01*
X0142167Y0233400D01*
X0142167Y0237962D01*
X0141230Y0238899D01*
X0132818Y0238899D01*
X0131880Y0237962D01*
X0131880Y0224038D01*
X0132818Y0223101D01*
X0141230Y0223101D01*
X0142167Y0224038D01*
X0142167Y0228600D01*
X0142506Y0228600D01*
X0161465Y0209641D01*
X0162141Y0208965D01*
X0163023Y0208600D01*
X0165153Y0208600D01*
X0165253Y0208500D01*
X0165153Y0208400D01*
X0159494Y0208400D01*
X0154859Y0213035D01*
X0153977Y0213400D01*
X0142167Y0213400D01*
X0142167Y0217962D01*
X0141230Y0218899D01*
X0132818Y0218899D01*
X0131880Y0217962D01*
X0131880Y0204038D01*
X0132818Y0203101D01*
X0141230Y0203101D01*
X0142167Y0204038D01*
X0142167Y0208600D01*
X0152506Y0208600D01*
X0156465Y0204641D01*
X0157141Y0203965D01*
X0158023Y0203600D01*
X0165153Y0203600D01*
X0165253Y0203500D01*
X0164912Y0203159D01*
X0164912Y0203147D01*
X0164641Y0203035D01*
X0163965Y0202359D01*
X0155006Y0193400D01*
X0142167Y0193400D01*
X0142167Y0197962D01*
X0141230Y0198899D01*
X0132818Y0198899D01*
X0131880Y0197962D01*
X0131880Y0184038D01*
X0132818Y0183101D01*
X0141230Y0183101D01*
X0142167Y0184038D01*
X0142167Y0188600D01*
X0155206Y0188600D01*
X0142167Y0175561D01*
X0142167Y0177962D01*
X0141230Y0178899D01*
X0132818Y0178899D01*
X0131880Y0177962D01*
X0131880Y0164038D01*
X0132818Y0163101D01*
X0141230Y0163101D01*
X0142167Y0164038D01*
X0142167Y0168886D01*
X0142359Y0168965D01*
X0143035Y0169641D01*
X0151100Y0177706D01*
X0151100Y0159494D01*
X0150006Y0158400D01*
X0135523Y0158400D01*
X0134641Y0158035D01*
X0133965Y0157359D01*
X0128965Y0152359D01*
X0128600Y0151477D01*
X0128600Y0150147D01*
X0128309Y0150027D01*
X0126973Y0148691D01*
X0126250Y0146945D01*
X0126250Y0145055D01*
X0126973Y0143309D01*
X0128309Y0141973D01*
X0130055Y0141250D01*
X0131945Y0141250D01*
X0133691Y0141973D01*
X0135027Y0143309D01*
X0135750Y0145055D01*
X0135750Y0146945D01*
X0135027Y0148691D01*
X0133691Y0150027D01*
X0133500Y0150106D01*
X0136994Y0153600D01*
X0151477Y0153600D01*
X0152359Y0153965D01*
X0153600Y0155206D01*
X0153600Y0145523D01*
X0153965Y0144641D01*
X0154641Y0143965D01*
X0163600Y0135006D01*
X0163600Y0132985D01*
X0163394Y0132900D01*
X0162100Y0131606D01*
X0161400Y0129915D01*
X0161400Y0122085D01*
X0162100Y0120394D01*
X0163394Y0119100D01*
X0165085Y0118400D01*
X0166915Y0118400D01*
X0168606Y0119100D01*
X0169900Y0120394D01*
X0170600Y0122085D01*
X0170600Y0129915D01*
X0169900Y0131606D01*
X0168606Y0132900D01*
X0168400Y0132985D01*
X0168400Y0135206D01*
X0172071Y0131535D01*
X0171400Y0129915D01*
X0171400Y0122085D01*
X0172100Y0120394D01*
X0173394Y0119100D01*
X0175085Y0118400D01*
X0176915Y0118400D01*
X0178606Y0119100D01*
X0179900Y0120394D01*
X0180600Y0122085D01*
X0180600Y0129915D01*
X0180109Y0131100D01*
X0181891Y0131100D01*
X0181400Y0129915D01*
X0181634Y0130479D02*
X0180366Y0130479D01*
X0178500Y0133500D02*
X0161000Y0151000D01*
X0161000Y0166000D01*
X0166000Y0171000D01*
X0170055Y0171000D01*
X0170055Y0166000D02*
X0166000Y0166000D01*
X0163500Y0163500D01*
X0163500Y0153500D01*
X0181000Y0136000D01*
X0193500Y0136000D01*
X0196000Y0133500D01*
X0196000Y0126000D01*
X0200600Y0125684D02*
X0201400Y0125684D01*
X0201400Y0127282D02*
X0200600Y0127282D01*
X0200600Y0128881D02*
X0201400Y0128881D01*
X0201634Y0130479D02*
X0200366Y0130479D01*
X0199427Y0132078D02*
X0202573Y0132078D01*
X0203600Y0133676D02*
X0198400Y0133676D01*
X0197619Y0135275D02*
X0203331Y0135275D01*
X0206000Y0136000D02*
X0203500Y0138500D01*
X0183500Y0138500D01*
X0171000Y0151000D01*
X0171000Y0160055D01*
X0170055Y0161000D01*
X0175198Y0160851D02*
X0188600Y0160851D01*
X0188159Y0160198D02*
X0183841Y0160198D01*
X0183500Y0159857D01*
X0183159Y0160198D01*
X0178841Y0160198D01*
X0178500Y0159857D01*
X0178159Y0160198D01*
X0175198Y0160198D01*
X0175198Y0163159D01*
X0174857Y0163500D01*
X0175198Y0163841D01*
X0175198Y0168159D01*
X0174857Y0168500D01*
X0175198Y0168841D01*
X0175198Y0173159D01*
X0174857Y0173500D01*
X0175198Y0173841D01*
X0175198Y0178159D01*
X0174857Y0178500D01*
X0175198Y0178841D01*
X0175198Y0183159D01*
X0174857Y0183500D01*
X0175198Y0183841D01*
X0175198Y0188159D01*
X0174857Y0188500D01*
X0174957Y0188600D01*
X0176477Y0188600D01*
X0177359Y0188965D01*
X0197359Y0208965D01*
X0198035Y0209641D01*
X0198400Y0210523D01*
X0198400Y0212043D01*
X0198500Y0212143D01*
X0198841Y0211802D01*
X0203159Y0211802D01*
X0203500Y0212143D01*
X0203841Y0211802D01*
X0208159Y0211802D01*
X0208500Y0212143D01*
X0208841Y0211802D01*
X0213159Y0211802D01*
X0213500Y0212143D01*
X0213841Y0211802D01*
X0218159Y0211802D01*
X0218500Y0212143D01*
X0218841Y0211802D01*
X0223159Y0211802D01*
X0223500Y0212143D01*
X0223841Y0211802D01*
X0226802Y0211802D01*
X0226802Y0208841D01*
X0227143Y0208500D01*
X0226802Y0208159D01*
X0226802Y0203841D01*
X0227143Y0203500D01*
X0226802Y0203159D01*
X0226802Y0198841D01*
X0227143Y0198500D01*
X0226802Y0198159D01*
X0226802Y0193841D01*
X0227143Y0193500D01*
X0226802Y0193159D01*
X0226802Y0188841D01*
X0227143Y0188500D01*
X0226802Y0188159D01*
X0226802Y0183841D01*
X0227001Y0183641D01*
X0226961Y0183601D01*
X0226724Y0183191D01*
X0226602Y0182733D01*
X0226602Y0181000D01*
X0226602Y0179267D01*
X0226724Y0178809D01*
X0226961Y0178399D01*
X0227001Y0178359D01*
X0226802Y0178159D01*
X0226802Y0173841D01*
X0227143Y0173500D01*
X0226802Y0173159D01*
X0226802Y0168841D01*
X0227143Y0168500D01*
X0226802Y0168159D01*
X0226802Y0163841D01*
X0227143Y0163500D01*
X0226802Y0163159D01*
X0226802Y0160198D01*
X0223841Y0160198D01*
X0223500Y0159857D01*
X0223159Y0160198D01*
X0218841Y0160198D01*
X0218500Y0159857D01*
X0218159Y0160198D01*
X0213841Y0160198D01*
X0213500Y0159857D01*
X0213159Y0160198D01*
X0208841Y0160198D01*
X0208500Y0159857D01*
X0208159Y0160198D01*
X0203841Y0160198D01*
X0203500Y0159857D01*
X0203159Y0160198D01*
X0198841Y0160198D01*
X0198500Y0159857D01*
X0198159Y0160198D01*
X0193841Y0160198D01*
X0193500Y0159857D01*
X0193400Y0159957D01*
X0193400Y0161743D01*
X0194320Y0161743D01*
X0195257Y0162680D01*
X0195257Y0169320D01*
X0194320Y0170257D01*
X0193400Y0170257D01*
X0193400Y0175006D01*
X0220137Y0201743D01*
X0224320Y0201743D01*
X0225257Y0202680D01*
X0225257Y0209320D01*
X0224320Y0210257D01*
X0217680Y0210257D01*
X0216743Y0209320D01*
X0216743Y0205137D01*
X0188965Y0177359D01*
X0188600Y0176477D01*
X0188600Y0170257D01*
X0187680Y0170257D01*
X0186743Y0169320D01*
X0186743Y0162680D01*
X0187680Y0161743D01*
X0188600Y0161743D01*
X0188600Y0159957D01*
X0188500Y0159857D01*
X0188159Y0160198D01*
X0186973Y0162450D02*
X0175198Y0162450D01*
X0175198Y0164048D02*
X0186743Y0164048D01*
X0186743Y0165647D02*
X0175198Y0165647D01*
X0175198Y0167245D02*
X0186743Y0167245D01*
X0186743Y0168844D02*
X0175198Y0168844D01*
X0175198Y0170442D02*
X0188600Y0170442D01*
X0188600Y0172041D02*
X0175198Y0172041D01*
X0174996Y0173639D02*
X0188600Y0173639D01*
X0188600Y0175238D02*
X0175198Y0175238D01*
X0175198Y0176836D02*
X0188749Y0176836D01*
X0190041Y0178435D02*
X0174922Y0178435D01*
X0175198Y0180033D02*
X0191639Y0180033D01*
X0193238Y0181632D02*
X0175198Y0181632D01*
X0175127Y0183230D02*
X0194836Y0183230D01*
X0196435Y0184829D02*
X0175198Y0184829D01*
X0175198Y0186427D02*
X0198033Y0186427D01*
X0199632Y0188026D02*
X0175198Y0188026D01*
X0176000Y0191000D02*
X0196000Y0211000D01*
X0196000Y0216945D01*
X0196000Y0223500D01*
X0203500Y0231000D01*
X0203500Y0238500D01*
X0208500Y0243500D01*
X0221000Y0243500D01*
X0223500Y0246000D01*
X0223500Y0253500D01*
X0231000Y0261000D01*
X0236000Y0261000D01*
X0244900Y0269900D01*
X0258800Y0269900D01*
X0254512Y0274345D02*
X0237488Y0274345D01*
X0239858Y0272747D02*
X0252142Y0272747D01*
X0252842Y0266353D02*
X0244747Y0266353D01*
X0243148Y0264754D02*
X0281000Y0264754D01*
X0281000Y0263156D02*
X0241550Y0263156D01*
X0239951Y0261557D02*
X0281000Y0261557D01*
X0281000Y0259959D02*
X0238353Y0259959D01*
X0236360Y0264754D02*
X0168148Y0264754D01*
X0167359Y0263965D02*
X0170274Y0266880D01*
X0177962Y0266880D01*
X0178899Y0267818D01*
X0178899Y0276230D01*
X0177962Y0277167D01*
X0164038Y0277167D01*
X0163101Y0276230D01*
X0163101Y0268400D01*
X0158899Y0268400D01*
X0158899Y0276230D01*
X0157962Y0277167D01*
X0144038Y0277167D01*
X0143101Y0276230D01*
X0143101Y0274424D01*
X0142493Y0274424D01*
X0142800Y0275165D01*
X0142800Y0276835D01*
X0142161Y0278379D01*
X0141967Y0278573D01*
X0144494Y0281100D01*
X0182506Y0281100D01*
X0186439Y0277167D01*
X0184038Y0277167D01*
X0183101Y0276230D01*
X0183101Y0267818D01*
X0184038Y0266880D01*
X0197962Y0266880D01*
X0198899Y0267818D01*
X0198899Y0276230D01*
X0197962Y0277167D01*
X0193114Y0277167D01*
X0193035Y0277359D01*
X0192359Y0278035D01*
X0186794Y0283600D01*
X0200006Y0283600D01*
X0206439Y0277167D01*
X0204038Y0277167D01*
X0203101Y0276230D01*
X0203101Y0267818D01*
X0204038Y0266880D01*
X0217962Y0266880D01*
X0218899Y0267818D01*
X0218899Y0276230D01*
X0217962Y0277167D01*
X0213114Y0277167D01*
X0213035Y0277359D01*
X0212359Y0278035D01*
X0202359Y0288035D01*
X0201477Y0288400D01*
X0142140Y0288400D01*
X0140979Y0289561D01*
X0139435Y0290200D01*
X0132565Y0290200D01*
X0131021Y0289561D01*
X0129839Y0288379D01*
X0129200Y0286835D01*
X0129200Y0285165D01*
X0129839Y0283621D01*
X0131021Y0282439D01*
X0132565Y0281800D01*
X0138406Y0281800D01*
X0136806Y0280200D01*
X0132565Y0280200D01*
X0131021Y0279561D01*
X0129839Y0278379D01*
X0129200Y0276835D01*
X0129200Y0275165D01*
X0129839Y0273621D01*
X0130196Y0273265D01*
X0129641Y0273035D01*
X0128965Y0272359D01*
X0123965Y0267359D01*
X0123600Y0266477D01*
X0123600Y0256994D01*
X0122800Y0256194D01*
X0122800Y0256835D01*
X0122161Y0258379D01*
X0120979Y0259561D01*
X0119435Y0260200D01*
X0112565Y0260200D01*
X0111021Y0259561D01*
X0109839Y0258379D01*
X0109708Y0258063D01*
X0109641Y0258035D01*
X0105900Y0254294D01*
X0105900Y0255006D01*
X0112694Y0261800D01*
X0119435Y0261800D01*
X0120979Y0262439D01*
X0122161Y0263621D01*
X0122800Y0265165D01*
X0122800Y0266835D01*
X0122161Y0268379D01*
X0120979Y0269561D01*
X0119435Y0270200D01*
X0112565Y0270200D01*
X0111021Y0269561D01*
X0109839Y0268379D01*
X0109200Y0266835D01*
X0109200Y0265165D01*
X0109221Y0265115D01*
X0102141Y0258035D01*
X0101465Y0257359D01*
X0101100Y0256477D01*
X0101100Y0228023D01*
X0101465Y0227141D01*
X0108965Y0219641D01*
X0109641Y0218965D01*
X0110486Y0218615D01*
X0109883Y0218011D01*
X0100900Y0226994D01*
X0100900Y0260006D01*
X0112694Y0271800D01*
X0119435Y0271800D01*
X0120979Y0272439D01*
X0122161Y0273621D01*
X0122800Y0275165D01*
X0122800Y0276835D01*
X0122161Y0278379D01*
X0120979Y0279561D01*
X0119435Y0280200D01*
X0112565Y0280200D01*
X0111021Y0279561D01*
X0109839Y0278379D01*
X0109708Y0278063D01*
X0109641Y0278035D01*
X0108965Y0277359D01*
X0108600Y0276477D01*
X0108600Y0275523D01*
X0108901Y0274795D01*
X0096465Y0262359D01*
X0096100Y0261477D01*
X0096100Y0225523D01*
X0096465Y0224641D01*
X0097141Y0223965D01*
X0109833Y0211273D01*
X0109833Y0204038D01*
X0110770Y0203101D01*
X0118600Y0203101D01*
X0118600Y0198899D01*
X0110770Y0198899D01*
X0109833Y0197962D01*
X0109833Y0184038D01*
X0110770Y0183101D01*
X0119182Y0183101D01*
X0120120Y0184038D01*
X0120120Y0186726D01*
X0123035Y0189641D01*
X0123400Y0190523D01*
X0123400Y0218977D01*
X0123035Y0219859D01*
X0122359Y0220535D01*
X0119859Y0223035D01*
X0119334Y0223252D01*
X0120120Y0224038D01*
X0120120Y0237962D01*
X0119182Y0238899D01*
X0110770Y0238899D01*
X0109833Y0237962D01*
X0109833Y0235561D01*
X0108400Y0236994D01*
X0108400Y0250006D01*
X0110927Y0252533D01*
X0111021Y0252439D01*
X0112565Y0251800D01*
X0118406Y0251800D01*
X0116806Y0250200D01*
X0112565Y0250200D01*
X0111021Y0249561D01*
X0109839Y0248379D01*
X0109200Y0246835D01*
X0109200Y0245165D01*
X0109839Y0243621D01*
X0111021Y0242439D01*
X0112565Y0241800D01*
X0119435Y0241800D01*
X0120979Y0242439D01*
X0122161Y0243621D01*
X0122800Y0245165D01*
X0122800Y0246835D01*
X0122161Y0248379D01*
X0121967Y0248573D01*
X0127359Y0253965D01*
X0128035Y0254641D01*
X0128400Y0255523D01*
X0128400Y0265006D01*
X0129200Y0265806D01*
X0129200Y0265165D01*
X0129839Y0263621D01*
X0131021Y0262439D01*
X0132565Y0261800D01*
X0139435Y0261800D01*
X0140979Y0262439D01*
X0142140Y0263600D01*
X0166477Y0263600D01*
X0167359Y0263965D01*
X0166000Y0266000D02*
X0171000Y0271000D01*
X0171000Y0272024D01*
X0169747Y0266353D02*
X0227242Y0266353D01*
X0226028Y0267951D02*
X0218899Y0267951D01*
X0218899Y0269550D02*
X0225600Y0269550D01*
X0225738Y0271148D02*
X0218899Y0271148D01*
X0218899Y0272747D02*
X0226542Y0272747D01*
X0228912Y0274345D02*
X0218899Y0274345D01*
X0218899Y0275944D02*
X0281000Y0275944D01*
X0281000Y0276000D02*
X0281000Y0126000D01*
X0261000Y0106000D01*
X0111000Y0106000D01*
X0091000Y0126000D01*
X0091000Y0281000D01*
X0111000Y0301000D01*
X0256000Y0301000D01*
X0281000Y0276000D01*
X0281000Y0274345D02*
X0263088Y0274345D01*
X0265458Y0272747D02*
X0281000Y0272747D01*
X0281000Y0271148D02*
X0266262Y0271148D01*
X0266400Y0269550D02*
X0281000Y0269550D01*
X0281000Y0267951D02*
X0265972Y0267951D01*
X0264758Y0266353D02*
X0281000Y0266353D01*
X0281000Y0258360D02*
X0231754Y0258360D01*
X0230156Y0256762D02*
X0281000Y0256762D01*
X0281000Y0255163D02*
X0265242Y0255163D01*
X0266172Y0253565D02*
X0281000Y0253565D01*
X0281000Y0251966D02*
X0266400Y0251966D01*
X0266061Y0250368D02*
X0281000Y0250368D01*
X0281000Y0248769D02*
X0264975Y0248769D01*
X0260547Y0247171D02*
X0281000Y0247171D01*
X0281000Y0245572D02*
X0258966Y0245572D01*
X0257368Y0243974D02*
X0281000Y0243974D01*
X0281000Y0242375D02*
X0255769Y0242375D01*
X0253500Y0243500D02*
X0258500Y0248500D01*
X0258500Y0251800D01*
X0258800Y0252100D01*
X0252625Y0248769D02*
X0239375Y0248769D01*
X0240461Y0250368D02*
X0251538Y0250368D01*
X0251200Y0251966D02*
X0240800Y0251966D01*
X0240572Y0253565D02*
X0251428Y0253565D01*
X0252358Y0255163D02*
X0239642Y0255163D01*
X0229933Y0263156D02*
X0141696Y0263156D01*
X0140018Y0259959D02*
X0226565Y0259959D01*
X0228163Y0261557D02*
X0128400Y0261557D01*
X0128400Y0259959D02*
X0131982Y0259959D01*
X0132565Y0260200D02*
X0131021Y0259561D01*
X0129839Y0258379D01*
X0129200Y0256835D01*
X0129200Y0255165D01*
X0129839Y0253621D01*
X0130033Y0253427D01*
X0123965Y0247359D01*
X0123600Y0246477D01*
X0123600Y0176994D01*
X0120120Y0173514D01*
X0120120Y0177962D01*
X0119182Y0178899D01*
X0110770Y0178899D01*
X0109833Y0177962D01*
X0109833Y0164038D01*
X0110770Y0163101D01*
X0119182Y0163101D01*
X0120120Y0164038D01*
X0120120Y0168600D01*
X0121477Y0168600D01*
X0122359Y0168965D01*
X0127359Y0173965D01*
X0128035Y0174641D01*
X0128400Y0175523D01*
X0128400Y0245006D01*
X0129007Y0245612D01*
X0129108Y0244970D01*
X0129322Y0244311D01*
X0129637Y0243694D01*
X0130044Y0243134D01*
X0130534Y0242644D01*
X0131094Y0242237D01*
X0131711Y0241922D01*
X0132370Y0241708D01*
X0133054Y0241600D01*
X0136000Y0241600D01*
X0138946Y0241600D01*
X0139630Y0241708D01*
X0140289Y0241922D01*
X0140906Y0242237D01*
X0141466Y0242644D01*
X0141956Y0243134D01*
X0142363Y0243694D01*
X0142678Y0244311D01*
X0142892Y0244970D01*
X0143000Y0245654D01*
X0143000Y0246000D01*
X0143000Y0246346D01*
X0142892Y0247030D01*
X0142678Y0247689D01*
X0142363Y0248306D01*
X0141956Y0248866D01*
X0141466Y0249356D01*
X0140906Y0249763D01*
X0140289Y0250078D01*
X0139630Y0250292D01*
X0138946Y0250400D01*
X0136000Y0250400D01*
X0136000Y0246000D01*
X0136000Y0246000D01*
X0143000Y0246000D01*
X0136000Y0246000D01*
X0136000Y0246000D01*
X0136000Y0250400D01*
X0133794Y0250400D01*
X0135194Y0251800D01*
X0139435Y0251800D01*
X0140979Y0252439D01*
X0142161Y0253621D01*
X0142800Y0255165D01*
X0142800Y0256835D01*
X0142161Y0258379D01*
X0140979Y0259561D01*
X0139435Y0260200D01*
X0132565Y0260200D01*
X0129832Y0258360D02*
X0128400Y0258360D01*
X0128400Y0256762D02*
X0129200Y0256762D01*
X0129201Y0255163D02*
X0128251Y0255163D01*
X0126959Y0253565D02*
X0129896Y0253565D01*
X0128572Y0251966D02*
X0125360Y0251966D01*
X0123762Y0250368D02*
X0126974Y0250368D01*
X0125375Y0248769D02*
X0122163Y0248769D01*
X0122661Y0247171D02*
X0123887Y0247171D01*
X0123600Y0245572D02*
X0122800Y0245572D01*
X0122307Y0243974D02*
X0123600Y0243974D01*
X0123600Y0242375D02*
X0120824Y0242375D01*
X0123600Y0240777D02*
X0108400Y0240777D01*
X0108400Y0242375D02*
X0111176Y0242375D01*
X0109693Y0243974D02*
X0108400Y0243974D01*
X0108400Y0245572D02*
X0109200Y0245572D01*
X0109339Y0247171D02*
X0108400Y0247171D01*
X0108400Y0248769D02*
X0110230Y0248769D01*
X0108762Y0250368D02*
X0116974Y0250368D01*
X0116000Y0246000D02*
X0126000Y0256000D01*
X0126000Y0266000D01*
X0131000Y0271000D01*
X0141000Y0271000D01*
X0142024Y0272024D01*
X0151000Y0272024D01*
X0158899Y0272747D02*
X0163101Y0272747D01*
X0163101Y0274345D02*
X0158899Y0274345D01*
X0158899Y0275944D02*
X0163101Y0275944D01*
X0163101Y0271148D02*
X0158899Y0271148D01*
X0158899Y0269550D02*
X0163101Y0269550D01*
X0166000Y0266000D02*
X0136000Y0266000D01*
X0130304Y0263156D02*
X0128400Y0263156D01*
X0128400Y0264754D02*
X0129370Y0264754D01*
X0123600Y0264754D02*
X0122630Y0264754D01*
X0122800Y0266353D02*
X0123600Y0266353D01*
X0124557Y0267951D02*
X0122338Y0267951D01*
X0120990Y0269550D02*
X0126156Y0269550D01*
X0127754Y0271148D02*
X0112043Y0271148D01*
X0111010Y0269550D02*
X0110444Y0269550D01*
X0109662Y0267951D02*
X0108845Y0267951D01*
X0109200Y0266353D02*
X0107247Y0266353D01*
X0105648Y0264754D02*
X0108860Y0264754D01*
X0107262Y0263156D02*
X0104050Y0263156D01*
X0102451Y0261557D02*
X0105663Y0261557D01*
X0104065Y0259959D02*
X0100900Y0259959D01*
X0100900Y0258360D02*
X0102466Y0258360D01*
X0101218Y0256762D02*
X0100900Y0256762D01*
X0100900Y0255163D02*
X0101100Y0255163D01*
X0101100Y0253565D02*
X0100900Y0253565D01*
X0100900Y0251966D02*
X0101100Y0251966D01*
X0101100Y0250368D02*
X0100900Y0250368D01*
X0100900Y0248769D02*
X0101100Y0248769D01*
X0101100Y0247171D02*
X0100900Y0247171D01*
X0100900Y0245572D02*
X0101100Y0245572D01*
X0101100Y0243974D02*
X0100900Y0243974D01*
X0100900Y0242375D02*
X0101100Y0242375D01*
X0101100Y0240777D02*
X0100900Y0240777D01*
X0100900Y0239178D02*
X0101100Y0239178D01*
X0101100Y0237580D02*
X0100900Y0237580D01*
X0100900Y0235981D02*
X0101100Y0235981D01*
X0101100Y0234383D02*
X0100900Y0234383D01*
X0100900Y0232784D02*
X0101100Y0232784D01*
X0101100Y0231186D02*
X0100900Y0231186D01*
X0100900Y0229587D02*
X0101100Y0229587D01*
X0101114Y0227989D02*
X0100900Y0227989D01*
X0101504Y0226390D02*
X0102216Y0226390D01*
X0103103Y0224792D02*
X0103814Y0224792D01*
X0104701Y0223193D02*
X0105413Y0223193D01*
X0106300Y0221595D02*
X0107011Y0221595D01*
X0107898Y0219996D02*
X0108610Y0219996D01*
X0109497Y0218398D02*
X0110269Y0218398D01*
X0111000Y0221000D02*
X0118500Y0221000D01*
X0121000Y0218500D01*
X0121000Y0191000D01*
X0116000Y0186000D01*
X0116000Y0189976D01*
X0114976Y0191000D01*
X0121420Y0188026D02*
X0123600Y0188026D01*
X0123600Y0189624D02*
X0123018Y0189624D01*
X0123400Y0191223D02*
X0123600Y0191223D01*
X0123600Y0192821D02*
X0123400Y0192821D01*
X0123400Y0194420D02*
X0123600Y0194420D01*
X0123600Y0196018D02*
X0123400Y0196018D01*
X0123400Y0197617D02*
X0123600Y0197617D01*
X0123600Y0199215D02*
X0123400Y0199215D01*
X0123400Y0200814D02*
X0123600Y0200814D01*
X0123600Y0202412D02*
X0123400Y0202412D01*
X0123400Y0204011D02*
X0123600Y0204011D01*
X0123600Y0205609D02*
X0123400Y0205609D01*
X0123400Y0207208D02*
X0123600Y0207208D01*
X0123600Y0208806D02*
X0123400Y0208806D01*
X0123400Y0210405D02*
X0123600Y0210405D01*
X0123600Y0212003D02*
X0123400Y0212003D01*
X0123400Y0213602D02*
X0123600Y0213602D01*
X0123600Y0215201D02*
X0123400Y0215201D01*
X0123400Y0216799D02*
X0123600Y0216799D01*
X0123600Y0218398D02*
X0123400Y0218398D01*
X0123600Y0219996D02*
X0122898Y0219996D01*
X0123600Y0221595D02*
X0121300Y0221595D01*
X0119477Y0223193D02*
X0123600Y0223193D01*
X0123600Y0224792D02*
X0120120Y0224792D01*
X0120120Y0226390D02*
X0123600Y0226390D01*
X0123600Y0227989D02*
X0120120Y0227989D01*
X0120120Y0229587D02*
X0123600Y0229587D01*
X0123600Y0231186D02*
X0120120Y0231186D01*
X0120120Y0232784D02*
X0123600Y0232784D01*
X0123600Y0234383D02*
X0120120Y0234383D01*
X0120120Y0235981D02*
X0123600Y0235981D01*
X0123600Y0237580D02*
X0120120Y0237580D01*
X0123600Y0239178D02*
X0108400Y0239178D01*
X0108400Y0237580D02*
X0109833Y0237580D01*
X0109833Y0235981D02*
X0109413Y0235981D01*
X0106000Y0236000D02*
X0106000Y0251000D01*
X0111000Y0256000D01*
X0116000Y0256000D01*
X0112163Y0251966D02*
X0110360Y0251966D01*
X0106769Y0255163D02*
X0106057Y0255163D01*
X0107656Y0256762D02*
X0108368Y0256762D01*
X0109254Y0258360D02*
X0109832Y0258360D01*
X0110853Y0259959D02*
X0111982Y0259959D01*
X0112451Y0261557D02*
X0123600Y0261557D01*
X0123600Y0259959D02*
X0120018Y0259959D01*
X0122168Y0258360D02*
X0123600Y0258360D01*
X0123368Y0256762D02*
X0122800Y0256762D01*
X0123600Y0263156D02*
X0121696Y0263156D01*
X0116000Y0266000D02*
X0113500Y0266000D01*
X0103500Y0256000D01*
X0103500Y0228500D01*
X0111000Y0221000D01*
X0105905Y0215201D02*
X0091000Y0215201D01*
X0091000Y0216799D02*
X0104307Y0216799D01*
X0102708Y0218398D02*
X0091000Y0218398D01*
X0091000Y0219996D02*
X0101110Y0219996D01*
X0099511Y0221595D02*
X0091000Y0221595D01*
X0091000Y0223193D02*
X0097913Y0223193D01*
X0096403Y0224792D02*
X0091000Y0224792D01*
X0091000Y0226390D02*
X0096100Y0226390D01*
X0096100Y0227989D02*
X0091000Y0227989D01*
X0091000Y0229587D02*
X0096100Y0229587D01*
X0096100Y0231186D02*
X0091000Y0231186D01*
X0091000Y0232784D02*
X0096100Y0232784D01*
X0096100Y0234383D02*
X0091000Y0234383D01*
X0091000Y0235981D02*
X0096100Y0235981D01*
X0096100Y0237580D02*
X0091000Y0237580D01*
X0091000Y0239178D02*
X0096100Y0239178D01*
X0096100Y0240777D02*
X0091000Y0240777D01*
X0091000Y0242375D02*
X0096100Y0242375D01*
X0096100Y0243974D02*
X0091000Y0243974D01*
X0091000Y0245572D02*
X0096100Y0245572D01*
X0096100Y0247171D02*
X0091000Y0247171D01*
X0091000Y0248769D02*
X0096100Y0248769D01*
X0096100Y0250368D02*
X0091000Y0250368D01*
X0091000Y0251966D02*
X0096100Y0251966D01*
X0096100Y0253565D02*
X0091000Y0253565D01*
X0091000Y0255163D02*
X0096100Y0255163D01*
X0096100Y0256762D02*
X0091000Y0256762D01*
X0091000Y0258360D02*
X0096100Y0258360D01*
X0096100Y0259959D02*
X0091000Y0259959D01*
X0091000Y0261557D02*
X0096133Y0261557D01*
X0097262Y0263156D02*
X0091000Y0263156D01*
X0091000Y0264754D02*
X0098860Y0264754D01*
X0100459Y0266353D02*
X0091000Y0266353D01*
X0091000Y0267951D02*
X0102057Y0267951D01*
X0103656Y0269550D02*
X0091000Y0269550D01*
X0091000Y0271148D02*
X0105254Y0271148D01*
X0106853Y0272747D02*
X0091000Y0272747D01*
X0091000Y0274345D02*
X0108451Y0274345D01*
X0108600Y0275944D02*
X0091000Y0275944D01*
X0091000Y0277542D02*
X0109148Y0277542D01*
X0110601Y0279141D02*
X0091000Y0279141D01*
X0091000Y0280739D02*
X0137345Y0280739D01*
X0136000Y0276000D02*
X0143500Y0283500D01*
X0183500Y0283500D01*
X0191000Y0276000D01*
X0191000Y0272024D01*
X0192852Y0277542D02*
X0206063Y0277542D01*
X0204465Y0279141D02*
X0191253Y0279141D01*
X0189655Y0280739D02*
X0202866Y0280739D01*
X0201268Y0282338D02*
X0188056Y0282338D01*
X0184465Y0279141D02*
X0142535Y0279141D01*
X0142507Y0277542D02*
X0186063Y0277542D01*
X0183101Y0275944D02*
X0178899Y0275944D01*
X0178899Y0274345D02*
X0183101Y0274345D01*
X0183101Y0272747D02*
X0178899Y0272747D01*
X0178899Y0271148D02*
X0183101Y0271148D01*
X0183101Y0269550D02*
X0178899Y0269550D01*
X0178899Y0267951D02*
X0183101Y0267951D01*
X0182866Y0280739D02*
X0144134Y0280739D01*
X0143101Y0275944D02*
X0142800Y0275944D01*
X0136000Y0286000D02*
X0201000Y0286000D01*
X0211000Y0276000D01*
X0211000Y0272024D01*
X0212852Y0277542D02*
X0279458Y0277542D01*
X0277859Y0279141D02*
X0211253Y0279141D01*
X0209655Y0280739D02*
X0276261Y0280739D01*
X0274662Y0282338D02*
X0208056Y0282338D01*
X0206458Y0283937D02*
X0273063Y0283937D01*
X0271465Y0285535D02*
X0204859Y0285535D01*
X0203261Y0287134D02*
X0269866Y0287134D01*
X0268268Y0288732D02*
X0141808Y0288732D01*
X0131266Y0282338D02*
X0121045Y0282338D01*
X0120906Y0282237D02*
X0121466Y0282644D01*
X0121956Y0283134D01*
X0122363Y0283694D01*
X0122678Y0284311D01*
X0122892Y0284970D01*
X0123000Y0285654D01*
X0123000Y0286000D01*
X0123000Y0286346D01*
X0122892Y0287030D01*
X0122678Y0287689D01*
X0122363Y0288306D01*
X0121956Y0288866D01*
X0121466Y0289356D01*
X0120906Y0289763D01*
X0120289Y0290078D01*
X0119630Y0290292D01*
X0118946Y0290400D01*
X0116000Y0290400D01*
X0116000Y0286000D01*
X0116000Y0286000D01*
X0123000Y0286000D01*
X0116000Y0286000D01*
X0116000Y0286000D01*
X0116000Y0281600D01*
X0118946Y0281600D01*
X0119630Y0281708D01*
X0120289Y0281922D01*
X0120906Y0282237D01*
X0122487Y0283937D02*
X0129709Y0283937D01*
X0129200Y0285535D02*
X0122981Y0285535D01*
X0122858Y0287134D02*
X0129323Y0287134D01*
X0130192Y0288732D02*
X0122054Y0288732D01*
X0119385Y0290331D02*
X0266669Y0290331D01*
X0265071Y0291929D02*
X0101929Y0291929D01*
X0100331Y0290331D02*
X0112615Y0290331D01*
X0112370Y0290292D02*
X0111711Y0290078D01*
X0111094Y0289763D01*
X0110534Y0289356D01*
X0110044Y0288866D01*
X0109637Y0288306D01*
X0109322Y0287689D01*
X0109108Y0287030D01*
X0109000Y0286346D01*
X0109000Y0286000D01*
X0116000Y0286000D01*
X0116000Y0286000D01*
X0116000Y0286000D01*
X0116000Y0290400D01*
X0113054Y0290400D01*
X0112370Y0290292D01*
X0109946Y0288732D02*
X0098732Y0288732D01*
X0097134Y0287134D02*
X0109142Y0287134D01*
X0109000Y0286000D02*
X0109000Y0285654D01*
X0109108Y0284970D01*
X0109322Y0284311D01*
X0109637Y0283694D01*
X0110044Y0283134D01*
X0110534Y0282644D01*
X0111094Y0282237D01*
X0111711Y0281922D01*
X0112370Y0281708D01*
X0113054Y0281600D01*
X0116000Y0281600D01*
X0116000Y0286000D01*
X0109000Y0286000D01*
X0109019Y0285535D02*
X0095535Y0285535D01*
X0093937Y0283937D02*
X0109513Y0283937D01*
X0110955Y0282338D02*
X0092338Y0282338D01*
X0103528Y0293528D02*
X0263472Y0293528D01*
X0261874Y0295126D02*
X0105126Y0295126D01*
X0106725Y0296725D02*
X0260275Y0296725D01*
X0258677Y0298323D02*
X0108323Y0298323D01*
X0109922Y0299922D02*
X0257078Y0299922D01*
X0242754Y0271148D02*
X0240662Y0271148D01*
X0240800Y0269550D02*
X0241156Y0269550D01*
X0224966Y0258360D02*
X0142168Y0258360D01*
X0142800Y0256762D02*
X0223368Y0256762D01*
X0221769Y0255163D02*
X0142799Y0255163D01*
X0143101Y0253565D02*
X0142104Y0253565D01*
X0143101Y0251966D02*
X0139837Y0251966D01*
X0139150Y0250368D02*
X0143101Y0250368D01*
X0143101Y0248769D02*
X0142027Y0248769D01*
X0142846Y0247171D02*
X0143101Y0247171D01*
X0142987Y0245572D02*
X0143299Y0245572D01*
X0142506Y0243974D02*
X0148600Y0243974D01*
X0148600Y0242375D02*
X0141097Y0242375D01*
X0136000Y0242375D02*
X0136000Y0242375D01*
X0136000Y0241600D02*
X0136000Y0246000D01*
X0136000Y0246000D01*
X0136000Y0241600D01*
X0136000Y0243974D02*
X0136000Y0243974D01*
X0136000Y0245572D02*
X0136000Y0245572D01*
X0136000Y0247171D02*
X0136000Y0247171D01*
X0136000Y0248769D02*
X0136000Y0248769D01*
X0136000Y0250368D02*
X0136000Y0250368D01*
X0136000Y0256000D02*
X0126000Y0246000D01*
X0126000Y0176000D01*
X0121000Y0171000D01*
X0114976Y0171000D01*
X0120120Y0173639D02*
X0120245Y0173639D01*
X0120120Y0175238D02*
X0121844Y0175238D01*
X0123442Y0176836D02*
X0120120Y0176836D01*
X0119647Y0178435D02*
X0123600Y0178435D01*
X0123600Y0180033D02*
X0091000Y0180033D01*
X0091000Y0178435D02*
X0110306Y0178435D01*
X0109833Y0176836D02*
X0091000Y0176836D01*
X0091000Y0175238D02*
X0109833Y0175238D01*
X0109833Y0173639D02*
X0091000Y0173639D01*
X0091000Y0172041D02*
X0109833Y0172041D01*
X0109833Y0170442D02*
X0091000Y0170442D01*
X0091000Y0168844D02*
X0109833Y0168844D01*
X0109833Y0167245D02*
X0091000Y0167245D01*
X0091000Y0165647D02*
X0109833Y0165647D01*
X0109833Y0164048D02*
X0091000Y0164048D01*
X0091000Y0162450D02*
X0151100Y0162450D01*
X0151100Y0164048D02*
X0142167Y0164048D01*
X0142167Y0165647D02*
X0151100Y0165647D01*
X0151100Y0167245D02*
X0142167Y0167245D01*
X0142167Y0168844D02*
X0151100Y0168844D01*
X0151100Y0170442D02*
X0143836Y0170442D01*
X0145435Y0172041D02*
X0151100Y0172041D01*
X0151100Y0173639D02*
X0147033Y0173639D01*
X0148632Y0175238D02*
X0151100Y0175238D01*
X0151100Y0176836D02*
X0150230Y0176836D01*
X0153500Y0178500D02*
X0166000Y0191000D01*
X0170055Y0191000D01*
X0176000Y0191000D01*
X0178018Y0189624D02*
X0201230Y0189624D01*
X0202829Y0191223D02*
X0179617Y0191223D01*
X0181215Y0192821D02*
X0204427Y0192821D01*
X0206026Y0194420D02*
X0182814Y0194420D01*
X0184412Y0196018D02*
X0207624Y0196018D01*
X0209223Y0197617D02*
X0186011Y0197617D01*
X0187610Y0199215D02*
X0210821Y0199215D01*
X0212420Y0200814D02*
X0189208Y0200814D01*
X0190807Y0202412D02*
X0214018Y0202412D01*
X0215617Y0204011D02*
X0192405Y0204011D01*
X0194004Y0205609D02*
X0216743Y0205609D01*
X0216743Y0207208D02*
X0195602Y0207208D01*
X0197201Y0208806D02*
X0216743Y0208806D01*
X0218361Y0212003D02*
X0218639Y0212003D01*
X0223361Y0212003D02*
X0223639Y0212003D01*
X0226802Y0210405D02*
X0198351Y0210405D01*
X0198400Y0212003D02*
X0198639Y0212003D01*
X0203361Y0212003D02*
X0203639Y0212003D01*
X0208361Y0212003D02*
X0208639Y0212003D01*
X0213361Y0212003D02*
X0213639Y0212003D01*
X0221000Y0206000D02*
X0191000Y0176000D01*
X0191000Y0166000D01*
X0191000Y0155055D01*
X0186000Y0155055D02*
X0186000Y0151000D01*
X0191000Y0146000D01*
X0231000Y0146000D01*
X0236000Y0141000D01*
X0236000Y0126000D01*
X0240600Y0125684D02*
X0280684Y0125684D01*
X0281000Y0127282D02*
X0240600Y0127282D01*
X0240600Y0128881D02*
X0281000Y0128881D01*
X0281000Y0130479D02*
X0240366Y0130479D01*
X0239427Y0132078D02*
X0281000Y0132078D01*
X0281000Y0133676D02*
X0238400Y0133676D01*
X0238400Y0135275D02*
X0281000Y0135275D01*
X0281000Y0136873D02*
X0238400Y0136873D01*
X0238400Y0138472D02*
X0281000Y0138472D01*
X0281000Y0140070D02*
X0238400Y0140070D01*
X0238321Y0141669D02*
X0281000Y0141669D01*
X0281000Y0143268D02*
X0237127Y0143268D01*
X0235528Y0144866D02*
X0281000Y0144866D01*
X0281000Y0146465D02*
X0233930Y0146465D01*
X0232291Y0148063D02*
X0281000Y0148063D01*
X0281000Y0149662D02*
X0190733Y0149662D01*
X0188500Y0143500D02*
X0181000Y0151000D01*
X0181000Y0155055D01*
X0176000Y0155055D02*
X0176000Y0151000D01*
X0186000Y0141000D01*
X0211000Y0141000D01*
X0216000Y0136000D01*
X0216000Y0126000D01*
X0220600Y0125684D02*
X0221400Y0125684D01*
X0221400Y0127282D02*
X0220600Y0127282D01*
X0220600Y0128881D02*
X0221400Y0128881D01*
X0221634Y0130479D02*
X0220366Y0130479D01*
X0219427Y0132078D02*
X0222573Y0132078D01*
X0223600Y0133676D02*
X0218400Y0133676D01*
X0218400Y0135275D02*
X0223600Y0135275D01*
X0223600Y0136873D02*
X0218236Y0136873D01*
X0216922Y0138472D02*
X0222634Y0138472D01*
X0221035Y0140070D02*
X0215324Y0140070D01*
X0211732Y0136873D02*
X0208236Y0136873D01*
X0208400Y0135275D02*
X0213331Y0135275D01*
X0213600Y0133676D02*
X0208400Y0133676D01*
X0209427Y0132078D02*
X0212573Y0132078D01*
X0211634Y0130479D02*
X0210366Y0130479D01*
X0210600Y0128881D02*
X0211400Y0128881D01*
X0211400Y0127282D02*
X0210600Y0127282D01*
X0210600Y0125684D02*
X0211400Y0125684D01*
X0211400Y0124085D02*
X0210600Y0124085D01*
X0210600Y0122487D02*
X0211400Y0122487D01*
X0211896Y0120888D02*
X0210104Y0120888D01*
X0208795Y0119290D02*
X0213205Y0119290D01*
X0218795Y0119290D02*
X0223205Y0119290D01*
X0221896Y0120888D02*
X0220104Y0120888D01*
X0220600Y0122487D02*
X0221400Y0122487D01*
X0221400Y0124085D02*
X0220600Y0124085D01*
X0226000Y0126000D02*
X0226000Y0138500D01*
X0221000Y0143500D01*
X0188500Y0143500D01*
X0186794Y0133600D02*
X0186794Y0133600D01*
X0186000Y0131000D02*
X0183500Y0133500D01*
X0178500Y0133500D01*
X0171528Y0132078D02*
X0169427Y0132078D01*
X0169929Y0133676D02*
X0168400Y0133676D01*
X0170366Y0130479D02*
X0171634Y0130479D01*
X0171400Y0128881D02*
X0170600Y0128881D01*
X0170600Y0127282D02*
X0171400Y0127282D01*
X0171400Y0125684D02*
X0170600Y0125684D01*
X0170600Y0124085D02*
X0171400Y0124085D01*
X0171400Y0122487D02*
X0170600Y0122487D01*
X0170104Y0120888D02*
X0171896Y0120888D01*
X0173205Y0119290D02*
X0168795Y0119290D01*
X0163205Y0119290D02*
X0097710Y0119290D01*
X0096112Y0120888D02*
X0161896Y0120888D01*
X0161400Y0122487D02*
X0094513Y0122487D01*
X0092915Y0124085D02*
X0161400Y0124085D01*
X0161400Y0125684D02*
X0091316Y0125684D01*
X0091000Y0127282D02*
X0161400Y0127282D01*
X0161400Y0128881D02*
X0091000Y0128881D01*
X0091000Y0130479D02*
X0161634Y0130479D01*
X0162573Y0132078D02*
X0091000Y0132078D01*
X0091000Y0133676D02*
X0163600Y0133676D01*
X0163331Y0135275D02*
X0091000Y0135275D01*
X0091000Y0136873D02*
X0161732Y0136873D01*
X0160134Y0138472D02*
X0091000Y0138472D01*
X0091000Y0140070D02*
X0158535Y0140070D01*
X0156937Y0141669D02*
X0143387Y0141669D01*
X0142968Y0141250D02*
X0145750Y0144032D01*
X0145750Y0147968D01*
X0142968Y0150750D01*
X0139032Y0150750D01*
X0136250Y0147968D01*
X0136250Y0144032D01*
X0139032Y0141250D01*
X0142968Y0141250D01*
X0144985Y0143268D02*
X0155338Y0143268D01*
X0153872Y0144866D02*
X0145750Y0144866D01*
X0145750Y0146465D02*
X0153600Y0146465D01*
X0153600Y0148063D02*
X0145654Y0148063D01*
X0144056Y0149662D02*
X0153600Y0149662D01*
X0153600Y0151260D02*
X0134654Y0151260D01*
X0134056Y0149662D02*
X0137944Y0149662D01*
X0136346Y0148063D02*
X0135287Y0148063D01*
X0135750Y0146465D02*
X0136250Y0146465D01*
X0136250Y0144866D02*
X0135672Y0144866D01*
X0134985Y0143268D02*
X0137015Y0143268D01*
X0138613Y0141669D02*
X0132956Y0141669D01*
X0129044Y0141669D02*
X0091000Y0141669D01*
X0091000Y0143268D02*
X0127015Y0143268D01*
X0126328Y0144866D02*
X0091000Y0144866D01*
X0091000Y0146465D02*
X0126250Y0146465D01*
X0126713Y0148063D02*
X0091000Y0148063D01*
X0091000Y0149662D02*
X0127944Y0149662D01*
X0128600Y0151260D02*
X0091000Y0151260D01*
X0091000Y0152859D02*
X0129464Y0152859D01*
X0131063Y0154457D02*
X0091000Y0154457D01*
X0091000Y0156056D02*
X0132661Y0156056D01*
X0134260Y0157654D02*
X0091000Y0157654D01*
X0091000Y0159253D02*
X0150859Y0159253D01*
X0151100Y0160851D02*
X0091000Y0160851D01*
X0091000Y0181632D02*
X0123600Y0181632D01*
X0123600Y0183230D02*
X0119312Y0183230D01*
X0120120Y0184829D02*
X0123600Y0184829D01*
X0123600Y0186427D02*
X0120120Y0186427D01*
X0128400Y0186427D02*
X0131880Y0186427D01*
X0131880Y0184829D02*
X0128400Y0184829D01*
X0128400Y0183230D02*
X0132688Y0183230D01*
X0128400Y0181632D02*
X0148238Y0181632D01*
X0149836Y0183230D02*
X0141359Y0183230D01*
X0142167Y0184829D02*
X0151435Y0184829D01*
X0153033Y0186427D02*
X0142167Y0186427D01*
X0142167Y0188026D02*
X0154632Y0188026D01*
X0156000Y0191000D02*
X0166000Y0201000D01*
X0170055Y0201000D01*
X0170055Y0206000D02*
X0158500Y0206000D01*
X0153500Y0211000D01*
X0137024Y0211000D01*
X0131880Y0210405D02*
X0128400Y0210405D01*
X0128400Y0212003D02*
X0131880Y0212003D01*
X0131880Y0213602D02*
X0128400Y0213602D01*
X0128400Y0215201D02*
X0131880Y0215201D01*
X0131880Y0216799D02*
X0128400Y0216799D01*
X0128400Y0218398D02*
X0132316Y0218398D01*
X0128400Y0219996D02*
X0151110Y0219996D01*
X0152708Y0218398D02*
X0141731Y0218398D01*
X0142167Y0216799D02*
X0154307Y0216799D01*
X0155905Y0215201D02*
X0142167Y0215201D01*
X0142167Y0213602D02*
X0157504Y0213602D01*
X0159102Y0212003D02*
X0155891Y0212003D01*
X0157489Y0210405D02*
X0160701Y0210405D01*
X0159088Y0208806D02*
X0162524Y0208806D01*
X0163500Y0211000D02*
X0170055Y0211000D01*
X0165355Y0213602D02*
X0164292Y0213602D01*
X0162694Y0215201D02*
X0165905Y0215201D01*
X0164307Y0216799D02*
X0161095Y0216799D01*
X0159497Y0218398D02*
X0162708Y0218398D01*
X0161110Y0219996D02*
X0157898Y0219996D01*
X0156300Y0221595D02*
X0159511Y0221595D01*
X0157913Y0223193D02*
X0154701Y0223193D01*
X0153103Y0224792D02*
X0156314Y0224792D01*
X0154716Y0226390D02*
X0151504Y0226390D01*
X0149905Y0227989D02*
X0153117Y0227989D01*
X0151519Y0229587D02*
X0148307Y0229587D01*
X0146708Y0231186D02*
X0149920Y0231186D01*
X0148699Y0232784D02*
X0145110Y0232784D01*
X0143500Y0231000D02*
X0163500Y0211000D01*
X0167555Y0216945D02*
X0151000Y0233500D01*
X0151000Y0249976D01*
X0153400Y0243974D02*
X0168600Y0243974D01*
X0168600Y0242375D02*
X0153400Y0242375D01*
X0153400Y0240777D02*
X0168600Y0240777D01*
X0168600Y0239178D02*
X0153400Y0239178D01*
X0153400Y0237580D02*
X0168600Y0237580D01*
X0168600Y0235981D02*
X0153400Y0235981D01*
X0153511Y0234383D02*
X0168600Y0234383D01*
X0168699Y0232784D02*
X0155110Y0232784D01*
X0156708Y0231186D02*
X0169920Y0231186D01*
X0171519Y0229587D02*
X0158307Y0229587D01*
X0159905Y0227989D02*
X0173117Y0227989D01*
X0174716Y0226390D02*
X0161504Y0226390D01*
X0163103Y0224792D02*
X0176314Y0224792D01*
X0177913Y0223193D02*
X0164701Y0223193D01*
X0166300Y0221595D02*
X0173348Y0221595D01*
X0172904Y0219996D02*
X0167898Y0219996D01*
X0167555Y0216945D02*
X0176000Y0216945D01*
X0181000Y0216945D02*
X0181000Y0223500D01*
X0171000Y0233500D01*
X0171000Y0249976D01*
X0173400Y0243974D02*
X0188600Y0243974D01*
X0188600Y0242375D02*
X0173400Y0242375D01*
X0173400Y0240777D02*
X0188600Y0240777D01*
X0188600Y0239178D02*
X0173400Y0239178D01*
X0173400Y0237580D02*
X0188600Y0237580D01*
X0188600Y0235981D02*
X0173400Y0235981D01*
X0173511Y0234383D02*
X0188600Y0234383D01*
X0188600Y0232784D02*
X0175110Y0232784D01*
X0176708Y0231186D02*
X0188600Y0231186D01*
X0188600Y0229587D02*
X0178307Y0229587D01*
X0179905Y0227989D02*
X0187095Y0227989D01*
X0185496Y0226390D02*
X0181504Y0226390D01*
X0182359Y0225535D02*
X0182359Y0225535D01*
X0183063Y0224792D02*
X0183937Y0224792D01*
X0183600Y0223193D02*
X0183400Y0223193D01*
X0186000Y0223500D02*
X0191000Y0228500D01*
X0191000Y0249976D01*
X0193400Y0243974D02*
X0200580Y0243974D01*
X0202178Y0245572D02*
X0198701Y0245572D01*
X0198899Y0247171D02*
X0203101Y0247171D01*
X0203101Y0248769D02*
X0198899Y0248769D01*
X0198899Y0250368D02*
X0203101Y0250368D01*
X0203101Y0251966D02*
X0198899Y0251966D01*
X0198899Y0253565D02*
X0203101Y0253565D01*
X0211000Y0251000D02*
X0211000Y0249976D01*
X0211000Y0251000D02*
X0201000Y0241000D01*
X0201000Y0233500D01*
X0191000Y0223500D01*
X0191000Y0216945D01*
X0186000Y0216945D02*
X0186000Y0223500D01*
X0193400Y0229587D02*
X0193693Y0229587D01*
X0193400Y0231186D02*
X0195292Y0231186D01*
X0196890Y0232784D02*
X0193400Y0232784D01*
X0193400Y0234383D02*
X0198489Y0234383D01*
X0198600Y0235981D02*
X0193400Y0235981D01*
X0193400Y0237580D02*
X0198600Y0237580D01*
X0198600Y0239178D02*
X0193400Y0239178D01*
X0193400Y0240777D02*
X0198600Y0240777D01*
X0198981Y0242375D02*
X0193400Y0242375D01*
X0183299Y0245572D02*
X0178701Y0245572D01*
X0178899Y0247171D02*
X0183101Y0247171D01*
X0183101Y0248769D02*
X0178899Y0248769D01*
X0178899Y0250368D02*
X0183101Y0250368D01*
X0183101Y0251966D02*
X0178899Y0251966D01*
X0178899Y0253565D02*
X0183101Y0253565D01*
X0163101Y0253565D02*
X0158899Y0253565D01*
X0158899Y0251966D02*
X0163101Y0251966D01*
X0163101Y0250368D02*
X0158899Y0250368D01*
X0158899Y0248769D02*
X0163101Y0248769D01*
X0163101Y0247171D02*
X0158899Y0247171D01*
X0158701Y0245572D02*
X0163299Y0245572D01*
X0148600Y0240777D02*
X0128400Y0240777D01*
X0128400Y0242375D02*
X0130903Y0242375D01*
X0129494Y0243974D02*
X0128400Y0243974D01*
X0128966Y0245572D02*
X0129013Y0245572D01*
X0128400Y0239178D02*
X0148600Y0239178D01*
X0148600Y0237580D02*
X0142167Y0237580D01*
X0142167Y0235981D02*
X0148600Y0235981D01*
X0148600Y0234383D02*
X0142167Y0234383D01*
X0143500Y0231000D02*
X0137024Y0231000D01*
X0131880Y0231186D02*
X0128400Y0231186D01*
X0128400Y0232784D02*
X0131880Y0232784D01*
X0131880Y0234383D02*
X0128400Y0234383D01*
X0128400Y0235981D02*
X0131880Y0235981D01*
X0131880Y0237580D02*
X0128400Y0237580D01*
X0128400Y0229587D02*
X0131880Y0229587D01*
X0131880Y0227989D02*
X0128400Y0227989D01*
X0128400Y0226390D02*
X0131880Y0226390D01*
X0131880Y0224792D02*
X0128400Y0224792D01*
X0128400Y0223193D02*
X0132725Y0223193D01*
X0128400Y0221595D02*
X0149511Y0221595D01*
X0147913Y0223193D02*
X0141322Y0223193D01*
X0142167Y0224792D02*
X0146314Y0224792D01*
X0144716Y0226390D02*
X0142167Y0226390D01*
X0142167Y0227989D02*
X0143117Y0227989D01*
X0142167Y0207208D02*
X0153898Y0207208D01*
X0155496Y0205609D02*
X0142167Y0205609D01*
X0142140Y0204011D02*
X0157095Y0204011D01*
X0160821Y0199215D02*
X0128400Y0199215D01*
X0128400Y0197617D02*
X0131880Y0197617D01*
X0131880Y0196018D02*
X0128400Y0196018D01*
X0128400Y0194420D02*
X0131880Y0194420D01*
X0131880Y0192821D02*
X0128400Y0192821D01*
X0128400Y0191223D02*
X0131880Y0191223D01*
X0131880Y0189624D02*
X0128400Y0189624D01*
X0128400Y0188026D02*
X0131880Y0188026D01*
X0137024Y0191000D02*
X0156000Y0191000D01*
X0156026Y0194420D02*
X0142167Y0194420D01*
X0142167Y0196018D02*
X0157624Y0196018D01*
X0159223Y0197617D02*
X0142167Y0197617D01*
X0131907Y0204011D02*
X0128400Y0204011D01*
X0128400Y0205609D02*
X0131880Y0205609D01*
X0131880Y0207208D02*
X0128400Y0207208D01*
X0128400Y0208806D02*
X0131880Y0208806D01*
X0128400Y0202412D02*
X0164018Y0202412D01*
X0162420Y0200814D02*
X0128400Y0200814D01*
X0118600Y0200814D02*
X0091000Y0200814D01*
X0091000Y0202412D02*
X0118600Y0202412D01*
X0118600Y0199215D02*
X0091000Y0199215D01*
X0091000Y0197617D02*
X0109833Y0197617D01*
X0109833Y0196018D02*
X0091000Y0196018D01*
X0091000Y0194420D02*
X0109833Y0194420D01*
X0109833Y0192821D02*
X0091000Y0192821D01*
X0091000Y0191223D02*
X0109833Y0191223D01*
X0109833Y0189624D02*
X0091000Y0189624D01*
X0091000Y0188026D02*
X0109833Y0188026D01*
X0109833Y0186427D02*
X0091000Y0186427D01*
X0091000Y0184829D02*
X0109833Y0184829D01*
X0110641Y0183230D02*
X0091000Y0183230D01*
X0091000Y0204011D02*
X0109860Y0204011D01*
X0109833Y0205609D02*
X0091000Y0205609D01*
X0091000Y0207208D02*
X0109833Y0207208D01*
X0109833Y0208806D02*
X0091000Y0208806D01*
X0091000Y0210405D02*
X0109833Y0210405D01*
X0109102Y0212003D02*
X0091000Y0212003D01*
X0091000Y0213602D02*
X0107504Y0213602D01*
X0113500Y0211000D02*
X0098500Y0226000D01*
X0098500Y0261000D01*
X0113500Y0276000D01*
X0111000Y0276000D01*
X0113500Y0276000D02*
X0116000Y0276000D01*
X0121287Y0272747D02*
X0129353Y0272747D01*
X0129539Y0274345D02*
X0122461Y0274345D01*
X0122800Y0275944D02*
X0129200Y0275944D01*
X0129493Y0277542D02*
X0122507Y0277542D01*
X0121399Y0279141D02*
X0130601Y0279141D01*
X0116000Y0282338D02*
X0116000Y0282338D01*
X0116000Y0283937D02*
X0116000Y0283937D01*
X0116000Y0285535D02*
X0116000Y0285535D01*
X0116000Y0287134D02*
X0116000Y0287134D01*
X0116000Y0288732D02*
X0116000Y0288732D01*
X0116000Y0290331D02*
X0116000Y0290331D01*
X0106000Y0236000D02*
X0111000Y0231000D01*
X0114976Y0231000D01*
X0114976Y0211000D02*
X0113500Y0211000D01*
X0128400Y0180033D02*
X0146639Y0180033D01*
X0145041Y0178435D02*
X0141694Y0178435D01*
X0142167Y0176836D02*
X0143442Y0176836D01*
X0141000Y0171000D02*
X0137024Y0171000D01*
X0141000Y0171000D02*
X0166000Y0196000D01*
X0170055Y0196000D01*
X0153500Y0178500D02*
X0153500Y0158500D01*
X0151000Y0156000D01*
X0136000Y0156000D01*
X0131000Y0151000D01*
X0131000Y0146000D01*
X0136253Y0152859D02*
X0153600Y0152859D01*
X0153600Y0154457D02*
X0152851Y0154457D01*
X0131880Y0164048D02*
X0120120Y0164048D01*
X0120120Y0165647D02*
X0131880Y0165647D01*
X0131880Y0167245D02*
X0120120Y0167245D01*
X0122066Y0168844D02*
X0131880Y0168844D01*
X0131880Y0170442D02*
X0123836Y0170442D01*
X0125435Y0172041D02*
X0131880Y0172041D01*
X0131880Y0173639D02*
X0127033Y0173639D01*
X0128282Y0175238D02*
X0131880Y0175238D01*
X0131880Y0176836D02*
X0128400Y0176836D01*
X0128400Y0178435D02*
X0132353Y0178435D01*
X0193400Y0173639D02*
X0227004Y0173639D01*
X0226802Y0172041D02*
X0193400Y0172041D01*
X0193400Y0170442D02*
X0226802Y0170442D01*
X0226802Y0168844D02*
X0195257Y0168844D01*
X0195257Y0167245D02*
X0226802Y0167245D01*
X0226802Y0165647D02*
X0195257Y0165647D01*
X0195257Y0164048D02*
X0226802Y0164048D01*
X0226802Y0162450D02*
X0195027Y0162450D01*
X0193400Y0160851D02*
X0226802Y0160851D01*
X0229096Y0157654D02*
X0246600Y0157654D01*
X0246600Y0157823D02*
X0246600Y0156000D01*
X0251000Y0156000D01*
X0255400Y0156000D01*
X0255400Y0157823D01*
X0252823Y0160400D01*
X0251000Y0160400D01*
X0251000Y0156000D01*
X0251000Y0156000D01*
X0251000Y0156000D01*
X0255400Y0156000D01*
X0255400Y0154177D01*
X0252823Y0151600D01*
X0251000Y0151600D01*
X0251000Y0156000D01*
X0251000Y0156000D01*
X0251000Y0156000D01*
X0251000Y0160400D01*
X0249177Y0160400D01*
X0246600Y0157823D01*
X0246600Y0156056D02*
X0229096Y0156056D01*
X0229096Y0154457D02*
X0246600Y0154457D01*
X0246600Y0154177D02*
X0249177Y0151600D01*
X0251000Y0151600D01*
X0251000Y0156000D01*
X0246600Y0156000D01*
X0246600Y0154177D01*
X0247919Y0152859D02*
X0229096Y0152859D01*
X0229096Y0151260D02*
X0281000Y0151260D01*
X0281000Y0152859D02*
X0263798Y0152859D01*
X0265200Y0154457D02*
X0281000Y0154457D01*
X0281000Y0156056D02*
X0265200Y0156056D01*
X0265200Y0157654D02*
X0281000Y0157654D01*
X0281000Y0159253D02*
X0263687Y0159253D01*
X0263400Y0160851D02*
X0281000Y0160851D01*
X0281000Y0162450D02*
X0263400Y0162450D01*
X0263400Y0164048D02*
X0281000Y0164048D01*
X0281000Y0165647D02*
X0263400Y0165647D01*
X0263082Y0167245D02*
X0281000Y0167245D01*
X0281000Y0168844D02*
X0261550Y0168844D01*
X0259952Y0170442D02*
X0281000Y0170442D01*
X0281000Y0172041D02*
X0258353Y0172041D01*
X0256572Y0173639D02*
X0281000Y0173639D01*
X0281000Y0175238D02*
X0258632Y0175238D01*
X0256000Y0176000D02*
X0261000Y0181000D01*
X0264374Y0178435D02*
X0281000Y0178435D01*
X0281000Y0180033D02*
X0265200Y0180033D01*
X0265200Y0181632D02*
X0281000Y0181632D01*
X0281000Y0183230D02*
X0264709Y0183230D01*
X0263111Y0184829D02*
X0281000Y0184829D01*
X0281000Y0186427D02*
X0237088Y0186427D01*
X0237088Y0184829D02*
X0248606Y0184829D01*
X0249177Y0185400D02*
X0246600Y0182823D01*
X0246600Y0181000D01*
X0251000Y0181000D01*
X0231945Y0181000D01*
X0237288Y0181000D01*
X0237288Y0182733D01*
X0237166Y0183191D01*
X0236929Y0183601D01*
X0236888Y0183641D01*
X0237088Y0183841D01*
X0237088Y0188159D01*
X0236747Y0188500D01*
X0237088Y0188841D01*
X0237088Y0193159D01*
X0236747Y0193500D01*
X0237088Y0193841D01*
X0237088Y0198159D01*
X0236747Y0198500D01*
X0237088Y0198841D01*
X0237088Y0203159D01*
X0236747Y0203500D01*
X0237088Y0203841D01*
X0237088Y0208159D01*
X0236747Y0208500D01*
X0237088Y0208841D01*
X0237088Y0213159D01*
X0236151Y0214096D01*
X0229096Y0214096D01*
X0229096Y0221151D01*
X0228159Y0222088D01*
X0223841Y0222088D01*
X0223500Y0221747D01*
X0223159Y0222088D01*
X0218841Y0222088D01*
X0218500Y0221747D01*
X0218159Y0222088D01*
X0213841Y0222088D01*
X0213500Y0221747D01*
X0213159Y0222088D01*
X0208841Y0222088D01*
X0208500Y0221747D01*
X0208159Y0222088D01*
X0203841Y0222088D01*
X0203500Y0221747D01*
X0203159Y0222088D01*
X0198841Y0222088D01*
X0198500Y0221747D01*
X0198400Y0221847D01*
X0198400Y0222506D01*
X0204833Y0228939D01*
X0204833Y0224038D01*
X0205770Y0223101D01*
X0214182Y0223101D01*
X0215120Y0224038D01*
X0215120Y0228600D01*
X0216743Y0228600D01*
X0216743Y0227680D01*
X0217680Y0226743D01*
X0224320Y0226743D01*
X0225257Y0227680D01*
X0225257Y0234320D01*
X0225236Y0234342D01*
X0226680Y0235786D01*
X0226680Y0231800D01*
X0231224Y0231800D01*
X0231224Y0230200D01*
X0232824Y0230200D01*
X0232824Y0222901D01*
X0235804Y0222901D01*
X0236262Y0223023D01*
X0236672Y0223260D01*
X0237007Y0223596D01*
X0237244Y0224006D01*
X0237367Y0224464D01*
X0237367Y0230200D01*
X0237367Y0229587D02*
X0281000Y0229587D01*
X0281000Y0227989D02*
X0237367Y0227989D01*
X0237367Y0226390D02*
X0281000Y0226390D01*
X0281000Y0224792D02*
X0237367Y0224792D01*
X0236555Y0223193D02*
X0281000Y0223193D01*
X0281000Y0221595D02*
X0228652Y0221595D01*
X0228243Y0222901D02*
X0231224Y0222901D01*
X0231224Y0230200D01*
X0226680Y0230200D01*
X0226680Y0224464D01*
X0226803Y0224006D01*
X0227040Y0223596D01*
X0227375Y0223260D01*
X0227786Y0223023D01*
X0228243Y0222901D01*
X0227492Y0223193D02*
X0214275Y0223193D01*
X0215120Y0224792D02*
X0226680Y0224792D01*
X0226680Y0226390D02*
X0215120Y0226390D01*
X0215120Y0227989D02*
X0216743Y0227989D01*
X0218500Y0231000D02*
X0209976Y0231000D01*
X0215120Y0234383D02*
X0216805Y0234383D01*
X0215120Y0235981D02*
X0220087Y0235981D01*
X0221686Y0237580D02*
X0215120Y0237580D01*
X0209171Y0240777D02*
X0224883Y0240777D01*
X0226481Y0242375D02*
X0223269Y0242375D01*
X0224868Y0243974D02*
X0228080Y0243974D01*
X0228965Y0244859D02*
X0228965Y0244859D01*
X0229731Y0245572D02*
X0225900Y0245572D01*
X0225900Y0247171D02*
X0253777Y0247171D01*
X0253500Y0243500D02*
X0231000Y0243500D01*
X0218500Y0231000D01*
X0225257Y0231186D02*
X0231224Y0231186D01*
X0231224Y0232784D02*
X0232824Y0232784D01*
X0232824Y0234383D02*
X0231224Y0234383D01*
X0231224Y0235981D02*
X0232824Y0235981D01*
X0232824Y0237580D02*
X0231224Y0237580D01*
X0230072Y0239178D02*
X0281000Y0239178D01*
X0281000Y0237580D02*
X0237355Y0237580D01*
X0237367Y0235981D02*
X0281000Y0235981D01*
X0281000Y0234383D02*
X0237367Y0234383D01*
X0232824Y0229587D02*
X0231224Y0229587D01*
X0231224Y0227989D02*
X0232824Y0227989D01*
X0232824Y0226390D02*
X0231224Y0226390D01*
X0231224Y0224792D02*
X0232824Y0224792D01*
X0232824Y0223193D02*
X0231224Y0223193D01*
X0229096Y0219996D02*
X0281000Y0219996D01*
X0281000Y0218398D02*
X0229096Y0218398D01*
X0229096Y0216799D02*
X0281000Y0216799D01*
X0281000Y0215201D02*
X0229096Y0215201D01*
X0226836Y0208806D02*
X0225257Y0208806D01*
X0225257Y0207208D02*
X0226802Y0207208D01*
X0226802Y0205609D02*
X0225257Y0205609D01*
X0225257Y0204011D02*
X0226802Y0204011D01*
X0226802Y0202412D02*
X0224990Y0202412D01*
X0226802Y0200814D02*
X0219208Y0200814D01*
X0217610Y0199215D02*
X0226802Y0199215D01*
X0226802Y0197617D02*
X0216011Y0197617D01*
X0214412Y0196018D02*
X0226802Y0196018D01*
X0226802Y0194420D02*
X0212814Y0194420D01*
X0211215Y0192821D02*
X0226802Y0192821D01*
X0226802Y0191223D02*
X0209617Y0191223D01*
X0208018Y0189624D02*
X0226802Y0189624D01*
X0226802Y0188026D02*
X0206420Y0188026D01*
X0204821Y0186427D02*
X0226802Y0186427D01*
X0226802Y0184829D02*
X0203223Y0184829D01*
X0201624Y0183230D02*
X0226747Y0183230D01*
X0226602Y0181632D02*
X0200026Y0181632D01*
X0198427Y0180033D02*
X0226602Y0180033D01*
X0226602Y0181000D02*
X0231945Y0181000D01*
X0231945Y0181000D01*
X0237288Y0181000D01*
X0237288Y0179267D01*
X0237166Y0178809D01*
X0236929Y0178400D01*
X0247377Y0178400D01*
X0246600Y0179177D01*
X0246600Y0181000D01*
X0251000Y0181000D01*
X0251000Y0181000D01*
X0255400Y0181000D01*
X0251000Y0181000D01*
X0251000Y0181000D01*
X0251000Y0181000D01*
X0251000Y0185400D01*
X0249177Y0185400D01*
X0251000Y0184829D02*
X0251000Y0184829D01*
X0251000Y0183230D02*
X0251000Y0183230D01*
X0251000Y0181632D02*
X0251000Y0181632D01*
X0253394Y0184829D02*
X0258889Y0184829D01*
X0257291Y0183230D02*
X0254992Y0183230D01*
X0255400Y0181632D02*
X0256800Y0181632D01*
X0256639Y0180033D02*
X0255400Y0180033D01*
X0255041Y0178435D02*
X0254657Y0178435D01*
X0256000Y0176000D02*
X0231945Y0176000D01*
X0226802Y0175238D02*
X0193632Y0175238D01*
X0195230Y0176836D02*
X0226802Y0176836D01*
X0226940Y0178435D02*
X0196829Y0178435D01*
X0226602Y0181000D02*
X0231945Y0181000D01*
X0231945Y0181000D01*
X0237288Y0181632D02*
X0246600Y0181632D01*
X0246600Y0180033D02*
X0237288Y0180033D01*
X0236949Y0178435D02*
X0247343Y0178435D01*
X0247008Y0183230D02*
X0237143Y0183230D01*
X0237088Y0188026D02*
X0281000Y0188026D01*
X0281000Y0189624D02*
X0237088Y0189624D01*
X0237088Y0191223D02*
X0281000Y0191223D01*
X0281000Y0192821D02*
X0237088Y0192821D01*
X0237088Y0194420D02*
X0281000Y0194420D01*
X0281000Y0196018D02*
X0237088Y0196018D01*
X0237088Y0197617D02*
X0281000Y0197617D01*
X0281000Y0199215D02*
X0237088Y0199215D01*
X0237088Y0200814D02*
X0281000Y0200814D01*
X0281000Y0202412D02*
X0258314Y0202412D01*
X0258379Y0202439D02*
X0259561Y0203621D01*
X0260200Y0205165D01*
X0260200Y0206835D01*
X0259561Y0208379D01*
X0258379Y0209561D01*
X0256835Y0210200D01*
X0255165Y0210200D01*
X0253621Y0209561D01*
X0252439Y0208379D01*
X0251800Y0206835D01*
X0251800Y0205165D01*
X0252439Y0203621D01*
X0253621Y0202439D01*
X0255165Y0201800D01*
X0256835Y0201800D01*
X0258379Y0202439D01*
X0259722Y0204011D02*
X0281000Y0204011D01*
X0281000Y0205609D02*
X0260200Y0205609D01*
X0260046Y0207208D02*
X0281000Y0207208D01*
X0281000Y0208806D02*
X0259133Y0208806D01*
X0252867Y0208806D02*
X0249133Y0208806D01*
X0249561Y0208379D02*
X0248379Y0209561D01*
X0246835Y0210200D01*
X0245165Y0210200D01*
X0243621Y0209561D01*
X0242439Y0208379D01*
X0241800Y0206835D01*
X0241800Y0205165D01*
X0242439Y0203621D01*
X0243621Y0202439D01*
X0245165Y0201800D01*
X0246835Y0201800D01*
X0248379Y0202439D01*
X0249561Y0203621D01*
X0250200Y0205165D01*
X0250200Y0206835D01*
X0249561Y0208379D01*
X0250046Y0207208D02*
X0251954Y0207208D01*
X0251800Y0205609D02*
X0250200Y0205609D01*
X0249722Y0204011D02*
X0252278Y0204011D01*
X0253686Y0202412D02*
X0248314Y0202412D01*
X0243686Y0202412D02*
X0237088Y0202412D01*
X0237088Y0204011D02*
X0242278Y0204011D01*
X0241800Y0205609D02*
X0237088Y0205609D01*
X0237088Y0207208D02*
X0241954Y0207208D01*
X0242867Y0208806D02*
X0237053Y0208806D01*
X0237088Y0210405D02*
X0281000Y0210405D01*
X0281000Y0212003D02*
X0237088Y0212003D01*
X0236645Y0213602D02*
X0281000Y0213602D01*
X0281000Y0240777D02*
X0231671Y0240777D01*
X0226680Y0234383D02*
X0225277Y0234383D01*
X0225257Y0232784D02*
X0226680Y0232784D01*
X0226680Y0229587D02*
X0225257Y0229587D01*
X0225257Y0227989D02*
X0226680Y0227989D01*
X0223284Y0239178D02*
X0207572Y0239178D01*
X0218899Y0247171D02*
X0221100Y0247171D01*
X0221100Y0248769D02*
X0218899Y0248769D01*
X0218899Y0250368D02*
X0221100Y0250368D01*
X0221100Y0251966D02*
X0218899Y0251966D01*
X0218899Y0253565D02*
X0221100Y0253565D01*
X0225900Y0250368D02*
X0225939Y0250368D01*
X0225900Y0248769D02*
X0227025Y0248769D01*
X0203101Y0267951D02*
X0198899Y0267951D01*
X0198899Y0269550D02*
X0203101Y0269550D01*
X0203101Y0271148D02*
X0198899Y0271148D01*
X0198899Y0272747D02*
X0203101Y0272747D01*
X0203101Y0274345D02*
X0198899Y0274345D01*
X0198899Y0275944D02*
X0203101Y0275944D01*
X0203883Y0227989D02*
X0204833Y0227989D01*
X0204833Y0226390D02*
X0202284Y0226390D01*
X0200686Y0224792D02*
X0204833Y0224792D01*
X0205678Y0223193D02*
X0199087Y0223193D01*
X0262776Y0176836D02*
X0281000Y0176836D01*
X0261000Y0166000D02*
X0261000Y0156000D01*
X0256800Y0156056D02*
X0255400Y0156056D01*
X0255400Y0157654D02*
X0256800Y0157654D01*
X0258313Y0159253D02*
X0253970Y0159253D01*
X0251000Y0159253D02*
X0251000Y0159253D01*
X0251000Y0157654D02*
X0251000Y0157654D01*
X0251000Y0156056D02*
X0251000Y0156056D01*
X0251000Y0154457D02*
X0251000Y0154457D01*
X0251000Y0152859D02*
X0251000Y0152859D01*
X0254081Y0152859D02*
X0258202Y0152859D01*
X0256800Y0154457D02*
X0255400Y0154457D01*
X0258600Y0160851D02*
X0237088Y0160851D01*
X0237088Y0159253D02*
X0248030Y0159253D01*
X0256361Y0167245D02*
X0237088Y0167245D01*
X0237088Y0165647D02*
X0257959Y0165647D01*
X0258600Y0164048D02*
X0237088Y0164048D01*
X0237088Y0162450D02*
X0258600Y0162450D01*
X0261000Y0166000D02*
X0256000Y0171000D01*
X0231945Y0171000D01*
X0230338Y0143268D02*
X0224627Y0143268D01*
X0226225Y0141669D02*
X0231937Y0141669D01*
X0233535Y0140070D02*
X0227824Y0140070D01*
X0228400Y0138472D02*
X0233600Y0138472D01*
X0233600Y0136873D02*
X0228400Y0136873D01*
X0228400Y0135275D02*
X0233600Y0135275D01*
X0233600Y0133676D02*
X0228400Y0133676D01*
X0229427Y0132078D02*
X0232573Y0132078D01*
X0231634Y0130479D02*
X0230366Y0130479D01*
X0230600Y0128881D02*
X0231400Y0128881D01*
X0231400Y0127282D02*
X0230600Y0127282D01*
X0230600Y0125684D02*
X0231400Y0125684D01*
X0231400Y0124085D02*
X0230600Y0124085D01*
X0230600Y0122487D02*
X0231400Y0122487D01*
X0231896Y0120888D02*
X0230104Y0120888D01*
X0228795Y0119290D02*
X0233205Y0119290D01*
X0238795Y0119290D02*
X0274290Y0119290D01*
X0275888Y0120888D02*
X0240104Y0120888D01*
X0240600Y0122487D02*
X0277487Y0122487D01*
X0279085Y0124085D02*
X0240600Y0124085D01*
X0261502Y0106502D02*
X0110498Y0106502D01*
X0108900Y0108100D02*
X0263100Y0108100D01*
X0264699Y0109699D02*
X0107301Y0109699D01*
X0105703Y0111297D02*
X0266297Y0111297D01*
X0267896Y0112896D02*
X0104104Y0112896D01*
X0102506Y0114494D02*
X0269494Y0114494D01*
X0271093Y0116093D02*
X0100907Y0116093D01*
X0099309Y0117691D02*
X0272691Y0117691D01*
X0210134Y0138472D02*
X0206922Y0138472D01*
X0206000Y0136000D02*
X0206000Y0126000D01*
X0201896Y0120888D02*
X0200104Y0120888D01*
X0200600Y0122487D02*
X0201400Y0122487D01*
X0201400Y0124085D02*
X0200600Y0124085D01*
X0198795Y0119290D02*
X0203205Y0119290D01*
X0193205Y0119290D02*
X0188795Y0119290D01*
X0190104Y0120888D02*
X0191896Y0120888D01*
X0191400Y0122487D02*
X0190600Y0122487D01*
X0190600Y0124085D02*
X0191400Y0124085D01*
X0191400Y0125684D02*
X0190600Y0125684D01*
X0190600Y0127282D02*
X0191400Y0127282D01*
X0191400Y0128881D02*
X0190600Y0128881D01*
X0190366Y0130479D02*
X0191634Y0130479D01*
X0192573Y0132078D02*
X0189427Y0132078D01*
X0186000Y0131000D02*
X0186000Y0126000D01*
X0181400Y0124085D02*
X0180600Y0124085D01*
X0180600Y0122487D02*
X0181400Y0122487D01*
X0181896Y0120888D02*
X0180104Y0120888D01*
X0178795Y0119290D02*
X0183205Y0119290D01*
D22*
X0191000Y0166000D03*
X0221000Y0206000D03*
X0221000Y0231000D03*
M02*
