G75*
%MOIN*%
%OFA0B0*%
%FSLAX26Y26*%
%IPPOS*%
%LPD*%
%AMOC8*
5,1,8,0,0,1.08239X$1,22.5*
%
%ADD10OC8,0.060000*%
%ADD11OC8,0.071000*%
%ADD12C,0.071000*%
%ADD13C,0.060000*%
%ADD14C,0.060000*%
%ADD15C,0.068000*%
%ADD16R,0.061150X0.061150*%
D10*
X02500000Y01550000D03*
X02600000Y01550000D03*
X02600000Y01800000D03*
X02500000Y01800000D03*
D11*
X01400000Y01450000D03*
D12*
X01300000Y01450000D03*
D13*
X01324000Y02450000D02*
X01376000Y02450000D01*
X01376000Y02550000D02*
X01324000Y02550000D01*
X01324000Y02650000D02*
X01376000Y02650000D01*
X01376000Y02750000D02*
X01324000Y02750000D01*
X01324000Y02850000D02*
X01376000Y02850000D01*
X01176000Y02850000D02*
X01124000Y02850000D01*
X01124000Y02750000D02*
X01176000Y02750000D01*
X01176000Y02650000D02*
X01124000Y02650000D01*
X01124000Y02550000D02*
X01176000Y02550000D01*
X01176000Y02450000D02*
X01124000Y02450000D01*
D14*
X02450000Y02050000D03*
X02550000Y02050000D03*
D15*
X01650000Y01280000D02*
X01650000Y01220000D01*
X01750000Y01220000D02*
X01750000Y01280000D01*
X01850000Y01280000D02*
X01850000Y01220000D01*
X01950000Y01220000D02*
X01950000Y01280000D01*
X02050000Y01280000D02*
X02050000Y01220000D01*
X02150000Y01220000D02*
X02150000Y01280000D01*
X02250000Y01280000D02*
X02250000Y01220000D01*
X02350000Y01220000D02*
X02350000Y01280000D01*
X02352000Y02511000D02*
X02292000Y02511000D01*
X02292000Y02689000D02*
X02352000Y02689000D01*
X02548000Y02689000D02*
X02608000Y02689000D01*
X02608000Y02511000D02*
X02548000Y02511000D01*
D16*
X02200000Y02300000D03*
X02200000Y02050000D03*
X01900000Y01650000D03*
M02*
