G75*
%MOIN*%
%OFA0B0*%
%FSLAX26Y26*%
%IPPOS*%
%LPD*%
%AMOC8*
5,1,8,0,0,1.08239X$1,22.5*
%
%ADD10C,0.000000*%
%ADD11C,0.006000*%
%ADD12C,0.010000*%
%ADD13C,0.005000*%
%ADD14C,0.002000*%
%ADD15C,0.007000*%
%ADD16C,0.016000*%
%ADD17R,0.016000X0.023000*%
%ADD18C,0.004000*%
%ADD19C,0.026000*%
%ADD20R,0.026000X0.030000*%
%ADD21R,0.026000X0.026000*%
D10*
X00000000Y00000000D02*
X00000000Y03149606D01*
X03937008Y03149606D01*
X03937008Y00000000D01*
X00000000Y00000000D01*
D11*
X01600000Y01080000D02*
X01700000Y01080000D01*
X01800000Y01080000D01*
X01900000Y01080000D01*
X02000000Y01080000D01*
X02100000Y01080000D01*
X02200000Y01080000D01*
X02300000Y01080000D01*
X02400000Y01080000D01*
X02400000Y01190000D01*
X02300000Y01190000D01*
X02200000Y01190000D01*
X02200000Y01080000D01*
X02100000Y01080000D02*
X02100000Y01190000D01*
X02200000Y01190000D01*
X02100000Y01190000D02*
X02000000Y01190000D01*
X02000000Y01080000D01*
X01900000Y01080000D02*
X01900000Y01190000D01*
X02000000Y01190000D01*
X01900000Y01190000D02*
X01800000Y01190000D01*
X01700000Y01190000D01*
X01700000Y01080000D01*
X01800000Y01080000D02*
X01800000Y01190000D01*
X01700000Y01190000D02*
X01600000Y01190000D01*
X01600000Y01080000D01*
X01250000Y01450000D02*
X01250030Y01452454D01*
X01250120Y01454907D01*
X01250271Y01457356D01*
X01250482Y01459802D01*
X01250752Y01462241D01*
X01251082Y01464673D01*
X01251472Y01467096D01*
X01251921Y01469509D01*
X01252430Y01471910D01*
X01252997Y01474298D01*
X01253622Y01476671D01*
X01254306Y01479028D01*
X01255047Y01481368D01*
X01255846Y01483689D01*
X01256701Y01485990D01*
X01257612Y01488268D01*
X01258579Y01490524D01*
X01259601Y01492756D01*
X01260678Y01494961D01*
X01261808Y01497140D01*
X01262991Y01499290D01*
X01264227Y01501410D01*
X01265515Y01503500D01*
X01266853Y01505557D01*
X01268242Y01507581D01*
X01269679Y01509570D01*
X01271165Y01511523D01*
X01272699Y01513439D01*
X01274279Y01515317D01*
X01275905Y01517156D01*
X01277575Y01518954D01*
X01279289Y01520711D01*
X01281046Y01522425D01*
X01282844Y01524095D01*
X01284683Y01525721D01*
X01286561Y01527301D01*
X01288477Y01528835D01*
X01290430Y01530321D01*
X01292419Y01531758D01*
X01294443Y01533147D01*
X01296500Y01534485D01*
X01298590Y01535773D01*
X01300710Y01537009D01*
X01302860Y01538192D01*
X01305039Y01539322D01*
X01307244Y01540399D01*
X01309476Y01541421D01*
X01311732Y01542388D01*
X01314010Y01543299D01*
X01316311Y01544154D01*
X01318632Y01544953D01*
X01320972Y01545694D01*
X01323329Y01546378D01*
X01325702Y01547003D01*
X01328090Y01547570D01*
X01330491Y01548079D01*
X01332904Y01548528D01*
X01335327Y01548918D01*
X01337759Y01549248D01*
X01340198Y01549518D01*
X01342644Y01549729D01*
X01345093Y01549880D01*
X01347546Y01549970D01*
X01350000Y01550000D01*
X01352454Y01549970D01*
X01354907Y01549880D01*
X01357356Y01549729D01*
X01359802Y01549518D01*
X01362241Y01549248D01*
X01364673Y01548918D01*
X01367096Y01548528D01*
X01369509Y01548079D01*
X01371910Y01547570D01*
X01374298Y01547003D01*
X01376671Y01546378D01*
X01379028Y01545694D01*
X01381368Y01544953D01*
X01383689Y01544154D01*
X01385990Y01543299D01*
X01388268Y01542388D01*
X01390524Y01541421D01*
X01392756Y01540399D01*
X01394961Y01539322D01*
X01397140Y01538192D01*
X01399290Y01537009D01*
X01401410Y01535773D01*
X01403500Y01534485D01*
X01405557Y01533147D01*
X01407581Y01531758D01*
X01409570Y01530321D01*
X01411523Y01528835D01*
X01413439Y01527301D01*
X01415317Y01525721D01*
X01417156Y01524095D01*
X01418954Y01522425D01*
X01420711Y01520711D01*
X01422425Y01518954D01*
X01424095Y01517156D01*
X01425721Y01515317D01*
X01427301Y01513439D01*
X01428835Y01511523D01*
X01430321Y01509570D01*
X01431758Y01507581D01*
X01433147Y01505557D01*
X01434485Y01503500D01*
X01435773Y01501410D01*
X01437009Y01499290D01*
X01438192Y01497140D01*
X01439322Y01494961D01*
X01440399Y01492756D01*
X01441421Y01490524D01*
X01442388Y01488268D01*
X01443299Y01485990D01*
X01444154Y01483689D01*
X01444953Y01481368D01*
X01445694Y01479028D01*
X01446378Y01476671D01*
X01447003Y01474298D01*
X01447570Y01471910D01*
X01448079Y01469509D01*
X01448528Y01467096D01*
X01448918Y01464673D01*
X01449248Y01462241D01*
X01449518Y01459802D01*
X01449729Y01457356D01*
X01449880Y01454907D01*
X01449970Y01452454D01*
X01450000Y01450000D01*
X01449970Y01447546D01*
X01449880Y01445093D01*
X01449729Y01442644D01*
X01449518Y01440198D01*
X01449248Y01437759D01*
X01448918Y01435327D01*
X01448528Y01432904D01*
X01448079Y01430491D01*
X01447570Y01428090D01*
X01447003Y01425702D01*
X01446378Y01423329D01*
X01445694Y01420972D01*
X01444953Y01418632D01*
X01444154Y01416311D01*
X01443299Y01414010D01*
X01442388Y01411732D01*
X01441421Y01409476D01*
X01440399Y01407244D01*
X01439322Y01405039D01*
X01438192Y01402860D01*
X01437009Y01400710D01*
X01435773Y01398590D01*
X01434485Y01396500D01*
X01433147Y01394443D01*
X01431758Y01392419D01*
X01430321Y01390430D01*
X01428835Y01388477D01*
X01427301Y01386561D01*
X01425721Y01384683D01*
X01424095Y01382844D01*
X01422425Y01381046D01*
X01420711Y01379289D01*
X01418954Y01377575D01*
X01417156Y01375905D01*
X01415317Y01374279D01*
X01413439Y01372699D01*
X01411523Y01371165D01*
X01409570Y01369679D01*
X01407581Y01368242D01*
X01405557Y01366853D01*
X01403500Y01365515D01*
X01401410Y01364227D01*
X01399290Y01362991D01*
X01397140Y01361808D01*
X01394961Y01360678D01*
X01392756Y01359601D01*
X01390524Y01358579D01*
X01388268Y01357612D01*
X01385990Y01356701D01*
X01383689Y01355846D01*
X01381368Y01355047D01*
X01379028Y01354306D01*
X01376671Y01353622D01*
X01374298Y01352997D01*
X01371910Y01352430D01*
X01369509Y01351921D01*
X01367096Y01351472D01*
X01364673Y01351082D01*
X01362241Y01350752D01*
X01359802Y01350482D01*
X01357356Y01350271D01*
X01354907Y01350120D01*
X01352454Y01350030D01*
X01350000Y01350000D01*
X01347546Y01350030D01*
X01345093Y01350120D01*
X01342644Y01350271D01*
X01340198Y01350482D01*
X01337759Y01350752D01*
X01335327Y01351082D01*
X01332904Y01351472D01*
X01330491Y01351921D01*
X01328090Y01352430D01*
X01325702Y01352997D01*
X01323329Y01353622D01*
X01320972Y01354306D01*
X01318632Y01355047D01*
X01316311Y01355846D01*
X01314010Y01356701D01*
X01311732Y01357612D01*
X01309476Y01358579D01*
X01307244Y01359601D01*
X01305039Y01360678D01*
X01302860Y01361808D01*
X01300710Y01362991D01*
X01298590Y01364227D01*
X01296500Y01365515D01*
X01294443Y01366853D01*
X01292419Y01368242D01*
X01290430Y01369679D01*
X01288477Y01371165D01*
X01286561Y01372699D01*
X01284683Y01374279D01*
X01282844Y01375905D01*
X01281046Y01377575D01*
X01279289Y01379289D01*
X01277575Y01381046D01*
X01275905Y01382844D01*
X01274279Y01384683D01*
X01272699Y01386561D01*
X01271165Y01388477D01*
X01269679Y01390430D01*
X01268242Y01392419D01*
X01266853Y01394443D01*
X01265515Y01396500D01*
X01264227Y01398590D01*
X01262991Y01400710D01*
X01261808Y01402860D01*
X01260678Y01405039D01*
X01259601Y01407244D01*
X01258579Y01409476D01*
X01257612Y01411732D01*
X01256701Y01414010D01*
X01255846Y01416311D01*
X01255047Y01418632D01*
X01254306Y01420972D01*
X01253622Y01423329D01*
X01252997Y01425702D01*
X01252430Y01428090D01*
X01251921Y01430491D01*
X01251472Y01432904D01*
X01251082Y01435327D01*
X01250752Y01437759D01*
X01250482Y01440198D01*
X01250271Y01442644D01*
X01250120Y01445093D01*
X01250030Y01447546D01*
X01250000Y01450000D01*
X01295000Y01490000D02*
X01295000Y01500000D01*
X01295000Y01510000D01*
X01295000Y01500000D02*
X01305000Y01500000D01*
X01295000Y01500000D02*
X01285000Y01500000D01*
X01675591Y01580669D02*
X01722835Y01523622D01*
X01730669Y01523622D01*
X01769331Y01523622D02*
X01780669Y01523622D01*
X01819331Y01523622D02*
X01830669Y01523622D01*
X01869331Y01523622D02*
X01880669Y01523622D01*
X01919331Y01523622D02*
X01930669Y01523622D01*
X01969331Y01523622D02*
X01980669Y01523622D01*
X02019331Y01523622D02*
X02030669Y01523622D01*
X02069331Y01523622D02*
X02080669Y01523622D01*
X02119331Y01523622D02*
X02130669Y01523622D01*
X02169331Y01523622D02*
X02180669Y01523622D01*
X02219331Y01523622D02*
X02230669Y01523622D01*
X02269331Y01523622D02*
X02306693Y01523622D01*
X02326378Y01543307D01*
X02326378Y01580669D01*
X02326378Y01619331D02*
X02326378Y01630669D01*
X02326378Y01669331D02*
X02326378Y01680669D01*
X02326378Y01719331D02*
X02326378Y01730669D01*
X02326378Y01769331D02*
X02326378Y01780669D01*
X02326378Y01819331D02*
X02326378Y01830669D01*
X02326378Y01869331D02*
X02326378Y01880669D01*
X02326378Y01919331D02*
X02326378Y01930669D01*
X02326378Y01969331D02*
X02326378Y01980669D01*
X02326378Y02019331D02*
X02326378Y02030669D01*
X02326378Y02069331D02*
X02326378Y02080669D01*
X02326378Y02119331D02*
X02326378Y02156693D01*
X02306693Y02176378D01*
X02269331Y02176378D01*
X02230669Y02176378D02*
X02219331Y02176378D01*
X02180669Y02176378D02*
X02169331Y02176378D01*
X02130669Y02176378D02*
X02119331Y02176378D01*
X02080669Y02176378D02*
X02069331Y02176378D01*
X02030669Y02176378D02*
X02019331Y02176378D01*
X01980669Y02176378D02*
X01969331Y02176378D01*
X01930669Y02176378D02*
X01919331Y02176378D01*
X01880669Y02176378D02*
X01869331Y02176378D01*
X01830669Y02176378D02*
X01819331Y02176378D01*
X01780669Y02176378D02*
X01769331Y02176378D01*
X01730669Y02176378D02*
X01693307Y02176378D01*
X01673622Y02156693D01*
X01673622Y02119331D01*
X01673622Y02080669D02*
X01673622Y02069331D01*
X01673622Y02030669D02*
X01673622Y02019331D01*
X01673622Y01980669D02*
X01673622Y01969331D01*
X01673622Y01930669D02*
X01673622Y01919331D01*
X01673622Y01880669D02*
X01673622Y01869331D01*
X01673622Y01830669D02*
X01673622Y01819331D01*
X01673622Y01780669D02*
X01673622Y01769331D01*
X01673622Y01730669D02*
X01673622Y01719331D01*
X01673622Y01680669D02*
X01673622Y01669331D01*
X01673622Y01630669D02*
X01673622Y01619331D01*
X02300000Y01190000D02*
X02300000Y01080000D01*
X02465000Y01500000D02*
X02635000Y01500000D01*
X02635242Y01500003D01*
X02635483Y01500012D01*
X02635724Y01500026D01*
X02635965Y01500047D01*
X02636205Y01500073D01*
X02636445Y01500105D01*
X02636684Y01500143D01*
X02636921Y01500186D01*
X02637158Y01500236D01*
X02637393Y01500291D01*
X02637627Y01500351D01*
X02637859Y01500418D01*
X02638090Y01500489D01*
X02638319Y01500567D01*
X02638546Y01500650D01*
X02638771Y01500738D01*
X02638994Y01500832D01*
X02639214Y01500931D01*
X02639432Y01501036D01*
X02639647Y01501145D01*
X02639860Y01501260D01*
X02640070Y01501380D01*
X02640276Y01501505D01*
X02640480Y01501635D01*
X02640681Y01501770D01*
X02640878Y01501910D01*
X02641072Y01502054D01*
X02641262Y01502203D01*
X02641448Y01502357D01*
X02641631Y01502515D01*
X02641810Y01502677D01*
X02641985Y01502844D01*
X02642156Y01503015D01*
X02642323Y01503190D01*
X02642485Y01503369D01*
X02642643Y01503552D01*
X02642797Y01503738D01*
X02642946Y01503928D01*
X02643090Y01504122D01*
X02643230Y01504319D01*
X02643365Y01504520D01*
X02643495Y01504724D01*
X02643620Y01504930D01*
X02643740Y01505140D01*
X02643855Y01505353D01*
X02643964Y01505568D01*
X02644069Y01505786D01*
X02644168Y01506006D01*
X02644262Y01506229D01*
X02644350Y01506454D01*
X02644433Y01506681D01*
X02644511Y01506910D01*
X02644582Y01507141D01*
X02644649Y01507373D01*
X02644709Y01507607D01*
X02644764Y01507842D01*
X02644814Y01508079D01*
X02644857Y01508316D01*
X02644895Y01508555D01*
X02644927Y01508795D01*
X02644953Y01509035D01*
X02644974Y01509276D01*
X02644988Y01509517D01*
X02644997Y01509758D01*
X02645000Y01510000D01*
X02645000Y01590000D01*
X02644997Y01590242D01*
X02644988Y01590483D01*
X02644974Y01590724D01*
X02644953Y01590965D01*
X02644927Y01591205D01*
X02644895Y01591445D01*
X02644857Y01591684D01*
X02644814Y01591921D01*
X02644764Y01592158D01*
X02644709Y01592393D01*
X02644649Y01592627D01*
X02644582Y01592859D01*
X02644511Y01593090D01*
X02644433Y01593319D01*
X02644350Y01593546D01*
X02644262Y01593771D01*
X02644168Y01593994D01*
X02644069Y01594214D01*
X02643964Y01594432D01*
X02643855Y01594647D01*
X02643740Y01594860D01*
X02643620Y01595070D01*
X02643495Y01595276D01*
X02643365Y01595480D01*
X02643230Y01595681D01*
X02643090Y01595878D01*
X02642946Y01596072D01*
X02642797Y01596262D01*
X02642643Y01596448D01*
X02642485Y01596631D01*
X02642323Y01596810D01*
X02642156Y01596985D01*
X02641985Y01597156D01*
X02641810Y01597323D01*
X02641631Y01597485D01*
X02641448Y01597643D01*
X02641262Y01597797D01*
X02641072Y01597946D01*
X02640878Y01598090D01*
X02640681Y01598230D01*
X02640480Y01598365D01*
X02640276Y01598495D01*
X02640070Y01598620D01*
X02639860Y01598740D01*
X02639647Y01598855D01*
X02639432Y01598964D01*
X02639214Y01599069D01*
X02638994Y01599168D01*
X02638771Y01599262D01*
X02638546Y01599350D01*
X02638319Y01599433D01*
X02638090Y01599511D01*
X02637859Y01599582D01*
X02637627Y01599649D01*
X02637393Y01599709D01*
X02637158Y01599764D01*
X02636921Y01599814D01*
X02636684Y01599857D01*
X02636445Y01599895D01*
X02636205Y01599927D01*
X02635965Y01599953D01*
X02635724Y01599974D01*
X02635483Y01599988D01*
X02635242Y01599997D01*
X02635000Y01600000D01*
X02465000Y01600000D01*
X02464758Y01599997D01*
X02464517Y01599988D01*
X02464276Y01599974D01*
X02464035Y01599953D01*
X02463795Y01599927D01*
X02463555Y01599895D01*
X02463316Y01599857D01*
X02463079Y01599814D01*
X02462842Y01599764D01*
X02462607Y01599709D01*
X02462373Y01599649D01*
X02462141Y01599582D01*
X02461910Y01599511D01*
X02461681Y01599433D01*
X02461454Y01599350D01*
X02461229Y01599262D01*
X02461006Y01599168D01*
X02460786Y01599069D01*
X02460568Y01598964D01*
X02460353Y01598855D01*
X02460140Y01598740D01*
X02459930Y01598620D01*
X02459724Y01598495D01*
X02459520Y01598365D01*
X02459319Y01598230D01*
X02459122Y01598090D01*
X02458928Y01597946D01*
X02458738Y01597797D01*
X02458552Y01597643D01*
X02458369Y01597485D01*
X02458190Y01597323D01*
X02458015Y01597156D01*
X02457844Y01596985D01*
X02457677Y01596810D01*
X02457515Y01596631D01*
X02457357Y01596448D01*
X02457203Y01596262D01*
X02457054Y01596072D01*
X02456910Y01595878D01*
X02456770Y01595681D01*
X02456635Y01595480D01*
X02456505Y01595276D01*
X02456380Y01595070D01*
X02456260Y01594860D01*
X02456145Y01594647D01*
X02456036Y01594432D01*
X02455931Y01594214D01*
X02455832Y01593994D01*
X02455738Y01593771D01*
X02455650Y01593546D01*
X02455567Y01593319D01*
X02455489Y01593090D01*
X02455418Y01592859D01*
X02455351Y01592627D01*
X02455291Y01592393D01*
X02455236Y01592158D01*
X02455186Y01591921D01*
X02455143Y01591684D01*
X02455105Y01591445D01*
X02455073Y01591205D01*
X02455047Y01590965D01*
X02455026Y01590724D01*
X02455012Y01590483D01*
X02455003Y01590242D01*
X02455000Y01590000D01*
X02455000Y01510000D01*
X02455003Y01509758D01*
X02455012Y01509517D01*
X02455026Y01509276D01*
X02455047Y01509035D01*
X02455073Y01508795D01*
X02455105Y01508555D01*
X02455143Y01508316D01*
X02455186Y01508079D01*
X02455236Y01507842D01*
X02455291Y01507607D01*
X02455351Y01507373D01*
X02455418Y01507141D01*
X02455489Y01506910D01*
X02455567Y01506681D01*
X02455650Y01506454D01*
X02455738Y01506229D01*
X02455832Y01506006D01*
X02455931Y01505786D01*
X02456036Y01505568D01*
X02456145Y01505353D01*
X02456260Y01505140D01*
X02456380Y01504930D01*
X02456505Y01504724D01*
X02456635Y01504520D01*
X02456770Y01504319D01*
X02456910Y01504122D01*
X02457054Y01503928D01*
X02457203Y01503738D01*
X02457357Y01503552D01*
X02457515Y01503369D01*
X02457677Y01503190D01*
X02457844Y01503015D01*
X02458015Y01502844D01*
X02458190Y01502677D01*
X02458369Y01502515D01*
X02458552Y01502357D01*
X02458738Y01502203D01*
X02458928Y01502054D01*
X02459122Y01501910D01*
X02459319Y01501770D01*
X02459520Y01501635D01*
X02459724Y01501505D01*
X02459930Y01501380D01*
X02460140Y01501260D01*
X02460353Y01501145D01*
X02460568Y01501036D01*
X02460786Y01500931D01*
X02461006Y01500832D01*
X02461229Y01500738D01*
X02461454Y01500650D01*
X02461681Y01500567D01*
X02461910Y01500489D01*
X02462141Y01500418D01*
X02462373Y01500351D01*
X02462607Y01500291D01*
X02462842Y01500236D01*
X02463079Y01500186D01*
X02463316Y01500143D01*
X02463555Y01500105D01*
X02463795Y01500073D01*
X02464035Y01500047D01*
X02464276Y01500026D01*
X02464517Y01500012D01*
X02464758Y01500003D01*
X02465000Y01500000D01*
X02535000Y01550000D02*
X02540000Y01550000D01*
X02560000Y01550000D02*
X02565000Y01550000D01*
X02635000Y01750000D02*
X02465000Y01750000D01*
X02464758Y01750003D01*
X02464517Y01750012D01*
X02464276Y01750026D01*
X02464035Y01750047D01*
X02463795Y01750073D01*
X02463555Y01750105D01*
X02463316Y01750143D01*
X02463079Y01750186D01*
X02462842Y01750236D01*
X02462607Y01750291D01*
X02462373Y01750351D01*
X02462141Y01750418D01*
X02461910Y01750489D01*
X02461681Y01750567D01*
X02461454Y01750650D01*
X02461229Y01750738D01*
X02461006Y01750832D01*
X02460786Y01750931D01*
X02460568Y01751036D01*
X02460353Y01751145D01*
X02460140Y01751260D01*
X02459930Y01751380D01*
X02459724Y01751505D01*
X02459520Y01751635D01*
X02459319Y01751770D01*
X02459122Y01751910D01*
X02458928Y01752054D01*
X02458738Y01752203D01*
X02458552Y01752357D01*
X02458369Y01752515D01*
X02458190Y01752677D01*
X02458015Y01752844D01*
X02457844Y01753015D01*
X02457677Y01753190D01*
X02457515Y01753369D01*
X02457357Y01753552D01*
X02457203Y01753738D01*
X02457054Y01753928D01*
X02456910Y01754122D01*
X02456770Y01754319D01*
X02456635Y01754520D01*
X02456505Y01754724D01*
X02456380Y01754930D01*
X02456260Y01755140D01*
X02456145Y01755353D01*
X02456036Y01755568D01*
X02455931Y01755786D01*
X02455832Y01756006D01*
X02455738Y01756229D01*
X02455650Y01756454D01*
X02455567Y01756681D01*
X02455489Y01756910D01*
X02455418Y01757141D01*
X02455351Y01757373D01*
X02455291Y01757607D01*
X02455236Y01757842D01*
X02455186Y01758079D01*
X02455143Y01758316D01*
X02455105Y01758555D01*
X02455073Y01758795D01*
X02455047Y01759035D01*
X02455026Y01759276D01*
X02455012Y01759517D01*
X02455003Y01759758D01*
X02455000Y01760000D01*
X02455000Y01840000D01*
X02455003Y01840242D01*
X02455012Y01840483D01*
X02455026Y01840724D01*
X02455047Y01840965D01*
X02455073Y01841205D01*
X02455105Y01841445D01*
X02455143Y01841684D01*
X02455186Y01841921D01*
X02455236Y01842158D01*
X02455291Y01842393D01*
X02455351Y01842627D01*
X02455418Y01842859D01*
X02455489Y01843090D01*
X02455567Y01843319D01*
X02455650Y01843546D01*
X02455738Y01843771D01*
X02455832Y01843994D01*
X02455931Y01844214D01*
X02456036Y01844432D01*
X02456145Y01844647D01*
X02456260Y01844860D01*
X02456380Y01845070D01*
X02456505Y01845276D01*
X02456635Y01845480D01*
X02456770Y01845681D01*
X02456910Y01845878D01*
X02457054Y01846072D01*
X02457203Y01846262D01*
X02457357Y01846448D01*
X02457515Y01846631D01*
X02457677Y01846810D01*
X02457844Y01846985D01*
X02458015Y01847156D01*
X02458190Y01847323D01*
X02458369Y01847485D01*
X02458552Y01847643D01*
X02458738Y01847797D01*
X02458928Y01847946D01*
X02459122Y01848090D01*
X02459319Y01848230D01*
X02459520Y01848365D01*
X02459724Y01848495D01*
X02459930Y01848620D01*
X02460140Y01848740D01*
X02460353Y01848855D01*
X02460568Y01848964D01*
X02460786Y01849069D01*
X02461006Y01849168D01*
X02461229Y01849262D01*
X02461454Y01849350D01*
X02461681Y01849433D01*
X02461910Y01849511D01*
X02462141Y01849582D01*
X02462373Y01849649D01*
X02462607Y01849709D01*
X02462842Y01849764D01*
X02463079Y01849814D01*
X02463316Y01849857D01*
X02463555Y01849895D01*
X02463795Y01849927D01*
X02464035Y01849953D01*
X02464276Y01849974D01*
X02464517Y01849988D01*
X02464758Y01849997D01*
X02465000Y01850000D01*
X02635000Y01850000D01*
X02635242Y01849997D01*
X02635483Y01849988D01*
X02635724Y01849974D01*
X02635965Y01849953D01*
X02636205Y01849927D01*
X02636445Y01849895D01*
X02636684Y01849857D01*
X02636921Y01849814D01*
X02637158Y01849764D01*
X02637393Y01849709D01*
X02637627Y01849649D01*
X02637859Y01849582D01*
X02638090Y01849511D01*
X02638319Y01849433D01*
X02638546Y01849350D01*
X02638771Y01849262D01*
X02638994Y01849168D01*
X02639214Y01849069D01*
X02639432Y01848964D01*
X02639647Y01848855D01*
X02639860Y01848740D01*
X02640070Y01848620D01*
X02640276Y01848495D01*
X02640480Y01848365D01*
X02640681Y01848230D01*
X02640878Y01848090D01*
X02641072Y01847946D01*
X02641262Y01847797D01*
X02641448Y01847643D01*
X02641631Y01847485D01*
X02641810Y01847323D01*
X02641985Y01847156D01*
X02642156Y01846985D01*
X02642323Y01846810D01*
X02642485Y01846631D01*
X02642643Y01846448D01*
X02642797Y01846262D01*
X02642946Y01846072D01*
X02643090Y01845878D01*
X02643230Y01845681D01*
X02643365Y01845480D01*
X02643495Y01845276D01*
X02643620Y01845070D01*
X02643740Y01844860D01*
X02643855Y01844647D01*
X02643964Y01844432D01*
X02644069Y01844214D01*
X02644168Y01843994D01*
X02644262Y01843771D01*
X02644350Y01843546D01*
X02644433Y01843319D01*
X02644511Y01843090D01*
X02644582Y01842859D01*
X02644649Y01842627D01*
X02644709Y01842393D01*
X02644764Y01842158D01*
X02644814Y01841921D01*
X02644857Y01841684D01*
X02644895Y01841445D01*
X02644927Y01841205D01*
X02644953Y01840965D01*
X02644974Y01840724D01*
X02644988Y01840483D01*
X02644997Y01840242D01*
X02645000Y01840000D01*
X02645000Y01760000D01*
X02644997Y01759758D01*
X02644988Y01759517D01*
X02644974Y01759276D01*
X02644953Y01759035D01*
X02644927Y01758795D01*
X02644895Y01758555D01*
X02644857Y01758316D01*
X02644814Y01758079D01*
X02644764Y01757842D01*
X02644709Y01757607D01*
X02644649Y01757373D01*
X02644582Y01757141D01*
X02644511Y01756910D01*
X02644433Y01756681D01*
X02644350Y01756454D01*
X02644262Y01756229D01*
X02644168Y01756006D01*
X02644069Y01755786D01*
X02643964Y01755568D01*
X02643855Y01755353D01*
X02643740Y01755140D01*
X02643620Y01754930D01*
X02643495Y01754724D01*
X02643365Y01754520D01*
X02643230Y01754319D01*
X02643090Y01754122D01*
X02642946Y01753928D01*
X02642797Y01753738D01*
X02642643Y01753552D01*
X02642485Y01753369D01*
X02642323Y01753190D01*
X02642156Y01753015D01*
X02641985Y01752844D01*
X02641810Y01752677D01*
X02641631Y01752515D01*
X02641448Y01752357D01*
X02641262Y01752203D01*
X02641072Y01752054D01*
X02640878Y01751910D01*
X02640681Y01751770D01*
X02640480Y01751635D01*
X02640276Y01751505D01*
X02640070Y01751380D01*
X02639860Y01751260D01*
X02639647Y01751145D01*
X02639432Y01751036D01*
X02639214Y01750931D01*
X02638994Y01750832D01*
X02638771Y01750738D01*
X02638546Y01750650D01*
X02638319Y01750567D01*
X02638090Y01750489D01*
X02637859Y01750418D01*
X02637627Y01750351D01*
X02637393Y01750291D01*
X02637158Y01750236D01*
X02636921Y01750186D01*
X02636684Y01750143D01*
X02636445Y01750105D01*
X02636205Y01750073D01*
X02635965Y01750047D01*
X02635724Y01750026D01*
X02635483Y01750012D01*
X02635242Y01750003D01*
X02635000Y01750000D01*
X02565000Y01800000D02*
X02560000Y01800000D01*
X02540000Y01800000D02*
X02535000Y01800000D01*
X02535000Y02115000D02*
X02465000Y02115000D01*
X02465000Y02130000D01*
X02535000Y02130000D01*
X02540000Y02130000D01*
X02540000Y02345000D01*
X02539997Y02345242D01*
X02539988Y02345483D01*
X02539974Y02345724D01*
X02539953Y02345965D01*
X02539927Y02346205D01*
X02539895Y02346445D01*
X02539857Y02346684D01*
X02539814Y02346921D01*
X02539764Y02347158D01*
X02539709Y02347393D01*
X02539649Y02347627D01*
X02539582Y02347859D01*
X02539511Y02348090D01*
X02539433Y02348319D01*
X02539350Y02348546D01*
X02539262Y02348771D01*
X02539168Y02348994D01*
X02539069Y02349214D01*
X02538964Y02349432D01*
X02538855Y02349647D01*
X02538740Y02349860D01*
X02538620Y02350070D01*
X02538495Y02350276D01*
X02538365Y02350480D01*
X02538230Y02350681D01*
X02538090Y02350878D01*
X02537946Y02351072D01*
X02537797Y02351262D01*
X02537643Y02351448D01*
X02537485Y02351631D01*
X02537323Y02351810D01*
X02537156Y02351985D01*
X02536985Y02352156D01*
X02536810Y02352323D01*
X02536631Y02352485D01*
X02536448Y02352643D01*
X02536262Y02352797D01*
X02536072Y02352946D01*
X02535878Y02353090D01*
X02535681Y02353230D01*
X02535480Y02353365D01*
X02535276Y02353495D01*
X02535070Y02353620D01*
X02534860Y02353740D01*
X02534647Y02353855D01*
X02534432Y02353964D01*
X02534214Y02354069D01*
X02533994Y02354168D01*
X02533771Y02354262D01*
X02533546Y02354350D01*
X02533319Y02354433D01*
X02533090Y02354511D01*
X02532859Y02354582D01*
X02532627Y02354649D01*
X02532393Y02354709D01*
X02532158Y02354764D01*
X02531921Y02354814D01*
X02531684Y02354857D01*
X02531445Y02354895D01*
X02531205Y02354927D01*
X02530965Y02354953D01*
X02530724Y02354974D01*
X02530483Y02354988D01*
X02530242Y02354997D01*
X02530000Y02355000D01*
X02470000Y02355000D01*
X02469758Y02354997D01*
X02469517Y02354988D01*
X02469276Y02354974D01*
X02469035Y02354953D01*
X02468795Y02354927D01*
X02468555Y02354895D01*
X02468316Y02354857D01*
X02468079Y02354814D01*
X02467842Y02354764D01*
X02467607Y02354709D01*
X02467373Y02354649D01*
X02467141Y02354582D01*
X02466910Y02354511D01*
X02466681Y02354433D01*
X02466454Y02354350D01*
X02466229Y02354262D01*
X02466006Y02354168D01*
X02465786Y02354069D01*
X02465568Y02353964D01*
X02465353Y02353855D01*
X02465140Y02353740D01*
X02464930Y02353620D01*
X02464724Y02353495D01*
X02464520Y02353365D01*
X02464319Y02353230D01*
X02464122Y02353090D01*
X02463928Y02352946D01*
X02463738Y02352797D01*
X02463552Y02352643D01*
X02463369Y02352485D01*
X02463190Y02352323D01*
X02463015Y02352156D01*
X02462844Y02351985D01*
X02462677Y02351810D01*
X02462515Y02351631D01*
X02462357Y02351448D01*
X02462203Y02351262D01*
X02462054Y02351072D01*
X02461910Y02350878D01*
X02461770Y02350681D01*
X02461635Y02350480D01*
X02461505Y02350276D01*
X02461380Y02350070D01*
X02461260Y02349860D01*
X02461145Y02349647D01*
X02461036Y02349432D01*
X02460931Y02349214D01*
X02460832Y02348994D01*
X02460738Y02348771D01*
X02460650Y02348546D01*
X02460567Y02348319D01*
X02460489Y02348090D01*
X02460418Y02347859D01*
X02460351Y02347627D01*
X02460291Y02347393D01*
X02460236Y02347158D01*
X02460186Y02346921D01*
X02460143Y02346684D01*
X02460105Y02346445D01*
X02460073Y02346205D01*
X02460047Y02345965D01*
X02460026Y02345724D01*
X02460012Y02345483D01*
X02460003Y02345242D01*
X02460000Y02345000D01*
X02460000Y02130000D01*
X02465000Y02130000D01*
X02535000Y02130000D02*
X02535000Y02115000D01*
X02500000Y02195000D02*
X02500000Y02215000D01*
X02520000Y02215000D01*
X02520000Y02230000D02*
X02520000Y02245000D01*
X02480000Y02245000D01*
X02480000Y02230000D01*
X02520000Y02230000D01*
X02500000Y02215000D02*
X02480000Y02215000D01*
X02480000Y02260000D02*
X02500000Y02260000D01*
X02520000Y02260000D01*
X02500000Y02260000D02*
X02500000Y02280000D01*
X02495000Y02480000D02*
X02400000Y02480000D01*
X02365000Y02480000D01*
X02330000Y02560000D02*
X02330000Y02570000D01*
X02320000Y02570000D01*
X02320000Y02630000D01*
X02330000Y02630000D01*
X02330000Y02640000D01*
X02365000Y02720000D02*
X02400000Y02720000D01*
X02500000Y02720000D01*
X02535000Y02720000D01*
X02570000Y02640000D02*
X02570000Y02630000D01*
X02580000Y02630000D01*
X02580000Y02570000D01*
X02570000Y02570000D01*
X02570000Y02560000D01*
X02535000Y02480000D02*
X02495000Y02480000D01*
X02440000Y02600000D02*
X02440003Y02600245D01*
X02440012Y02600491D01*
X02440027Y02600736D01*
X02440048Y02600980D01*
X02440075Y02601224D01*
X02440108Y02601467D01*
X02440147Y02601710D01*
X02440192Y02601951D01*
X02440243Y02602191D01*
X02440300Y02602430D01*
X02440362Y02602667D01*
X02440431Y02602903D01*
X02440505Y02603137D01*
X02440585Y02603369D01*
X02440670Y02603599D01*
X02440761Y02603827D01*
X02440858Y02604052D01*
X02440960Y02604276D01*
X02441068Y02604496D01*
X02441181Y02604714D01*
X02441299Y02604929D01*
X02441423Y02605141D01*
X02441551Y02605350D01*
X02441685Y02605556D01*
X02441824Y02605758D01*
X02441968Y02605957D01*
X02442117Y02606152D01*
X02442270Y02606344D01*
X02442428Y02606532D01*
X02442590Y02606716D01*
X02442758Y02606895D01*
X02442929Y02607071D01*
X02443105Y02607242D01*
X02443284Y02607410D01*
X02443468Y02607572D01*
X02443656Y02607730D01*
X02443848Y02607883D01*
X02444043Y02608032D01*
X02444242Y02608176D01*
X02444444Y02608315D01*
X02444650Y02608449D01*
X02444859Y02608577D01*
X02445071Y02608701D01*
X02445286Y02608819D01*
X02445504Y02608932D01*
X02445724Y02609040D01*
X02445948Y02609142D01*
X02446173Y02609239D01*
X02446401Y02609330D01*
X02446631Y02609415D01*
X02446863Y02609495D01*
X02447097Y02609569D01*
X02447333Y02609638D01*
X02447570Y02609700D01*
X02447809Y02609757D01*
X02448049Y02609808D01*
X02448290Y02609853D01*
X02448533Y02609892D01*
X02448776Y02609925D01*
X02449020Y02609952D01*
X02449264Y02609973D01*
X02449509Y02609988D01*
X02449755Y02609997D01*
X02450000Y02610000D01*
X02450245Y02609997D01*
X02450491Y02609988D01*
X02450736Y02609973D01*
X02450980Y02609952D01*
X02451224Y02609925D01*
X02451467Y02609892D01*
X02451710Y02609853D01*
X02451951Y02609808D01*
X02452191Y02609757D01*
X02452430Y02609700D01*
X02452667Y02609638D01*
X02452903Y02609569D01*
X02453137Y02609495D01*
X02453369Y02609415D01*
X02453599Y02609330D01*
X02453827Y02609239D01*
X02454052Y02609142D01*
X02454276Y02609040D01*
X02454496Y02608932D01*
X02454714Y02608819D01*
X02454929Y02608701D01*
X02455141Y02608577D01*
X02455350Y02608449D01*
X02455556Y02608315D01*
X02455758Y02608176D01*
X02455957Y02608032D01*
X02456152Y02607883D01*
X02456344Y02607730D01*
X02456532Y02607572D01*
X02456716Y02607410D01*
X02456895Y02607242D01*
X02457071Y02607071D01*
X02457242Y02606895D01*
X02457410Y02606716D01*
X02457572Y02606532D01*
X02457730Y02606344D01*
X02457883Y02606152D01*
X02458032Y02605957D01*
X02458176Y02605758D01*
X02458315Y02605556D01*
X02458449Y02605350D01*
X02458577Y02605141D01*
X02458701Y02604929D01*
X02458819Y02604714D01*
X02458932Y02604496D01*
X02459040Y02604276D01*
X02459142Y02604052D01*
X02459239Y02603827D01*
X02459330Y02603599D01*
X02459415Y02603369D01*
X02459495Y02603137D01*
X02459569Y02602903D01*
X02459638Y02602667D01*
X02459700Y02602430D01*
X02459757Y02602191D01*
X02459808Y02601951D01*
X02459853Y02601710D01*
X02459892Y02601467D01*
X02459925Y02601224D01*
X02459952Y02600980D01*
X02459973Y02600736D01*
X02459988Y02600491D01*
X02459997Y02600245D01*
X02460000Y02600000D01*
X02459997Y02599755D01*
X02459988Y02599509D01*
X02459973Y02599264D01*
X02459952Y02599020D01*
X02459925Y02598776D01*
X02459892Y02598533D01*
X02459853Y02598290D01*
X02459808Y02598049D01*
X02459757Y02597809D01*
X02459700Y02597570D01*
X02459638Y02597333D01*
X02459569Y02597097D01*
X02459495Y02596863D01*
X02459415Y02596631D01*
X02459330Y02596401D01*
X02459239Y02596173D01*
X02459142Y02595948D01*
X02459040Y02595724D01*
X02458932Y02595504D01*
X02458819Y02595286D01*
X02458701Y02595071D01*
X02458577Y02594859D01*
X02458449Y02594650D01*
X02458315Y02594444D01*
X02458176Y02594242D01*
X02458032Y02594043D01*
X02457883Y02593848D01*
X02457730Y02593656D01*
X02457572Y02593468D01*
X02457410Y02593284D01*
X02457242Y02593105D01*
X02457071Y02592929D01*
X02456895Y02592758D01*
X02456716Y02592590D01*
X02456532Y02592428D01*
X02456344Y02592270D01*
X02456152Y02592117D01*
X02455957Y02591968D01*
X02455758Y02591824D01*
X02455556Y02591685D01*
X02455350Y02591551D01*
X02455141Y02591423D01*
X02454929Y02591299D01*
X02454714Y02591181D01*
X02454496Y02591068D01*
X02454276Y02590960D01*
X02454052Y02590858D01*
X02453827Y02590761D01*
X02453599Y02590670D01*
X02453369Y02590585D01*
X02453137Y02590505D01*
X02452903Y02590431D01*
X02452667Y02590362D01*
X02452430Y02590300D01*
X02452191Y02590243D01*
X02451951Y02590192D01*
X02451710Y02590147D01*
X02451467Y02590108D01*
X02451224Y02590075D01*
X02450980Y02590048D01*
X02450736Y02590027D01*
X02450491Y02590012D01*
X02450245Y02590003D01*
X02450000Y02590000D01*
X02449755Y02590003D01*
X02449509Y02590012D01*
X02449264Y02590027D01*
X02449020Y02590048D01*
X02448776Y02590075D01*
X02448533Y02590108D01*
X02448290Y02590147D01*
X02448049Y02590192D01*
X02447809Y02590243D01*
X02447570Y02590300D01*
X02447333Y02590362D01*
X02447097Y02590431D01*
X02446863Y02590505D01*
X02446631Y02590585D01*
X02446401Y02590670D01*
X02446173Y02590761D01*
X02445948Y02590858D01*
X02445724Y02590960D01*
X02445504Y02591068D01*
X02445286Y02591181D01*
X02445071Y02591299D01*
X02444859Y02591423D01*
X02444650Y02591551D01*
X02444444Y02591685D01*
X02444242Y02591824D01*
X02444043Y02591968D01*
X02443848Y02592117D01*
X02443656Y02592270D01*
X02443468Y02592428D01*
X02443284Y02592590D01*
X02443105Y02592758D01*
X02442929Y02592929D01*
X02442758Y02593105D01*
X02442590Y02593284D01*
X02442428Y02593468D01*
X02442270Y02593656D01*
X02442117Y02593848D01*
X02441968Y02594043D01*
X02441824Y02594242D01*
X02441685Y02594444D01*
X02441551Y02594650D01*
X02441423Y02594859D01*
X02441299Y02595071D01*
X02441181Y02595286D01*
X02441068Y02595504D01*
X02440960Y02595724D01*
X02440858Y02595948D01*
X02440761Y02596173D01*
X02440670Y02596401D01*
X02440585Y02596631D01*
X02440505Y02596863D01*
X02440431Y02597097D01*
X02440362Y02597333D01*
X02440300Y02597570D01*
X02440243Y02597809D01*
X02440192Y02598049D01*
X02440147Y02598290D01*
X02440108Y02598533D01*
X02440075Y02598776D01*
X02440048Y02599020D01*
X02440027Y02599264D01*
X02440012Y02599509D01*
X02440003Y02599755D01*
X02440000Y02600000D01*
X02380000Y02600000D02*
X02380021Y02601718D01*
X02380084Y02603435D01*
X02380190Y02605150D01*
X02380337Y02606861D01*
X02380526Y02608569D01*
X02380758Y02610271D01*
X02381031Y02611967D01*
X02381345Y02613656D01*
X02381701Y02615337D01*
X02382098Y02617009D01*
X02382536Y02618670D01*
X02383014Y02620320D01*
X02383533Y02621958D01*
X02384092Y02623582D01*
X02384691Y02625193D01*
X02385328Y02626788D01*
X02386005Y02628367D01*
X02386721Y02629929D01*
X02387474Y02631473D01*
X02388266Y02632998D01*
X02389094Y02634503D01*
X02389959Y02635987D01*
X02390860Y02637450D01*
X02391797Y02638890D01*
X02392769Y02640307D01*
X02393775Y02641699D01*
X02394816Y02643066D01*
X02395889Y02644408D01*
X02396995Y02645722D01*
X02398133Y02647009D01*
X02399303Y02648268D01*
X02400503Y02649497D01*
X02401732Y02650697D01*
X02402991Y02651867D01*
X02404278Y02653005D01*
X02405592Y02654111D01*
X02406934Y02655184D01*
X02408301Y02656225D01*
X02409693Y02657231D01*
X02411110Y02658203D01*
X02412550Y02659140D01*
X02414013Y02660041D01*
X02415497Y02660906D01*
X02417002Y02661734D01*
X02418527Y02662526D01*
X02420071Y02663279D01*
X02421633Y02663995D01*
X02423212Y02664672D01*
X02424807Y02665309D01*
X02426418Y02665908D01*
X02428042Y02666467D01*
X02429680Y02666986D01*
X02431330Y02667464D01*
X02432991Y02667902D01*
X02434663Y02668299D01*
X02436344Y02668655D01*
X02438033Y02668969D01*
X02439729Y02669242D01*
X02441431Y02669474D01*
X02443139Y02669663D01*
X02444850Y02669810D01*
X02446565Y02669916D01*
X02448282Y02669979D01*
X02450000Y02670000D01*
X02451718Y02669979D01*
X02453435Y02669916D01*
X02455150Y02669810D01*
X02456861Y02669663D01*
X02458569Y02669474D01*
X02460271Y02669242D01*
X02461967Y02668969D01*
X02463656Y02668655D01*
X02465337Y02668299D01*
X02467009Y02667902D01*
X02468670Y02667464D01*
X02470320Y02666986D01*
X02471958Y02666467D01*
X02473582Y02665908D01*
X02475193Y02665309D01*
X02476788Y02664672D01*
X02478367Y02663995D01*
X02479929Y02663279D01*
X02481473Y02662526D01*
X02482998Y02661734D01*
X02484503Y02660906D01*
X02485987Y02660041D01*
X02487450Y02659140D01*
X02488890Y02658203D01*
X02490307Y02657231D01*
X02491699Y02656225D01*
X02493066Y02655184D01*
X02494408Y02654111D01*
X02495722Y02653005D01*
X02497009Y02651867D01*
X02498268Y02650697D01*
X02499497Y02649497D01*
X02500697Y02648268D01*
X02501867Y02647009D01*
X02503005Y02645722D01*
X02504111Y02644408D01*
X02505184Y02643066D01*
X02506225Y02641699D01*
X02507231Y02640307D01*
X02508203Y02638890D01*
X02509140Y02637450D01*
X02510041Y02635987D01*
X02510906Y02634503D01*
X02511734Y02632998D01*
X02512526Y02631473D01*
X02513279Y02629929D01*
X02513995Y02628367D01*
X02514672Y02626788D01*
X02515309Y02625193D01*
X02515908Y02623582D01*
X02516467Y02621958D01*
X02516986Y02620320D01*
X02517464Y02618670D01*
X02517902Y02617009D01*
X02518299Y02615337D01*
X02518655Y02613656D01*
X02518969Y02611967D01*
X02519242Y02610271D01*
X02519474Y02608569D01*
X02519663Y02606861D01*
X02519810Y02605150D01*
X02519916Y02603435D01*
X02519979Y02601718D01*
X02520000Y02600000D01*
X02519979Y02598282D01*
X02519916Y02596565D01*
X02519810Y02594850D01*
X02519663Y02593139D01*
X02519474Y02591431D01*
X02519242Y02589729D01*
X02518969Y02588033D01*
X02518655Y02586344D01*
X02518299Y02584663D01*
X02517902Y02582991D01*
X02517464Y02581330D01*
X02516986Y02579680D01*
X02516467Y02578042D01*
X02515908Y02576418D01*
X02515309Y02574807D01*
X02514672Y02573212D01*
X02513995Y02571633D01*
X02513279Y02570071D01*
X02512526Y02568527D01*
X02511734Y02567002D01*
X02510906Y02565497D01*
X02510041Y02564013D01*
X02509140Y02562550D01*
X02508203Y02561110D01*
X02507231Y02559693D01*
X02506225Y02558301D01*
X02505184Y02556934D01*
X02504111Y02555592D01*
X02503005Y02554278D01*
X02501867Y02552991D01*
X02500697Y02551732D01*
X02499497Y02550503D01*
X02498268Y02549303D01*
X02497009Y02548133D01*
X02495722Y02546995D01*
X02494408Y02545889D01*
X02493066Y02544816D01*
X02491699Y02543775D01*
X02490307Y02542769D01*
X02488890Y02541797D01*
X02487450Y02540860D01*
X02485987Y02539959D01*
X02484503Y02539094D01*
X02482998Y02538266D01*
X02481473Y02537474D01*
X02479929Y02536721D01*
X02478367Y02536005D01*
X02476788Y02535328D01*
X02475193Y02534691D01*
X02473582Y02534092D01*
X02471958Y02533533D01*
X02470320Y02533014D01*
X02468670Y02532536D01*
X02467009Y02532098D01*
X02465337Y02531701D01*
X02463656Y02531345D01*
X02461967Y02531031D01*
X02460271Y02530758D01*
X02458569Y02530526D01*
X02456861Y02530337D01*
X02455150Y02530190D01*
X02453435Y02530084D01*
X02451718Y02530021D01*
X02450000Y02530000D01*
X02448282Y02530021D01*
X02446565Y02530084D01*
X02444850Y02530190D01*
X02443139Y02530337D01*
X02441431Y02530526D01*
X02439729Y02530758D01*
X02438033Y02531031D01*
X02436344Y02531345D01*
X02434663Y02531701D01*
X02432991Y02532098D01*
X02431330Y02532536D01*
X02429680Y02533014D01*
X02428042Y02533533D01*
X02426418Y02534092D01*
X02424807Y02534691D01*
X02423212Y02535328D01*
X02421633Y02536005D01*
X02420071Y02536721D01*
X02418527Y02537474D01*
X02417002Y02538266D01*
X02415497Y02539094D01*
X02414013Y02539959D01*
X02412550Y02540860D01*
X02411110Y02541797D01*
X02409693Y02542769D01*
X02408301Y02543775D01*
X02406934Y02544816D01*
X02405592Y02545889D01*
X02404278Y02546995D01*
X02402991Y02548133D01*
X02401732Y02549303D01*
X02400503Y02550503D01*
X02399303Y02551732D01*
X02398133Y02552991D01*
X02396995Y02554278D01*
X02395889Y02555592D01*
X02394816Y02556934D01*
X02393775Y02558301D01*
X02392769Y02559693D01*
X02391797Y02561110D01*
X02390860Y02562550D01*
X02389959Y02564013D01*
X02389094Y02565497D01*
X02388266Y02567002D01*
X02387474Y02568527D01*
X02386721Y02570071D01*
X02386005Y02571633D01*
X02385328Y02573212D01*
X02384691Y02574807D01*
X02384092Y02576418D01*
X02383533Y02578042D01*
X02383014Y02579680D01*
X02382536Y02581330D01*
X02382098Y02582991D01*
X02381701Y02584663D01*
X02381345Y02586344D01*
X02381031Y02588033D01*
X02380758Y02589729D01*
X02380526Y02591431D01*
X02380337Y02593139D01*
X02380190Y02594850D01*
X02380084Y02596565D01*
X02380021Y02598282D01*
X02380000Y02600000D01*
X01400000Y02400000D02*
X01400000Y02900000D01*
X01125000Y02900000D01*
X01100000Y02875000D01*
X01100000Y02400000D01*
X01400000Y02400000D01*
D12*
X02540000Y01830000D02*
X02540000Y01800000D01*
X02540000Y01770000D01*
X02560000Y01770000D02*
X02560000Y01800000D01*
X02560000Y01830000D01*
X02560000Y01580000D02*
X02560000Y01550000D01*
X02560000Y01520000D01*
X02540000Y01520000D02*
X02540000Y01550000D01*
X02540000Y01580000D01*
D13*
X02538565Y01612500D02*
X02508539Y01612500D01*
X02538565Y01642526D01*
X02538565Y01650032D01*
X02531058Y01657538D01*
X02516046Y01657538D01*
X02508539Y01650032D01*
X02492526Y01650032D02*
X02485019Y01657538D01*
X02470006Y01657538D01*
X02462500Y01650032D01*
X02462500Y01620006D01*
X02470006Y01612500D01*
X02485019Y01612500D01*
X02492526Y01620006D01*
X02485019Y01862500D02*
X02470006Y01862500D01*
X02462500Y01870006D01*
X02462500Y01900032D01*
X02470006Y01907538D01*
X02485019Y01907538D01*
X02492526Y01900032D01*
X02508539Y01892526D02*
X02523552Y01907538D01*
X02523552Y01862500D01*
X02508539Y01862500D02*
X02538565Y01862500D01*
X02492526Y01870006D02*
X02485019Y01862500D01*
X02434994Y02132500D02*
X02442500Y02140006D01*
X02442500Y02155019D01*
X02434994Y02162526D01*
X02404968Y02162526D01*
X02397462Y02155019D01*
X02397462Y02140006D01*
X02404968Y02132500D01*
X02434994Y02132500D01*
X02427487Y02147513D02*
X02442500Y02162526D01*
X02442500Y02178539D02*
X02442500Y02208565D01*
X02442500Y02193552D02*
X02397462Y02193552D01*
X02412474Y02178539D01*
X02408565Y02747500D02*
X02378539Y02747500D01*
X02393552Y02747500D02*
X02393552Y02792538D01*
X02378539Y02777526D01*
X02362526Y02785032D02*
X02355019Y02792538D01*
X02340006Y02792538D01*
X02332500Y02785032D01*
X02332500Y02777526D01*
X02340006Y02770019D01*
X02355019Y02770019D01*
X02362526Y02762513D01*
X02362526Y02755006D01*
X02355019Y02747500D01*
X02340006Y02747500D01*
X02332500Y02755006D01*
X01255297Y02920500D02*
X01225271Y02920500D01*
X01240284Y02920500D02*
X01240284Y02965538D01*
X01225271Y02950526D01*
X01209258Y02958032D02*
X01201751Y02965538D01*
X01186738Y02965538D01*
X01179232Y02958032D01*
X01179232Y02950526D01*
X01186738Y02943019D01*
X01201751Y02943019D01*
X01209258Y02935513D01*
X01209258Y02928006D01*
X01201751Y02920500D01*
X01186738Y02920500D01*
X01179232Y02928006D01*
X01163552Y02920500D02*
X01148539Y02920500D01*
X01156046Y02920500D02*
X01156046Y02965538D01*
X01163552Y02965538D02*
X01148539Y02965538D01*
X01132526Y02958032D02*
X01132526Y02928006D01*
X01125019Y02920500D01*
X01102500Y02920500D01*
X01102500Y02965538D01*
X01125019Y02965538D01*
X01132526Y02958032D01*
X01455006Y01547538D02*
X01447500Y01540032D01*
X01447500Y01510006D01*
X01455006Y01502500D01*
X01470019Y01502500D01*
X01477526Y01510006D01*
X01493539Y01510006D02*
X01501046Y01502500D01*
X01516058Y01502500D01*
X01523565Y01510006D01*
X01523565Y01517513D01*
X01516058Y01525019D01*
X01508552Y01525019D01*
X01516058Y01525019D02*
X01523565Y01532526D01*
X01523565Y01540032D01*
X01516058Y01547538D01*
X01501046Y01547538D01*
X01493539Y01540032D01*
X01477526Y01540032D02*
X01470019Y01547538D01*
X01455006Y01547538D01*
X01634968Y01156486D02*
X01642474Y01156486D01*
X01649981Y01148980D01*
X01649981Y01133967D01*
X01642474Y01126461D01*
X01634968Y01126461D01*
X01627462Y01133967D01*
X01627462Y01148980D01*
X01634968Y01156486D01*
X01649981Y01148980D02*
X01657487Y01156486D01*
X01664994Y01156486D01*
X01672500Y01148980D01*
X01672500Y01133967D01*
X01664994Y01126461D01*
X01657487Y01126461D01*
X01649981Y01133967D01*
X01727462Y01126461D02*
X01727462Y01156486D01*
X01734968Y01156486D01*
X01764994Y01126461D01*
X01772500Y01126461D01*
X01827462Y01156486D02*
X01834968Y01141474D01*
X01849981Y01126461D01*
X01849981Y01148980D01*
X01857487Y01156486D01*
X01864994Y01156486D01*
X01872500Y01148980D01*
X01872500Y01133967D01*
X01864994Y01126461D01*
X01849981Y01126461D01*
X01927462Y01126461D02*
X01927462Y01156486D01*
X01942474Y01148980D02*
X01949981Y01156486D01*
X01964994Y01156486D01*
X01972500Y01148980D01*
X01972500Y01133967D01*
X01964994Y01126461D01*
X01949981Y01126461D02*
X01942474Y01141474D01*
X01942474Y01148980D01*
X01949981Y01126461D02*
X01927462Y01126461D01*
X02027462Y01148980D02*
X02049981Y01126461D01*
X02049981Y01156486D01*
X02072500Y01148980D02*
X02027462Y01148980D01*
X02127462Y01148980D02*
X02134968Y01156486D01*
X02142474Y01156486D01*
X02149981Y01148980D01*
X02157487Y01156486D01*
X02164994Y01156486D01*
X02172500Y01148980D01*
X02172500Y01133967D01*
X02164994Y01126461D01*
X02149981Y01141474D02*
X02149981Y01148980D01*
X02127462Y01148980D02*
X02127462Y01133967D01*
X02134968Y01126461D01*
X02227462Y01133967D02*
X02234968Y01126461D01*
X02227462Y01133967D02*
X02227462Y01148980D01*
X02234968Y01156486D01*
X02242474Y01156486D01*
X02272500Y01126461D01*
X02272500Y01156486D01*
X02327462Y01141474D02*
X02342474Y01126461D01*
X02327462Y01141474D02*
X02372500Y01141474D01*
X02372500Y01156486D02*
X02372500Y01126461D01*
X02371473Y01302500D02*
X02371473Y01347538D01*
X02356461Y01332526D01*
X02340447Y01317513D02*
X02340447Y01347538D01*
X02340447Y01317513D02*
X02325434Y01302500D01*
X02310421Y01317513D01*
X02310421Y01347538D01*
X02294408Y01340032D02*
X02286901Y01347538D01*
X02271888Y01347538D01*
X02264382Y01340032D01*
X02264382Y01332526D01*
X02271888Y01325019D01*
X02286901Y01325019D01*
X02294408Y01317513D01*
X02294408Y01310006D01*
X02286901Y01302500D01*
X02271888Y01302500D01*
X02264382Y01310006D01*
X02356461Y01302500D02*
X02386486Y01302500D01*
D14*
X02306693Y01523622D02*
X02296850Y01543307D01*
X02267756Y01543307D01*
X02296850Y01543307D02*
X02306693Y01553150D01*
X02326378Y01543307D01*
X02306693Y01553150D02*
X02306693Y01582244D01*
X02306693Y01617756D02*
X02306693Y01632244D01*
X02306693Y01667756D02*
X02306693Y01682244D01*
X02306693Y01717756D02*
X02306693Y01732244D01*
X02306693Y01767756D02*
X02306693Y01782244D01*
X02306693Y01817756D02*
X02306693Y01832244D01*
X02306693Y01867756D02*
X02306693Y01882244D01*
X02306693Y01917756D02*
X02306693Y01932244D01*
X02306693Y01967756D02*
X02306693Y01982244D01*
X02306693Y02017756D02*
X02306693Y02032244D01*
X02306693Y02067756D02*
X02306693Y02082244D01*
X02306693Y02117756D02*
X02306693Y02146850D01*
X02326378Y02156693D01*
X02306693Y02146850D02*
X02296850Y02156693D01*
X02306693Y02176378D01*
X02296850Y02156693D02*
X02267756Y02156693D01*
X02232244Y02156693D02*
X02217756Y02156693D01*
X02182244Y02156693D02*
X02167756Y02156693D01*
X02132244Y02156693D02*
X02117756Y02156693D01*
X02082244Y02156693D02*
X02067756Y02156693D01*
X02032244Y02156693D02*
X02017756Y02156693D01*
X01982244Y02156693D02*
X01967756Y02156693D01*
X01932244Y02156693D02*
X01917756Y02156693D01*
X01882244Y02156693D02*
X01867756Y02156693D01*
X01832244Y02156693D02*
X01817756Y02156693D01*
X01782244Y02156693D02*
X01767756Y02156693D01*
X01732244Y02156693D02*
X01722835Y02156693D01*
X01693307Y02176378D01*
X01722835Y02156693D02*
X01722835Y02117756D01*
X01722835Y02082244D02*
X01722835Y02067756D01*
X01722835Y02032244D02*
X01722835Y02017756D01*
X01722835Y01982244D02*
X01722835Y01967756D01*
X01722835Y01932244D02*
X01722835Y01917756D01*
X01722835Y01882244D02*
X01722835Y01867756D01*
X01722835Y01832244D02*
X01722835Y01817756D01*
X01722835Y01782244D02*
X01722835Y01767756D01*
X01722835Y01732244D02*
X01722835Y01717756D01*
X01722835Y01682244D02*
X01722835Y01667756D01*
X01722835Y01632244D02*
X01722835Y01617756D01*
X01722835Y01582244D02*
X01722835Y01543307D01*
X01722835Y01523622D01*
X01722835Y01543307D02*
X01676417Y01580236D01*
X01722835Y01543307D02*
X01732244Y01543307D01*
X01767756Y01543307D02*
X01782244Y01543307D01*
X01817756Y01543307D02*
X01832244Y01543307D01*
X01867756Y01543307D02*
X01882244Y01543307D01*
X01917756Y01543307D02*
X01932244Y01543307D01*
X01967756Y01543307D02*
X01982244Y01543307D01*
X02017756Y01543307D02*
X02032244Y01543307D01*
X02067756Y01543307D02*
X02082244Y01543307D01*
X02117756Y01543307D02*
X02132244Y01543307D01*
X02167756Y01543307D02*
X02182244Y01543307D01*
X02217756Y01543307D02*
X02232244Y01543307D01*
X01745669Y01850000D02*
X01745675Y01850483D01*
X01745693Y01850966D01*
X01745722Y01851448D01*
X01745764Y01851929D01*
X01745817Y01852410D01*
X01745882Y01852888D01*
X01745959Y01853365D01*
X01746047Y01853840D01*
X01746147Y01854313D01*
X01746259Y01854783D01*
X01746382Y01855250D01*
X01746517Y01855714D01*
X01746663Y01856175D01*
X01746820Y01856632D01*
X01746988Y01857085D01*
X01747167Y01857533D01*
X01747358Y01857977D01*
X01747559Y01858416D01*
X01747771Y01858851D01*
X01747993Y01859279D01*
X01748226Y01859703D01*
X01748470Y01860120D01*
X01748723Y01860531D01*
X01748987Y01860936D01*
X01749260Y01861335D01*
X01749543Y01861726D01*
X01749835Y01862111D01*
X01750137Y01862488D01*
X01750448Y01862858D01*
X01750768Y01863220D01*
X01751097Y01863574D01*
X01751435Y01863919D01*
X01751780Y01864257D01*
X01752134Y01864586D01*
X01752496Y01864906D01*
X01752866Y01865217D01*
X01753243Y01865519D01*
X01753628Y01865811D01*
X01754019Y01866094D01*
X01754418Y01866367D01*
X01754823Y01866631D01*
X01755234Y01866884D01*
X01755651Y01867128D01*
X01756075Y01867361D01*
X01756503Y01867583D01*
X01756938Y01867795D01*
X01757377Y01867996D01*
X01757821Y01868187D01*
X01758269Y01868366D01*
X01758722Y01868534D01*
X01759179Y01868691D01*
X01759640Y01868837D01*
X01760104Y01868972D01*
X01760571Y01869095D01*
X01761041Y01869207D01*
X01761514Y01869307D01*
X01761989Y01869395D01*
X01762466Y01869472D01*
X01762944Y01869537D01*
X01763425Y01869590D01*
X01763906Y01869632D01*
X01764388Y01869661D01*
X01764871Y01869679D01*
X01765354Y01869685D01*
X01765837Y01869679D01*
X01766320Y01869661D01*
X01766802Y01869632D01*
X01767283Y01869590D01*
X01767764Y01869537D01*
X01768242Y01869472D01*
X01768719Y01869395D01*
X01769194Y01869307D01*
X01769667Y01869207D01*
X01770137Y01869095D01*
X01770604Y01868972D01*
X01771068Y01868837D01*
X01771529Y01868691D01*
X01771986Y01868534D01*
X01772439Y01868366D01*
X01772887Y01868187D01*
X01773331Y01867996D01*
X01773770Y01867795D01*
X01774205Y01867583D01*
X01774633Y01867361D01*
X01775057Y01867128D01*
X01775474Y01866884D01*
X01775885Y01866631D01*
X01776290Y01866367D01*
X01776689Y01866094D01*
X01777080Y01865811D01*
X01777465Y01865519D01*
X01777842Y01865217D01*
X01778212Y01864906D01*
X01778574Y01864586D01*
X01778928Y01864257D01*
X01779273Y01863919D01*
X01779611Y01863574D01*
X01779940Y01863220D01*
X01780260Y01862858D01*
X01780571Y01862488D01*
X01780873Y01862111D01*
X01781165Y01861726D01*
X01781448Y01861335D01*
X01781721Y01860936D01*
X01781985Y01860531D01*
X01782238Y01860120D01*
X01782482Y01859703D01*
X01782715Y01859279D01*
X01782937Y01858851D01*
X01783149Y01858416D01*
X01783350Y01857977D01*
X01783541Y01857533D01*
X01783720Y01857085D01*
X01783888Y01856632D01*
X01784045Y01856175D01*
X01784191Y01855714D01*
X01784326Y01855250D01*
X01784449Y01854783D01*
X01784561Y01854313D01*
X01784661Y01853840D01*
X01784749Y01853365D01*
X01784826Y01852888D01*
X01784891Y01852410D01*
X01784944Y01851929D01*
X01784986Y01851448D01*
X01785015Y01850966D01*
X01785033Y01850483D01*
X01785039Y01850000D01*
X01785033Y01849517D01*
X01785015Y01849034D01*
X01784986Y01848552D01*
X01784944Y01848071D01*
X01784891Y01847590D01*
X01784826Y01847112D01*
X01784749Y01846635D01*
X01784661Y01846160D01*
X01784561Y01845687D01*
X01784449Y01845217D01*
X01784326Y01844750D01*
X01784191Y01844286D01*
X01784045Y01843825D01*
X01783888Y01843368D01*
X01783720Y01842915D01*
X01783541Y01842467D01*
X01783350Y01842023D01*
X01783149Y01841584D01*
X01782937Y01841149D01*
X01782715Y01840721D01*
X01782482Y01840297D01*
X01782238Y01839880D01*
X01781985Y01839469D01*
X01781721Y01839064D01*
X01781448Y01838665D01*
X01781165Y01838274D01*
X01780873Y01837889D01*
X01780571Y01837512D01*
X01780260Y01837142D01*
X01779940Y01836780D01*
X01779611Y01836426D01*
X01779273Y01836081D01*
X01778928Y01835743D01*
X01778574Y01835414D01*
X01778212Y01835094D01*
X01777842Y01834783D01*
X01777465Y01834481D01*
X01777080Y01834189D01*
X01776689Y01833906D01*
X01776290Y01833633D01*
X01775885Y01833369D01*
X01775474Y01833116D01*
X01775057Y01832872D01*
X01774633Y01832639D01*
X01774205Y01832417D01*
X01773770Y01832205D01*
X01773331Y01832004D01*
X01772887Y01831813D01*
X01772439Y01831634D01*
X01771986Y01831466D01*
X01771529Y01831309D01*
X01771068Y01831163D01*
X01770604Y01831028D01*
X01770137Y01830905D01*
X01769667Y01830793D01*
X01769194Y01830693D01*
X01768719Y01830605D01*
X01768242Y01830528D01*
X01767764Y01830463D01*
X01767283Y01830410D01*
X01766802Y01830368D01*
X01766320Y01830339D01*
X01765837Y01830321D01*
X01765354Y01830315D01*
X01764871Y01830321D01*
X01764388Y01830339D01*
X01763906Y01830368D01*
X01763425Y01830410D01*
X01762944Y01830463D01*
X01762466Y01830528D01*
X01761989Y01830605D01*
X01761514Y01830693D01*
X01761041Y01830793D01*
X01760571Y01830905D01*
X01760104Y01831028D01*
X01759640Y01831163D01*
X01759179Y01831309D01*
X01758722Y01831466D01*
X01758269Y01831634D01*
X01757821Y01831813D01*
X01757377Y01832004D01*
X01756938Y01832205D01*
X01756503Y01832417D01*
X01756075Y01832639D01*
X01755651Y01832872D01*
X01755234Y01833116D01*
X01754823Y01833369D01*
X01754418Y01833633D01*
X01754019Y01833906D01*
X01753628Y01834189D01*
X01753243Y01834481D01*
X01752866Y01834783D01*
X01752496Y01835094D01*
X01752134Y01835414D01*
X01751780Y01835743D01*
X01751435Y01836081D01*
X01751097Y01836426D01*
X01750768Y01836780D01*
X01750448Y01837142D01*
X01750137Y01837512D01*
X01749835Y01837889D01*
X01749543Y01838274D01*
X01749260Y01838665D01*
X01748987Y01839064D01*
X01748723Y01839469D01*
X01748470Y01839880D01*
X01748226Y01840297D01*
X01747993Y01840721D01*
X01747771Y01841149D01*
X01747559Y01841584D01*
X01747358Y01842023D01*
X01747167Y01842467D01*
X01746988Y01842915D01*
X01746820Y01843368D01*
X01746663Y01843825D01*
X01746517Y01844286D01*
X01746382Y01844750D01*
X01746259Y01845217D01*
X01746147Y01845687D01*
X01746047Y01846160D01*
X01745959Y01846635D01*
X01745882Y01847112D01*
X01745817Y01847590D01*
X01745764Y01848071D01*
X01745722Y01848552D01*
X01745693Y01849034D01*
X01745675Y01849517D01*
X01745669Y01850000D01*
X02400000Y02480000D02*
X02400000Y02490000D01*
X02495000Y02490000D01*
X02495000Y02480000D01*
X02500000Y02710000D02*
X02400000Y02710000D01*
X02400000Y02720000D01*
X02500000Y02720000D02*
X02500000Y02710000D01*
D15*
X01641500Y01897961D02*
X01641500Y01855925D01*
X01641500Y01876943D02*
X01578446Y01876943D01*
X01599464Y01855925D01*
X01588955Y01833506D02*
X01578446Y01822997D01*
X01578446Y01801979D01*
X01588955Y01791470D01*
X01630991Y01791470D01*
X01641500Y01801979D01*
X01641500Y01822997D01*
X01630991Y01833506D01*
X01641500Y01769518D02*
X01641500Y01748500D01*
X01641500Y01759009D02*
X01578446Y01759009D01*
X01578446Y01748500D02*
X01578446Y01769518D01*
D16*
X02480000Y02080000D02*
X02480000Y02100000D01*
X02520000Y02095000D02*
X02520000Y02080000D01*
D17*
X02520000Y02101500D03*
X02480000Y02101500D03*
D18*
X02286653Y02177000D02*
X02255961Y02177000D01*
X02286653Y02207693D01*
X02286653Y02215366D01*
X02278980Y02223039D01*
X02263634Y02223039D01*
X02255961Y02215366D01*
X02240614Y02215366D02*
X02240614Y02200020D01*
X02232941Y02192346D01*
X02209921Y02192346D01*
X02209921Y02177000D02*
X02209921Y02223039D01*
X02232941Y02223039D01*
X02240614Y02215366D01*
X02225268Y02192346D02*
X02240614Y02177000D01*
X02223000Y02609921D02*
X02176961Y02609921D01*
X02176961Y02632941D01*
X02184634Y02640614D01*
X02199980Y02640614D01*
X02207654Y02632941D01*
X02207654Y02609921D01*
X02207654Y02625268D02*
X02223000Y02640614D01*
X02215327Y02655961D02*
X02223000Y02663634D01*
X02223000Y02678980D01*
X02215327Y02686653D01*
X02184634Y02686653D01*
X02176961Y02678980D01*
X02176961Y02663634D01*
X02184634Y02655961D01*
X02192307Y02655961D01*
X02199980Y02663634D01*
X02199980Y02686653D01*
X02023000Y02678980D02*
X02023000Y02663634D01*
X02015327Y02655961D01*
X02007654Y02655961D01*
X01999980Y02663634D01*
X01999980Y02678980D01*
X02007654Y02686653D01*
X02015327Y02686653D01*
X02023000Y02678980D01*
X01999980Y02678980D02*
X01992307Y02686653D01*
X01984634Y02686653D01*
X01976961Y02678980D01*
X01976961Y02663634D01*
X01984634Y02655961D01*
X01992307Y02655961D01*
X01999980Y02663634D01*
X01999980Y02640614D02*
X02007654Y02632941D01*
X02007654Y02609921D01*
X02023000Y02609921D02*
X01976961Y02609921D01*
X01976961Y02632941D01*
X01984634Y02640614D01*
X01999980Y02640614D01*
X02007654Y02625268D02*
X02023000Y02640614D01*
X01823000Y02640614D02*
X01807654Y02625268D01*
X01807654Y02632941D02*
X01807654Y02609921D01*
X01823000Y02609921D02*
X01776961Y02609921D01*
X01776961Y02632941D01*
X01784634Y02640614D01*
X01799980Y02640614D01*
X01807654Y02632941D01*
X01815327Y02655961D02*
X01823000Y02655961D01*
X01815327Y02655961D02*
X01784634Y02686653D01*
X01776961Y02686653D01*
X01776961Y02655961D01*
X01623000Y02663634D02*
X01623000Y02678980D01*
X01615327Y02686653D01*
X01607654Y02686653D01*
X01599980Y02678980D01*
X01599980Y02655961D01*
X01615327Y02655961D01*
X01623000Y02663634D01*
X01623000Y02640614D02*
X01607654Y02625268D01*
X01607654Y02632941D02*
X01607654Y02609921D01*
X01623000Y02609921D02*
X01576961Y02609921D01*
X01576961Y02632941D01*
X01584634Y02640614D01*
X01599980Y02640614D01*
X01607654Y02632941D01*
X01599980Y02655961D02*
X01584634Y02671307D01*
X01576961Y02686653D01*
X01228732Y02423039D02*
X01198039Y02423039D01*
X01198039Y02400020D01*
X01213386Y02407693D01*
X01221059Y02407693D01*
X01228732Y02400020D01*
X01228732Y02384673D01*
X01221059Y02377000D01*
X01205712Y02377000D01*
X01198039Y02384673D01*
X01182693Y02377000D02*
X01167346Y02392346D01*
X01175020Y02392346D02*
X01152000Y02392346D01*
X01152000Y02377000D02*
X01152000Y02423039D01*
X01175020Y02423039D01*
X01182693Y02415366D01*
X01182693Y02400020D01*
X01175020Y02392346D01*
X01175020Y02223039D02*
X01182693Y02215366D01*
X01182693Y02200020D01*
X01175020Y02192346D01*
X01152000Y02192346D01*
X01152000Y02177000D02*
X01152000Y02223039D01*
X01175020Y02223039D01*
X01167346Y02192346D02*
X01182693Y02177000D01*
X01198039Y02200020D02*
X01228732Y02200020D01*
X01221059Y02223039D02*
X01221059Y02177000D01*
X01198039Y02200020D02*
X01221059Y02223039D01*
X01221059Y02023039D02*
X01205712Y02023039D01*
X01198039Y02015366D01*
X01182693Y02015366D02*
X01182693Y02000020D01*
X01175020Y01992346D01*
X01152000Y01992346D01*
X01152000Y01977000D02*
X01152000Y02023039D01*
X01175020Y02023039D01*
X01182693Y02015366D01*
X01167346Y01992346D02*
X01182693Y01977000D01*
X01198039Y01984673D02*
X01205712Y01977000D01*
X01221059Y01977000D01*
X01228732Y01984673D01*
X01228732Y01992346D01*
X01221059Y02000020D01*
X01213386Y02000020D01*
X01221059Y02000020D02*
X01228732Y02007693D01*
X01228732Y02015366D01*
X01221059Y02023039D01*
X01213386Y01823039D02*
X01213386Y01777000D01*
X01228732Y01777000D02*
X01198039Y01777000D01*
X01182693Y01777000D02*
X01167346Y01792346D01*
X01175020Y01792346D02*
X01152000Y01792346D01*
X01152000Y01777000D02*
X01152000Y01823039D01*
X01175020Y01823039D01*
X01182693Y01815366D01*
X01182693Y01800020D01*
X01175020Y01792346D01*
X01198039Y01807693D02*
X01213386Y01823039D01*
D19*
X01650000Y01050000D02*
X01650000Y00865000D01*
X01750000Y00865000D02*
X01750000Y01050000D01*
X01850000Y01050000D02*
X01850000Y00865000D01*
X01950000Y00865000D02*
X01950000Y01050000D01*
X02050000Y01050000D02*
X02050000Y00865000D01*
X02150000Y00865000D02*
X02150000Y01050000D01*
X02250000Y01050000D02*
X02250000Y00865000D01*
X02350000Y00865000D02*
X02350000Y01050000D01*
D20*
X02350000Y01065000D03*
X02250000Y01065000D03*
X02150000Y01065000D03*
X02050000Y01065000D03*
X01950000Y01065000D03*
X01850000Y01065000D03*
X01750000Y01065000D03*
X01650000Y01065000D03*
D21*
X01650000Y01203000D03*
X01750000Y01203000D03*
X01850000Y01203000D03*
X01950000Y01203000D03*
X02050000Y01203000D03*
X02150000Y01203000D03*
X02250000Y01203000D03*
X02350000Y01203000D03*
M02*
