G75*
%MOIN*%
%OFA0B0*%
%FSLAX26Y26*%
%IPPOS*%
%LPD*%
%AMOC8*
5,1,8,0,0,1.08239X$1,22.5*
%
%ADD10OC8,0.052000*%
%ADD11OC8,0.063000*%
%ADD12C,0.063000*%
%ADD13C,0.052000*%
%ADD14R,0.029921X0.070866*%
%ADD15R,0.070866X0.029921*%
%ADD16C,0.052000*%
%ADD17R,0.070866X0.125984*%
%ADD18R,0.125984X0.070866*%
%ADD19C,0.060000*%
%ADD20C,0.016000*%
%ADD21R,0.053150X0.053150*%
D10*
X02500000Y01550000D03*
X02600000Y01550000D03*
X02600000Y01800000D03*
X02500000Y01800000D03*
D11*
X01400000Y01450000D03*
D12*
X01300000Y01450000D03*
D13*
X01324000Y02450000D02*
X01376000Y02450000D01*
X01376000Y02550000D02*
X01324000Y02550000D01*
X01324000Y02650000D02*
X01376000Y02650000D01*
X01376000Y02750000D02*
X01324000Y02750000D01*
X01324000Y02850000D02*
X01376000Y02850000D01*
X01176000Y02850000D02*
X01124000Y02850000D01*
X01124000Y02750000D02*
X01176000Y02750000D01*
X01176000Y02650000D02*
X01124000Y02650000D01*
X01124000Y02550000D02*
X01176000Y02550000D01*
X01176000Y02450000D02*
X01124000Y02450000D01*
D14*
X01750000Y02159449D03*
X01800000Y02159449D03*
X01850000Y02159449D03*
X01900000Y02159449D03*
X01950000Y02159449D03*
X02000000Y02159449D03*
X02050000Y02159449D03*
X02100000Y02159449D03*
X02150000Y02159449D03*
X02200000Y02159449D03*
X02250000Y02159449D03*
X02250000Y01540551D03*
X02200000Y01540551D03*
X02150000Y01540551D03*
X02100000Y01540551D03*
X02050000Y01540551D03*
X02000000Y01540551D03*
X01950000Y01540551D03*
X01900000Y01540551D03*
X01850000Y01540551D03*
X01800000Y01540551D03*
X01750000Y01540551D03*
D15*
X01690551Y01600000D03*
X01690551Y01650000D03*
X01690551Y01700000D03*
X01690551Y01750000D03*
X01690551Y01800000D03*
X01690551Y01850000D03*
X01690551Y01900000D03*
X01690551Y01950000D03*
X01690551Y02000000D03*
X01690551Y02050000D03*
X01690551Y02100000D03*
X02309449Y02100000D03*
X02309449Y02050000D03*
X02309449Y02000000D03*
X02309449Y01950000D03*
X02309449Y01900000D03*
X02309449Y01850000D03*
X02309449Y01800000D03*
X02309449Y01750000D03*
X02309449Y01700000D03*
X02309449Y01650000D03*
X02309449Y01600000D03*
D16*
X02450000Y02050000D03*
X02550000Y02050000D03*
D17*
X02310236Y02300000D03*
X02089764Y02300000D03*
X01360236Y02300000D03*
X01139764Y02300000D03*
X01139764Y02100000D03*
X01360236Y02100000D03*
X01360236Y01900000D03*
X01139764Y01900000D03*
X01139764Y01700000D03*
X01360236Y01700000D03*
D18*
X01500000Y02489764D03*
X01700000Y02489764D03*
X01900000Y02489764D03*
X02100000Y02489764D03*
X02100000Y02710236D03*
X01900000Y02710236D03*
X01700000Y02710236D03*
X01500000Y02710236D03*
D19*
X02292000Y02689000D02*
X02352000Y02689000D01*
X02548000Y02689000D02*
X02608000Y02689000D01*
X02608000Y02511000D02*
X02548000Y02511000D01*
X02352000Y02511000D02*
X02292000Y02511000D01*
X02250000Y01280000D02*
X02250000Y01220000D01*
X02350000Y01220000D02*
X02350000Y01280000D01*
X02150000Y01280000D02*
X02150000Y01220000D01*
X02050000Y01220000D02*
X02050000Y01280000D01*
X01950000Y01280000D02*
X01950000Y01220000D01*
X01850000Y01220000D02*
X01850000Y01280000D01*
X01750000Y01280000D02*
X01750000Y01220000D01*
X01650000Y01220000D02*
X01650000Y01280000D01*
D20*
X01094097Y01055903D02*
X02605903Y01055903D01*
X02600000Y01050000D02*
X01100000Y01050000D01*
X00900000Y01250000D01*
X00900000Y02800000D01*
X01100000Y03000000D01*
X02550000Y03000000D01*
X02800000Y02750000D01*
X02800000Y01250000D01*
X02600000Y01050000D01*
X02621901Y01071901D02*
X01078099Y01071901D01*
X01062100Y01087900D02*
X02637900Y01087900D01*
X02653898Y01103898D02*
X01046102Y01103898D01*
X01030103Y01119897D02*
X02669897Y01119897D01*
X02685895Y01135895D02*
X01014105Y01135895D01*
X00998106Y01151894D02*
X02701894Y01151894D01*
X02717892Y01167892D02*
X00982108Y01167892D01*
X00966109Y01183891D02*
X01621055Y01183891D01*
X01623943Y01181003D02*
X01640850Y01174000D01*
X01659150Y01174000D01*
X01676057Y01181003D01*
X01688997Y01193943D01*
X01696000Y01210850D01*
X01696000Y01289150D01*
X01688997Y01306057D01*
X01676057Y01318997D01*
X01674000Y01319849D01*
X01674000Y01342059D01*
X01710710Y01305349D01*
X01704000Y01289150D01*
X01704000Y01210850D01*
X01711003Y01193943D01*
X01723943Y01181003D01*
X01740850Y01174000D01*
X01759150Y01174000D01*
X01776057Y01181003D01*
X01788997Y01193943D01*
X01796000Y01210850D01*
X01796000Y01289150D01*
X01791091Y01301000D01*
X01808909Y01301000D01*
X01804000Y01289150D01*
X01804000Y01210850D01*
X01811003Y01193943D01*
X01823943Y01181003D01*
X01840850Y01174000D01*
X01859150Y01174000D01*
X01876057Y01181003D01*
X01888997Y01193943D01*
X01896000Y01210850D01*
X01896000Y01289150D01*
X01888997Y01306057D01*
X01876057Y01318997D01*
X01859150Y01326000D01*
X01857941Y01326000D01*
X01915059Y01326000D01*
X01923003Y01318056D01*
X01911003Y01306057D01*
X01904000Y01289150D01*
X01904000Y01210850D01*
X01911003Y01193943D01*
X01923943Y01181003D01*
X01940850Y01174000D01*
X01959150Y01174000D01*
X01976057Y01181003D01*
X01988997Y01193943D01*
X01996000Y01210850D01*
X01996000Y01289150D01*
X01988997Y01306057D01*
X01976057Y01318997D01*
X01974000Y01319849D01*
X01974000Y01329774D01*
X01970346Y01338595D01*
X01957941Y01351000D01*
X02015059Y01351000D01*
X02026000Y01340059D01*
X02026000Y01319849D01*
X02023943Y01318997D01*
X02011003Y01306057D01*
X02004000Y01289150D01*
X02004000Y01210850D01*
X02011003Y01193943D01*
X02023943Y01181003D01*
X02040850Y01174000D01*
X02059150Y01174000D01*
X02076057Y01181003D01*
X02088997Y01193943D01*
X02096000Y01210850D01*
X02096000Y01289150D01*
X02088997Y01306057D01*
X02076057Y01318997D01*
X02074000Y01319849D01*
X02074000Y01354774D01*
X02070346Y01363595D01*
X02057941Y01376000D01*
X02090059Y01376000D01*
X02126000Y01340059D01*
X02126000Y01319849D01*
X02123943Y01318997D01*
X02111003Y01306057D01*
X02104000Y01289150D01*
X02104000Y01210850D01*
X02111003Y01193943D01*
X02123943Y01181003D01*
X02140850Y01174000D01*
X02159150Y01174000D01*
X02176057Y01181003D01*
X02188997Y01193943D01*
X02196000Y01210850D01*
X02196000Y01289150D01*
X02188997Y01306057D01*
X02176057Y01318997D01*
X02174000Y01319849D01*
X02174000Y01354774D01*
X02170346Y01363595D01*
X02132941Y01401000D01*
X02190059Y01401000D01*
X02226000Y01365059D01*
X02226000Y01319849D01*
X02223943Y01318997D01*
X02211003Y01306057D01*
X02204000Y01289150D01*
X02204000Y01210850D01*
X02211003Y01193943D01*
X02223943Y01181003D01*
X02240850Y01174000D01*
X02259150Y01174000D01*
X02276057Y01181003D01*
X02288997Y01193943D01*
X02296000Y01210850D01*
X02296000Y01289150D01*
X02288997Y01306057D01*
X02276057Y01318997D01*
X02274000Y01319849D01*
X02274000Y01379774D01*
X02270346Y01388595D01*
X02232941Y01426000D01*
X02290059Y01426000D01*
X02326000Y01390059D01*
X02326000Y01319849D01*
X02323943Y01318997D01*
X02311003Y01306057D01*
X02304000Y01289150D01*
X02304000Y01210850D01*
X02311003Y01193943D01*
X02323943Y01181003D01*
X02340850Y01174000D01*
X02359150Y01174000D01*
X02376057Y01181003D01*
X02388997Y01193943D01*
X02396000Y01210850D01*
X02396000Y01289150D01*
X02388997Y01306057D01*
X02376057Y01318997D01*
X02374000Y01319849D01*
X02374000Y01404774D01*
X02370346Y01413595D01*
X02363595Y01420346D01*
X02313595Y01470346D01*
X02304774Y01474000D01*
X01909941Y01474000D01*
X01894823Y01489118D01*
X01921588Y01489118D01*
X01925000Y01492530D01*
X01928412Y01489118D01*
X01971588Y01489118D01*
X01975000Y01492530D01*
X01978412Y01489118D01*
X02021588Y01489118D01*
X02025000Y01492530D01*
X02028412Y01489118D01*
X02071588Y01489118D01*
X02075000Y01492530D01*
X02078412Y01489118D01*
X02121588Y01489118D01*
X02125000Y01492530D01*
X02128412Y01489118D01*
X02171588Y01489118D01*
X02175000Y01492530D01*
X02178412Y01489118D01*
X02221588Y01489118D01*
X02225000Y01492530D01*
X02228412Y01489118D01*
X02271588Y01489118D01*
X02280961Y01498491D01*
X02280961Y01569039D01*
X02351509Y01569039D01*
X02360882Y01578412D01*
X02360882Y01621588D01*
X02357470Y01625000D01*
X02360882Y01628412D01*
X02360882Y01671588D01*
X02357470Y01675000D01*
X02358470Y01676000D01*
X02540059Y01676000D01*
X02576000Y01640059D01*
X02576000Y01585397D01*
X02558000Y01567397D01*
X02558000Y01532603D01*
X02582603Y01508000D01*
X02617397Y01508000D01*
X02642000Y01532603D01*
X02642000Y01567397D01*
X02624000Y01585397D01*
X02624000Y01654774D01*
X02620346Y01663595D01*
X02613595Y01670346D01*
X02563595Y01720346D01*
X02554774Y01724000D01*
X02358470Y01724000D01*
X02357470Y01725000D01*
X02358470Y01726000D01*
X02554774Y01726000D01*
X02563595Y01729654D01*
X02591941Y01758000D01*
X02617397Y01758000D01*
X02642000Y01782603D01*
X02642000Y01817397D01*
X02617397Y01842000D01*
X02582603Y01842000D01*
X02558000Y01817397D01*
X02558000Y01791941D01*
X02540059Y01774000D01*
X02536225Y01774000D01*
X02544000Y01781775D01*
X02544000Y01799999D01*
X02500001Y01799999D01*
X02500001Y01800000D01*
X02544000Y01800000D01*
X02544000Y01818225D01*
X02518225Y01844000D01*
X02500000Y01844000D01*
X02500000Y01800001D01*
X02499999Y01800001D01*
X02499999Y01844000D01*
X02481775Y01844000D01*
X02456000Y01818225D01*
X02456000Y01800000D01*
X02499999Y01800000D01*
X02499999Y01799999D01*
X02456000Y01799999D01*
X02456000Y01781775D01*
X02463775Y01774000D01*
X02359293Y01774000D01*
X02361655Y01778092D01*
X02362882Y01782670D01*
X02362882Y01799999D01*
X02309450Y01799999D01*
X02309450Y01800000D01*
X02362882Y01800000D01*
X02362882Y01817330D01*
X02361655Y01821908D01*
X02359285Y01826013D01*
X02358884Y01826414D01*
X02360882Y01828412D01*
X02360882Y01871588D01*
X02357470Y01875000D01*
X02360882Y01878412D01*
X02360882Y01921588D01*
X02357470Y01925000D01*
X02360882Y01928412D01*
X02360882Y01971588D01*
X02357470Y01975000D01*
X02360882Y01978412D01*
X02360882Y02021588D01*
X02357470Y02025000D01*
X02360882Y02028412D01*
X02360882Y02071588D01*
X02357470Y02075000D01*
X02360882Y02078412D01*
X02360882Y02121588D01*
X02351509Y02130961D01*
X02280961Y02130961D01*
X02280961Y02201509D01*
X02271588Y02210882D01*
X02228412Y02210882D01*
X02225000Y02207470D01*
X02221588Y02210882D01*
X02178412Y02210882D01*
X02175000Y02207470D01*
X02171588Y02210882D01*
X02128412Y02210882D01*
X02125000Y02207470D01*
X02121588Y02210882D01*
X02078412Y02210882D01*
X02075000Y02207470D01*
X02071588Y02210882D01*
X02028412Y02210882D01*
X02025000Y02207470D01*
X02021588Y02210882D01*
X01978412Y02210882D01*
X01975000Y02207470D01*
X01974000Y02208470D01*
X01974000Y02215059D01*
X02038331Y02279390D01*
X02038331Y02230380D01*
X02047703Y02221008D01*
X02131824Y02221008D01*
X02141197Y02230380D01*
X02141197Y02276000D01*
X02157425Y02276000D01*
X02157425Y02266798D01*
X02166798Y02257425D01*
X02233202Y02257425D01*
X02242575Y02266798D01*
X02242575Y02333202D01*
X02242359Y02333418D01*
X02256803Y02347862D01*
X02256803Y02308000D01*
X02302236Y02308000D01*
X02302236Y02292000D01*
X02256803Y02292000D01*
X02256803Y02234638D01*
X02258030Y02230060D01*
X02260399Y02225956D01*
X02263751Y02222604D01*
X02267855Y02220234D01*
X02272433Y02219008D01*
X02302236Y02219008D01*
X02302236Y02292000D01*
X02318236Y02292000D01*
X02318236Y02219008D01*
X02348039Y02219008D01*
X02352617Y02220234D01*
X02356721Y02222604D01*
X02360073Y02225956D01*
X02362443Y02230060D01*
X02363669Y02234638D01*
X02363669Y02292000D01*
X02318237Y02292000D01*
X02318237Y02308000D01*
X02363669Y02308000D01*
X02363669Y02365362D01*
X02362443Y02369940D01*
X02360073Y02374044D01*
X02356721Y02377396D01*
X02352617Y02379765D01*
X02348039Y02380992D01*
X02318236Y02380992D01*
X02318236Y02308000D01*
X02302236Y02308000D01*
X02302236Y02380992D01*
X02289933Y02380992D01*
X02309941Y02401000D01*
X02529774Y02401000D01*
X02538595Y02404654D01*
X02588595Y02454654D01*
X02595346Y02461405D01*
X02596835Y02465000D01*
X02617150Y02465000D01*
X02634057Y02472003D01*
X02646997Y02484943D01*
X02654000Y02501850D01*
X02654000Y02520150D01*
X02646997Y02537057D01*
X02634057Y02549997D01*
X02617150Y02557000D01*
X02538850Y02557000D01*
X02521943Y02549997D01*
X02509003Y02537057D01*
X02502000Y02520150D01*
X02502000Y02501850D01*
X02509003Y02484943D01*
X02521943Y02472003D01*
X02533341Y02467282D01*
X02515059Y02449000D01*
X02295226Y02449000D01*
X02286405Y02445346D01*
X02279654Y02438595D01*
X02183634Y02342575D01*
X02166798Y02342575D01*
X02157425Y02333202D01*
X02157425Y02324000D01*
X02141197Y02324000D01*
X02141197Y02369619D01*
X02131824Y02378992D01*
X02062933Y02378992D01*
X02084941Y02401000D01*
X02204774Y02401000D01*
X02213595Y02404654D01*
X02220346Y02411405D01*
X02245346Y02436405D01*
X02249000Y02445226D01*
X02249000Y02494608D01*
X02253003Y02484943D01*
X02265943Y02472003D01*
X02282850Y02465000D01*
X02361150Y02465000D01*
X02378057Y02472003D01*
X02390997Y02484943D01*
X02398000Y02501850D01*
X02398000Y02520150D01*
X02390997Y02537057D01*
X02378057Y02549997D01*
X02361150Y02557000D01*
X02290941Y02557000D01*
X02309941Y02576000D01*
X02354774Y02576000D01*
X02363595Y02579654D01*
X02370346Y02586405D01*
X02448941Y02665000D01*
X02508151Y02665000D01*
X02509003Y02662943D01*
X02521943Y02650003D01*
X02538850Y02643000D01*
X02617150Y02643000D01*
X02634057Y02650003D01*
X02646997Y02662943D01*
X02654000Y02679850D01*
X02654000Y02698150D01*
X02646997Y02715057D01*
X02634057Y02727997D01*
X02617150Y02735000D01*
X02538850Y02735000D01*
X02521943Y02727997D01*
X02509003Y02715057D01*
X02508151Y02713000D01*
X02434226Y02713000D01*
X02425405Y02709346D01*
X02398000Y02681941D01*
X02398000Y02698150D01*
X02390997Y02715057D01*
X02378057Y02727997D01*
X02361150Y02735000D01*
X02282850Y02735000D01*
X02265943Y02727997D01*
X02253003Y02715057D01*
X02246000Y02698150D01*
X02246000Y02679850D01*
X02253003Y02662943D01*
X02265943Y02650003D01*
X02282850Y02643000D01*
X02359059Y02643000D01*
X02340059Y02624000D01*
X02295226Y02624000D01*
X02286405Y02620346D01*
X02211405Y02545346D01*
X02204654Y02538595D01*
X02201000Y02529774D01*
X02201000Y02459941D01*
X02190059Y02449000D01*
X02178992Y02449000D01*
X02178992Y02531824D01*
X02169619Y02541197D01*
X02030380Y02541197D01*
X02021008Y02531824D01*
X02021008Y02454949D01*
X01979654Y02413595D01*
X01976000Y02404774D01*
X01976000Y02334941D01*
X01924000Y02282941D01*
X01924000Y02438331D01*
X01969619Y02438331D01*
X01978992Y02447703D01*
X01978992Y02531824D01*
X01969619Y02541197D01*
X01830380Y02541197D01*
X01821008Y02531824D01*
X01821008Y02447703D01*
X01830380Y02438331D01*
X01876000Y02438331D01*
X01876000Y02284941D01*
X01829654Y02238595D01*
X01826000Y02229774D01*
X01826000Y02208470D01*
X01825000Y02207470D01*
X01824000Y02208470D01*
X01824000Y02229774D01*
X01820346Y02238595D01*
X01813595Y02245346D01*
X01813595Y02245346D01*
X01724000Y02334941D01*
X01724000Y02438331D01*
X01769619Y02438331D01*
X01778992Y02447703D01*
X01778992Y02531824D01*
X01769619Y02541197D01*
X01630380Y02541197D01*
X01621008Y02531824D01*
X01621008Y02447703D01*
X01630380Y02438331D01*
X01676000Y02438331D01*
X01676000Y02320226D01*
X01679654Y02311405D01*
X01776000Y02215059D01*
X01776000Y02208470D01*
X01775000Y02207470D01*
X01771588Y02210882D01*
X01728412Y02210882D01*
X01719039Y02201509D01*
X01719039Y02183449D01*
X01675492Y02183449D01*
X01524000Y02334941D01*
X01524000Y02438331D01*
X01569619Y02438331D01*
X01578992Y02447703D01*
X01578992Y02531824D01*
X01569619Y02541197D01*
X01430380Y02541197D01*
X01421008Y02531824D01*
X01421008Y02447703D01*
X01430380Y02438331D01*
X01476000Y02438331D01*
X01476000Y02320226D01*
X01479654Y02311405D01*
X01651956Y02139103D01*
X01660777Y02135449D01*
X01719039Y02135449D01*
X01719039Y02130961D01*
X01648491Y02130961D01*
X01641530Y02124000D01*
X01634941Y02124000D01*
X01438595Y02320346D01*
X01429774Y02324000D01*
X01411669Y02324000D01*
X01411669Y02369619D01*
X01402297Y02378992D01*
X01318176Y02378992D01*
X01308803Y02369619D01*
X01308803Y02230380D01*
X01318176Y02221008D01*
X01402297Y02221008D01*
X01411669Y02230380D01*
X01411669Y02276000D01*
X01415059Y02276000D01*
X01604654Y02086405D01*
X01611405Y02079654D01*
X01620226Y02076000D01*
X01641530Y02076000D01*
X01642530Y02075000D01*
X01641530Y02074000D01*
X01584941Y02074000D01*
X01538595Y02120346D01*
X01529774Y02124000D01*
X01411669Y02124000D01*
X01411669Y02169619D01*
X01402297Y02178992D01*
X01318176Y02178992D01*
X01308803Y02169619D01*
X01308803Y02030380D01*
X01318176Y02021008D01*
X01402297Y02021008D01*
X01411669Y02030380D01*
X01411669Y02076000D01*
X01515059Y02076000D01*
X01554654Y02036405D01*
X01561405Y02029654D01*
X01570226Y02026000D01*
X01641530Y02026000D01*
X01642530Y02025000D01*
X01639118Y02021588D01*
X01639118Y02021470D01*
X01636405Y02020346D01*
X01629654Y02013595D01*
X01540059Y01924000D01*
X01411669Y01924000D01*
X01411669Y01969619D01*
X01402297Y01978992D01*
X01318176Y01978992D01*
X01308803Y01969619D01*
X01308803Y01830380D01*
X01318176Y01821008D01*
X01402297Y01821008D01*
X01411669Y01830380D01*
X01411669Y01876000D01*
X01542059Y01876000D01*
X01411669Y01745610D01*
X01411669Y01769619D01*
X01402297Y01778992D01*
X01318176Y01778992D01*
X01308803Y01769619D01*
X01308803Y01630380D01*
X01318176Y01621008D01*
X01402297Y01621008D01*
X01411669Y01630380D01*
X01411669Y01678856D01*
X01413595Y01679654D01*
X01420346Y01686405D01*
X01501000Y01767059D01*
X01501000Y01584941D01*
X01490059Y01574000D01*
X01345226Y01574000D01*
X01336405Y01570346D01*
X01329654Y01563595D01*
X01279654Y01513595D01*
X01276000Y01504774D01*
X01276000Y01491472D01*
X01273093Y01490268D01*
X01259731Y01476906D01*
X01252500Y01459448D01*
X01252500Y01440552D01*
X01259731Y01423093D01*
X01273093Y01409731D01*
X01290552Y01402500D01*
X01309448Y01402500D01*
X01326906Y01409731D01*
X01340268Y01423093D01*
X01347500Y01440552D01*
X01347500Y01459448D01*
X01340268Y01476906D01*
X01326906Y01490268D01*
X01324999Y01491058D01*
X01359941Y01526000D01*
X01504774Y01526000D01*
X01513595Y01529654D01*
X01526000Y01542059D01*
X01526000Y01445226D01*
X01529654Y01436405D01*
X01536405Y01429654D01*
X01626000Y01340059D01*
X01626000Y01319849D01*
X01623943Y01318997D01*
X01611003Y01306057D01*
X01604000Y01289150D01*
X01604000Y01210850D01*
X01611003Y01193943D01*
X01623943Y01181003D01*
X01608540Y01199889D02*
X00950111Y01199889D01*
X00934112Y01215888D02*
X01604000Y01215888D01*
X01604000Y01231886D02*
X00918114Y01231886D01*
X00902115Y01247885D02*
X01604000Y01247885D01*
X01604000Y01263883D02*
X00900000Y01263883D01*
X00900000Y01279882D02*
X01604000Y01279882D01*
X01606788Y01295880D02*
X00900000Y01295880D01*
X00900000Y01311879D02*
X01616825Y01311879D01*
X01626000Y01327877D02*
X00900000Y01327877D01*
X00900000Y01343876D02*
X01622183Y01343876D01*
X01606184Y01359875D02*
X00900000Y01359875D01*
X00900000Y01375873D02*
X01590186Y01375873D01*
X01574187Y01391872D02*
X00900000Y01391872D01*
X00900000Y01407870D02*
X01277587Y01407870D01*
X01259410Y01423869D02*
X00900000Y01423869D01*
X00900000Y01439867D02*
X01252783Y01439867D01*
X01252500Y01455866D02*
X00900000Y01455866D01*
X00900000Y01471864D02*
X01257643Y01471864D01*
X01270688Y01487863D02*
X00900000Y01487863D01*
X00900000Y01503861D02*
X01276000Y01503861D01*
X01285919Y01519860D02*
X00900000Y01519860D01*
X00900000Y01535858D02*
X01301917Y01535858D01*
X01317916Y01551857D02*
X00900000Y01551857D01*
X00900000Y01567855D02*
X01333914Y01567855D01*
X01350000Y01550000D02*
X01500000Y01550000D01*
X01525000Y01575000D01*
X01525000Y01775000D01*
X01650000Y01900000D01*
X01690551Y01900000D01*
X01750000Y01900000D01*
X01950000Y02100000D01*
X01950000Y02159449D01*
X01950000Y02225000D01*
X02025000Y02300000D01*
X02025000Y02375000D01*
X02075000Y02425000D01*
X02200000Y02425000D01*
X02225000Y02450000D01*
X02225000Y02525000D01*
X02300000Y02600000D01*
X02350000Y02600000D01*
X02439000Y02689000D01*
X02578000Y02689000D01*
X02639809Y02655755D02*
X02800000Y02655755D01*
X02800000Y02671753D02*
X02650646Y02671753D01*
X02654000Y02687752D02*
X02800000Y02687752D01*
X02800000Y02703750D02*
X02651680Y02703750D01*
X02642305Y02719749D02*
X02800000Y02719749D01*
X02800000Y02735748D02*
X02178992Y02735748D01*
X02178992Y02751746D02*
X02798254Y02751746D01*
X02782255Y02767745D02*
X02116196Y02767745D01*
X02113595Y02770346D02*
X02013595Y02870346D01*
X02004774Y02874000D01*
X01411397Y02874000D01*
X01399791Y02885606D01*
X01384354Y02892000D01*
X01315646Y02892000D01*
X01300209Y02885606D01*
X01288394Y02873791D01*
X01282000Y02858354D01*
X01282000Y02841646D01*
X01288394Y02826209D01*
X01300209Y02814394D01*
X01315646Y02808000D01*
X01374059Y02808000D01*
X01358059Y02792000D01*
X01315646Y02792000D01*
X01300209Y02785606D01*
X01288394Y02773791D01*
X01282000Y02758354D01*
X01282000Y02741646D01*
X01288394Y02726209D01*
X01291957Y02722646D01*
X01286405Y02720346D01*
X01279654Y02713595D01*
X01229654Y02663595D01*
X01226000Y02654774D01*
X01226000Y02559941D01*
X01218000Y02551941D01*
X01218000Y02558354D01*
X01211606Y02573791D01*
X01199791Y02585606D01*
X01184354Y02592000D01*
X01115646Y02592000D01*
X01100209Y02585606D01*
X01088394Y02573791D01*
X01087084Y02570627D01*
X01086405Y02570346D01*
X01049000Y02532941D01*
X01049000Y02540059D01*
X01116941Y02608000D01*
X01184354Y02608000D01*
X01199791Y02614394D01*
X01211606Y02626209D01*
X01218000Y02641646D01*
X01218000Y02658354D01*
X01211606Y02673791D01*
X01199791Y02685606D01*
X01184354Y02692000D01*
X01115646Y02692000D01*
X01100209Y02685606D01*
X01088394Y02673791D01*
X01082000Y02658354D01*
X01082000Y02641646D01*
X01082206Y02641147D01*
X01011405Y02570346D01*
X01004654Y02563595D01*
X01001000Y02554774D01*
X01001000Y02270226D01*
X01004654Y02261405D01*
X01079654Y02186405D01*
X01086405Y02179654D01*
X01094862Y02176151D01*
X01088826Y02170115D01*
X00999000Y02259941D01*
X00999000Y02590059D01*
X01116941Y02708000D01*
X01184354Y02708000D01*
X01199791Y02714394D01*
X01211606Y02726209D01*
X01218000Y02741646D01*
X01218000Y02758354D01*
X01211606Y02773791D01*
X01199791Y02785606D01*
X01184354Y02792000D01*
X01115646Y02792000D01*
X01100209Y02785606D01*
X01088394Y02773791D01*
X01087084Y02770627D01*
X01086405Y02770346D01*
X01079654Y02763595D01*
X01076000Y02754774D01*
X01076000Y02745226D01*
X01079013Y02737953D01*
X00954654Y02613595D01*
X00951000Y02604774D01*
X00951000Y02245226D01*
X00954654Y02236405D01*
X00961405Y02229654D01*
X01088331Y02102728D01*
X01088331Y02030380D01*
X01097703Y02021008D01*
X01176000Y02021008D01*
X01176000Y01978992D01*
X01097703Y01978992D01*
X01088331Y01969619D01*
X01088331Y01830380D01*
X01097703Y01821008D01*
X01181824Y01821008D01*
X01191197Y01830380D01*
X01191197Y01857256D01*
X01220346Y01886405D01*
X01224000Y01895226D01*
X01224000Y02179774D01*
X01220346Y02188595D01*
X01213595Y02195346D01*
X01188595Y02220346D01*
X01183339Y02222523D01*
X01191197Y02230380D01*
X01191197Y02369619D01*
X01181824Y02378992D01*
X01097703Y02378992D01*
X01088331Y02369619D01*
X01088331Y02345610D01*
X01074000Y02359941D01*
X01074000Y02490059D01*
X01099272Y02515331D01*
X01100209Y02514394D01*
X01115646Y02508000D01*
X01174059Y02508000D01*
X01158059Y02492000D01*
X01115646Y02492000D01*
X01100209Y02485606D01*
X01088394Y02473791D01*
X01082000Y02458354D01*
X01082000Y02441646D01*
X01088394Y02426209D01*
X01100209Y02414394D01*
X01115646Y02408000D01*
X01184354Y02408000D01*
X01199791Y02414394D01*
X01211606Y02426209D01*
X01218000Y02441646D01*
X01218000Y02458354D01*
X01211606Y02473791D01*
X01209669Y02475728D01*
X01263595Y02529654D01*
X01270346Y02536405D01*
X01274000Y02545226D01*
X01274000Y02640059D01*
X01282000Y02648059D01*
X01282000Y02641646D01*
X01288394Y02626209D01*
X01300209Y02614394D01*
X01315646Y02608000D01*
X01384354Y02608000D01*
X01399791Y02614394D01*
X01411397Y02626000D01*
X01654774Y02626000D01*
X01663595Y02629654D01*
X01692744Y02658803D01*
X01769619Y02658803D01*
X01778992Y02668176D01*
X01778992Y02752297D01*
X01769619Y02761669D01*
X01630380Y02761669D01*
X01621008Y02752297D01*
X01621008Y02674000D01*
X01578992Y02674000D01*
X01578992Y02752297D01*
X01569619Y02761669D01*
X01430380Y02761669D01*
X01421008Y02752297D01*
X01421008Y02734236D01*
X01414931Y02734236D01*
X01418000Y02741646D01*
X01418000Y02758354D01*
X01411606Y02773791D01*
X01409669Y02775728D01*
X01434941Y02801000D01*
X01815059Y02801000D01*
X01854390Y02761669D01*
X01830380Y02761669D01*
X01821008Y02752297D01*
X01821008Y02668176D01*
X01830380Y02658803D01*
X01969619Y02658803D01*
X01978992Y02668176D01*
X01978992Y02752297D01*
X01969619Y02761669D01*
X01921144Y02761669D01*
X01920346Y02763595D01*
X01913595Y02770346D01*
X01857941Y02826000D01*
X01990059Y02826000D01*
X02054390Y02761669D01*
X02030380Y02761669D01*
X02021008Y02752297D01*
X02021008Y02668176D01*
X02030380Y02658803D01*
X02169619Y02658803D01*
X02178992Y02668176D01*
X02178992Y02752297D01*
X02169619Y02761669D01*
X02121144Y02761669D01*
X02120346Y02763595D01*
X02113595Y02770346D01*
X02100198Y02783743D02*
X02766257Y02783743D01*
X02750258Y02799742D02*
X02084199Y02799742D01*
X02068201Y02815740D02*
X02734260Y02815740D01*
X02718261Y02831739D02*
X02052202Y02831739D01*
X02036204Y02847737D02*
X02702263Y02847737D01*
X02686264Y02863736D02*
X02020205Y02863736D01*
X02000000Y02850000D02*
X02100000Y02750000D01*
X02100000Y02710236D01*
X02048314Y02767745D02*
X01916196Y02767745D01*
X01900198Y02783743D02*
X02032316Y02783743D01*
X02016317Y02799742D02*
X01884199Y02799742D01*
X01868201Y02815740D02*
X02000319Y02815740D01*
X02000000Y02850000D02*
X01350000Y02850000D01*
X01298863Y02815740D02*
X01203703Y02815740D01*
X01204664Y02816439D02*
X01209561Y02821336D01*
X01213632Y02826939D01*
X01216776Y02833110D01*
X01218916Y02839697D01*
X01220000Y02846537D01*
X01220000Y02849999D01*
X01150001Y02849999D01*
X01150001Y02850000D01*
X01220000Y02850000D01*
X01220000Y02853463D01*
X01218916Y02860303D01*
X01216776Y02866890D01*
X01213632Y02873061D01*
X01209561Y02878664D01*
X01204664Y02883561D01*
X01199061Y02887632D01*
X01192890Y02890776D01*
X01186303Y02892916D01*
X01179463Y02894000D01*
X01150000Y02894000D01*
X01150000Y02850001D01*
X01149999Y02850001D01*
X01149999Y02894000D01*
X01120537Y02894000D01*
X01113697Y02892916D01*
X01107110Y02890776D01*
X01100939Y02887632D01*
X01095336Y02883561D01*
X01090439Y02878664D01*
X01086368Y02873061D01*
X01083224Y02866890D01*
X01081083Y02860303D01*
X01080000Y02853463D01*
X01080000Y02850000D01*
X01149999Y02850000D01*
X01149999Y02849999D01*
X01150000Y02849999D01*
X01150000Y02806000D01*
X01179463Y02806000D01*
X01186303Y02807083D01*
X01192890Y02809224D01*
X01199061Y02812368D01*
X01204664Y02816439D01*
X01216078Y02831739D02*
X01286103Y02831739D01*
X01282000Y02847737D02*
X01220000Y02847737D01*
X01217801Y02863736D02*
X01284229Y02863736D01*
X01294337Y02879734D02*
X01208491Y02879734D01*
X01150000Y02879734D02*
X01149999Y02879734D01*
X01149999Y02863736D02*
X01150000Y02863736D01*
X01149999Y02849999D02*
X01080000Y02849999D01*
X01080000Y02846537D01*
X01081083Y02839697D01*
X01083224Y02833110D01*
X01086368Y02826939D01*
X01090439Y02821336D01*
X01095336Y02816439D01*
X01100939Y02812368D01*
X01107110Y02809224D01*
X01113697Y02807083D01*
X01120537Y02806000D01*
X01149999Y02806000D01*
X01149999Y02849999D01*
X01149999Y02847737D02*
X01150000Y02847737D01*
X01149999Y02831739D02*
X01150000Y02831739D01*
X01149999Y02815740D02*
X01150000Y02815740D01*
X01201654Y02783743D02*
X01298346Y02783743D01*
X01285890Y02767745D02*
X01214110Y02767745D01*
X01218000Y02751746D02*
X01282000Y02751746D01*
X01284443Y02735748D02*
X01215557Y02735748D01*
X01205146Y02719749D02*
X01285808Y02719749D01*
X01269809Y02703750D02*
X01112691Y02703750D01*
X01105390Y02687752D02*
X01096693Y02687752D01*
X01087550Y02671753D02*
X01080694Y02671753D01*
X01082000Y02655755D02*
X01064696Y02655755D01*
X01048697Y02639756D02*
X01080815Y02639756D01*
X01064817Y02623758D02*
X01032699Y02623758D01*
X01016700Y02607759D02*
X01048818Y02607759D01*
X01032820Y02591761D02*
X01000702Y02591761D01*
X00999000Y02575762D02*
X01016821Y02575762D01*
X01003067Y02559764D02*
X00999000Y02559764D01*
X00999000Y02543765D02*
X01001000Y02543765D01*
X01001000Y02527767D02*
X00999000Y02527767D01*
X00999000Y02511768D02*
X01001000Y02511768D01*
X01001000Y02495770D02*
X00999000Y02495770D01*
X00999000Y02479771D02*
X01001000Y02479771D01*
X01001000Y02463773D02*
X00999000Y02463773D01*
X00999000Y02447774D02*
X01001000Y02447774D01*
X01001000Y02431776D02*
X00999000Y02431776D01*
X00999000Y02415777D02*
X01001000Y02415777D01*
X01001000Y02399779D02*
X00999000Y02399779D01*
X00999000Y02383780D02*
X01001000Y02383780D01*
X01001000Y02367781D02*
X00999000Y02367781D01*
X00999000Y02351783D02*
X01001000Y02351783D01*
X01001000Y02335784D02*
X00999000Y02335784D01*
X00999000Y02319786D02*
X01001000Y02319786D01*
X01001000Y02303787D02*
X00999000Y02303787D01*
X00999000Y02287789D02*
X01001000Y02287789D01*
X01001000Y02271790D02*
X00999000Y02271790D01*
X01003149Y02255792D02*
X01010267Y02255792D01*
X01019148Y02239793D02*
X01026266Y02239793D01*
X01035146Y02223795D02*
X01042264Y02223795D01*
X01051145Y02207796D02*
X01058263Y02207796D01*
X01067143Y02191798D02*
X01074261Y02191798D01*
X01083142Y02175799D02*
X01094510Y02175799D01*
X01100000Y02200000D02*
X01175000Y02200000D01*
X01200000Y02175000D01*
X01200000Y01900000D01*
X01150000Y01850000D01*
X01150000Y01889764D01*
X01139764Y01900000D01*
X01205768Y01871827D02*
X01226000Y01871827D01*
X01226000Y01855829D02*
X01191197Y01855829D01*
X01191197Y01839830D02*
X01226000Y01839830D01*
X01226000Y01823832D02*
X01184648Y01823832D01*
X01226000Y01807833D02*
X00900000Y01807833D01*
X00900000Y01791835D02*
X01226000Y01791835D01*
X01226000Y01775836D02*
X01184980Y01775836D01*
X01181824Y01778992D02*
X01097703Y01778992D01*
X01088331Y01769619D01*
X01088331Y01630380D01*
X01097703Y01621008D01*
X01181824Y01621008D01*
X01191197Y01630380D01*
X01191197Y01676000D01*
X01204774Y01676000D01*
X01213595Y01679654D01*
X01263595Y01729654D01*
X01270346Y01736405D01*
X01274000Y01745226D01*
X01274000Y02440059D01*
X01280065Y02446124D01*
X01281083Y02439697D01*
X01283224Y02433110D01*
X01286368Y02426939D01*
X01290439Y02421336D01*
X01295336Y02416439D01*
X01300939Y02412368D01*
X01307110Y02409224D01*
X01313697Y02407083D01*
X01320537Y02406000D01*
X01349999Y02406000D01*
X01349999Y02449999D01*
X01350000Y02449999D01*
X01350000Y02406000D01*
X01379463Y02406000D01*
X01386303Y02407083D01*
X01392890Y02409224D01*
X01399061Y02412368D01*
X01404664Y02416439D01*
X01409561Y02421336D01*
X01413632Y02426939D01*
X01416776Y02433110D01*
X01418916Y02439697D01*
X01420000Y02446537D01*
X01420000Y02449999D01*
X01350001Y02449999D01*
X01350001Y02450000D01*
X01420000Y02450000D01*
X01420000Y02453463D01*
X01418916Y02460303D01*
X01416776Y02466890D01*
X01413632Y02473061D01*
X01409561Y02478664D01*
X01404664Y02483561D01*
X01399061Y02487632D01*
X01392890Y02490776D01*
X01386303Y02492916D01*
X01379463Y02494000D01*
X01350000Y02494000D01*
X01350000Y02450001D01*
X01349999Y02450001D01*
X01349999Y02494000D01*
X01327941Y02494000D01*
X01341941Y02508000D01*
X01384354Y02508000D01*
X01399791Y02514394D01*
X01411606Y02526209D01*
X01418000Y02541646D01*
X01418000Y02558354D01*
X01411606Y02573791D01*
X01399791Y02585606D01*
X01384354Y02592000D01*
X01315646Y02592000D01*
X01300209Y02585606D01*
X01288394Y02573791D01*
X01282000Y02558354D01*
X01282000Y02541646D01*
X01288394Y02526209D01*
X01290331Y02524272D01*
X01229654Y02463595D01*
X01226000Y02454774D01*
X01226000Y01759941D01*
X01191197Y01725138D01*
X01191197Y01769619D01*
X01181824Y01778992D01*
X01191197Y01759838D02*
X01225897Y01759838D01*
X01209898Y01743839D02*
X01191197Y01743839D01*
X01191197Y01727841D02*
X01193900Y01727841D01*
X01200000Y01700000D02*
X01139764Y01700000D01*
X01200000Y01700000D02*
X01250000Y01750000D01*
X01250000Y02450000D01*
X01350000Y02550000D01*
X01393452Y02511768D02*
X01421008Y02511768D01*
X01421008Y02495770D02*
X01329711Y02495770D01*
X01349999Y02479771D02*
X01350000Y02479771D01*
X01349999Y02463773D02*
X01350000Y02463773D01*
X01349999Y02447774D02*
X01350000Y02447774D01*
X01349999Y02431776D02*
X01350000Y02431776D01*
X01349999Y02415777D02*
X01350000Y02415777D01*
X01403753Y02415777D02*
X01476000Y02415777D01*
X01476000Y02399779D02*
X01274000Y02399779D01*
X01274000Y02415777D02*
X01296246Y02415777D01*
X01283903Y02431776D02*
X01274000Y02431776D01*
X01226000Y02431776D02*
X01213912Y02431776D01*
X01218000Y02447774D02*
X01226000Y02447774D01*
X01229832Y02463773D02*
X01215756Y02463773D01*
X01213712Y02479771D02*
X01245830Y02479771D01*
X01261829Y02495770D02*
X01229711Y02495770D01*
X01245709Y02511768D02*
X01277827Y02511768D01*
X01287749Y02527767D02*
X01261708Y02527767D01*
X01273395Y02543765D02*
X01282000Y02543765D01*
X01282584Y02559764D02*
X01274000Y02559764D01*
X01274000Y02575762D02*
X01290365Y02575762D01*
X01274000Y02591761D02*
X01315069Y02591761D01*
X01290845Y02623758D02*
X01274000Y02623758D01*
X01274000Y02639756D02*
X01282782Y02639756D01*
X01274000Y02607759D02*
X02273818Y02607759D01*
X02257820Y02591761D02*
X01384931Y02591761D01*
X01409634Y02575762D02*
X02241821Y02575762D01*
X02225823Y02559764D02*
X01417416Y02559764D01*
X01418000Y02543765D02*
X02209824Y02543765D01*
X02201000Y02527767D02*
X02178992Y02527767D01*
X02178992Y02511768D02*
X02201000Y02511768D01*
X02201000Y02495770D02*
X02178992Y02495770D01*
X02178992Y02479771D02*
X02201000Y02479771D01*
X02201000Y02463773D02*
X02178992Y02463773D01*
X02240717Y02431776D02*
X02272835Y02431776D01*
X02279654Y02438595D02*
X02279654Y02438595D01*
X02292267Y02447774D02*
X02249000Y02447774D01*
X02249000Y02463773D02*
X02529832Y02463773D01*
X02514175Y02479771D02*
X02385825Y02479771D01*
X02395481Y02495770D02*
X02504518Y02495770D01*
X02502000Y02511768D02*
X02398000Y02511768D01*
X02394845Y02527767D02*
X02505155Y02527767D01*
X02515711Y02543765D02*
X02384288Y02543765D01*
X02375702Y02591761D02*
X02800000Y02591761D01*
X02800000Y02607759D02*
X02391700Y02607759D01*
X02407699Y02623758D02*
X02800000Y02623758D01*
X02800000Y02639756D02*
X02423697Y02639756D01*
X02439696Y02655755D02*
X02516191Y02655755D01*
X02513695Y02719749D02*
X02386305Y02719749D01*
X02395680Y02703750D02*
X02419810Y02703750D01*
X02403811Y02687752D02*
X02398000Y02687752D01*
X02355815Y02639756D02*
X01673697Y02639756D01*
X01689696Y02655755D02*
X02260191Y02655755D01*
X02249354Y02671753D02*
X02178992Y02671753D01*
X02178992Y02687752D02*
X02246000Y02687752D01*
X02248320Y02703750D02*
X02178992Y02703750D01*
X02178992Y02719749D02*
X02257695Y02719749D01*
X02294642Y02623758D02*
X01409155Y02623758D01*
X01350000Y02650000D02*
X01650000Y02650000D01*
X01700000Y02700000D01*
X01700000Y02710236D01*
X01778992Y02703750D02*
X01821008Y02703750D01*
X01821008Y02687752D02*
X01778992Y02687752D01*
X01778992Y02671753D02*
X01821008Y02671753D01*
X01821008Y02719749D02*
X01778992Y02719749D01*
X01778992Y02735748D02*
X01821008Y02735748D01*
X01821008Y02751746D02*
X01778992Y02751746D01*
X01816317Y02799742D02*
X01433683Y02799742D01*
X01417684Y02783743D02*
X01832316Y02783743D01*
X01848314Y02767745D02*
X01414110Y02767745D01*
X01418000Y02751746D02*
X01421008Y02751746D01*
X01421008Y02735748D02*
X01415557Y02735748D01*
X01410236Y02710236D02*
X01500000Y02710236D01*
X01578992Y02703750D02*
X01621008Y02703750D01*
X01621008Y02687752D02*
X01578992Y02687752D01*
X01578992Y02719749D02*
X01621008Y02719749D01*
X01621008Y02735748D02*
X01578992Y02735748D01*
X01578992Y02751746D02*
X01621008Y02751746D01*
X01425000Y02825000D02*
X01825000Y02825000D01*
X01900000Y02750000D01*
X01900000Y02710236D01*
X01978992Y02703750D02*
X02021008Y02703750D01*
X02021008Y02687752D02*
X01978992Y02687752D01*
X01978992Y02671753D02*
X02021008Y02671753D01*
X02021008Y02719749D02*
X01978992Y02719749D01*
X01978992Y02735748D02*
X02021008Y02735748D01*
X02021008Y02751746D02*
X01978992Y02751746D01*
X01978992Y02527767D02*
X02021008Y02527767D01*
X02021008Y02511768D02*
X01978992Y02511768D01*
X01978992Y02495770D02*
X02021008Y02495770D01*
X02021008Y02479771D02*
X01978992Y02479771D01*
X01978992Y02463773D02*
X02021008Y02463773D01*
X02013833Y02447774D02*
X01978992Y02447774D01*
X01997835Y02431776D02*
X01924000Y02431776D01*
X01924000Y02415777D02*
X01981836Y02415777D01*
X01976000Y02399779D02*
X01924000Y02399779D01*
X01924000Y02383780D02*
X01976000Y02383780D01*
X01976000Y02367781D02*
X01924000Y02367781D01*
X01924000Y02351783D02*
X01976000Y02351783D01*
X01976000Y02335784D02*
X01924000Y02335784D01*
X01924000Y02319786D02*
X01960845Y02319786D01*
X01944846Y02303787D02*
X01924000Y02303787D01*
X01924000Y02287789D02*
X01928848Y02287789D01*
X01900000Y02275000D02*
X01900000Y02489764D01*
X01876000Y02431776D02*
X01724000Y02431776D01*
X01724000Y02415777D02*
X01876000Y02415777D01*
X01876000Y02399779D02*
X01724000Y02399779D01*
X01724000Y02383780D02*
X01876000Y02383780D01*
X01876000Y02367781D02*
X01724000Y02367781D01*
X01724000Y02351783D02*
X01876000Y02351783D01*
X01876000Y02335784D02*
X01724000Y02335784D01*
X01739155Y02319786D02*
X01876000Y02319786D01*
X01876000Y02303787D02*
X01755154Y02303787D01*
X01771152Y02287789D02*
X01876000Y02287789D01*
X01862849Y02271790D02*
X01787151Y02271790D01*
X01803149Y02255792D02*
X01846851Y02255792D01*
X01830852Y02239793D02*
X01819148Y02239793D01*
X01824000Y02223795D02*
X01826000Y02223795D01*
X01825327Y02207796D02*
X01824673Y02207796D01*
X01800000Y02225000D02*
X01800000Y02159449D01*
X01750000Y02159449D02*
X01665551Y02159449D01*
X01500000Y02325000D01*
X01500000Y02489764D01*
X01476000Y02431776D02*
X01416096Y02431776D01*
X01420000Y02447774D02*
X01421008Y02447774D01*
X01421008Y02463773D02*
X01417789Y02463773D01*
X01421008Y02479771D02*
X01408454Y02479771D01*
X01412251Y02527767D02*
X01421008Y02527767D01*
X01524000Y02431776D02*
X01676000Y02431776D01*
X01676000Y02415777D02*
X01524000Y02415777D01*
X01524000Y02399779D02*
X01676000Y02399779D01*
X01676000Y02383780D02*
X01524000Y02383780D01*
X01524000Y02367781D02*
X01676000Y02367781D01*
X01676000Y02351783D02*
X01524000Y02351783D01*
X01524000Y02335784D02*
X01676000Y02335784D01*
X01676182Y02319786D02*
X01539155Y02319786D01*
X01555154Y02303787D02*
X01687271Y02303787D01*
X01703270Y02287789D02*
X01571152Y02287789D01*
X01587151Y02271790D02*
X01719268Y02271790D01*
X01735267Y02255792D02*
X01603149Y02255792D01*
X01619148Y02239793D02*
X01751266Y02239793D01*
X01767264Y02223795D02*
X01635146Y02223795D01*
X01651145Y02207796D02*
X01725326Y02207796D01*
X01719039Y02191798D02*
X01667143Y02191798D01*
X01631258Y02159801D02*
X01599140Y02159801D01*
X01583142Y02175799D02*
X01615260Y02175799D01*
X01599261Y02191798D02*
X01567143Y02191798D01*
X01551145Y02207796D02*
X01583263Y02207796D01*
X01567264Y02223795D02*
X01535146Y02223795D01*
X01519148Y02239793D02*
X01551266Y02239793D01*
X01535267Y02255792D02*
X01503149Y02255792D01*
X01487151Y02271790D02*
X01519268Y02271790D01*
X01503270Y02287789D02*
X01471152Y02287789D01*
X01455154Y02303787D02*
X01487271Y02303787D01*
X01476182Y02319786D02*
X01439155Y02319786D01*
X01425000Y02300000D02*
X01625000Y02100000D01*
X01690551Y02100000D01*
X01645334Y02127804D02*
X01631137Y02127804D01*
X01615139Y02143802D02*
X01647257Y02143802D01*
X01595252Y02095807D02*
X01563134Y02095807D01*
X01547136Y02111805D02*
X01579254Y02111805D01*
X01563255Y02127804D02*
X01411669Y02127804D01*
X01411669Y02143802D02*
X01547257Y02143802D01*
X01531258Y02159801D02*
X01411669Y02159801D01*
X01405489Y02175799D02*
X01515260Y02175799D01*
X01499261Y02191798D02*
X01274000Y02191798D01*
X01274000Y02207796D02*
X01483263Y02207796D01*
X01467264Y02223795D02*
X01405084Y02223795D01*
X01411669Y02239793D02*
X01451266Y02239793D01*
X01435267Y02255792D02*
X01411669Y02255792D01*
X01411669Y02271790D02*
X01419268Y02271790D01*
X01425000Y02300000D02*
X01360236Y02300000D01*
X01308803Y02303787D02*
X01274000Y02303787D01*
X01274000Y02287789D02*
X01308803Y02287789D01*
X01308803Y02271790D02*
X01274000Y02271790D01*
X01274000Y02255792D02*
X01308803Y02255792D01*
X01308803Y02239793D02*
X01274000Y02239793D01*
X01274000Y02223795D02*
X01315389Y02223795D01*
X01314983Y02175799D02*
X01274000Y02175799D01*
X01274000Y02159801D02*
X01308803Y02159801D01*
X01308803Y02143802D02*
X01274000Y02143802D01*
X01274000Y02127804D02*
X01308803Y02127804D01*
X01308803Y02111805D02*
X01274000Y02111805D01*
X01274000Y02095807D02*
X01308803Y02095807D01*
X01308803Y02079808D02*
X01274000Y02079808D01*
X01274000Y02063810D02*
X01308803Y02063810D01*
X01308803Y02047811D02*
X01274000Y02047811D01*
X01274000Y02031813D02*
X01308803Y02031813D01*
X01274000Y02015814D02*
X01631873Y02015814D01*
X01615874Y01999815D02*
X01274000Y01999815D01*
X01274000Y01983817D02*
X01599876Y01983817D01*
X01583877Y01967818D02*
X01411669Y01967818D01*
X01411669Y01951820D02*
X01567879Y01951820D01*
X01551880Y01935821D02*
X01411669Y01935821D01*
X01360236Y01900000D02*
X01550000Y01900000D01*
X01650000Y02000000D01*
X01690551Y02000000D01*
X01690551Y02050000D02*
X01575000Y02050000D01*
X01525000Y02100000D01*
X01360236Y02100000D01*
X01411669Y02063810D02*
X01527249Y02063810D01*
X01543248Y02047811D02*
X01411669Y02047811D01*
X01411669Y02031813D02*
X01559246Y02031813D01*
X01579133Y02079808D02*
X01611251Y02079808D01*
X01650000Y01950000D02*
X01400000Y01700000D01*
X01360236Y01700000D01*
X01308803Y01695844D02*
X01229785Y01695844D01*
X01245783Y01711842D02*
X01308803Y01711842D01*
X01308803Y01727841D02*
X01261782Y01727841D01*
X01273425Y01743839D02*
X01308803Y01743839D01*
X01308803Y01759838D02*
X01274000Y01759838D01*
X01274000Y01775836D02*
X01315020Y01775836D01*
X01274000Y01791835D02*
X01457894Y01791835D01*
X01473892Y01807833D02*
X01274000Y01807833D01*
X01274000Y01823832D02*
X01315352Y01823832D01*
X01308803Y01839830D02*
X01274000Y01839830D01*
X01274000Y01855829D02*
X01308803Y01855829D01*
X01308803Y01871827D02*
X01274000Y01871827D01*
X01274000Y01887826D02*
X01308803Y01887826D01*
X01308803Y01903824D02*
X01274000Y01903824D01*
X01274000Y01919823D02*
X01308803Y01919823D01*
X01308803Y01935821D02*
X01274000Y01935821D01*
X01274000Y01951820D02*
X01308803Y01951820D01*
X01308803Y01967818D02*
X01274000Y01967818D01*
X01226000Y01967818D02*
X01224000Y01967818D01*
X01224000Y01951820D02*
X01226000Y01951820D01*
X01226000Y01935821D02*
X01224000Y01935821D01*
X01224000Y01919823D02*
X01226000Y01919823D01*
X01226000Y01903824D02*
X01224000Y01903824D01*
X01226000Y01887826D02*
X01220935Y01887826D01*
X01224000Y01983817D02*
X01226000Y01983817D01*
X01226000Y01999815D02*
X01224000Y01999815D01*
X01224000Y02015814D02*
X01226000Y02015814D01*
X01226000Y02031813D02*
X01224000Y02031813D01*
X01224000Y02047811D02*
X01226000Y02047811D01*
X01226000Y02063810D02*
X01224000Y02063810D01*
X01224000Y02079808D02*
X01226000Y02079808D01*
X01226000Y02095807D02*
X01224000Y02095807D01*
X01224000Y02111805D02*
X01226000Y02111805D01*
X01226000Y02127804D02*
X01224000Y02127804D01*
X01224000Y02143802D02*
X01226000Y02143802D01*
X01226000Y02159801D02*
X01224000Y02159801D01*
X01224000Y02175799D02*
X01226000Y02175799D01*
X01226000Y02191798D02*
X01217143Y02191798D01*
X01226000Y02207796D02*
X01201145Y02207796D01*
X01184611Y02223795D02*
X01226000Y02223795D01*
X01226000Y02239793D02*
X01191197Y02239793D01*
X01191197Y02255792D02*
X01226000Y02255792D01*
X01226000Y02271790D02*
X01191197Y02271790D01*
X01191197Y02287789D02*
X01226000Y02287789D01*
X01226000Y02303787D02*
X01191197Y02303787D01*
X01191197Y02319786D02*
X01226000Y02319786D01*
X01226000Y02335784D02*
X01191197Y02335784D01*
X01191197Y02351783D02*
X01226000Y02351783D01*
X01226000Y02367781D02*
X01191197Y02367781D01*
X01226000Y02383780D02*
X01074000Y02383780D01*
X01074000Y02367781D02*
X01088331Y02367781D01*
X01088331Y02351783D02*
X01082158Y02351783D01*
X01050000Y02350000D02*
X01050000Y02500000D01*
X01100000Y02550000D01*
X01150000Y02550000D01*
X01161829Y02495770D02*
X01079711Y02495770D01*
X01074000Y02479771D02*
X01094374Y02479771D01*
X01084244Y02463773D02*
X01074000Y02463773D01*
X01074000Y02447774D02*
X01082000Y02447774D01*
X01086088Y02431776D02*
X01074000Y02431776D01*
X01074000Y02415777D02*
X01098826Y02415777D01*
X01074000Y02399779D02*
X01226000Y02399779D01*
X01226000Y02415777D02*
X01201174Y02415777D01*
X01150000Y02450000D02*
X01250000Y02550000D01*
X01250000Y02650000D01*
X01300000Y02700000D01*
X01400000Y02700000D01*
X01410236Y02710236D01*
X01350000Y02750000D02*
X01425000Y02825000D01*
X01405663Y02879734D02*
X02670266Y02879734D01*
X02654267Y02895733D02*
X00995733Y02895733D01*
X01011731Y02911731D02*
X02638269Y02911731D01*
X02622270Y02927730D02*
X01027730Y02927730D01*
X01043728Y02943728D02*
X02606272Y02943728D01*
X02590273Y02959727D02*
X01059727Y02959727D01*
X01075725Y02975725D02*
X02574275Y02975725D01*
X02558276Y02991724D02*
X01091724Y02991724D01*
X01091509Y02879734D02*
X00979734Y02879734D01*
X00963736Y02863736D02*
X01082199Y02863736D01*
X01080000Y02847737D02*
X00947737Y02847737D01*
X00931739Y02831739D02*
X01083922Y02831739D01*
X01096297Y02815740D02*
X00915740Y02815740D01*
X00900000Y02799742D02*
X01365801Y02799742D01*
X01253811Y02687752D02*
X01194610Y02687752D01*
X01212450Y02671753D02*
X01237812Y02671753D01*
X01226406Y02655755D02*
X01218000Y02655755D01*
X01217217Y02639756D02*
X01226000Y02639756D01*
X01226000Y02623758D02*
X01209155Y02623758D01*
X01226000Y02607759D02*
X01116700Y02607759D01*
X01115069Y02591761D02*
X01100702Y02591761D01*
X01090365Y02575762D02*
X01084703Y02575762D01*
X01075823Y02559764D02*
X01068705Y02559764D01*
X01059824Y02543765D02*
X01052706Y02543765D01*
X01025000Y02550000D02*
X01025000Y02275000D01*
X01100000Y02200000D01*
X01047257Y02143802D02*
X00900000Y02143802D01*
X00900000Y02127804D02*
X01063255Y02127804D01*
X01079254Y02111805D02*
X00900000Y02111805D01*
X00900000Y02095807D02*
X01088331Y02095807D01*
X01088331Y02079808D02*
X00900000Y02079808D01*
X00900000Y02063810D02*
X01088331Y02063810D01*
X01088331Y02047811D02*
X00900000Y02047811D01*
X00900000Y02031813D02*
X01088331Y02031813D01*
X01088331Y01967818D02*
X00900000Y01967818D01*
X00900000Y01951820D02*
X01088331Y01951820D01*
X01088331Y01935821D02*
X00900000Y01935821D01*
X00900000Y01919823D02*
X01088331Y01919823D01*
X01088331Y01903824D02*
X00900000Y01903824D01*
X00900000Y01887826D02*
X01088331Y01887826D01*
X01088331Y01871827D02*
X00900000Y01871827D01*
X00900000Y01855829D02*
X01088331Y01855829D01*
X01088331Y01839830D02*
X00900000Y01839830D01*
X00900000Y01823832D02*
X01094879Y01823832D01*
X01094547Y01775836D02*
X00900000Y01775836D01*
X00900000Y01759838D02*
X01088331Y01759838D01*
X01088331Y01743839D02*
X00900000Y01743839D01*
X00900000Y01727841D02*
X01088331Y01727841D01*
X01088331Y01711842D02*
X00900000Y01711842D01*
X00900000Y01695844D02*
X01088331Y01695844D01*
X01088331Y01679845D02*
X00900000Y01679845D01*
X00900000Y01663846D02*
X01088331Y01663846D01*
X01088331Y01647848D02*
X00900000Y01647848D01*
X00900000Y01631849D02*
X01088331Y01631849D01*
X01191197Y01631849D02*
X01308803Y01631849D01*
X01308803Y01647848D02*
X01191197Y01647848D01*
X01191197Y01663846D02*
X01308803Y01663846D01*
X01308803Y01679845D02*
X01213786Y01679845D01*
X01350000Y01550000D02*
X01300000Y01500000D01*
X01300000Y01450000D01*
X01342357Y01471864D02*
X01354689Y01471864D01*
X01352500Y01469675D02*
X01352500Y01430325D01*
X01380325Y01402500D01*
X01419675Y01402500D01*
X01447500Y01430325D01*
X01447500Y01469675D01*
X01419675Y01497500D01*
X01380325Y01497500D01*
X01352500Y01469675D01*
X01352500Y01455866D02*
X01347500Y01455866D01*
X01347216Y01439867D02*
X01352500Y01439867D01*
X01358956Y01423869D02*
X01340589Y01423869D01*
X01322413Y01407870D02*
X01374955Y01407870D01*
X01425045Y01407870D02*
X01558189Y01407870D01*
X01542190Y01423869D02*
X01441044Y01423869D01*
X01447500Y01439867D02*
X01528220Y01439867D01*
X01526000Y01455866D02*
X01447500Y01455866D01*
X01445311Y01471864D02*
X01526000Y01471864D01*
X01526000Y01487863D02*
X01429312Y01487863D01*
X01370688Y01487863D02*
X01329312Y01487863D01*
X01337802Y01503861D02*
X01526000Y01503861D01*
X01526000Y01519860D02*
X01353801Y01519860D01*
X01411669Y01631849D02*
X01501000Y01631849D01*
X01501000Y01615851D02*
X00900000Y01615851D01*
X00900000Y01599852D02*
X01501000Y01599852D01*
X01499913Y01583854D02*
X00900000Y01583854D01*
X00900000Y01983817D02*
X01176000Y01983817D01*
X01176000Y01999815D02*
X00900000Y01999815D01*
X00900000Y02015814D02*
X01176000Y02015814D01*
X01139764Y02100000D02*
X01125000Y02100000D01*
X00975000Y02250000D01*
X00975000Y02600000D01*
X01125000Y02750000D01*
X01100000Y02750000D01*
X01083804Y02767745D02*
X00900000Y02767745D01*
X00900000Y02783743D02*
X01098346Y02783743D01*
X01076000Y02751746D02*
X00900000Y02751746D01*
X00900000Y02735748D02*
X01076807Y02735748D01*
X01060808Y02719749D02*
X00900000Y02719749D01*
X00900000Y02703750D02*
X01044810Y02703750D01*
X01028811Y02687752D02*
X00900000Y02687752D01*
X00900000Y02671753D02*
X01012813Y02671753D01*
X00996814Y02655755D02*
X00900000Y02655755D01*
X00900000Y02639756D02*
X00980815Y02639756D01*
X00964817Y02623758D02*
X00900000Y02623758D01*
X00900000Y02607759D02*
X00952237Y02607759D01*
X00951000Y02591761D02*
X00900000Y02591761D01*
X00900000Y02575762D02*
X00951000Y02575762D01*
X00951000Y02559764D02*
X00900000Y02559764D01*
X00900000Y02543765D02*
X00951000Y02543765D01*
X00951000Y02527767D02*
X00900000Y02527767D01*
X00900000Y02511768D02*
X00951000Y02511768D01*
X00951000Y02495770D02*
X00900000Y02495770D01*
X00900000Y02479771D02*
X00951000Y02479771D01*
X00951000Y02463773D02*
X00900000Y02463773D01*
X00900000Y02447774D02*
X00951000Y02447774D01*
X00951000Y02431776D02*
X00900000Y02431776D01*
X00900000Y02415777D02*
X00951000Y02415777D01*
X00951000Y02399779D02*
X00900000Y02399779D01*
X00900000Y02383780D02*
X00951000Y02383780D01*
X00951000Y02367781D02*
X00900000Y02367781D01*
X00900000Y02351783D02*
X00951000Y02351783D01*
X00951000Y02335784D02*
X00900000Y02335784D01*
X00900000Y02319786D02*
X00951000Y02319786D01*
X00951000Y02303787D02*
X00900000Y02303787D01*
X00900000Y02287789D02*
X00951000Y02287789D01*
X00951000Y02271790D02*
X00900000Y02271790D01*
X00900000Y02255792D02*
X00951000Y02255792D01*
X00953250Y02239793D02*
X00900000Y02239793D01*
X00900000Y02223795D02*
X00967264Y02223795D01*
X00983263Y02207796D02*
X00900000Y02207796D01*
X00900000Y02191798D02*
X00999261Y02191798D01*
X01015260Y02175799D02*
X00900000Y02175799D01*
X00900000Y02159801D02*
X01031258Y02159801D01*
X01100000Y02300000D02*
X01050000Y02350000D01*
X01100000Y02300000D02*
X01139764Y02300000D01*
X01274000Y02319786D02*
X01308803Y02319786D01*
X01308803Y02335784D02*
X01274000Y02335784D01*
X01274000Y02351783D02*
X01308803Y02351783D01*
X01308803Y02367781D02*
X01274000Y02367781D01*
X01274000Y02383780D02*
X01476000Y02383780D01*
X01476000Y02367781D02*
X01411669Y02367781D01*
X01411669Y02351783D02*
X01476000Y02351783D01*
X01476000Y02335784D02*
X01411669Y02335784D01*
X01578992Y02447774D02*
X01621008Y02447774D01*
X01621008Y02463773D02*
X01578992Y02463773D01*
X01578992Y02479771D02*
X01621008Y02479771D01*
X01621008Y02495770D02*
X01578992Y02495770D01*
X01578992Y02511768D02*
X01621008Y02511768D01*
X01621008Y02527767D02*
X01578992Y02527767D01*
X01700000Y02489764D02*
X01700000Y02325000D01*
X01800000Y02225000D01*
X01775326Y02207796D02*
X01774673Y02207796D01*
X01850000Y02225000D02*
X01850000Y02159449D01*
X01900000Y02159449D02*
X01900000Y02225000D01*
X02000000Y02325000D01*
X02000000Y02400000D01*
X02100000Y02500000D01*
X02100000Y02489764D01*
X02083719Y02399779D02*
X02240838Y02399779D01*
X02256836Y02415777D02*
X02224718Y02415777D01*
X02224839Y02383780D02*
X02067721Y02383780D01*
X02141197Y02367781D02*
X02208841Y02367781D01*
X02192842Y02351783D02*
X02141197Y02351783D01*
X02141197Y02335784D02*
X02160008Y02335784D01*
X02175000Y02300000D02*
X02089764Y02300000D01*
X02141197Y02271790D02*
X02157425Y02271790D01*
X02141197Y02255792D02*
X02256803Y02255792D01*
X02256803Y02271790D02*
X02242575Y02271790D01*
X02242575Y02287789D02*
X02256803Y02287789D01*
X02242575Y02303787D02*
X02302236Y02303787D01*
X02310236Y02300000D02*
X02500000Y02110236D01*
X02500000Y01800000D01*
X02309449Y01800000D01*
X02309447Y01800000D02*
X02309447Y01799999D01*
X02256016Y01799999D01*
X02256016Y01782670D01*
X02257242Y01778092D01*
X02259612Y01773987D01*
X02260014Y01773586D01*
X02258016Y01771588D01*
X02258016Y01728412D01*
X02261428Y01725000D01*
X02258016Y01721588D01*
X02258016Y01678412D01*
X02261428Y01675000D01*
X02258016Y01671588D01*
X02258016Y01628412D01*
X02261428Y01625000D01*
X02258016Y01621588D01*
X02258016Y01591984D01*
X02228412Y01591984D01*
X02225000Y01588572D01*
X02221588Y01591984D01*
X02178412Y01591984D01*
X02175000Y01588572D01*
X02171588Y01591984D01*
X02128412Y01591984D01*
X02125000Y01588572D01*
X02121588Y01591984D01*
X02078412Y01591984D01*
X02075000Y01588572D01*
X02071588Y01591984D01*
X02028412Y01591984D01*
X02025000Y01588572D01*
X02021588Y01591984D01*
X01978412Y01591984D01*
X01975000Y01588572D01*
X01971588Y01591984D01*
X01928412Y01591984D01*
X01925000Y01588572D01*
X01924000Y01589572D01*
X01924000Y01607425D01*
X01933202Y01607425D01*
X01942575Y01616798D01*
X01942575Y01683202D01*
X01933202Y01692575D01*
X01924000Y01692575D01*
X01924000Y01740059D01*
X02191366Y02007425D01*
X02233202Y02007425D01*
X02242575Y02016798D01*
X02242575Y02083202D01*
X02233202Y02092575D01*
X02166798Y02092575D01*
X02157425Y02083202D01*
X02157425Y02041366D01*
X01879654Y01763595D01*
X01876000Y01754774D01*
X01876000Y01692575D01*
X01866798Y01692575D01*
X01857425Y01683202D01*
X01857425Y01616798D01*
X01866798Y01607425D01*
X01876000Y01607425D01*
X01876000Y01589572D01*
X01875000Y01588572D01*
X01871588Y01591984D01*
X01828412Y01591984D01*
X01825000Y01588572D01*
X01821588Y01591984D01*
X01778412Y01591984D01*
X01775000Y01588572D01*
X01771588Y01591984D01*
X01741984Y01591984D01*
X01741984Y01621588D01*
X01738572Y01625000D01*
X01741984Y01628412D01*
X01741984Y01671588D01*
X01738572Y01675000D01*
X01741984Y01678412D01*
X01741984Y01721588D01*
X01738572Y01725000D01*
X01741984Y01728412D01*
X01741984Y01771588D01*
X01738572Y01775000D01*
X01741984Y01778412D01*
X01741984Y01821588D01*
X01738572Y01825000D01*
X01741984Y01828412D01*
X01741984Y01871588D01*
X01738572Y01875000D01*
X01739572Y01876000D01*
X01754774Y01876000D01*
X01763595Y01879654D01*
X01963595Y02079654D01*
X01970346Y02086405D01*
X01974000Y02095226D01*
X01974000Y02110428D01*
X01975000Y02111428D01*
X01978412Y02108016D01*
X02021588Y02108016D01*
X02025000Y02111428D01*
X02028412Y02108016D01*
X02071588Y02108016D01*
X02075000Y02111428D01*
X02078412Y02108016D01*
X02121588Y02108016D01*
X02125000Y02111428D01*
X02128412Y02108016D01*
X02171588Y02108016D01*
X02175000Y02111428D01*
X02178412Y02108016D01*
X02221588Y02108016D01*
X02225000Y02111428D01*
X02228412Y02108016D01*
X02258016Y02108016D01*
X02258016Y02078412D01*
X02261428Y02075000D01*
X02258016Y02071588D01*
X02258016Y02028412D01*
X02261428Y02025000D01*
X02258016Y02021588D01*
X02258016Y01978412D01*
X02261428Y01975000D01*
X02258016Y01971588D01*
X02258016Y01928412D01*
X02261428Y01925000D01*
X02258016Y01921588D01*
X02258016Y01878412D01*
X02261428Y01875000D01*
X02258016Y01871588D01*
X02258016Y01828412D01*
X02260014Y01826414D01*
X02259612Y01826013D01*
X02257242Y01821908D01*
X02256016Y01817330D01*
X02256016Y01800000D01*
X02309447Y01800000D01*
X02256016Y01807833D02*
X01991774Y01807833D01*
X01975776Y01791835D02*
X02256016Y01791835D01*
X02258544Y01775836D02*
X01959777Y01775836D01*
X01943779Y01759838D02*
X02258016Y01759838D01*
X02258016Y01743839D02*
X01927780Y01743839D01*
X01924000Y01727841D02*
X02258587Y01727841D01*
X02258016Y01711842D02*
X01924000Y01711842D01*
X01924000Y01695844D02*
X02258016Y01695844D01*
X02258016Y01679845D02*
X01942575Y01679845D01*
X01942575Y01663846D02*
X02258016Y01663846D01*
X02258016Y01647848D02*
X01942575Y01647848D01*
X01942575Y01631849D02*
X02258016Y01631849D01*
X02258016Y01615851D02*
X01941628Y01615851D01*
X01924000Y01599852D02*
X02258016Y01599852D01*
X02280961Y01567855D02*
X02456000Y01567855D01*
X02456000Y01568225D02*
X02456000Y01550000D01*
X02499999Y01550000D01*
X02499999Y01549999D01*
X02500000Y01549999D01*
X02500000Y01506000D01*
X02518225Y01506000D01*
X02544000Y01531775D01*
X02544000Y01549999D01*
X02500001Y01549999D01*
X02500001Y01550000D01*
X02544000Y01550000D01*
X02544000Y01568225D01*
X02518225Y01594000D01*
X02500000Y01594000D01*
X02500000Y01550001D01*
X02499999Y01550001D01*
X02499999Y01594000D01*
X02481775Y01594000D01*
X02456000Y01568225D01*
X02456000Y01551857D02*
X02280961Y01551857D01*
X02280961Y01535858D02*
X02456000Y01535858D01*
X02456000Y01531775D02*
X02481775Y01506000D01*
X02499999Y01506000D01*
X02499999Y01549999D01*
X02456000Y01549999D01*
X02456000Y01531775D01*
X02467915Y01519860D02*
X02280961Y01519860D01*
X02280961Y01503861D02*
X02800000Y01503861D01*
X02800000Y01487863D02*
X01896078Y01487863D01*
X01900000Y01450000D02*
X02300000Y01450000D01*
X02350000Y01400000D01*
X02350000Y01250000D01*
X02396000Y01247885D02*
X02797885Y01247885D01*
X02800000Y01263883D02*
X02396000Y01263883D01*
X02396000Y01279882D02*
X02800000Y01279882D01*
X02800000Y01295880D02*
X02393212Y01295880D01*
X02383175Y01311879D02*
X02800000Y01311879D01*
X02800000Y01327877D02*
X02374000Y01327877D01*
X02374000Y01343876D02*
X02800000Y01343876D01*
X02800000Y01359875D02*
X02374000Y01359875D01*
X02374000Y01375873D02*
X02800000Y01375873D01*
X02800000Y01391872D02*
X02374000Y01391872D01*
X02372717Y01407870D02*
X02800000Y01407870D01*
X02800000Y01423869D02*
X02360072Y01423869D01*
X02344074Y01439867D02*
X02800000Y01439867D01*
X02800000Y01455866D02*
X02328075Y01455866D01*
X02309930Y01471864D02*
X02800000Y01471864D01*
X02800000Y01519860D02*
X02629257Y01519860D01*
X02642000Y01535858D02*
X02800000Y01535858D01*
X02800000Y01551857D02*
X02642000Y01551857D01*
X02641541Y01567855D02*
X02800000Y01567855D01*
X02800000Y01583854D02*
X02625543Y01583854D01*
X02624000Y01599852D02*
X02800000Y01599852D01*
X02800000Y01615851D02*
X02624000Y01615851D01*
X02624000Y01631849D02*
X02800000Y01631849D01*
X02800000Y01647848D02*
X02624000Y01647848D01*
X02620094Y01663846D02*
X02800000Y01663846D01*
X02800000Y01679845D02*
X02604096Y01679845D01*
X02588097Y01695844D02*
X02800000Y01695844D01*
X02800000Y01711842D02*
X02572099Y01711842D01*
X02559217Y01727841D02*
X02800000Y01727841D01*
X02800000Y01743839D02*
X02577780Y01743839D01*
X02550000Y01750000D02*
X02600000Y01800000D01*
X02635233Y01775836D02*
X02800000Y01775836D01*
X02800000Y01759838D02*
X02619234Y01759838D01*
X02642000Y01791835D02*
X02800000Y01791835D01*
X02800000Y01807833D02*
X02642000Y01807833D01*
X02635565Y01823832D02*
X02800000Y01823832D01*
X02800000Y01839830D02*
X02619567Y01839830D01*
X02580433Y01839830D02*
X02522395Y01839830D01*
X02500000Y01839830D02*
X02499999Y01839830D01*
X02499999Y01823832D02*
X02500000Y01823832D01*
X02499999Y01807833D02*
X02500000Y01807833D01*
X02477605Y01839830D02*
X02360882Y01839830D01*
X02360882Y01855829D02*
X02800000Y01855829D01*
X02800000Y01871827D02*
X02360642Y01871827D01*
X02360882Y01887826D02*
X02800000Y01887826D01*
X02800000Y01903824D02*
X02360882Y01903824D01*
X02360882Y01919823D02*
X02800000Y01919823D01*
X02800000Y01935821D02*
X02360882Y01935821D01*
X02360882Y01951820D02*
X02800000Y01951820D01*
X02800000Y01967818D02*
X02360882Y01967818D01*
X02360882Y01983817D02*
X02800000Y01983817D01*
X02800000Y01999815D02*
X02360882Y01999815D01*
X02360882Y02015814D02*
X02424789Y02015814D01*
X02426209Y02014394D02*
X02441646Y02008000D01*
X02458354Y02008000D01*
X02473791Y02014394D01*
X02485606Y02026209D01*
X02492000Y02041646D01*
X02492000Y02058354D01*
X02485606Y02073791D01*
X02473791Y02085606D01*
X02458354Y02092000D01*
X02441646Y02092000D01*
X02426209Y02085606D01*
X02414394Y02073791D01*
X02408000Y02058354D01*
X02408000Y02041646D01*
X02414394Y02026209D01*
X02426209Y02014394D01*
X02412073Y02031813D02*
X02360882Y02031813D01*
X02360882Y02047811D02*
X02408000Y02047811D01*
X02410260Y02063810D02*
X02360882Y02063810D01*
X02360882Y02079808D02*
X02420411Y02079808D01*
X02479589Y02079808D02*
X02520411Y02079808D01*
X02526209Y02085606D02*
X02514394Y02073791D01*
X02508000Y02058354D01*
X02508000Y02041646D01*
X02514394Y02026209D01*
X02526209Y02014394D01*
X02541646Y02008000D01*
X02558354Y02008000D01*
X02573791Y02014394D01*
X02585606Y02026209D01*
X02592000Y02041646D01*
X02592000Y02058354D01*
X02585606Y02073791D01*
X02573791Y02085606D01*
X02558354Y02092000D01*
X02541646Y02092000D01*
X02526209Y02085606D01*
X02510260Y02063810D02*
X02489740Y02063810D01*
X02492000Y02047811D02*
X02508000Y02047811D01*
X02512073Y02031813D02*
X02487927Y02031813D01*
X02475211Y02015814D02*
X02524789Y02015814D01*
X02575211Y02015814D02*
X02800000Y02015814D01*
X02800000Y02031813D02*
X02587927Y02031813D01*
X02592000Y02047811D02*
X02800000Y02047811D01*
X02800000Y02063810D02*
X02589740Y02063810D01*
X02579589Y02079808D02*
X02800000Y02079808D01*
X02800000Y02095807D02*
X02360882Y02095807D01*
X02360882Y02111805D02*
X02800000Y02111805D01*
X02800000Y02127804D02*
X02354666Y02127804D01*
X02280961Y02143802D02*
X02800000Y02143802D01*
X02800000Y02159801D02*
X02280961Y02159801D01*
X02280961Y02175799D02*
X02800000Y02175799D01*
X02800000Y02191798D02*
X02280961Y02191798D01*
X02274673Y02207796D02*
X02800000Y02207796D01*
X02800000Y02223795D02*
X02357912Y02223795D01*
X02363669Y02239793D02*
X02800000Y02239793D01*
X02800000Y02255792D02*
X02363669Y02255792D01*
X02363669Y02271790D02*
X02800000Y02271790D01*
X02800000Y02287789D02*
X02363669Y02287789D01*
X02363669Y02319786D02*
X02800000Y02319786D01*
X02800000Y02335784D02*
X02363669Y02335784D01*
X02363669Y02351783D02*
X02800000Y02351783D01*
X02800000Y02367781D02*
X02363021Y02367781D01*
X02318236Y02367781D02*
X02302236Y02367781D01*
X02302236Y02351783D02*
X02318236Y02351783D01*
X02318236Y02335784D02*
X02302236Y02335784D01*
X02302236Y02319786D02*
X02318236Y02319786D01*
X02318237Y02303787D02*
X02800000Y02303787D01*
X02800000Y02383780D02*
X02292721Y02383780D01*
X02308719Y02399779D02*
X02800000Y02399779D01*
X02800000Y02415777D02*
X02549718Y02415777D01*
X02565717Y02431776D02*
X02800000Y02431776D01*
X02800000Y02447774D02*
X02581715Y02447774D01*
X02596327Y02463773D02*
X02800000Y02463773D01*
X02800000Y02479771D02*
X02641825Y02479771D01*
X02651481Y02495770D02*
X02800000Y02495770D01*
X02800000Y02511768D02*
X02654000Y02511768D01*
X02650845Y02527767D02*
X02800000Y02527767D01*
X02800000Y02543765D02*
X02640288Y02543765D01*
X02578000Y02511000D02*
X02575000Y02508000D01*
X02575000Y02475000D01*
X02525000Y02425000D01*
X02300000Y02425000D01*
X02175000Y02300000D01*
X02242575Y02319786D02*
X02256803Y02319786D01*
X02256803Y02335784D02*
X02244725Y02335784D01*
X02302236Y02287789D02*
X02318236Y02287789D01*
X02318236Y02271790D02*
X02302236Y02271790D01*
X02302236Y02255792D02*
X02318236Y02255792D01*
X02318236Y02239793D02*
X02302236Y02239793D01*
X02302236Y02223795D02*
X02318236Y02223795D01*
X02262560Y02223795D02*
X02134611Y02223795D01*
X02141197Y02239793D02*
X02256803Y02239793D01*
X02225326Y02207796D02*
X02224673Y02207796D01*
X02175326Y02207796D02*
X02174673Y02207796D01*
X02125326Y02207796D02*
X02124673Y02207796D01*
X02075326Y02207796D02*
X02074673Y02207796D01*
X02044916Y02223795D02*
X01982736Y02223795D01*
X01975326Y02207796D02*
X01974673Y02207796D01*
X01998734Y02239793D02*
X02038331Y02239793D01*
X02038331Y02255792D02*
X02014733Y02255792D01*
X02030731Y02271790D02*
X02038331Y02271790D01*
X02025326Y02207796D02*
X02024673Y02207796D01*
X01974000Y02095807D02*
X02258016Y02095807D01*
X02258016Y02079808D02*
X02242575Y02079808D01*
X02242575Y02063810D02*
X02258016Y02063810D01*
X02258016Y02047811D02*
X02242575Y02047811D01*
X02242575Y02031813D02*
X02258016Y02031813D01*
X02258016Y02015814D02*
X02241591Y02015814D01*
X02258016Y01999815D02*
X02183757Y01999815D01*
X02167758Y01983817D02*
X02258016Y01983817D01*
X02258016Y01967818D02*
X02151759Y01967818D01*
X02135761Y01951820D02*
X02258016Y01951820D01*
X02258016Y01935821D02*
X02119762Y01935821D01*
X02103764Y01919823D02*
X02258016Y01919823D01*
X02258016Y01903824D02*
X02087765Y01903824D01*
X02071767Y01887826D02*
X02258016Y01887826D01*
X02258255Y01871827D02*
X02055768Y01871827D01*
X02039770Y01855829D02*
X02258016Y01855829D01*
X02258016Y01839830D02*
X02023771Y01839830D01*
X02007773Y01823832D02*
X02258353Y01823832D01*
X02309449Y01750000D02*
X02550000Y01750000D01*
X02541895Y01775836D02*
X02538061Y01775836D01*
X02544000Y01791835D02*
X02557894Y01791835D01*
X02558000Y01807833D02*
X02544000Y01807833D01*
X02538393Y01823832D02*
X02564435Y01823832D01*
X02461606Y01823832D02*
X02360545Y01823832D01*
X02362882Y01807833D02*
X02456000Y01807833D01*
X02456000Y01791835D02*
X02362882Y01791835D01*
X02360353Y01775836D02*
X02461938Y01775836D01*
X02550000Y01700000D02*
X02600000Y01650000D01*
X02600000Y01550000D01*
X02570743Y01519860D02*
X02532085Y01519860D01*
X02544000Y01535858D02*
X02558000Y01535858D01*
X02558000Y01551857D02*
X02544000Y01551857D01*
X02544000Y01567855D02*
X02558458Y01567855D01*
X02574457Y01583854D02*
X02528371Y01583854D01*
X02500000Y01583854D02*
X02499999Y01583854D01*
X02499999Y01567855D02*
X02500000Y01567855D01*
X02499999Y01551857D02*
X02500000Y01551857D01*
X02499999Y01535858D02*
X02500000Y01535858D01*
X02499999Y01519860D02*
X02500000Y01519860D01*
X02471629Y01583854D02*
X02360882Y01583854D01*
X02360882Y01599852D02*
X02576000Y01599852D01*
X02576000Y01615851D02*
X02360882Y01615851D01*
X02360882Y01631849D02*
X02576000Y01631849D01*
X02568211Y01647848D02*
X02360882Y01647848D01*
X02360882Y01663846D02*
X02552212Y01663846D01*
X02550000Y01700000D02*
X02309449Y01700000D01*
X02035882Y01919823D02*
X01803764Y01919823D01*
X01819762Y01935821D02*
X02051880Y01935821D01*
X02067879Y01951820D02*
X01835761Y01951820D01*
X01851759Y01967818D02*
X02083877Y01967818D01*
X02099876Y01983817D02*
X01867758Y01983817D01*
X01883757Y01999815D02*
X02115874Y01999815D01*
X02131873Y02015814D02*
X01899755Y02015814D01*
X01915754Y02031813D02*
X02147871Y02031813D01*
X02157425Y02047811D02*
X01931752Y02047811D01*
X01947751Y02063810D02*
X02157425Y02063810D01*
X02157425Y02079808D02*
X01963749Y02079808D01*
X01850000Y02225000D02*
X01900000Y02275000D01*
X01821008Y02447774D02*
X01778992Y02447774D01*
X01778992Y02463773D02*
X01821008Y02463773D01*
X01821008Y02479771D02*
X01778992Y02479771D01*
X01778992Y02495770D02*
X01821008Y02495770D01*
X01821008Y02511768D02*
X01778992Y02511768D01*
X01778992Y02527767D02*
X01821008Y02527767D01*
X02249000Y02479771D02*
X02258175Y02479771D01*
X02293705Y02559764D02*
X02800000Y02559764D01*
X02800000Y02575762D02*
X02309703Y02575762D01*
X02200000Y02050000D02*
X01900000Y01750000D01*
X01900000Y01650000D01*
X01900000Y01540551D01*
X01850000Y01540551D02*
X01850000Y01500000D01*
X01900000Y01450000D01*
X01875000Y01425000D02*
X01800000Y01500000D01*
X01800000Y01540551D01*
X01750000Y01540551D02*
X01750000Y01500000D01*
X01850000Y01400000D01*
X02100000Y01400000D01*
X02150000Y01350000D01*
X02150000Y01250000D01*
X02196000Y01247885D02*
X02204000Y01247885D01*
X02204000Y01263883D02*
X02196000Y01263883D01*
X02196000Y01279882D02*
X02204000Y01279882D01*
X02206788Y01295880D02*
X02193212Y01295880D01*
X02183175Y01311879D02*
X02216825Y01311879D01*
X02226000Y01327877D02*
X02174000Y01327877D01*
X02174000Y01343876D02*
X02226000Y01343876D01*
X02226000Y01359875D02*
X02171887Y01359875D01*
X02158068Y01375873D02*
X02215186Y01375873D01*
X02199187Y01391872D02*
X02142069Y01391872D01*
X02106184Y01359875D02*
X02071887Y01359875D01*
X02074000Y01343876D02*
X02122183Y01343876D01*
X02126000Y01327877D02*
X02074000Y01327877D01*
X02083175Y01311879D02*
X02116825Y01311879D01*
X02106788Y01295880D02*
X02093212Y01295880D01*
X02096000Y01279882D02*
X02104000Y01279882D01*
X02104000Y01263883D02*
X02096000Y01263883D01*
X02096000Y01247885D02*
X02104000Y01247885D01*
X02104000Y01231886D02*
X02096000Y01231886D01*
X02096000Y01215888D02*
X02104000Y01215888D01*
X02108540Y01199889D02*
X02091460Y01199889D01*
X02078945Y01183891D02*
X02121055Y01183891D01*
X02178945Y01183891D02*
X02221055Y01183891D01*
X02208540Y01199889D02*
X02191460Y01199889D01*
X02196000Y01215888D02*
X02204000Y01215888D01*
X02204000Y01231886D02*
X02196000Y01231886D01*
X02250000Y01250000D02*
X02250000Y01375000D01*
X02200000Y01425000D01*
X01875000Y01425000D01*
X01825000Y01375000D02*
X01700000Y01500000D01*
X01700000Y01590551D01*
X01690551Y01600000D01*
X01650000Y01650000D02*
X01625000Y01625000D01*
X01625000Y01525000D01*
X01800000Y01350000D01*
X01925000Y01350000D01*
X01950000Y01325000D01*
X01950000Y01250000D01*
X01996000Y01247885D02*
X02004000Y01247885D01*
X02004000Y01263883D02*
X01996000Y01263883D01*
X01996000Y01279882D02*
X02004000Y01279882D01*
X02006788Y01295880D02*
X01993212Y01295880D01*
X01983175Y01311879D02*
X02016825Y01311879D01*
X02026000Y01327877D02*
X01974000Y01327877D01*
X01965065Y01343876D02*
X02022183Y01343876D01*
X02050000Y01350000D02*
X02025000Y01375000D01*
X01825000Y01375000D01*
X01825000Y01325000D02*
X01775000Y01325000D01*
X01600000Y01500000D01*
X01600000Y01650000D01*
X01650000Y01700000D01*
X01690551Y01700000D01*
X01690551Y01650000D02*
X01650000Y01650000D01*
X01575000Y01700000D02*
X01625000Y01750000D01*
X01690551Y01750000D01*
X01690551Y01800000D02*
X01625000Y01800000D01*
X01550000Y01725000D01*
X01550000Y01450000D01*
X01650000Y01350000D01*
X01650000Y01250000D01*
X01691460Y01199889D02*
X01708540Y01199889D01*
X01704000Y01215888D02*
X01696000Y01215888D01*
X01696000Y01231886D02*
X01704000Y01231886D01*
X01704000Y01247885D02*
X01696000Y01247885D01*
X01696000Y01263883D02*
X01704000Y01263883D01*
X01704000Y01279882D02*
X01696000Y01279882D01*
X01693212Y01295880D02*
X01706788Y01295880D01*
X01704180Y01311879D02*
X01683175Y01311879D01*
X01688181Y01327877D02*
X01674000Y01327877D01*
X01750000Y01300000D02*
X01575000Y01475000D01*
X01575000Y01700000D01*
X01501000Y01695844D02*
X01429784Y01695844D01*
X01413786Y01679845D02*
X01501000Y01679845D01*
X01501000Y01663846D02*
X01411669Y01663846D01*
X01411669Y01647848D02*
X01501000Y01647848D01*
X01501000Y01711842D02*
X01445783Y01711842D01*
X01461781Y01727841D02*
X01501000Y01727841D01*
X01501000Y01743839D02*
X01477780Y01743839D01*
X01493779Y01759838D02*
X01501000Y01759838D01*
X01441895Y01775836D02*
X01405453Y01775836D01*
X01411669Y01759838D02*
X01425897Y01759838D01*
X01405120Y01823832D02*
X01489891Y01823832D01*
X01505889Y01839830D02*
X01411669Y01839830D01*
X01411669Y01855829D02*
X01521888Y01855829D01*
X01537886Y01871827D02*
X01411669Y01871827D01*
X01650000Y01950000D02*
X01690551Y01950000D01*
X01741745Y01871827D02*
X01987886Y01871827D01*
X01971888Y01855829D02*
X01741984Y01855829D01*
X01741984Y01839830D02*
X01955889Y01839830D01*
X01939891Y01823832D02*
X01739740Y01823832D01*
X01741984Y01807833D02*
X01923892Y01807833D01*
X01907894Y01791835D02*
X01741984Y01791835D01*
X01739408Y01775836D02*
X01891895Y01775836D01*
X01878098Y01759838D02*
X01741984Y01759838D01*
X01741984Y01743839D02*
X01876000Y01743839D01*
X01876000Y01727841D02*
X01741413Y01727841D01*
X01741984Y01711842D02*
X01876000Y01711842D01*
X01876000Y01695844D02*
X01741984Y01695844D01*
X01741984Y01679845D02*
X01857425Y01679845D01*
X01857425Y01663846D02*
X01741984Y01663846D01*
X01741984Y01647848D02*
X01857425Y01647848D01*
X01857425Y01631849D02*
X01741984Y01631849D01*
X01741984Y01615851D02*
X01858372Y01615851D01*
X01876000Y01599852D02*
X01741984Y01599852D01*
X01526000Y01535858D02*
X01519799Y01535858D01*
X01750000Y01300000D02*
X01750000Y01250000D01*
X01796000Y01247885D02*
X01804000Y01247885D01*
X01804000Y01263883D02*
X01796000Y01263883D01*
X01796000Y01279882D02*
X01804000Y01279882D01*
X01806788Y01295880D02*
X01793212Y01295880D01*
X01825000Y01325000D02*
X01850000Y01300000D01*
X01850000Y01250000D01*
X01896000Y01247885D02*
X01904000Y01247885D01*
X01904000Y01263883D02*
X01896000Y01263883D01*
X01896000Y01279882D02*
X01904000Y01279882D01*
X01906788Y01295880D02*
X01893212Y01295880D01*
X01883175Y01311879D02*
X01916825Y01311879D01*
X01857941Y01326000D02*
X01857941Y01326000D01*
X01896000Y01231886D02*
X01904000Y01231886D01*
X01904000Y01215888D02*
X01896000Y01215888D01*
X01891460Y01199889D02*
X01908540Y01199889D01*
X01921055Y01183891D02*
X01878945Y01183891D01*
X01821055Y01183891D02*
X01778945Y01183891D01*
X01791460Y01199889D02*
X01808540Y01199889D01*
X01804000Y01215888D02*
X01796000Y01215888D01*
X01796000Y01231886D02*
X01804000Y01231886D01*
X01721055Y01183891D02*
X01678945Y01183891D01*
X01978945Y01183891D02*
X02021055Y01183891D01*
X02008540Y01199889D02*
X01991460Y01199889D01*
X01996000Y01215888D02*
X02004000Y01215888D01*
X02004000Y01231886D02*
X01996000Y01231886D01*
X02050000Y01250000D02*
X02050000Y01350000D01*
X02058068Y01375873D02*
X02090186Y01375873D01*
X02235072Y01423869D02*
X02292190Y01423869D01*
X02308189Y01407870D02*
X02251071Y01407870D01*
X02267069Y01391872D02*
X02324187Y01391872D01*
X02326000Y01375873D02*
X02274000Y01375873D01*
X02274000Y01359875D02*
X02326000Y01359875D01*
X02326000Y01343876D02*
X02274000Y01343876D01*
X02274000Y01327877D02*
X02326000Y01327877D01*
X02316825Y01311879D02*
X02283175Y01311879D01*
X02293212Y01295880D02*
X02306788Y01295880D01*
X02304000Y01279882D02*
X02296000Y01279882D01*
X02296000Y01263883D02*
X02304000Y01263883D01*
X02304000Y01247885D02*
X02296000Y01247885D01*
X02296000Y01231886D02*
X02304000Y01231886D01*
X02304000Y01215888D02*
X02296000Y01215888D01*
X02291460Y01199889D02*
X02308540Y01199889D01*
X02321055Y01183891D02*
X02278945Y01183891D01*
X02378945Y01183891D02*
X02733891Y01183891D01*
X02749889Y01199889D02*
X02391460Y01199889D01*
X02396000Y01215888D02*
X02765888Y01215888D01*
X02781886Y01231886D02*
X02396000Y01231886D01*
X02003885Y01887826D02*
X01771767Y01887826D01*
X01787765Y01903824D02*
X02019883Y01903824D01*
X01225823Y02559764D02*
X01217416Y02559764D01*
X01209634Y02575762D02*
X01226000Y02575762D01*
X01226000Y02591761D02*
X01184931Y02591761D01*
X01150000Y02650000D02*
X01125000Y02650000D01*
X01025000Y02550000D01*
X01095709Y02511768D02*
X01106548Y02511768D01*
X01125000Y02750000D02*
X01150000Y02750000D01*
D21*
X02200000Y02300000D03*
X02200000Y02050000D03*
X01900000Y01650000D03*
M02*
