G75*
%MOIN*%
%OFA0B0*%
%FSLAX25Y25*%
%IPPOS*%
%LPD*%
%AMOC8*
5,1,8,0,0,1.08239X$1,22.5*
%
%ADD10OC8,0.05200*%
%ADD11OC8,0.06300*%
%ADD12C,0.06300*%
%ADD13C,0.05200*%
%ADD14C,0.05200*%
%ADD15C,0.06000*%
%ADD16C,0.01600*%
%ADD17R,0.05315X0.05315*%
D10*
X0251000Y0156000D03*
X0261000Y0156000D03*
X0261000Y0181000D03*
X0251000Y0181000D03*
D11*
X0141000Y0146000D03*
D12*
X0131000Y0146000D03*
D13*
X0133400Y0246000D02*
X0138600Y0246000D01*
X0138600Y0256000D02*
X0133400Y0256000D01*
X0133400Y0266000D02*
X0138600Y0266000D01*
X0138600Y0276000D02*
X0133400Y0276000D01*
X0133400Y0286000D02*
X0138600Y0286000D01*
X0118600Y0286000D02*
X0113400Y0286000D01*
X0113400Y0276000D02*
X0118600Y0276000D01*
X0118600Y0266000D02*
X0113400Y0266000D01*
X0113400Y0256000D02*
X0118600Y0256000D01*
X0118600Y0246000D02*
X0113400Y0246000D01*
D14*
X0246000Y0206000D03*
X0256000Y0206000D03*
D15*
X0255800Y0252100D02*
X0261800Y0252100D01*
X0261800Y0269900D02*
X0255800Y0269900D01*
X0236200Y0269900D02*
X0230200Y0269900D01*
X0230200Y0252100D02*
X0236200Y0252100D01*
X0236000Y0129000D02*
X0236000Y0123000D01*
X0226000Y0123000D02*
X0226000Y0129000D01*
X0216000Y0129000D02*
X0216000Y0123000D01*
X0206000Y0123000D02*
X0206000Y0129000D01*
X0196000Y0129000D02*
X0196000Y0123000D01*
X0186000Y0123000D02*
X0186000Y0129000D01*
X0176000Y0129000D02*
X0176000Y0123000D01*
X0166000Y0123000D02*
X0166000Y0129000D01*
D16*
X0110498Y0106502D02*
X0261502Y0106502D01*
X0261000Y0106000D02*
X0111000Y0106000D01*
X0091000Y0126000D01*
X0091000Y0281000D01*
X0111000Y0301000D01*
X0256000Y0301000D01*
X0281000Y0276000D01*
X0281000Y0126000D01*
X0261000Y0106000D01*
X0263100Y0108100D02*
X0108900Y0108100D01*
X0107301Y0109699D02*
X0264699Y0109699D01*
X0266297Y0111297D02*
X0105703Y0111297D01*
X0104104Y0112896D02*
X0267896Y0112896D01*
X0269494Y0114494D02*
X0102506Y0114494D01*
X0100907Y0116093D02*
X0271093Y0116093D01*
X0272691Y0117691D02*
X0099309Y0117691D01*
X0097710Y0119290D02*
X0163205Y0119290D01*
X0163394Y0119100D02*
X0165085Y0118400D01*
X0166915Y0118400D01*
X0168606Y0119100D01*
X0169900Y0120394D01*
X0170600Y0122085D01*
X0170600Y0129915D01*
X0169900Y0131606D01*
X0168606Y0132900D01*
X0166915Y0133600D01*
X0165085Y0133600D01*
X0163394Y0132900D01*
X0162100Y0131606D01*
X0161400Y0129915D01*
X0161400Y0122085D01*
X0162100Y0120394D01*
X0163394Y0119100D01*
X0161896Y0120888D02*
X0096112Y0120888D01*
X0094513Y0122487D02*
X0161400Y0122487D01*
X0161400Y0124085D02*
X0092915Y0124085D01*
X0091316Y0125684D02*
X0161400Y0125684D01*
X0161400Y0127282D02*
X0091000Y0127282D01*
X0091000Y0128881D02*
X0161400Y0128881D01*
X0161634Y0130479D02*
X0091000Y0130479D01*
X0091000Y0132078D02*
X0162573Y0132078D01*
X0169427Y0132078D02*
X0172573Y0132078D01*
X0172100Y0131606D02*
X0171400Y0129915D01*
X0171400Y0122085D01*
X0172100Y0120394D01*
X0173394Y0119100D01*
X0175085Y0118400D01*
X0176915Y0118400D01*
X0178606Y0119100D01*
X0179900Y0120394D01*
X0180600Y0122085D01*
X0180600Y0129915D01*
X0179900Y0131606D01*
X0178606Y0132900D01*
X0176915Y0133600D01*
X0175085Y0133600D01*
X0173394Y0132900D01*
X0172100Y0131606D01*
X0171634Y0130479D02*
X0170366Y0130479D01*
X0170600Y0128881D02*
X0171400Y0128881D01*
X0171400Y0127282D02*
X0170600Y0127282D01*
X0170600Y0125684D02*
X0171400Y0125684D01*
X0171400Y0124085D02*
X0170600Y0124085D01*
X0170600Y0122487D02*
X0171400Y0122487D01*
X0171896Y0120888D02*
X0170104Y0120888D01*
X0168795Y0119290D02*
X0173205Y0119290D01*
X0178795Y0119290D02*
X0183205Y0119290D01*
X0183394Y0119100D02*
X0185085Y0118400D01*
X0186915Y0118400D01*
X0188606Y0119100D01*
X0189900Y0120394D01*
X0190600Y0122085D01*
X0190600Y0129915D01*
X0189900Y0131606D01*
X0188606Y0132900D01*
X0186915Y0133600D01*
X0185085Y0133600D01*
X0183394Y0132900D01*
X0182100Y0131606D01*
X0181400Y0129915D01*
X0181400Y0122085D01*
X0182100Y0120394D01*
X0183394Y0119100D01*
X0181896Y0120888D02*
X0180104Y0120888D01*
X0180600Y0122487D02*
X0181400Y0122487D01*
X0181400Y0124085D02*
X0180600Y0124085D01*
X0180600Y0125684D02*
X0181400Y0125684D01*
X0181400Y0127282D02*
X0180600Y0127282D01*
X0180600Y0128881D02*
X0181400Y0128881D01*
X0181634Y0130479D02*
X0180366Y0130479D01*
X0179427Y0132078D02*
X0182573Y0132078D01*
X0189427Y0132078D02*
X0192573Y0132078D01*
X0192100Y0131606D02*
X0191400Y0129915D01*
X0191400Y0122085D01*
X0192100Y0120394D01*
X0193394Y0119100D01*
X0195085Y0118400D01*
X0196915Y0118400D01*
X0198606Y0119100D01*
X0199900Y0120394D01*
X0200600Y0122085D01*
X0200600Y0129915D01*
X0199900Y0131606D01*
X0198606Y0132900D01*
X0196915Y0133600D01*
X0195085Y0133600D01*
X0193394Y0132900D01*
X0192100Y0131606D01*
X0191634Y0130479D02*
X0190366Y0130479D01*
X0190600Y0128881D02*
X0191400Y0128881D01*
X0191400Y0127282D02*
X0190600Y0127282D01*
X0190600Y0125684D02*
X0191400Y0125684D01*
X0191400Y0124085D02*
X0190600Y0124085D01*
X0190600Y0122487D02*
X0191400Y0122487D01*
X0191896Y0120888D02*
X0190104Y0120888D01*
X0188795Y0119290D02*
X0193205Y0119290D01*
X0198795Y0119290D02*
X0203205Y0119290D01*
X0203394Y0119100D02*
X0205085Y0118400D01*
X0206915Y0118400D01*
X0208606Y0119100D01*
X0209900Y0120394D01*
X0210600Y0122085D01*
X0210600Y0129915D01*
X0209900Y0131606D01*
X0208606Y0132900D01*
X0206915Y0133600D01*
X0205085Y0133600D01*
X0203394Y0132900D01*
X0202100Y0131606D01*
X0201400Y0129915D01*
X0201400Y0122085D01*
X0202100Y0120394D01*
X0203394Y0119100D01*
X0201896Y0120888D02*
X0200104Y0120888D01*
X0200600Y0122487D02*
X0201400Y0122487D01*
X0201400Y0124085D02*
X0200600Y0124085D01*
X0200600Y0125684D02*
X0201400Y0125684D01*
X0201400Y0127282D02*
X0200600Y0127282D01*
X0200600Y0128881D02*
X0201400Y0128881D01*
X0201634Y0130479D02*
X0200366Y0130479D01*
X0199427Y0132078D02*
X0202573Y0132078D01*
X0209427Y0132078D02*
X0212573Y0132078D01*
X0212100Y0131606D02*
X0211400Y0129915D01*
X0211400Y0122085D01*
X0212100Y0120394D01*
X0213394Y0119100D01*
X0215085Y0118400D01*
X0216915Y0118400D01*
X0218606Y0119100D01*
X0219900Y0120394D01*
X0220600Y0122085D01*
X0220600Y0129915D01*
X0219900Y0131606D01*
X0218606Y0132900D01*
X0216915Y0133600D01*
X0215085Y0133600D01*
X0213394Y0132900D01*
X0212100Y0131606D01*
X0211634Y0130479D02*
X0210366Y0130479D01*
X0210600Y0128881D02*
X0211400Y0128881D01*
X0211400Y0127282D02*
X0210600Y0127282D01*
X0210600Y0125684D02*
X0211400Y0125684D01*
X0211400Y0124085D02*
X0210600Y0124085D01*
X0210600Y0122487D02*
X0211400Y0122487D01*
X0211896Y0120888D02*
X0210104Y0120888D01*
X0208795Y0119290D02*
X0213205Y0119290D01*
X0218795Y0119290D02*
X0223205Y0119290D01*
X0223394Y0119100D02*
X0225085Y0118400D01*
X0226915Y0118400D01*
X0228606Y0119100D01*
X0229900Y0120394D01*
X0230600Y0122085D01*
X0230600Y0129915D01*
X0229900Y0131606D01*
X0228606Y0132900D01*
X0226915Y0133600D01*
X0225085Y0133600D01*
X0223394Y0132900D01*
X0222100Y0131606D01*
X0221400Y0129915D01*
X0221400Y0122085D01*
X0222100Y0120394D01*
X0223394Y0119100D01*
X0221896Y0120888D02*
X0220104Y0120888D01*
X0220600Y0122487D02*
X0221400Y0122487D01*
X0221400Y0124085D02*
X0220600Y0124085D01*
X0220600Y0125684D02*
X0221400Y0125684D01*
X0221400Y0127282D02*
X0220600Y0127282D01*
X0220600Y0128881D02*
X0221400Y0128881D01*
X0221634Y0130479D02*
X0220366Y0130479D01*
X0219427Y0132078D02*
X0222573Y0132078D01*
X0229427Y0132078D02*
X0232573Y0132078D01*
X0232100Y0131606D02*
X0231400Y0129915D01*
X0231400Y0122085D01*
X0232100Y0120394D01*
X0233394Y0119100D01*
X0235085Y0118400D01*
X0236915Y0118400D01*
X0238606Y0119100D01*
X0239900Y0120394D01*
X0240600Y0122085D01*
X0240600Y0129915D01*
X0239900Y0131606D01*
X0238606Y0132900D01*
X0236915Y0133600D01*
X0235085Y0133600D01*
X0233394Y0132900D01*
X0232100Y0131606D01*
X0231634Y0130479D02*
X0230366Y0130479D01*
X0230600Y0128881D02*
X0231400Y0128881D01*
X0231400Y0127282D02*
X0230600Y0127282D01*
X0230600Y0125684D02*
X0231400Y0125684D01*
X0231400Y0124085D02*
X0230600Y0124085D01*
X0230600Y0122487D02*
X0231400Y0122487D01*
X0231896Y0120888D02*
X0230104Y0120888D01*
X0228795Y0119290D02*
X0233205Y0119290D01*
X0238795Y0119290D02*
X0274290Y0119290D01*
X0275888Y0120888D02*
X0240104Y0120888D01*
X0240600Y0122487D02*
X0277487Y0122487D01*
X0279085Y0124085D02*
X0240600Y0124085D01*
X0240600Y0125684D02*
X0280684Y0125684D01*
X0281000Y0127282D02*
X0240600Y0127282D01*
X0240600Y0128881D02*
X0281000Y0128881D01*
X0281000Y0130479D02*
X0240366Y0130479D01*
X0239427Y0132078D02*
X0281000Y0132078D01*
X0281000Y0133676D02*
X0091000Y0133676D01*
X0091000Y0135275D02*
X0281000Y0135275D01*
X0281000Y0136873D02*
X0091000Y0136873D01*
X0091000Y0138472D02*
X0281000Y0138472D01*
X0281000Y0140070D02*
X0091000Y0140070D01*
X0091000Y0141669D02*
X0129044Y0141669D01*
X0128309Y0141973D02*
X0130055Y0141250D01*
X0131945Y0141250D01*
X0133691Y0141973D01*
X0135027Y0143309D01*
X0135750Y0145055D01*
X0135750Y0146945D01*
X0135027Y0148691D01*
X0133691Y0150027D01*
X0131945Y0150750D01*
X0130055Y0150750D01*
X0128309Y0150027D01*
X0126973Y0148691D01*
X0126250Y0146945D01*
X0126250Y0145055D01*
X0126973Y0143309D01*
X0128309Y0141973D01*
X0127015Y0143268D02*
X0091000Y0143268D01*
X0091000Y0144866D02*
X0126328Y0144866D01*
X0126250Y0146465D02*
X0091000Y0146465D01*
X0091000Y0148063D02*
X0126713Y0148063D01*
X0127944Y0149662D02*
X0091000Y0149662D01*
X0091000Y0151260D02*
X0172866Y0151260D01*
X0171267Y0149662D02*
X0144056Y0149662D01*
X0142968Y0150750D02*
X0145318Y0148400D01*
X0170006Y0148400D01*
X0186743Y0165137D01*
X0186743Y0169320D01*
X0187680Y0170257D01*
X0194320Y0170257D01*
X0195257Y0169320D01*
X0195257Y0162680D01*
X0194320Y0161743D01*
X0190137Y0161743D01*
X0172359Y0143965D01*
X0171477Y0143600D01*
X0145318Y0143600D01*
X0142968Y0141250D01*
X0139032Y0141250D01*
X0136250Y0144032D01*
X0136250Y0147968D01*
X0139032Y0150750D01*
X0142968Y0150750D01*
X0141000Y0146000D02*
X0171000Y0146000D01*
X0191000Y0166000D01*
X0195257Y0165647D02*
X0257959Y0165647D01*
X0258600Y0165006D02*
X0258600Y0159540D01*
X0256800Y0157740D01*
X0256800Y0154260D01*
X0259260Y0151800D01*
X0262740Y0151800D01*
X0265200Y0154260D01*
X0265200Y0157740D01*
X0263400Y0159540D01*
X0263400Y0166477D01*
X0263035Y0167359D01*
X0262359Y0168035D01*
X0258400Y0171994D01*
X0258400Y0177660D01*
X0259260Y0176800D01*
X0262740Y0176800D01*
X0265200Y0179260D01*
X0265200Y0182740D01*
X0263400Y0184540D01*
X0263400Y0201477D01*
X0263035Y0202359D01*
X0262359Y0203035D01*
X0260200Y0205194D01*
X0260200Y0206835D01*
X0259561Y0208379D01*
X0258379Y0209561D01*
X0256835Y0210200D01*
X0255165Y0210200D01*
X0253621Y0209561D01*
X0252439Y0208379D01*
X0251800Y0206835D01*
X0251800Y0205165D01*
X0252439Y0203621D01*
X0253621Y0202439D01*
X0255165Y0201800D01*
X0256806Y0201800D01*
X0258600Y0200006D01*
X0258600Y0184540D01*
X0258400Y0184340D01*
X0258400Y0191477D01*
X0258035Y0192359D01*
X0257359Y0193035D01*
X0248400Y0201994D01*
X0248400Y0202460D01*
X0249561Y0203621D01*
X0250200Y0205165D01*
X0250200Y0206835D01*
X0249561Y0208379D01*
X0248379Y0209561D01*
X0246835Y0210200D01*
X0245165Y0210200D01*
X0243621Y0209561D01*
X0242439Y0208379D01*
X0241800Y0206835D01*
X0241800Y0205165D01*
X0242439Y0203621D01*
X0243600Y0202460D01*
X0243600Y0200523D01*
X0243965Y0199641D01*
X0253600Y0190006D01*
X0253600Y0184623D01*
X0252823Y0185400D01*
X0251000Y0185400D01*
X0251000Y0181000D01*
X0201000Y0181000D01*
X0136000Y0246000D01*
X0131000Y0246000D01*
X0126000Y0251000D01*
X0126000Y0276000D01*
X0116000Y0286000D01*
X0116000Y0286000D01*
X0116000Y0290400D01*
X0118946Y0290400D01*
X0119630Y0290292D01*
X0120289Y0290078D01*
X0120906Y0289763D01*
X0121466Y0289356D01*
X0121956Y0288866D01*
X0122363Y0288306D01*
X0122678Y0287689D01*
X0122892Y0287030D01*
X0123000Y0286346D01*
X0123000Y0286000D01*
X0116000Y0286000D01*
X0116000Y0286000D01*
X0116000Y0281600D01*
X0118946Y0281600D01*
X0119630Y0281708D01*
X0120289Y0281922D01*
X0120906Y0282237D01*
X0121466Y0282644D01*
X0121956Y0283134D01*
X0122363Y0283694D01*
X0122678Y0284311D01*
X0122892Y0284970D01*
X0123000Y0285654D01*
X0123000Y0286000D01*
X0116000Y0286000D01*
X0116000Y0286000D01*
X0116000Y0286000D01*
X0109000Y0286000D01*
X0109000Y0286346D01*
X0109108Y0287030D01*
X0109322Y0287689D01*
X0109637Y0288306D01*
X0110044Y0288866D01*
X0110534Y0289356D01*
X0111094Y0289763D01*
X0111711Y0290078D01*
X0112370Y0290292D01*
X0113054Y0290400D01*
X0116000Y0290400D01*
X0116000Y0286000D01*
X0116000Y0281600D01*
X0113054Y0281600D01*
X0112370Y0281708D01*
X0111711Y0281922D01*
X0111094Y0282237D01*
X0110534Y0282644D01*
X0110044Y0283134D01*
X0109637Y0283694D01*
X0109322Y0284311D01*
X0109108Y0284970D01*
X0109000Y0285654D01*
X0109000Y0286000D01*
X0116000Y0286000D01*
X0116000Y0285535D02*
X0116000Y0285535D01*
X0116000Y0283937D02*
X0116000Y0283937D01*
X0116000Y0282338D02*
X0116000Y0282338D01*
X0112565Y0280200D02*
X0111021Y0279561D01*
X0109839Y0278379D01*
X0109200Y0276835D01*
X0109200Y0275165D01*
X0109839Y0273621D01*
X0111021Y0272439D01*
X0112565Y0271800D01*
X0119435Y0271800D01*
X0120979Y0272439D01*
X0122161Y0273621D01*
X0122800Y0275165D01*
X0122800Y0276835D01*
X0122161Y0278379D01*
X0120979Y0279561D01*
X0119435Y0280200D01*
X0112565Y0280200D01*
X0110601Y0279141D02*
X0091000Y0279141D01*
X0091000Y0280739D02*
X0276261Y0280739D01*
X0277859Y0279141D02*
X0141399Y0279141D01*
X0140979Y0279561D02*
X0139435Y0280200D01*
X0132565Y0280200D01*
X0131021Y0279561D01*
X0129839Y0278379D01*
X0129200Y0276835D01*
X0129200Y0275165D01*
X0129839Y0273621D01*
X0131021Y0272439D01*
X0132565Y0271800D01*
X0139435Y0271800D01*
X0140979Y0272439D01*
X0142161Y0273621D01*
X0142800Y0275165D01*
X0142800Y0276835D01*
X0142161Y0278379D01*
X0140979Y0279561D01*
X0142507Y0277542D02*
X0279458Y0277542D01*
X0281000Y0275944D02*
X0142800Y0275944D01*
X0142461Y0274345D02*
X0228912Y0274345D01*
X0229285Y0274500D02*
X0227594Y0273800D01*
X0226300Y0272506D01*
X0225600Y0270815D01*
X0225600Y0268985D01*
X0226300Y0267294D01*
X0227594Y0266000D01*
X0229285Y0265300D01*
X0237115Y0265300D01*
X0238806Y0266000D01*
X0240100Y0267294D01*
X0240800Y0268985D01*
X0240800Y0270815D01*
X0240100Y0272506D01*
X0238806Y0273800D01*
X0237115Y0274500D01*
X0229285Y0274500D01*
X0226542Y0272747D02*
X0141287Y0272747D01*
X0139435Y0270200D02*
X0140979Y0269561D01*
X0142161Y0268379D01*
X0142800Y0266835D01*
X0142800Y0265165D01*
X0142161Y0263621D01*
X0140979Y0262439D01*
X0139435Y0261800D01*
X0132565Y0261800D01*
X0131021Y0262439D01*
X0129839Y0263621D01*
X0129200Y0265165D01*
X0129200Y0266835D01*
X0129839Y0268379D01*
X0131021Y0269561D01*
X0132565Y0270200D01*
X0139435Y0270200D01*
X0140990Y0269550D02*
X0225600Y0269550D01*
X0225738Y0271148D02*
X0091000Y0271148D01*
X0091000Y0269550D02*
X0111010Y0269550D01*
X0111021Y0269561D02*
X0109839Y0268379D01*
X0109200Y0266835D01*
X0109200Y0265165D01*
X0109839Y0263621D01*
X0111021Y0262439D01*
X0112565Y0261800D01*
X0119435Y0261800D01*
X0120979Y0262439D01*
X0122161Y0263621D01*
X0122800Y0265165D01*
X0122800Y0266835D01*
X0122161Y0268379D01*
X0120979Y0269561D01*
X0119435Y0270200D01*
X0112565Y0270200D01*
X0111021Y0269561D01*
X0109662Y0267951D02*
X0091000Y0267951D01*
X0091000Y0266353D02*
X0109200Y0266353D01*
X0109370Y0264754D02*
X0091000Y0264754D01*
X0091000Y0263156D02*
X0110304Y0263156D01*
X0111982Y0259959D02*
X0091000Y0259959D01*
X0091000Y0261557D02*
X0281000Y0261557D01*
X0281000Y0259959D02*
X0140018Y0259959D01*
X0139435Y0260200D02*
X0140979Y0259561D01*
X0142161Y0258379D01*
X0142800Y0256835D01*
X0142800Y0255165D01*
X0142161Y0253621D01*
X0140979Y0252439D01*
X0139435Y0251800D01*
X0132565Y0251800D01*
X0131021Y0252439D01*
X0129839Y0253621D01*
X0129200Y0255165D01*
X0129200Y0256835D01*
X0129839Y0258379D01*
X0131021Y0259561D01*
X0132565Y0260200D01*
X0139435Y0260200D01*
X0142168Y0258360D02*
X0281000Y0258360D01*
X0281000Y0256762D02*
X0142800Y0256762D01*
X0142799Y0255163D02*
X0226758Y0255163D01*
X0226300Y0254706D02*
X0225600Y0253015D01*
X0225600Y0251185D01*
X0226300Y0249494D01*
X0227594Y0248200D01*
X0229285Y0247500D01*
X0237115Y0247500D01*
X0238806Y0248200D01*
X0240100Y0249494D01*
X0240800Y0251185D01*
X0240800Y0253015D01*
X0240100Y0254706D01*
X0238806Y0256000D01*
X0237115Y0256700D01*
X0229285Y0256700D01*
X0227594Y0256000D01*
X0226300Y0254706D01*
X0225828Y0253565D02*
X0142104Y0253565D01*
X0139837Y0251966D02*
X0225600Y0251966D01*
X0225938Y0250368D02*
X0139150Y0250368D01*
X0138946Y0250400D02*
X0139630Y0250292D01*
X0140289Y0250078D01*
X0140906Y0249763D01*
X0141466Y0249356D01*
X0141956Y0248866D01*
X0142363Y0248306D01*
X0142678Y0247689D01*
X0142892Y0247030D01*
X0143000Y0246346D01*
X0143000Y0246000D01*
X0136000Y0246000D01*
X0136000Y0246000D01*
X0136000Y0250400D01*
X0138946Y0250400D01*
X0136000Y0250400D02*
X0133054Y0250400D01*
X0132370Y0250292D01*
X0131711Y0250078D01*
X0131094Y0249763D01*
X0130534Y0249356D01*
X0130044Y0248866D01*
X0129637Y0248306D01*
X0129322Y0247689D01*
X0129108Y0247030D01*
X0129000Y0246346D01*
X0129000Y0246000D01*
X0136000Y0246000D01*
X0136000Y0246000D01*
X0136000Y0241600D01*
X0138946Y0241600D01*
X0139630Y0241708D01*
X0140289Y0241922D01*
X0140906Y0242237D01*
X0141466Y0242644D01*
X0141956Y0243134D01*
X0142363Y0243694D01*
X0142678Y0244311D01*
X0142892Y0244970D01*
X0143000Y0245654D01*
X0143000Y0246000D01*
X0136000Y0246000D01*
X0136000Y0246000D01*
X0136000Y0246000D01*
X0136000Y0250400D01*
X0136000Y0250368D02*
X0136000Y0250368D01*
X0136000Y0248769D02*
X0136000Y0248769D01*
X0136000Y0247171D02*
X0136000Y0247171D01*
X0136000Y0246000D02*
X0129000Y0246000D01*
X0129000Y0245654D01*
X0129108Y0244970D01*
X0129322Y0244311D01*
X0129637Y0243694D01*
X0130044Y0243134D01*
X0130534Y0242644D01*
X0131094Y0242237D01*
X0131711Y0241922D01*
X0132370Y0241708D01*
X0133054Y0241600D01*
X0136000Y0241600D01*
X0136000Y0246000D01*
X0136000Y0245572D02*
X0136000Y0245572D01*
X0136000Y0243974D02*
X0136000Y0243974D01*
X0136000Y0242375D02*
X0136000Y0242375D01*
X0141097Y0242375D02*
X0281000Y0242375D01*
X0281000Y0240777D02*
X0091000Y0240777D01*
X0091000Y0242375D02*
X0111176Y0242375D01*
X0111021Y0242439D02*
X0112565Y0241800D01*
X0119435Y0241800D01*
X0120979Y0242439D01*
X0122161Y0243621D01*
X0122800Y0245165D01*
X0122800Y0246835D01*
X0122161Y0248379D01*
X0120979Y0249561D01*
X0119435Y0250200D01*
X0112565Y0250200D01*
X0111021Y0249561D01*
X0109839Y0248379D01*
X0109200Y0246835D01*
X0109200Y0245165D01*
X0109839Y0243621D01*
X0111021Y0242439D01*
X0109693Y0243974D02*
X0091000Y0243974D01*
X0091000Y0245572D02*
X0109200Y0245572D01*
X0109339Y0247171D02*
X0091000Y0247171D01*
X0091000Y0248769D02*
X0110230Y0248769D01*
X0112163Y0251966D02*
X0091000Y0251966D01*
X0091000Y0250368D02*
X0132850Y0250368D01*
X0132163Y0251966D02*
X0119837Y0251966D01*
X0119435Y0251800D02*
X0120979Y0252439D01*
X0122161Y0253621D01*
X0122800Y0255165D01*
X0122800Y0256835D01*
X0122161Y0258379D01*
X0120979Y0259561D01*
X0119435Y0260200D01*
X0112565Y0260200D01*
X0111021Y0259561D01*
X0109839Y0258379D01*
X0109200Y0256835D01*
X0109200Y0255165D01*
X0109839Y0253621D01*
X0111021Y0252439D01*
X0112565Y0251800D01*
X0119435Y0251800D01*
X0122104Y0253565D02*
X0129896Y0253565D01*
X0129201Y0255163D02*
X0122799Y0255163D01*
X0122800Y0256762D02*
X0129200Y0256762D01*
X0129832Y0258360D02*
X0122168Y0258360D01*
X0120018Y0259959D02*
X0131982Y0259959D01*
X0130304Y0263156D02*
X0121696Y0263156D01*
X0122630Y0264754D02*
X0129370Y0264754D01*
X0129200Y0266353D02*
X0122800Y0266353D01*
X0122338Y0267951D02*
X0129662Y0267951D01*
X0131010Y0269550D02*
X0120990Y0269550D01*
X0121287Y0272747D02*
X0130713Y0272747D01*
X0129539Y0274345D02*
X0122461Y0274345D01*
X0122800Y0275944D02*
X0129200Y0275944D01*
X0129493Y0277542D02*
X0122507Y0277542D01*
X0121399Y0279141D02*
X0130601Y0279141D01*
X0131266Y0282338D02*
X0121045Y0282338D01*
X0122487Y0283937D02*
X0129709Y0283937D01*
X0129839Y0283621D02*
X0131021Y0282439D01*
X0132565Y0281800D01*
X0139435Y0281800D01*
X0140979Y0282439D01*
X0142161Y0283621D01*
X0142800Y0285165D01*
X0142800Y0286835D01*
X0142161Y0288379D01*
X0140979Y0289561D01*
X0139435Y0290200D01*
X0132565Y0290200D01*
X0131021Y0289561D01*
X0129839Y0288379D01*
X0129200Y0286835D01*
X0129200Y0285165D01*
X0129839Y0283621D01*
X0129200Y0285535D02*
X0122981Y0285535D01*
X0122858Y0287134D02*
X0129323Y0287134D01*
X0130192Y0288732D02*
X0122054Y0288732D01*
X0119385Y0290331D02*
X0266669Y0290331D01*
X0265071Y0291929D02*
X0101929Y0291929D01*
X0100331Y0290331D02*
X0112615Y0290331D01*
X0109946Y0288732D02*
X0098732Y0288732D01*
X0097134Y0287134D02*
X0109142Y0287134D01*
X0109019Y0285535D02*
X0095535Y0285535D01*
X0093937Y0283937D02*
X0109513Y0283937D01*
X0110955Y0282338D02*
X0092338Y0282338D01*
X0091000Y0277542D02*
X0109493Y0277542D01*
X0109200Y0275944D02*
X0091000Y0275944D01*
X0091000Y0274345D02*
X0109539Y0274345D01*
X0110713Y0272747D02*
X0091000Y0272747D01*
X0091000Y0258360D02*
X0109832Y0258360D01*
X0109200Y0256762D02*
X0091000Y0256762D01*
X0091000Y0255163D02*
X0109201Y0255163D01*
X0109896Y0253565D02*
X0091000Y0253565D01*
X0091000Y0239178D02*
X0281000Y0239178D01*
X0281000Y0237580D02*
X0091000Y0237580D01*
X0091000Y0235981D02*
X0281000Y0235981D01*
X0281000Y0234383D02*
X0225195Y0234383D01*
X0225257Y0234320D02*
X0224320Y0235257D01*
X0217680Y0235257D01*
X0216743Y0234320D01*
X0216743Y0227680D01*
X0217680Y0226743D01*
X0218600Y0226743D01*
X0218600Y0210257D01*
X0217680Y0210257D01*
X0216743Y0209320D01*
X0216743Y0202680D01*
X0217680Y0201743D01*
X0224320Y0201743D01*
X0225257Y0202680D01*
X0225257Y0209320D01*
X0224320Y0210257D01*
X0223400Y0210257D01*
X0223400Y0226743D01*
X0224320Y0226743D01*
X0225257Y0227680D01*
X0225257Y0234320D01*
X0225257Y0232784D02*
X0281000Y0232784D01*
X0281000Y0231186D02*
X0225257Y0231186D01*
X0225257Y0229587D02*
X0281000Y0229587D01*
X0281000Y0227989D02*
X0225257Y0227989D01*
X0223400Y0226390D02*
X0281000Y0226390D01*
X0281000Y0224792D02*
X0223400Y0224792D01*
X0223400Y0223193D02*
X0281000Y0223193D01*
X0281000Y0221595D02*
X0223400Y0221595D01*
X0223400Y0219996D02*
X0281000Y0219996D01*
X0281000Y0218398D02*
X0223400Y0218398D01*
X0223400Y0216799D02*
X0281000Y0216799D01*
X0281000Y0215201D02*
X0223400Y0215201D01*
X0223400Y0213602D02*
X0281000Y0213602D01*
X0281000Y0212003D02*
X0223400Y0212003D01*
X0223400Y0210405D02*
X0281000Y0210405D01*
X0281000Y0208806D02*
X0259133Y0208806D01*
X0260046Y0207208D02*
X0281000Y0207208D01*
X0281000Y0205609D02*
X0260200Y0205609D01*
X0261383Y0204011D02*
X0281000Y0204011D01*
X0281000Y0202412D02*
X0262982Y0202412D01*
X0263400Y0200814D02*
X0281000Y0200814D01*
X0281000Y0199215D02*
X0263400Y0199215D01*
X0263400Y0197617D02*
X0281000Y0197617D01*
X0281000Y0196018D02*
X0263400Y0196018D01*
X0263400Y0194420D02*
X0281000Y0194420D01*
X0281000Y0192821D02*
X0263400Y0192821D01*
X0263400Y0191223D02*
X0281000Y0191223D01*
X0281000Y0189624D02*
X0263400Y0189624D01*
X0263400Y0188026D02*
X0281000Y0188026D01*
X0281000Y0186427D02*
X0263400Y0186427D01*
X0263400Y0184829D02*
X0281000Y0184829D01*
X0281000Y0183230D02*
X0264709Y0183230D01*
X0265200Y0181632D02*
X0281000Y0181632D01*
X0281000Y0180033D02*
X0265200Y0180033D01*
X0264374Y0178435D02*
X0281000Y0178435D01*
X0281000Y0176836D02*
X0262776Y0176836D01*
X0259224Y0176836D02*
X0258400Y0176836D01*
X0258400Y0175238D02*
X0281000Y0175238D01*
X0281000Y0173639D02*
X0258400Y0173639D01*
X0258400Y0172041D02*
X0281000Y0172041D01*
X0281000Y0170442D02*
X0259952Y0170442D01*
X0261550Y0168844D02*
X0281000Y0168844D01*
X0281000Y0167245D02*
X0263082Y0167245D01*
X0263400Y0165647D02*
X0281000Y0165647D01*
X0281000Y0164048D02*
X0263400Y0164048D01*
X0263400Y0162450D02*
X0281000Y0162450D01*
X0281000Y0160851D02*
X0263400Y0160851D01*
X0263687Y0159253D02*
X0281000Y0159253D01*
X0281000Y0157654D02*
X0265200Y0157654D01*
X0265200Y0156056D02*
X0281000Y0156056D01*
X0281000Y0154457D02*
X0265200Y0154457D01*
X0263798Y0152859D02*
X0281000Y0152859D01*
X0281000Y0151260D02*
X0179654Y0151260D01*
X0178056Y0149662D02*
X0281000Y0149662D01*
X0281000Y0148063D02*
X0176457Y0148063D01*
X0174859Y0146465D02*
X0281000Y0146465D01*
X0281000Y0144866D02*
X0173260Y0144866D01*
X0174464Y0152859D02*
X0091000Y0152859D01*
X0091000Y0154457D02*
X0176063Y0154457D01*
X0177661Y0156056D02*
X0091000Y0156056D01*
X0091000Y0157654D02*
X0179260Y0157654D01*
X0180859Y0159253D02*
X0091000Y0159253D01*
X0091000Y0160851D02*
X0182457Y0160851D01*
X0184056Y0162450D02*
X0091000Y0162450D01*
X0091000Y0164048D02*
X0185654Y0164048D01*
X0186743Y0165647D02*
X0091000Y0165647D01*
X0091000Y0167245D02*
X0186743Y0167245D01*
X0186743Y0168844D02*
X0091000Y0168844D01*
X0091000Y0170442D02*
X0253633Y0170442D01*
X0253600Y0170523D02*
X0253965Y0169641D01*
X0258600Y0165006D01*
X0258600Y0164048D02*
X0195257Y0164048D01*
X0195027Y0162450D02*
X0258600Y0162450D01*
X0258600Y0160851D02*
X0189245Y0160851D01*
X0187647Y0159253D02*
X0248030Y0159253D01*
X0249177Y0160400D02*
X0246600Y0157823D01*
X0246600Y0156000D01*
X0251000Y0156000D01*
X0251000Y0181000D01*
X0251000Y0181000D01*
X0251000Y0176600D01*
X0252823Y0176600D01*
X0253600Y0177377D01*
X0253600Y0170523D01*
X0253600Y0172041D02*
X0091000Y0172041D01*
X0091000Y0173639D02*
X0253600Y0173639D01*
X0253600Y0175238D02*
X0091000Y0175238D01*
X0091000Y0176836D02*
X0248941Y0176836D01*
X0249177Y0176600D02*
X0251000Y0176600D01*
X0251000Y0181000D01*
X0251000Y0181000D01*
X0251000Y0181000D01*
X0246600Y0181000D01*
X0246600Y0182823D01*
X0249177Y0185400D01*
X0251000Y0185400D01*
X0251000Y0181000D01*
X0246600Y0181000D01*
X0246600Y0179177D01*
X0249177Y0176600D01*
X0251000Y0176836D02*
X0251000Y0176836D01*
X0251000Y0178435D02*
X0251000Y0178435D01*
X0251000Y0180033D02*
X0251000Y0180033D01*
X0251000Y0181632D02*
X0251000Y0181632D01*
X0251000Y0183230D02*
X0251000Y0183230D01*
X0251000Y0184829D02*
X0251000Y0184829D01*
X0253394Y0184829D02*
X0253600Y0184829D01*
X0253600Y0186427D02*
X0091000Y0186427D01*
X0091000Y0184829D02*
X0248606Y0184829D01*
X0247008Y0183230D02*
X0091000Y0183230D01*
X0091000Y0181632D02*
X0246600Y0181632D01*
X0246600Y0180033D02*
X0091000Y0180033D01*
X0091000Y0178435D02*
X0247343Y0178435D01*
X0253059Y0176836D02*
X0253600Y0176836D01*
X0256000Y0171000D02*
X0261000Y0166000D01*
X0261000Y0156000D01*
X0256800Y0156056D02*
X0255400Y0156056D01*
X0255400Y0156000D02*
X0255400Y0157823D01*
X0252823Y0160400D01*
X0251000Y0160400D01*
X0251000Y0156000D01*
X0255400Y0156000D01*
X0251000Y0156000D01*
X0251000Y0156000D01*
X0251000Y0156000D01*
X0251000Y0151600D01*
X0252823Y0151600D01*
X0255400Y0154177D01*
X0255400Y0156000D01*
X0255400Y0154457D02*
X0256800Y0154457D01*
X0258202Y0152859D02*
X0254081Y0152859D01*
X0251000Y0152859D02*
X0251000Y0152859D01*
X0251000Y0151600D02*
X0249177Y0151600D01*
X0246600Y0154177D01*
X0246600Y0156000D01*
X0251000Y0156000D01*
X0251000Y0156000D01*
X0251000Y0156000D01*
X0251000Y0160400D01*
X0249177Y0160400D01*
X0251000Y0159253D02*
X0251000Y0159253D01*
X0251000Y0157654D02*
X0251000Y0157654D01*
X0251000Y0156056D02*
X0251000Y0156056D01*
X0251000Y0156000D02*
X0251000Y0151600D01*
X0251000Y0154457D02*
X0251000Y0154457D01*
X0247919Y0152859D02*
X0181253Y0152859D01*
X0182851Y0154457D02*
X0246600Y0154457D01*
X0246600Y0156056D02*
X0184450Y0156056D01*
X0186048Y0157654D02*
X0246600Y0157654D01*
X0253970Y0159253D02*
X0258313Y0159253D01*
X0256800Y0157654D02*
X0255400Y0157654D01*
X0256361Y0167245D02*
X0195257Y0167245D01*
X0195257Y0168844D02*
X0254762Y0168844D01*
X0256000Y0171000D02*
X0256000Y0191000D01*
X0246000Y0201000D01*
X0246000Y0206000D01*
X0249133Y0208806D02*
X0252867Y0208806D01*
X0251954Y0207208D02*
X0250046Y0207208D01*
X0250200Y0205609D02*
X0251800Y0205609D01*
X0252278Y0204011D02*
X0249722Y0204011D01*
X0248400Y0202412D02*
X0253686Y0202412D01*
X0251179Y0199215D02*
X0258600Y0199215D01*
X0258600Y0197617D02*
X0252777Y0197617D01*
X0254376Y0196018D02*
X0258600Y0196018D01*
X0258600Y0194420D02*
X0255974Y0194420D01*
X0257573Y0192821D02*
X0258600Y0192821D01*
X0258600Y0191223D02*
X0258400Y0191223D01*
X0258400Y0189624D02*
X0258600Y0189624D01*
X0258600Y0188026D02*
X0258400Y0188026D01*
X0258400Y0186427D02*
X0258600Y0186427D01*
X0258600Y0184829D02*
X0258400Y0184829D01*
X0261000Y0181000D02*
X0261000Y0201000D01*
X0256000Y0206000D01*
X0257792Y0200814D02*
X0249580Y0200814D01*
X0245989Y0197617D02*
X0091000Y0197617D01*
X0091000Y0199215D02*
X0244390Y0199215D01*
X0243600Y0200814D02*
X0091000Y0200814D01*
X0091000Y0202412D02*
X0217010Y0202412D01*
X0216743Y0204011D02*
X0091000Y0204011D01*
X0091000Y0205609D02*
X0216743Y0205609D01*
X0216743Y0207208D02*
X0091000Y0207208D01*
X0091000Y0208806D02*
X0216743Y0208806D01*
X0218600Y0210405D02*
X0091000Y0210405D01*
X0091000Y0212003D02*
X0218600Y0212003D01*
X0218600Y0213602D02*
X0091000Y0213602D01*
X0091000Y0215201D02*
X0218600Y0215201D01*
X0218600Y0216799D02*
X0091000Y0216799D01*
X0091000Y0218398D02*
X0218600Y0218398D01*
X0218600Y0219996D02*
X0091000Y0219996D01*
X0091000Y0221595D02*
X0218600Y0221595D01*
X0218600Y0223193D02*
X0091000Y0223193D01*
X0091000Y0224792D02*
X0218600Y0224792D01*
X0218600Y0226390D02*
X0091000Y0226390D01*
X0091000Y0227989D02*
X0216743Y0227989D01*
X0216743Y0229587D02*
X0091000Y0229587D01*
X0091000Y0231186D02*
X0216743Y0231186D01*
X0216743Y0232784D02*
X0091000Y0232784D01*
X0091000Y0234383D02*
X0216805Y0234383D01*
X0219750Y0232250D02*
X0221000Y0231000D01*
X0221000Y0206000D01*
X0225257Y0205609D02*
X0241800Y0205609D01*
X0241954Y0207208D02*
X0225257Y0207208D01*
X0225257Y0208806D02*
X0242867Y0208806D01*
X0242278Y0204011D02*
X0225257Y0204011D01*
X0224990Y0202412D02*
X0243600Y0202412D01*
X0247587Y0196018D02*
X0091000Y0196018D01*
X0091000Y0194420D02*
X0249186Y0194420D01*
X0250785Y0192821D02*
X0091000Y0192821D01*
X0091000Y0191223D02*
X0252383Y0191223D01*
X0253600Y0189624D02*
X0091000Y0189624D01*
X0091000Y0188026D02*
X0253600Y0188026D01*
X0281000Y0143268D02*
X0144985Y0143268D01*
X0143387Y0141669D02*
X0281000Y0141669D01*
X0281000Y0243974D02*
X0142506Y0243974D01*
X0142987Y0245572D02*
X0281000Y0245572D01*
X0281000Y0247171D02*
X0142846Y0247171D01*
X0142027Y0248769D02*
X0227025Y0248769D01*
X0239375Y0248769D02*
X0252625Y0248769D01*
X0253194Y0248200D02*
X0254885Y0247500D01*
X0262715Y0247500D01*
X0264406Y0248200D01*
X0265700Y0249494D01*
X0266400Y0251185D01*
X0266400Y0253015D01*
X0265700Y0254706D01*
X0264406Y0256000D01*
X0262715Y0256700D01*
X0254885Y0256700D01*
X0253194Y0256000D01*
X0251900Y0254706D01*
X0251200Y0253015D01*
X0251200Y0251185D01*
X0251900Y0249494D01*
X0253194Y0248200D01*
X0251538Y0250368D02*
X0240461Y0250368D01*
X0240800Y0251966D02*
X0251200Y0251966D01*
X0251428Y0253565D02*
X0240572Y0253565D01*
X0239642Y0255163D02*
X0252358Y0255163D01*
X0254885Y0265300D02*
X0253194Y0266000D01*
X0251900Y0267294D01*
X0251200Y0268985D01*
X0251200Y0270815D01*
X0251900Y0272506D01*
X0253194Y0273800D01*
X0254885Y0274500D01*
X0262715Y0274500D01*
X0264406Y0273800D01*
X0265700Y0272506D01*
X0266400Y0270815D01*
X0266400Y0268985D01*
X0265700Y0267294D01*
X0264406Y0266000D01*
X0262715Y0265300D01*
X0254885Y0265300D01*
X0252842Y0266353D02*
X0239158Y0266353D01*
X0240372Y0267951D02*
X0251628Y0267951D01*
X0251200Y0269550D02*
X0240800Y0269550D01*
X0240662Y0271148D02*
X0251338Y0271148D01*
X0252142Y0272747D02*
X0239858Y0272747D01*
X0237488Y0274345D02*
X0254512Y0274345D01*
X0263088Y0274345D02*
X0281000Y0274345D01*
X0281000Y0272747D02*
X0265458Y0272747D01*
X0266262Y0271148D02*
X0281000Y0271148D01*
X0281000Y0269550D02*
X0266400Y0269550D01*
X0265972Y0267951D02*
X0281000Y0267951D01*
X0281000Y0266353D02*
X0264758Y0266353D01*
X0265242Y0255163D02*
X0281000Y0255163D01*
X0281000Y0253565D02*
X0266172Y0253565D01*
X0266400Y0251966D02*
X0281000Y0251966D01*
X0281000Y0250368D02*
X0266061Y0250368D01*
X0264975Y0248769D02*
X0281000Y0248769D01*
X0281000Y0263156D02*
X0141696Y0263156D01*
X0142630Y0264754D02*
X0281000Y0264754D01*
X0274662Y0282338D02*
X0140734Y0282338D01*
X0142291Y0283937D02*
X0273063Y0283937D01*
X0271465Y0285535D02*
X0142800Y0285535D01*
X0142677Y0287134D02*
X0269866Y0287134D01*
X0268268Y0288732D02*
X0141808Y0288732D01*
X0116000Y0288732D02*
X0116000Y0288732D01*
X0116000Y0287134D02*
X0116000Y0287134D01*
X0116000Y0290331D02*
X0116000Y0290331D01*
X0108323Y0298323D02*
X0258677Y0298323D01*
X0260275Y0296725D02*
X0106725Y0296725D01*
X0105126Y0295126D02*
X0261874Y0295126D01*
X0263472Y0293528D02*
X0103528Y0293528D01*
X0109922Y0299922D02*
X0257078Y0299922D01*
X0226028Y0267951D02*
X0142338Y0267951D01*
X0142800Y0266353D02*
X0227242Y0266353D01*
X0130903Y0242375D02*
X0120824Y0242375D01*
X0122307Y0243974D02*
X0129494Y0243974D01*
X0129013Y0245572D02*
X0122800Y0245572D01*
X0122661Y0247171D02*
X0129154Y0247171D01*
X0129973Y0248769D02*
X0121770Y0248769D01*
X0134056Y0149662D02*
X0137944Y0149662D01*
X0136346Y0148063D02*
X0135287Y0148063D01*
X0135750Y0146465D02*
X0136250Y0146465D01*
X0136250Y0144866D02*
X0135672Y0144866D01*
X0134985Y0143268D02*
X0137015Y0143268D01*
X0138613Y0141669D02*
X0132956Y0141669D01*
D17*
X0191000Y0166000D03*
X0221000Y0206000D03*
X0221000Y0231000D03*
M02*
