G75*
%MOIN*%
%OFA0B0*%
%FSLAX26Y26*%
%IPPOS*%
%LPD*%
%AMOC8*
5,1,8,0,0,1.08239X$1,22.5*
%
%ADD10R,0.029921X0.070866*%
%ADD11R,0.070866X0.029921*%
%ADD12R,0.070866X0.125984*%
%ADD13R,0.125984X0.070866*%
D10*
X01750000Y01540551D03*
X01800000Y01540551D03*
X01850000Y01540551D03*
X01900000Y01540551D03*
X01950000Y01540551D03*
X02000000Y01540551D03*
X02050000Y01540551D03*
X02100000Y01540551D03*
X02150000Y01540551D03*
X02200000Y01540551D03*
X02250000Y01540551D03*
X02250000Y02159449D03*
X02200000Y02159449D03*
X02150000Y02159449D03*
X02100000Y02159449D03*
X02050000Y02159449D03*
X02000000Y02159449D03*
X01950000Y02159449D03*
X01900000Y02159449D03*
X01850000Y02159449D03*
X01800000Y02159449D03*
X01750000Y02159449D03*
D11*
X01690551Y02100000D03*
X01690551Y02050000D03*
X01690551Y02000000D03*
X01690551Y01950000D03*
X01690551Y01900000D03*
X01690551Y01850000D03*
X01690551Y01800000D03*
X01690551Y01750000D03*
X01690551Y01700000D03*
X01690551Y01650000D03*
X01690551Y01600000D03*
X02309449Y01600000D03*
X02309449Y01650000D03*
X02309449Y01700000D03*
X02309449Y01750000D03*
X02309449Y01800000D03*
X02309449Y01850000D03*
X02309449Y01900000D03*
X02309449Y01950000D03*
X02309449Y02000000D03*
X02309449Y02050000D03*
X02309449Y02100000D03*
D12*
X02310236Y02300000D03*
X02089764Y02300000D03*
X01360236Y02300000D03*
X01139764Y02300000D03*
X01139764Y02100000D03*
X01360236Y02100000D03*
X01360236Y01900000D03*
X01139764Y01900000D03*
X01139764Y01700000D03*
X01360236Y01700000D03*
D13*
X01500000Y02489764D03*
X01700000Y02489764D03*
X01900000Y02489764D03*
X02100000Y02489764D03*
X02100000Y02710236D03*
X01900000Y02710236D03*
X01700000Y02710236D03*
X01500000Y02710236D03*
M02*
