G75*
%MOIN*%
%OFA0B0*%
%FSLAX25Y25*%
%IPPOS*%
%LPD*%
%AMOC8*
5,1,8,0,0,1.08239X$1,22.5*
%
%ADD10OC8,0.06000*%
%ADD11OC8,0.07100*%
%ADD12C,0.07100*%
%ADD13C,0.06000*%
%ADD14C,0.06000*%
%ADD15C,0.06800*%
%ADD16R,0.06115X0.06115*%
D10*
X0251000Y0156000D03*
X0261000Y0156000D03*
X0261000Y0181000D03*
X0251000Y0181000D03*
D11*
X0141000Y0146000D03*
D12*
X0131000Y0146000D03*
D13*
X0133400Y0246000D02*
X0138600Y0246000D01*
X0138600Y0256000D02*
X0133400Y0256000D01*
X0133400Y0266000D02*
X0138600Y0266000D01*
X0138600Y0276000D02*
X0133400Y0276000D01*
X0133400Y0286000D02*
X0138600Y0286000D01*
X0118600Y0286000D02*
X0113400Y0286000D01*
X0113400Y0276000D02*
X0118600Y0276000D01*
X0118600Y0266000D02*
X0113400Y0266000D01*
X0113400Y0256000D02*
X0118600Y0256000D01*
X0118600Y0246000D02*
X0113400Y0246000D01*
D14*
X0246000Y0206000D03*
X0256000Y0206000D03*
D15*
X0166000Y0129000D02*
X0166000Y0123000D01*
X0176000Y0123000D02*
X0176000Y0129000D01*
X0186000Y0129000D02*
X0186000Y0123000D01*
X0196000Y0123000D02*
X0196000Y0129000D01*
X0206000Y0129000D02*
X0206000Y0123000D01*
X0216000Y0123000D02*
X0216000Y0129000D01*
X0226000Y0129000D02*
X0226000Y0123000D01*
X0236000Y0123000D02*
X0236000Y0129000D01*
X0236200Y0252100D02*
X0230200Y0252100D01*
X0230200Y0269900D02*
X0236200Y0269900D01*
X0255800Y0269900D02*
X0261800Y0269900D01*
X0261800Y0252100D02*
X0255800Y0252100D01*
D16*
X0221000Y0231000D03*
X0221000Y0206000D03*
X0191000Y0166000D03*
M02*
