G75*
%MOIN*%
%OFA0B0*%
%FSLAX26Y26*%
%IPPOS*%
%LPD*%
%AMOC8*
5,1,8,0,0,1.08239X$1,22.5*
%
%ADD10OC8,0.052000*%
%ADD11OC8,0.063000*%
%ADD12C,0.063000*%
%ADD13C,0.052000*%
%ADD14C,0.052000*%
%ADD15C,0.060000*%
%ADD16C,0.016000*%
%ADD17R,0.053150X0.053150*%
D10*
X02500000Y01550000D03*
X02600000Y01550000D03*
X02600000Y01800000D03*
X02500000Y01800000D03*
D11*
X01400000Y01450000D03*
D12*
X01300000Y01450000D03*
D13*
X01324000Y02450000D02*
X01376000Y02450000D01*
X01376000Y02550000D02*
X01324000Y02550000D01*
X01324000Y02650000D02*
X01376000Y02650000D01*
X01376000Y02750000D02*
X01324000Y02750000D01*
X01324000Y02850000D02*
X01376000Y02850000D01*
X01176000Y02850000D02*
X01124000Y02850000D01*
X01124000Y02750000D02*
X01176000Y02750000D01*
X01176000Y02650000D02*
X01124000Y02650000D01*
X01124000Y02550000D02*
X01176000Y02550000D01*
X01176000Y02450000D02*
X01124000Y02450000D01*
D14*
X02450000Y02050000D03*
X02550000Y02050000D03*
D15*
X02548000Y02511000D02*
X02608000Y02511000D01*
X02608000Y02689000D02*
X02548000Y02689000D01*
X02352000Y02689000D02*
X02292000Y02689000D01*
X02292000Y02511000D02*
X02352000Y02511000D01*
X02350000Y01280000D02*
X02350000Y01220000D01*
X02250000Y01220000D02*
X02250000Y01280000D01*
X02150000Y01280000D02*
X02150000Y01220000D01*
X02050000Y01220000D02*
X02050000Y01280000D01*
X01950000Y01280000D02*
X01950000Y01220000D01*
X01850000Y01220000D02*
X01850000Y01280000D01*
X01750000Y01280000D02*
X01750000Y01220000D01*
X01650000Y01220000D02*
X01650000Y01280000D01*
D16*
X01094097Y01055903D02*
X02605903Y01055903D01*
X02600000Y01050000D02*
X01100000Y01050000D01*
X00900000Y01250000D01*
X00900000Y02800000D01*
X01100000Y03000000D01*
X02550000Y03000000D01*
X02800000Y02750000D01*
X02800000Y01250000D01*
X02600000Y01050000D01*
X02621901Y01071901D02*
X01078099Y01071901D01*
X01062100Y01087900D02*
X02637900Y01087900D01*
X02653898Y01103898D02*
X01046102Y01103898D01*
X01030103Y01119897D02*
X02669897Y01119897D01*
X02685895Y01135895D02*
X01014105Y01135895D01*
X00998106Y01151894D02*
X02701894Y01151894D01*
X02717892Y01167892D02*
X00982108Y01167892D01*
X00966109Y01183891D02*
X01621055Y01183891D01*
X01623943Y01181003D02*
X01640850Y01174000D01*
X01659150Y01174000D01*
X01676057Y01181003D01*
X01688997Y01193943D01*
X01696000Y01210850D01*
X01696000Y01289150D01*
X01688997Y01306057D01*
X01676057Y01318997D01*
X01659150Y01326000D01*
X01640850Y01326000D01*
X01623943Y01318997D01*
X01611003Y01306057D01*
X01604000Y01289150D01*
X01604000Y01210850D01*
X01611003Y01193943D01*
X01623943Y01181003D01*
X01608540Y01199889D02*
X00950111Y01199889D01*
X00934112Y01215888D02*
X01604000Y01215888D01*
X01604000Y01231886D02*
X00918114Y01231886D01*
X00902115Y01247885D02*
X01604000Y01247885D01*
X01604000Y01263883D02*
X00900000Y01263883D01*
X00900000Y01279882D02*
X01604000Y01279882D01*
X01606788Y01295880D02*
X00900000Y01295880D01*
X00900000Y01311879D02*
X01616825Y01311879D01*
X01683175Y01311879D02*
X01716825Y01311879D01*
X01711003Y01306057D02*
X01704000Y01289150D01*
X01704000Y01210850D01*
X01711003Y01193943D01*
X01723943Y01181003D01*
X01740850Y01174000D01*
X01759150Y01174000D01*
X01776057Y01181003D01*
X01788997Y01193943D01*
X01796000Y01210850D01*
X01796000Y01289150D01*
X01788997Y01306057D01*
X01776057Y01318997D01*
X01759150Y01326000D01*
X01740850Y01326000D01*
X01723943Y01318997D01*
X01711003Y01306057D01*
X01706788Y01295880D02*
X01693212Y01295880D01*
X01696000Y01279882D02*
X01704000Y01279882D01*
X01704000Y01263883D02*
X01696000Y01263883D01*
X01696000Y01247885D02*
X01704000Y01247885D01*
X01704000Y01231886D02*
X01696000Y01231886D01*
X01696000Y01215888D02*
X01704000Y01215888D01*
X01708540Y01199889D02*
X01691460Y01199889D01*
X01678945Y01183891D02*
X01721055Y01183891D01*
X01778945Y01183891D02*
X01821055Y01183891D01*
X01823943Y01181003D02*
X01840850Y01174000D01*
X01859150Y01174000D01*
X01876057Y01181003D01*
X01888997Y01193943D01*
X01896000Y01210850D01*
X01896000Y01289150D01*
X01888997Y01306057D01*
X01876057Y01318997D01*
X01859150Y01326000D01*
X01840850Y01326000D01*
X01823943Y01318997D01*
X01811003Y01306057D01*
X01804000Y01289150D01*
X01804000Y01210850D01*
X01811003Y01193943D01*
X01823943Y01181003D01*
X01808540Y01199889D02*
X01791460Y01199889D01*
X01796000Y01215888D02*
X01804000Y01215888D01*
X01804000Y01231886D02*
X01796000Y01231886D01*
X01796000Y01247885D02*
X01804000Y01247885D01*
X01804000Y01263883D02*
X01796000Y01263883D01*
X01796000Y01279882D02*
X01804000Y01279882D01*
X01806788Y01295880D02*
X01793212Y01295880D01*
X01783175Y01311879D02*
X01816825Y01311879D01*
X01883175Y01311879D02*
X01916825Y01311879D01*
X01911003Y01306057D02*
X01904000Y01289150D01*
X01904000Y01210850D01*
X01911003Y01193943D01*
X01923943Y01181003D01*
X01940850Y01174000D01*
X01959150Y01174000D01*
X01976057Y01181003D01*
X01988997Y01193943D01*
X01996000Y01210850D01*
X01996000Y01289150D01*
X01988997Y01306057D01*
X01976057Y01318997D01*
X01959150Y01326000D01*
X01940850Y01326000D01*
X01923943Y01318997D01*
X01911003Y01306057D01*
X01906788Y01295880D02*
X01893212Y01295880D01*
X01896000Y01279882D02*
X01904000Y01279882D01*
X01904000Y01263883D02*
X01896000Y01263883D01*
X01896000Y01247885D02*
X01904000Y01247885D01*
X01904000Y01231886D02*
X01896000Y01231886D01*
X01896000Y01215888D02*
X01904000Y01215888D01*
X01908540Y01199889D02*
X01891460Y01199889D01*
X01878945Y01183891D02*
X01921055Y01183891D01*
X01978945Y01183891D02*
X02021055Y01183891D01*
X02023943Y01181003D02*
X02040850Y01174000D01*
X02059150Y01174000D01*
X02076057Y01181003D01*
X02088997Y01193943D01*
X02096000Y01210850D01*
X02096000Y01289150D01*
X02088997Y01306057D01*
X02076057Y01318997D01*
X02059150Y01326000D01*
X02040850Y01326000D01*
X02023943Y01318997D01*
X02011003Y01306057D01*
X02004000Y01289150D01*
X02004000Y01210850D01*
X02011003Y01193943D01*
X02023943Y01181003D01*
X02008540Y01199889D02*
X01991460Y01199889D01*
X01996000Y01215888D02*
X02004000Y01215888D01*
X02004000Y01231886D02*
X01996000Y01231886D01*
X01996000Y01247885D02*
X02004000Y01247885D01*
X02004000Y01263883D02*
X01996000Y01263883D01*
X01996000Y01279882D02*
X02004000Y01279882D01*
X02006788Y01295880D02*
X01993212Y01295880D01*
X01983175Y01311879D02*
X02016825Y01311879D01*
X02083175Y01311879D02*
X02116825Y01311879D01*
X02111003Y01306057D02*
X02104000Y01289150D01*
X02104000Y01210850D01*
X02111003Y01193943D01*
X02123943Y01181003D01*
X02140850Y01174000D01*
X02159150Y01174000D01*
X02176057Y01181003D01*
X02188997Y01193943D01*
X02196000Y01210850D01*
X02196000Y01289150D01*
X02188997Y01306057D01*
X02176057Y01318997D01*
X02159150Y01326000D01*
X02140850Y01326000D01*
X02123943Y01318997D01*
X02111003Y01306057D01*
X02106788Y01295880D02*
X02093212Y01295880D01*
X02096000Y01279882D02*
X02104000Y01279882D01*
X02104000Y01263883D02*
X02096000Y01263883D01*
X02096000Y01247885D02*
X02104000Y01247885D01*
X02104000Y01231886D02*
X02096000Y01231886D01*
X02096000Y01215888D02*
X02104000Y01215888D01*
X02108540Y01199889D02*
X02091460Y01199889D01*
X02078945Y01183891D02*
X02121055Y01183891D01*
X02178945Y01183891D02*
X02221055Y01183891D01*
X02223943Y01181003D02*
X02240850Y01174000D01*
X02259150Y01174000D01*
X02276057Y01181003D01*
X02288997Y01193943D01*
X02296000Y01210850D01*
X02296000Y01289150D01*
X02288997Y01306057D01*
X02276057Y01318997D01*
X02259150Y01326000D01*
X02240850Y01326000D01*
X02223943Y01318997D01*
X02211003Y01306057D01*
X02204000Y01289150D01*
X02204000Y01210850D01*
X02211003Y01193943D01*
X02223943Y01181003D01*
X02208540Y01199889D02*
X02191460Y01199889D01*
X02196000Y01215888D02*
X02204000Y01215888D01*
X02204000Y01231886D02*
X02196000Y01231886D01*
X02196000Y01247885D02*
X02204000Y01247885D01*
X02204000Y01263883D02*
X02196000Y01263883D01*
X02196000Y01279882D02*
X02204000Y01279882D01*
X02206788Y01295880D02*
X02193212Y01295880D01*
X02183175Y01311879D02*
X02216825Y01311879D01*
X02283175Y01311879D02*
X02316825Y01311879D01*
X02311003Y01306057D02*
X02304000Y01289150D01*
X02304000Y01210850D01*
X02311003Y01193943D01*
X02323943Y01181003D01*
X02340850Y01174000D01*
X02359150Y01174000D01*
X02376057Y01181003D01*
X02388997Y01193943D01*
X02396000Y01210850D01*
X02396000Y01289150D01*
X02388997Y01306057D01*
X02376057Y01318997D01*
X02359150Y01326000D01*
X02340850Y01326000D01*
X02323943Y01318997D01*
X02311003Y01306057D01*
X02306788Y01295880D02*
X02293212Y01295880D01*
X02296000Y01279882D02*
X02304000Y01279882D01*
X02304000Y01263883D02*
X02296000Y01263883D01*
X02296000Y01247885D02*
X02304000Y01247885D01*
X02304000Y01231886D02*
X02296000Y01231886D01*
X02296000Y01215888D02*
X02304000Y01215888D01*
X02308540Y01199889D02*
X02291460Y01199889D01*
X02278945Y01183891D02*
X02321055Y01183891D01*
X02378945Y01183891D02*
X02733891Y01183891D01*
X02749889Y01199889D02*
X02391460Y01199889D01*
X02396000Y01215888D02*
X02765888Y01215888D01*
X02781886Y01231886D02*
X02396000Y01231886D01*
X02396000Y01247885D02*
X02797885Y01247885D01*
X02800000Y01263883D02*
X02396000Y01263883D01*
X02396000Y01279882D02*
X02800000Y01279882D01*
X02800000Y01295880D02*
X02393212Y01295880D01*
X02383175Y01311879D02*
X02800000Y01311879D01*
X02800000Y01327877D02*
X00900000Y01327877D01*
X00900000Y01343876D02*
X02800000Y01343876D01*
X02800000Y01359875D02*
X00900000Y01359875D01*
X00900000Y01375873D02*
X02800000Y01375873D01*
X02800000Y01391872D02*
X00900000Y01391872D01*
X00900000Y01407870D02*
X01277587Y01407870D01*
X01273093Y01409731D02*
X01290552Y01402500D01*
X01309448Y01402500D01*
X01326906Y01409731D01*
X01340268Y01423093D01*
X01347500Y01440552D01*
X01347500Y01459448D01*
X01340268Y01476906D01*
X01326906Y01490268D01*
X01309448Y01497500D01*
X01290552Y01497500D01*
X01273093Y01490268D01*
X01259731Y01476906D01*
X01252500Y01459448D01*
X01252500Y01440552D01*
X01259731Y01423093D01*
X01273093Y01409731D01*
X01259410Y01423869D02*
X00900000Y01423869D01*
X00900000Y01439867D02*
X01252783Y01439867D01*
X01252500Y01455866D02*
X00900000Y01455866D01*
X00900000Y01471864D02*
X01257643Y01471864D01*
X01270688Y01487863D02*
X00900000Y01487863D01*
X00900000Y01503861D02*
X01719920Y01503861D01*
X01703922Y01487863D02*
X01429312Y01487863D01*
X01419675Y01497500D02*
X01443175Y01474000D01*
X01690059Y01474000D01*
X01857425Y01641366D01*
X01857425Y01683202D01*
X01866798Y01692575D01*
X01933202Y01692575D01*
X01942575Y01683202D01*
X01942575Y01616798D01*
X01933202Y01607425D01*
X01891366Y01607425D01*
X01713595Y01429654D01*
X01704774Y01426000D01*
X01443175Y01426000D01*
X01419675Y01402500D01*
X01380325Y01402500D01*
X01352500Y01430325D01*
X01352500Y01469675D01*
X01380325Y01497500D01*
X01419675Y01497500D01*
X01400000Y01450000D02*
X01700000Y01450000D01*
X01900000Y01650000D01*
X01942575Y01647848D02*
X02568211Y01647848D01*
X02576000Y01640059D02*
X02576000Y01585397D01*
X02558000Y01567397D01*
X02558000Y01532603D01*
X02582603Y01508000D01*
X02617397Y01508000D01*
X02642000Y01532603D01*
X02642000Y01567397D01*
X02624000Y01585397D01*
X02624000Y01654774D01*
X02620346Y01663595D01*
X02613595Y01670346D01*
X02574000Y01709941D01*
X02574000Y01766603D01*
X02582603Y01758000D01*
X02617397Y01758000D01*
X02642000Y01782603D01*
X02642000Y01817397D01*
X02624000Y01835397D01*
X02624000Y02004774D01*
X02620346Y02013595D01*
X02613595Y02020346D01*
X02592000Y02041941D01*
X02592000Y02058354D01*
X02585606Y02073791D01*
X02573791Y02085606D01*
X02558354Y02092000D01*
X02541646Y02092000D01*
X02526209Y02085606D01*
X02514394Y02073791D01*
X02508000Y02058354D01*
X02508000Y02041646D01*
X02514394Y02026209D01*
X02526209Y02014394D01*
X02541646Y02008000D01*
X02558059Y02008000D01*
X02576000Y01990059D01*
X02576000Y01835397D01*
X02574000Y01833397D01*
X02574000Y01904774D01*
X02570346Y01913595D01*
X02563595Y01920346D01*
X02474000Y02009941D01*
X02474000Y02014603D01*
X02485606Y02026209D01*
X02492000Y02041646D01*
X02492000Y02058354D01*
X02485606Y02073791D01*
X02473791Y02085606D01*
X02458354Y02092000D01*
X02441646Y02092000D01*
X02426209Y02085606D01*
X02414394Y02073791D01*
X02408000Y02058354D01*
X02408000Y02041646D01*
X02414394Y02026209D01*
X02426000Y02014603D01*
X02426000Y01995226D01*
X02429654Y01986405D01*
X02526000Y01890059D01*
X02526000Y01836225D01*
X02518225Y01844000D01*
X02500000Y01844000D01*
X02500000Y01800001D01*
X02499999Y01800001D01*
X02499999Y01844000D01*
X02481775Y01844000D01*
X02456000Y01818225D01*
X02456000Y01800000D01*
X02499999Y01800000D01*
X02499999Y01799999D01*
X02500000Y01799999D01*
X02500000Y01756000D01*
X02518225Y01756000D01*
X02526000Y01763775D01*
X02526000Y01695226D01*
X02529654Y01686405D01*
X02576000Y01640059D01*
X02576000Y01631849D02*
X01942575Y01631849D01*
X01941628Y01615851D02*
X02576000Y01615851D01*
X02576000Y01599852D02*
X01883793Y01599852D01*
X01867795Y01583854D02*
X02471629Y01583854D01*
X02481775Y01594000D02*
X02456000Y01568225D01*
X02456000Y01550000D01*
X02499999Y01550000D01*
X02499999Y01549999D01*
X02500000Y01549999D01*
X02500000Y01506000D01*
X02518225Y01506000D01*
X02544000Y01531775D01*
X02544000Y01549999D01*
X02500001Y01549999D01*
X02500001Y01550000D01*
X02544000Y01550000D01*
X02544000Y01568225D01*
X02518225Y01594000D01*
X02500000Y01594000D01*
X02500000Y01550001D01*
X02499999Y01550001D01*
X02499999Y01594000D01*
X02481775Y01594000D01*
X02499999Y01583854D02*
X02500000Y01583854D01*
X02499999Y01567855D02*
X02500000Y01567855D01*
X02499999Y01551857D02*
X02500000Y01551857D01*
X02500000Y01550000D02*
X02500000Y01800000D01*
X02000000Y01800000D01*
X01350000Y02450000D01*
X01300000Y02450000D01*
X01250000Y02500000D01*
X01250000Y02750000D01*
X01150000Y02850000D01*
X01150000Y02850001D02*
X01149999Y02850001D01*
X01149999Y02894000D01*
X01120537Y02894000D01*
X01113697Y02892916D01*
X01107110Y02890776D01*
X01100939Y02887632D01*
X01095336Y02883561D01*
X01090439Y02878664D01*
X01086368Y02873061D01*
X01083224Y02866890D01*
X01081083Y02860303D01*
X01080000Y02853463D01*
X01080000Y02850000D01*
X01149999Y02850000D01*
X01149999Y02849999D01*
X01150000Y02849999D01*
X01150000Y02806000D01*
X01179463Y02806000D01*
X01186303Y02807083D01*
X01192890Y02809224D01*
X01199061Y02812368D01*
X01204664Y02816439D01*
X01209561Y02821336D01*
X01213632Y02826939D01*
X01216776Y02833110D01*
X01218916Y02839697D01*
X01220000Y02846537D01*
X01220000Y02849999D01*
X01150001Y02849999D01*
X01150001Y02850000D01*
X01220000Y02850000D01*
X01220000Y02853463D01*
X01218916Y02860303D01*
X01216776Y02866890D01*
X01213632Y02873061D01*
X01209561Y02878664D01*
X01204664Y02883561D01*
X01199061Y02887632D01*
X01192890Y02890776D01*
X01186303Y02892916D01*
X01179463Y02894000D01*
X01150000Y02894000D01*
X01150000Y02850001D01*
X01149999Y02849999D02*
X01080000Y02849999D01*
X01080000Y02846537D01*
X01081083Y02839697D01*
X01083224Y02833110D01*
X01086368Y02826939D01*
X01090439Y02821336D01*
X01095336Y02816439D01*
X01100939Y02812368D01*
X01107110Y02809224D01*
X01113697Y02807083D01*
X01120537Y02806000D01*
X01149999Y02806000D01*
X01149999Y02849999D01*
X01149999Y02847737D02*
X01150000Y02847737D01*
X01149999Y02831739D02*
X01150000Y02831739D01*
X01149999Y02815740D02*
X01150000Y02815740D01*
X01184354Y02792000D02*
X01115646Y02792000D01*
X01100209Y02785606D01*
X01088394Y02773791D01*
X01082000Y02758354D01*
X01082000Y02741646D01*
X01088394Y02726209D01*
X01100209Y02714394D01*
X01115646Y02708000D01*
X01184354Y02708000D01*
X01199791Y02714394D01*
X01211606Y02726209D01*
X01218000Y02741646D01*
X01218000Y02758354D01*
X01211606Y02773791D01*
X01199791Y02785606D01*
X01184354Y02792000D01*
X01201654Y02783743D02*
X01298346Y02783743D01*
X01300209Y02785606D02*
X01288394Y02773791D01*
X01282000Y02758354D01*
X01282000Y02741646D01*
X01288394Y02726209D01*
X01300209Y02714394D01*
X01315646Y02708000D01*
X01384354Y02708000D01*
X01399791Y02714394D01*
X01411606Y02726209D01*
X01418000Y02741646D01*
X01418000Y02758354D01*
X01411606Y02773791D01*
X01399791Y02785606D01*
X01384354Y02792000D01*
X01315646Y02792000D01*
X01300209Y02785606D01*
X01285890Y02767745D02*
X01214110Y02767745D01*
X01218000Y02751746D02*
X01282000Y02751746D01*
X01284443Y02735748D02*
X01215557Y02735748D01*
X01205146Y02719749D02*
X01294854Y02719749D01*
X01305390Y02687752D02*
X01194610Y02687752D01*
X01199791Y02685606D02*
X01184354Y02692000D01*
X01115646Y02692000D01*
X01100209Y02685606D01*
X01088394Y02673791D01*
X01082000Y02658354D01*
X01082000Y02641646D01*
X01088394Y02626209D01*
X01100209Y02614394D01*
X01115646Y02608000D01*
X01184354Y02608000D01*
X01199791Y02614394D01*
X01211606Y02626209D01*
X01218000Y02641646D01*
X01218000Y02658354D01*
X01211606Y02673791D01*
X01199791Y02685606D01*
X01212450Y02671753D02*
X01287550Y02671753D01*
X01288394Y02673791D02*
X01282000Y02658354D01*
X01282000Y02641646D01*
X01288394Y02626209D01*
X01300209Y02614394D01*
X01315646Y02608000D01*
X01384354Y02608000D01*
X01399791Y02614394D01*
X01411606Y02626209D01*
X01418000Y02641646D01*
X01418000Y02658354D01*
X01411606Y02673791D01*
X01399791Y02685606D01*
X01384354Y02692000D01*
X01315646Y02692000D01*
X01300209Y02685606D01*
X01288394Y02673791D01*
X01282000Y02655755D02*
X01218000Y02655755D01*
X01217217Y02639756D02*
X01282782Y02639756D01*
X01290845Y02623758D02*
X01209155Y02623758D01*
X01199791Y02585606D02*
X01184354Y02592000D01*
X01115646Y02592000D01*
X01100209Y02585606D01*
X01088394Y02573791D01*
X01082000Y02558354D01*
X01082000Y02541646D01*
X01088394Y02526209D01*
X01100209Y02514394D01*
X01115646Y02508000D01*
X01184354Y02508000D01*
X01199791Y02514394D01*
X01211606Y02526209D01*
X01218000Y02541646D01*
X01218000Y02558354D01*
X01211606Y02573791D01*
X01199791Y02585606D01*
X01209634Y02575762D02*
X01290365Y02575762D01*
X01288394Y02573791D02*
X01282000Y02558354D01*
X01282000Y02541646D01*
X01288394Y02526209D01*
X01300209Y02514394D01*
X01315646Y02508000D01*
X01384354Y02508000D01*
X01399791Y02514394D01*
X01411606Y02526209D01*
X01418000Y02541646D01*
X01418000Y02558354D01*
X01411606Y02573791D01*
X01399791Y02585606D01*
X01384354Y02592000D01*
X01315646Y02592000D01*
X01300209Y02585606D01*
X01288394Y02573791D01*
X01282584Y02559764D02*
X01217416Y02559764D01*
X01218000Y02543765D02*
X01282000Y02543765D01*
X01287749Y02527767D02*
X01212251Y02527767D01*
X01193452Y02511768D02*
X01306548Y02511768D01*
X01313697Y02492916D02*
X01320537Y02494000D01*
X01349999Y02494000D01*
X01349999Y02450001D01*
X01350000Y02450001D01*
X01350000Y02494000D01*
X01379463Y02494000D01*
X01386303Y02492916D01*
X01392890Y02490776D01*
X01399061Y02487632D01*
X01404664Y02483561D01*
X01409561Y02478664D01*
X01413632Y02473061D01*
X01416776Y02466890D01*
X01418916Y02460303D01*
X01420000Y02453463D01*
X01420000Y02450000D01*
X01350001Y02450000D01*
X01350001Y02449999D01*
X01420000Y02449999D01*
X01420000Y02446537D01*
X01418916Y02439697D01*
X01416776Y02433110D01*
X01413632Y02426939D01*
X01409561Y02421336D01*
X01404664Y02416439D01*
X01399061Y02412368D01*
X01392890Y02409224D01*
X01386303Y02407083D01*
X01379463Y02406000D01*
X01350000Y02406000D01*
X01350000Y02449999D01*
X01349999Y02449999D01*
X01349999Y02406000D01*
X01320537Y02406000D01*
X01313697Y02407083D01*
X01307110Y02409224D01*
X01300939Y02412368D01*
X01295336Y02416439D01*
X01290439Y02421336D01*
X01286368Y02426939D01*
X01283224Y02433110D01*
X01281083Y02439697D01*
X01280000Y02446537D01*
X01280000Y02449999D01*
X01349999Y02449999D01*
X01349999Y02450000D01*
X01280000Y02450000D01*
X01280000Y02453463D01*
X01281083Y02460303D01*
X01283224Y02466890D01*
X01286368Y02473061D01*
X01290439Y02478664D01*
X01295336Y02483561D01*
X01300939Y02487632D01*
X01307110Y02490776D01*
X01313697Y02492916D01*
X01291546Y02479771D02*
X01205626Y02479771D01*
X01199791Y02485606D02*
X01184354Y02492000D01*
X01115646Y02492000D01*
X01100209Y02485606D01*
X01088394Y02473791D01*
X01082000Y02458354D01*
X01082000Y02441646D01*
X01088394Y02426209D01*
X01100209Y02414394D01*
X01115646Y02408000D01*
X01184354Y02408000D01*
X01199791Y02414394D01*
X01211606Y02426209D01*
X01218000Y02441646D01*
X01218000Y02458354D01*
X01211606Y02473791D01*
X01199791Y02485606D01*
X01215756Y02463773D02*
X01282211Y02463773D01*
X01280000Y02447774D02*
X01218000Y02447774D01*
X01213912Y02431776D02*
X01283903Y02431776D01*
X01296246Y02415777D02*
X01201174Y02415777D01*
X01098826Y02415777D02*
X00900000Y02415777D01*
X00900000Y02399779D02*
X02800000Y02399779D01*
X02800000Y02415777D02*
X01403753Y02415777D01*
X01416096Y02431776D02*
X02800000Y02431776D01*
X02800000Y02447774D02*
X01420000Y02447774D01*
X01417789Y02463773D02*
X02800000Y02463773D01*
X02800000Y02479771D02*
X02641825Y02479771D01*
X02646997Y02484943D02*
X02654000Y02501850D01*
X02654000Y02520150D01*
X02646997Y02537057D01*
X02634057Y02549997D01*
X02617150Y02557000D01*
X02538850Y02557000D01*
X02521943Y02549997D01*
X02509003Y02537057D01*
X02502000Y02520150D01*
X02502000Y02501850D01*
X02509003Y02484943D01*
X02521943Y02472003D01*
X02538850Y02465000D01*
X02617150Y02465000D01*
X02634057Y02472003D01*
X02646997Y02484943D01*
X02651481Y02495770D02*
X02800000Y02495770D01*
X02800000Y02511768D02*
X02654000Y02511768D01*
X02650845Y02527767D02*
X02800000Y02527767D01*
X02800000Y02543765D02*
X02640288Y02543765D01*
X02617150Y02643000D02*
X02538850Y02643000D01*
X02521943Y02650003D01*
X02509003Y02662943D01*
X02502000Y02679850D01*
X02502000Y02698150D01*
X02509003Y02715057D01*
X02521943Y02727997D01*
X02538850Y02735000D01*
X02617150Y02735000D01*
X02634057Y02727997D01*
X02646997Y02715057D01*
X02654000Y02698150D01*
X02654000Y02679850D01*
X02646997Y02662943D01*
X02634057Y02650003D01*
X02617150Y02643000D01*
X02639809Y02655755D02*
X02800000Y02655755D01*
X02800000Y02671753D02*
X02650646Y02671753D01*
X02654000Y02687752D02*
X02800000Y02687752D01*
X02800000Y02703750D02*
X02651680Y02703750D01*
X02642305Y02719749D02*
X02800000Y02719749D01*
X02800000Y02735748D02*
X01415557Y02735748D01*
X01418000Y02751746D02*
X02798254Y02751746D01*
X02782255Y02767745D02*
X01414110Y02767745D01*
X01401654Y02783743D02*
X02766257Y02783743D01*
X02750258Y02799742D02*
X00900000Y02799742D01*
X00900000Y02783743D02*
X01098346Y02783743D01*
X01085890Y02767745D02*
X00900000Y02767745D01*
X00900000Y02751746D02*
X01082000Y02751746D01*
X01084443Y02735748D02*
X00900000Y02735748D01*
X00900000Y02719749D02*
X01094854Y02719749D01*
X01105390Y02687752D02*
X00900000Y02687752D01*
X00900000Y02703750D02*
X02248320Y02703750D01*
X02246000Y02698150D02*
X02246000Y02679850D01*
X02253003Y02662943D01*
X02265943Y02650003D01*
X02282850Y02643000D01*
X02361150Y02643000D01*
X02378057Y02650003D01*
X02390997Y02662943D01*
X02398000Y02679850D01*
X02398000Y02698150D01*
X02390997Y02715057D01*
X02378057Y02727997D01*
X02361150Y02735000D01*
X02282850Y02735000D01*
X02265943Y02727997D01*
X02253003Y02715057D01*
X02246000Y02698150D01*
X02246000Y02687752D02*
X01394610Y02687752D01*
X01412450Y02671753D02*
X02249354Y02671753D01*
X02260191Y02655755D02*
X01418000Y02655755D01*
X01417217Y02639756D02*
X02800000Y02639756D01*
X02800000Y02623758D02*
X01409155Y02623758D01*
X01384931Y02591761D02*
X02800000Y02591761D01*
X02800000Y02607759D02*
X00900000Y02607759D01*
X00900000Y02591761D02*
X01115069Y02591761D01*
X01090365Y02575762D02*
X00900000Y02575762D01*
X00900000Y02559764D02*
X01082584Y02559764D01*
X01082000Y02543765D02*
X00900000Y02543765D01*
X00900000Y02527767D02*
X01087749Y02527767D01*
X01106548Y02511768D02*
X00900000Y02511768D01*
X00900000Y02495770D02*
X02248518Y02495770D01*
X02246000Y02501850D02*
X02253003Y02484943D01*
X02265943Y02472003D01*
X02282850Y02465000D01*
X02361150Y02465000D01*
X02378057Y02472003D01*
X02390997Y02484943D01*
X02398000Y02501850D01*
X02398000Y02520150D01*
X02390997Y02537057D01*
X02378057Y02549997D01*
X02361150Y02557000D01*
X02282850Y02557000D01*
X02265943Y02549997D01*
X02253003Y02537057D01*
X02246000Y02520150D01*
X02246000Y02501850D01*
X02246000Y02511768D02*
X01393452Y02511768D01*
X01412251Y02527767D02*
X02249155Y02527767D01*
X02259711Y02543765D02*
X01418000Y02543765D01*
X01417416Y02559764D02*
X02800000Y02559764D01*
X02800000Y02575762D02*
X01409634Y02575762D01*
X01315069Y02591761D02*
X01184931Y02591761D01*
X01090845Y02623758D02*
X00900000Y02623758D01*
X00900000Y02639756D02*
X01082782Y02639756D01*
X01082000Y02655755D02*
X00900000Y02655755D01*
X00900000Y02671753D02*
X01087550Y02671753D01*
X01096297Y02815740D02*
X00915740Y02815740D01*
X00931739Y02831739D02*
X01083922Y02831739D01*
X01080000Y02847737D02*
X00947737Y02847737D01*
X00963736Y02863736D02*
X01082199Y02863736D01*
X01091509Y02879734D02*
X00979734Y02879734D01*
X00995733Y02895733D02*
X02654267Y02895733D01*
X02638269Y02911731D02*
X01011731Y02911731D01*
X01027730Y02927730D02*
X02622270Y02927730D01*
X02606272Y02943728D02*
X01043728Y02943728D01*
X01059727Y02959727D02*
X02590273Y02959727D01*
X02574275Y02975725D02*
X01075725Y02975725D01*
X01091724Y02991724D02*
X02558276Y02991724D01*
X02670266Y02879734D02*
X01405663Y02879734D01*
X01399791Y02885606D02*
X01384354Y02892000D01*
X01315646Y02892000D01*
X01300209Y02885606D01*
X01288394Y02873791D01*
X01282000Y02858354D01*
X01282000Y02841646D01*
X01288394Y02826209D01*
X01300209Y02814394D01*
X01315646Y02808000D01*
X01384354Y02808000D01*
X01399791Y02814394D01*
X01411606Y02826209D01*
X01418000Y02841646D01*
X01418000Y02858354D01*
X01411606Y02873791D01*
X01399791Y02885606D01*
X01415771Y02863736D02*
X02686264Y02863736D01*
X02702263Y02847737D02*
X01418000Y02847737D01*
X01413896Y02831739D02*
X02718261Y02831739D01*
X02734260Y02815740D02*
X01401137Y02815740D01*
X01298863Y02815740D02*
X01203703Y02815740D01*
X01216078Y02831739D02*
X01286103Y02831739D01*
X01282000Y02847737D02*
X01220000Y02847737D01*
X01217801Y02863736D02*
X01284229Y02863736D01*
X01294337Y02879734D02*
X01208491Y02879734D01*
X01150000Y02879734D02*
X01149999Y02879734D01*
X01149999Y02863736D02*
X01150000Y02863736D01*
X01405146Y02719749D02*
X02257695Y02719749D01*
X02386305Y02719749D02*
X02513695Y02719749D01*
X02504320Y02703750D02*
X02395680Y02703750D01*
X02398000Y02687752D02*
X02502000Y02687752D01*
X02505354Y02671753D02*
X02394646Y02671753D01*
X02383809Y02655755D02*
X02516191Y02655755D01*
X02515711Y02543765D02*
X02384288Y02543765D01*
X02394845Y02527767D02*
X02505155Y02527767D01*
X02502000Y02511768D02*
X02398000Y02511768D01*
X02395481Y02495770D02*
X02504518Y02495770D01*
X02514175Y02479771D02*
X02385825Y02479771D01*
X02258175Y02479771D02*
X01408454Y02479771D01*
X01350000Y02479771D02*
X01349999Y02479771D01*
X01349999Y02463773D02*
X01350000Y02463773D01*
X01349999Y02447774D02*
X01350000Y02447774D01*
X01349999Y02431776D02*
X01350000Y02431776D01*
X01349999Y02415777D02*
X01350000Y02415777D01*
X01094374Y02479771D02*
X00900000Y02479771D01*
X00900000Y02463773D02*
X01084244Y02463773D01*
X01082000Y02447774D02*
X00900000Y02447774D01*
X00900000Y02431776D02*
X01086088Y02431776D01*
X00900000Y02383780D02*
X02800000Y02383780D01*
X02800000Y02367781D02*
X00900000Y02367781D01*
X00900000Y02351783D02*
X02800000Y02351783D01*
X02800000Y02335784D02*
X02239992Y02335784D01*
X02242575Y02333202D02*
X02233202Y02342575D01*
X02166798Y02342575D01*
X02157425Y02333202D01*
X02157425Y02266798D01*
X02166798Y02257425D01*
X02176000Y02257425D01*
X02176000Y02092575D01*
X02166798Y02092575D01*
X02157425Y02083202D01*
X02157425Y02016798D01*
X02166798Y02007425D01*
X02233202Y02007425D01*
X02242575Y02016798D01*
X02242575Y02083202D01*
X02233202Y02092575D01*
X02224000Y02092575D01*
X02224000Y02257425D01*
X02233202Y02257425D01*
X02242575Y02266798D01*
X02242575Y02333202D01*
X02242575Y02319786D02*
X02800000Y02319786D01*
X02800000Y02303787D02*
X02242575Y02303787D01*
X02242575Y02287789D02*
X02800000Y02287789D01*
X02800000Y02271790D02*
X02242575Y02271790D01*
X02224000Y02255792D02*
X02800000Y02255792D01*
X02800000Y02239793D02*
X02224000Y02239793D01*
X02224000Y02223795D02*
X02800000Y02223795D01*
X02800000Y02207796D02*
X02224000Y02207796D01*
X02224000Y02191798D02*
X02800000Y02191798D01*
X02800000Y02175799D02*
X02224000Y02175799D01*
X02224000Y02159801D02*
X02800000Y02159801D01*
X02800000Y02143802D02*
X02224000Y02143802D01*
X02224000Y02127804D02*
X02800000Y02127804D01*
X02800000Y02111805D02*
X02224000Y02111805D01*
X02224000Y02095807D02*
X02800000Y02095807D01*
X02800000Y02079808D02*
X02579589Y02079808D01*
X02589740Y02063810D02*
X02800000Y02063810D01*
X02800000Y02047811D02*
X02592000Y02047811D01*
X02602128Y02031813D02*
X02800000Y02031813D01*
X02800000Y02015814D02*
X02618127Y02015814D01*
X02624000Y01999815D02*
X02800000Y01999815D01*
X02800000Y01983817D02*
X02624000Y01983817D01*
X02624000Y01967818D02*
X02800000Y01967818D01*
X02800000Y01951820D02*
X02624000Y01951820D01*
X02624000Y01935821D02*
X02800000Y01935821D01*
X02800000Y01919823D02*
X02624000Y01919823D01*
X02624000Y01903824D02*
X02800000Y01903824D01*
X02800000Y01887826D02*
X02624000Y01887826D01*
X02624000Y01871827D02*
X02800000Y01871827D01*
X02800000Y01855829D02*
X02624000Y01855829D01*
X02624000Y01839830D02*
X02800000Y01839830D01*
X02800000Y01823832D02*
X02635565Y01823832D01*
X02642000Y01807833D02*
X02800000Y01807833D01*
X02800000Y01791835D02*
X02642000Y01791835D01*
X02635233Y01775836D02*
X02800000Y01775836D01*
X02800000Y01759838D02*
X02619234Y01759838D01*
X02580765Y01759838D02*
X02574000Y01759838D01*
X02574000Y01743839D02*
X02800000Y01743839D01*
X02800000Y01727841D02*
X02574000Y01727841D01*
X02574000Y01711842D02*
X02800000Y01711842D01*
X02800000Y01695844D02*
X02588097Y01695844D01*
X02604096Y01679845D02*
X02800000Y01679845D01*
X02800000Y01663846D02*
X02620094Y01663846D01*
X02624000Y01647848D02*
X02800000Y01647848D01*
X02800000Y01631849D02*
X02624000Y01631849D01*
X02624000Y01615851D02*
X02800000Y01615851D01*
X02800000Y01599852D02*
X02624000Y01599852D01*
X02625543Y01583854D02*
X02800000Y01583854D01*
X02800000Y01567855D02*
X02641541Y01567855D01*
X02642000Y01551857D02*
X02800000Y01551857D01*
X02800000Y01535858D02*
X02642000Y01535858D01*
X02629257Y01519860D02*
X02800000Y01519860D01*
X02800000Y01503861D02*
X01787802Y01503861D01*
X01771804Y01487863D02*
X02800000Y01487863D01*
X02800000Y01471864D02*
X01755805Y01471864D01*
X01739807Y01455866D02*
X02800000Y01455866D01*
X02800000Y01439867D02*
X01723808Y01439867D01*
X01735919Y01519860D02*
X00900000Y01519860D01*
X00900000Y01535858D02*
X01751917Y01535858D01*
X01767916Y01551857D02*
X00900000Y01551857D01*
X00900000Y01567855D02*
X01783914Y01567855D01*
X01799913Y01583854D02*
X00900000Y01583854D01*
X00900000Y01599852D02*
X01815911Y01599852D01*
X01831910Y01615851D02*
X00900000Y01615851D01*
X00900000Y01631849D02*
X01847908Y01631849D01*
X01857425Y01647848D02*
X00900000Y01647848D01*
X00900000Y01663846D02*
X01857425Y01663846D01*
X01857425Y01679845D02*
X00900000Y01679845D01*
X00900000Y01695844D02*
X02526000Y01695844D01*
X02526000Y01711842D02*
X00900000Y01711842D01*
X00900000Y01727841D02*
X02526000Y01727841D01*
X02526000Y01743839D02*
X00900000Y01743839D01*
X00900000Y01759838D02*
X02477937Y01759838D01*
X02481775Y01756000D02*
X02499999Y01756000D01*
X02499999Y01799999D01*
X02456000Y01799999D01*
X02456000Y01781775D01*
X02481775Y01756000D01*
X02499999Y01759838D02*
X02500000Y01759838D01*
X02499999Y01775836D02*
X02500000Y01775836D01*
X02499999Y01791835D02*
X02500000Y01791835D01*
X02499999Y01807833D02*
X02500000Y01807833D01*
X02499999Y01823832D02*
X02500000Y01823832D01*
X02499999Y01839830D02*
X02500000Y01839830D01*
X02522395Y01839830D02*
X02526000Y01839830D01*
X02526000Y01855829D02*
X00900000Y01855829D01*
X00900000Y01871827D02*
X02526000Y01871827D01*
X02526000Y01887826D02*
X00900000Y01887826D01*
X00900000Y01903824D02*
X02512234Y01903824D01*
X02496236Y01919823D02*
X00900000Y01919823D01*
X00900000Y01935821D02*
X02480237Y01935821D01*
X02464239Y01951820D02*
X00900000Y01951820D01*
X00900000Y01967818D02*
X02448240Y01967818D01*
X02432242Y01983817D02*
X00900000Y01983817D01*
X00900000Y01999815D02*
X02426000Y01999815D01*
X02424789Y02015814D02*
X02241591Y02015814D01*
X02242575Y02031813D02*
X02412073Y02031813D01*
X02408000Y02047811D02*
X02242575Y02047811D01*
X02242575Y02063810D02*
X02410260Y02063810D01*
X02420411Y02079808D02*
X02242575Y02079808D01*
X02200000Y02050000D02*
X02200000Y02300000D01*
X02187500Y02312500D01*
X02157425Y02319786D02*
X00900000Y02319786D01*
X00900000Y02335784D02*
X02160008Y02335784D01*
X02157425Y02303787D02*
X00900000Y02303787D01*
X00900000Y02287789D02*
X02157425Y02287789D01*
X02157425Y02271790D02*
X00900000Y02271790D01*
X00900000Y02255792D02*
X02176000Y02255792D01*
X02176000Y02239793D02*
X00900000Y02239793D01*
X00900000Y02223795D02*
X02176000Y02223795D01*
X02176000Y02207796D02*
X00900000Y02207796D01*
X00900000Y02191798D02*
X02176000Y02191798D01*
X02176000Y02175799D02*
X00900000Y02175799D01*
X00900000Y02159801D02*
X02176000Y02159801D01*
X02176000Y02143802D02*
X00900000Y02143802D01*
X00900000Y02127804D02*
X02176000Y02127804D01*
X02176000Y02111805D02*
X00900000Y02111805D01*
X00900000Y02095807D02*
X02176000Y02095807D01*
X02157425Y02079808D02*
X00900000Y02079808D01*
X00900000Y02063810D02*
X02157425Y02063810D01*
X02157425Y02047811D02*
X00900000Y02047811D01*
X00900000Y02031813D02*
X02157425Y02031813D01*
X02158409Y02015814D02*
X00900000Y02015814D01*
X00900000Y01839830D02*
X02477605Y01839830D01*
X02461606Y01823832D02*
X00900000Y01823832D01*
X00900000Y01807833D02*
X02456000Y01807833D01*
X02456000Y01791835D02*
X00900000Y01791835D01*
X00900000Y01775836D02*
X02461938Y01775836D01*
X02522063Y01759838D02*
X02526000Y01759838D01*
X02550000Y01700000D02*
X02600000Y01650000D01*
X02600000Y01550000D01*
X02570743Y01519860D02*
X02532085Y01519860D01*
X02544000Y01535858D02*
X02558000Y01535858D01*
X02558000Y01551857D02*
X02544000Y01551857D01*
X02544000Y01567855D02*
X02558459Y01567855D01*
X02574457Y01583854D02*
X02528371Y01583854D01*
X02499999Y01549999D02*
X02456000Y01549999D01*
X02456000Y01531775D01*
X02481775Y01506000D01*
X02499999Y01506000D01*
X02499999Y01549999D01*
X02499999Y01535858D02*
X02500000Y01535858D01*
X02499999Y01519860D02*
X02500000Y01519860D01*
X02467915Y01519860D02*
X01803801Y01519860D01*
X01819799Y01535858D02*
X02456000Y01535858D01*
X02456000Y01551857D02*
X01835798Y01551857D01*
X01851796Y01567855D02*
X02456000Y01567855D01*
X02552212Y01663846D02*
X01942575Y01663846D01*
X01942575Y01679845D02*
X02536214Y01679845D01*
X02550000Y01700000D02*
X02550000Y01900000D01*
X02450000Y02000000D01*
X02450000Y02050000D01*
X02479589Y02079808D02*
X02520411Y02079808D01*
X02510260Y02063810D02*
X02489740Y02063810D01*
X02492000Y02047811D02*
X02508000Y02047811D01*
X02512073Y02031813D02*
X02487927Y02031813D01*
X02475211Y02015814D02*
X02524789Y02015814D01*
X02500124Y01983817D02*
X02576000Y01983817D01*
X02576000Y01967818D02*
X02516123Y01967818D01*
X02532121Y01951820D02*
X02576000Y01951820D01*
X02576000Y01935821D02*
X02548120Y01935821D01*
X02564118Y01919823D02*
X02576000Y01919823D01*
X02576000Y01903824D02*
X02574000Y01903824D01*
X02574000Y01887826D02*
X02576000Y01887826D01*
X02576000Y01871827D02*
X02574000Y01871827D01*
X02574000Y01855829D02*
X02576000Y01855829D01*
X02576000Y01839830D02*
X02574000Y01839830D01*
X02600000Y01800000D02*
X02600000Y02000000D01*
X02550000Y02050000D01*
X02566243Y01999815D02*
X02484125Y01999815D01*
X02800000Y01423869D02*
X01441044Y01423869D01*
X01425045Y01407870D02*
X02800000Y01407870D01*
X01374955Y01407870D02*
X01322413Y01407870D01*
X01340589Y01423869D02*
X01358956Y01423869D01*
X01352500Y01439867D02*
X01347216Y01439867D01*
X01347500Y01455866D02*
X01352500Y01455866D01*
X01354689Y01471864D02*
X01342357Y01471864D01*
X01329312Y01487863D02*
X01370688Y01487863D01*
D17*
X01900000Y01650000D03*
X02200000Y02050000D03*
X02200000Y02300000D03*
M02*
