%
M48
M72
T01C0.03200
T02C0.03543
T03C0.03937
T04C0.04000
T05C0.09843
%
T01
X96800Y41800
X106800Y41800
X121800Y41800
X131800Y41800
X126800Y26800
X126800Y16800
X121800Y76800
X111800Y76800
X101800Y76800
X91800Y76800
X81800Y76800
X131800Y76800
X141800Y76800
X151800Y76800
X161800Y76800
X171800Y76800
X181800Y76800
X191800Y76800
X201800Y76800
X211800Y76800
X221800Y76800
X231800Y76800
X241800Y76800
X251800Y76800
X261800Y76800
X271800Y76800
X341800Y23300
X351800Y23300
X361800Y23300
X271800Y136800
X261800Y136800
X251800Y136800
X241800Y136800
X231800Y136800
X221800Y136800
X211800Y136800
X201800Y136800
X191800Y136800
X181800Y136800
X171800Y136800
X161800Y136800
X151800Y136800
X141800Y136800
X131800Y136800
X121800Y136800
X111800Y136800
X101800Y136800
X91800Y136800
X81800Y136800
X261800Y151800
X261800Y161800
T02
X201800Y51800
T03
X202784Y60776
X192784Y60776
X182784Y60776
X212784Y60776
X222784Y60776
X232784Y60776
X242784Y60776
X252784Y60776
X262784Y60776
X272784Y60776
X282784Y60776
X292784Y60776
X302784Y60776
X312784Y60776
X322784Y60776
X332784Y60776
T04
X57900Y19000
X75700Y19000
X75700Y44600
X57900Y44600
X376800Y56800
X376800Y66800
T05
X354438Y60776
X354438Y182824
X59162Y182824
X59162Y60776
M30
