G75*
%MOIN*%
%OFA0B0*%
%FSLAX25Y25*%
%IPPOS*%
%LPD*%
%AMOC8*
5,1,8,0,0,1.08239X$1,22.5*
%
%ADD10OC8,0.06000*%
%ADD11OC8,0.07100*%
%ADD12C,0.07100*%
%ADD13C,0.07400*%
%ADD14C,0.10643*%
%ADD15C,0.06000*%
%ADD16C,0.06800*%
%ADD17C,0.06000*%
%ADD18R,0.13398X0.07887*%
%ADD19R,0.06115X0.06115*%
D10*
X0096800Y0041800D03*
X0106800Y0041800D03*
X0121800Y0041800D03*
X0131800Y0041800D03*
D11*
X0261800Y0151800D03*
D12*
X0261800Y0161800D03*
D13*
X0262784Y0060776D03*
X0252784Y0060776D03*
X0242784Y0060776D03*
X0232784Y0060776D03*
X0222784Y0060776D03*
X0212784Y0060776D03*
X0202784Y0060776D03*
X0192784Y0060776D03*
X0182784Y0060776D03*
X0272784Y0060776D03*
X0282784Y0060776D03*
X0292784Y0060776D03*
X0302784Y0060776D03*
X0312784Y0060776D03*
X0322784Y0060776D03*
X0332784Y0060776D03*
D14*
X0354438Y0060776D03*
X0354438Y0182824D03*
X0059162Y0182824D03*
X0059162Y0060776D03*
D15*
X0081800Y0074200D02*
X0081800Y0079400D01*
X0091800Y0079400D02*
X0091800Y0074200D01*
X0101800Y0074200D02*
X0101800Y0079400D01*
X0111800Y0079400D02*
X0111800Y0074200D01*
X0121800Y0074200D02*
X0121800Y0079400D01*
X0131800Y0079400D02*
X0131800Y0074200D01*
X0141800Y0074200D02*
X0141800Y0079400D01*
X0151800Y0079400D02*
X0151800Y0074200D01*
X0161800Y0074200D02*
X0161800Y0079400D01*
X0171800Y0079400D02*
X0171800Y0074200D01*
X0181800Y0074200D02*
X0181800Y0079400D01*
X0191800Y0079400D02*
X0191800Y0074200D01*
X0201800Y0074200D02*
X0201800Y0079400D01*
X0211800Y0079400D02*
X0211800Y0074200D01*
X0221800Y0074200D02*
X0221800Y0079400D01*
X0231800Y0079400D02*
X0231800Y0074200D01*
X0241800Y0074200D02*
X0241800Y0079400D01*
X0251800Y0079400D02*
X0251800Y0074200D01*
X0261800Y0074200D02*
X0261800Y0079400D01*
X0271800Y0079400D02*
X0271800Y0074200D01*
X0341800Y0025900D02*
X0341800Y0020700D01*
X0351800Y0020700D02*
X0351800Y0025900D01*
X0361800Y0025900D02*
X0361800Y0020700D01*
X0271800Y0134200D02*
X0271800Y0139400D01*
X0261800Y0139400D02*
X0261800Y0134200D01*
X0251800Y0134200D02*
X0251800Y0139400D01*
X0241800Y0139400D02*
X0241800Y0134200D01*
X0231800Y0134200D02*
X0231800Y0139400D01*
X0221800Y0139400D02*
X0221800Y0134200D01*
X0211800Y0134200D02*
X0211800Y0139400D01*
X0201800Y0139400D02*
X0201800Y0134200D01*
X0191800Y0134200D02*
X0191800Y0139400D01*
X0181800Y0139400D02*
X0181800Y0134200D01*
X0171800Y0134200D02*
X0171800Y0139400D01*
X0161800Y0139400D02*
X0161800Y0134200D01*
X0151800Y0134200D02*
X0151800Y0139400D01*
X0141800Y0139400D02*
X0141800Y0134200D01*
X0131800Y0134200D02*
X0131800Y0139400D01*
X0121800Y0139400D02*
X0121800Y0134200D01*
X0111800Y0134200D02*
X0111800Y0139400D01*
X0101800Y0139400D02*
X0101800Y0134200D01*
X0091800Y0134200D02*
X0091800Y0139400D01*
X0081800Y0139400D02*
X0081800Y0134200D01*
D16*
X0057900Y0022000D02*
X0057900Y0016000D01*
X0075700Y0016000D02*
X0075700Y0022000D01*
X0075700Y0041600D02*
X0075700Y0047600D01*
X0057900Y0047600D02*
X0057900Y0041600D01*
X0373800Y0056800D02*
X0379800Y0056800D01*
X0379800Y0066800D02*
X0373800Y0066800D01*
D17*
X0126800Y0026800D03*
X0126800Y0016800D03*
D18*
X0311800Y0075776D03*
X0331800Y0075776D03*
X0331800Y0097824D03*
X0311800Y0097824D03*
D19*
X0201800Y0051800D03*
M02*
