G75*
%MOIN*%
%OFA0B0*%
%FSLAX25Y25*%
%IPPOS*%
%LPD*%
%AMOC8*
5,1,8,0,0,1.08239X$1,22.5*
%
%ADD10C,0.00000*%
%ADD11OC8,0.05200*%
%ADD12OC8,0.06300*%
%ADD13C,0.06300*%
%ADD14C,0.06600*%
%ADD15C,0.05200*%
%ADD16C,0.06000*%
%ADD17C,0.05200*%
%ADD18C,0.01600*%
%ADD19R,0.05315X0.05315*%
D10*
X0001800Y0001800D02*
X0001800Y0191761D01*
X0395501Y0191761D01*
X0395501Y0001800D01*
X0001800Y0001800D01*
X0054241Y0060776D02*
X0054243Y0060916D01*
X0054249Y0061056D01*
X0054259Y0061195D01*
X0054273Y0061334D01*
X0054291Y0061473D01*
X0054312Y0061611D01*
X0054338Y0061749D01*
X0054368Y0061886D01*
X0054401Y0062021D01*
X0054439Y0062156D01*
X0054480Y0062290D01*
X0054525Y0062423D01*
X0054573Y0062554D01*
X0054626Y0062683D01*
X0054682Y0062812D01*
X0054741Y0062938D01*
X0054805Y0063063D01*
X0054871Y0063186D01*
X0054942Y0063307D01*
X0055015Y0063426D01*
X0055092Y0063543D01*
X0055173Y0063657D01*
X0055256Y0063769D01*
X0055343Y0063879D01*
X0055433Y0063987D01*
X0055525Y0064091D01*
X0055621Y0064193D01*
X0055720Y0064293D01*
X0055821Y0064389D01*
X0055925Y0064483D01*
X0056032Y0064573D01*
X0056141Y0064660D01*
X0056253Y0064745D01*
X0056367Y0064826D01*
X0056483Y0064904D01*
X0056601Y0064978D01*
X0056722Y0065049D01*
X0056844Y0065117D01*
X0056969Y0065181D01*
X0057095Y0065242D01*
X0057222Y0065299D01*
X0057352Y0065352D01*
X0057483Y0065402D01*
X0057615Y0065447D01*
X0057748Y0065490D01*
X0057883Y0065528D01*
X0058018Y0065562D01*
X0058155Y0065593D01*
X0058292Y0065620D01*
X0058430Y0065642D01*
X0058569Y0065661D01*
X0058708Y0065676D01*
X0058847Y0065687D01*
X0058987Y0065694D01*
X0059127Y0065697D01*
X0059267Y0065696D01*
X0059407Y0065691D01*
X0059546Y0065682D01*
X0059686Y0065669D01*
X0059825Y0065652D01*
X0059963Y0065631D01*
X0060101Y0065607D01*
X0060238Y0065578D01*
X0060374Y0065546D01*
X0060509Y0065509D01*
X0060643Y0065469D01*
X0060776Y0065425D01*
X0060907Y0065377D01*
X0061037Y0065326D01*
X0061166Y0065271D01*
X0061293Y0065212D01*
X0061418Y0065149D01*
X0061541Y0065084D01*
X0061663Y0065014D01*
X0061782Y0064941D01*
X0061900Y0064865D01*
X0062015Y0064786D01*
X0062128Y0064703D01*
X0062238Y0064617D01*
X0062346Y0064528D01*
X0062451Y0064436D01*
X0062554Y0064341D01*
X0062654Y0064243D01*
X0062751Y0064143D01*
X0062845Y0064039D01*
X0062937Y0063933D01*
X0063025Y0063825D01*
X0063110Y0063714D01*
X0063192Y0063600D01*
X0063271Y0063484D01*
X0063346Y0063367D01*
X0063418Y0063247D01*
X0063486Y0063125D01*
X0063551Y0063001D01*
X0063613Y0062875D01*
X0063671Y0062748D01*
X0063725Y0062619D01*
X0063776Y0062488D01*
X0063822Y0062356D01*
X0063865Y0062223D01*
X0063905Y0062089D01*
X0063940Y0061954D01*
X0063972Y0061817D01*
X0063999Y0061680D01*
X0064023Y0061542D01*
X0064043Y0061404D01*
X0064059Y0061265D01*
X0064071Y0061125D01*
X0064079Y0060986D01*
X0064083Y0060846D01*
X0064083Y0060706D01*
X0064079Y0060566D01*
X0064071Y0060427D01*
X0064059Y0060287D01*
X0064043Y0060148D01*
X0064023Y0060010D01*
X0063999Y0059872D01*
X0063972Y0059735D01*
X0063940Y0059598D01*
X0063905Y0059463D01*
X0063865Y0059329D01*
X0063822Y0059196D01*
X0063776Y0059064D01*
X0063725Y0058933D01*
X0063671Y0058804D01*
X0063613Y0058677D01*
X0063551Y0058551D01*
X0063486Y0058427D01*
X0063418Y0058305D01*
X0063346Y0058185D01*
X0063271Y0058068D01*
X0063192Y0057952D01*
X0063110Y0057838D01*
X0063025Y0057727D01*
X0062937Y0057619D01*
X0062845Y0057513D01*
X0062751Y0057409D01*
X0062654Y0057309D01*
X0062554Y0057211D01*
X0062451Y0057116D01*
X0062346Y0057024D01*
X0062238Y0056935D01*
X0062128Y0056849D01*
X0062015Y0056766D01*
X0061900Y0056687D01*
X0061782Y0056611D01*
X0061663Y0056538D01*
X0061541Y0056468D01*
X0061418Y0056403D01*
X0061293Y0056340D01*
X0061166Y0056281D01*
X0061037Y0056226D01*
X0060907Y0056175D01*
X0060776Y0056127D01*
X0060643Y0056083D01*
X0060509Y0056043D01*
X0060374Y0056006D01*
X0060238Y0055974D01*
X0060101Y0055945D01*
X0059963Y0055921D01*
X0059825Y0055900D01*
X0059686Y0055883D01*
X0059546Y0055870D01*
X0059407Y0055861D01*
X0059267Y0055856D01*
X0059127Y0055855D01*
X0058987Y0055858D01*
X0058847Y0055865D01*
X0058708Y0055876D01*
X0058569Y0055891D01*
X0058430Y0055910D01*
X0058292Y0055932D01*
X0058155Y0055959D01*
X0058018Y0055990D01*
X0057883Y0056024D01*
X0057748Y0056062D01*
X0057615Y0056105D01*
X0057483Y0056150D01*
X0057352Y0056200D01*
X0057222Y0056253D01*
X0057095Y0056310D01*
X0056969Y0056371D01*
X0056844Y0056435D01*
X0056722Y0056503D01*
X0056601Y0056574D01*
X0056483Y0056648D01*
X0056367Y0056726D01*
X0056253Y0056807D01*
X0056141Y0056892D01*
X0056032Y0056979D01*
X0055925Y0057069D01*
X0055821Y0057163D01*
X0055720Y0057259D01*
X0055621Y0057359D01*
X0055525Y0057461D01*
X0055433Y0057565D01*
X0055343Y0057673D01*
X0055256Y0057783D01*
X0055173Y0057895D01*
X0055092Y0058009D01*
X0055015Y0058126D01*
X0054942Y0058245D01*
X0054871Y0058366D01*
X0054805Y0058489D01*
X0054741Y0058614D01*
X0054682Y0058740D01*
X0054626Y0058869D01*
X0054573Y0058998D01*
X0054525Y0059129D01*
X0054480Y0059262D01*
X0054439Y0059396D01*
X0054401Y0059531D01*
X0054368Y0059666D01*
X0054338Y0059803D01*
X0054312Y0059941D01*
X0054291Y0060079D01*
X0054273Y0060218D01*
X0054259Y0060357D01*
X0054249Y0060496D01*
X0054243Y0060636D01*
X0054241Y0060776D01*
X0054241Y0182824D02*
X0054243Y0182964D01*
X0054249Y0183104D01*
X0054259Y0183243D01*
X0054273Y0183382D01*
X0054291Y0183521D01*
X0054312Y0183659D01*
X0054338Y0183797D01*
X0054368Y0183934D01*
X0054401Y0184069D01*
X0054439Y0184204D01*
X0054480Y0184338D01*
X0054525Y0184471D01*
X0054573Y0184602D01*
X0054626Y0184731D01*
X0054682Y0184860D01*
X0054741Y0184986D01*
X0054805Y0185111D01*
X0054871Y0185234D01*
X0054942Y0185355D01*
X0055015Y0185474D01*
X0055092Y0185591D01*
X0055173Y0185705D01*
X0055256Y0185817D01*
X0055343Y0185927D01*
X0055433Y0186035D01*
X0055525Y0186139D01*
X0055621Y0186241D01*
X0055720Y0186341D01*
X0055821Y0186437D01*
X0055925Y0186531D01*
X0056032Y0186621D01*
X0056141Y0186708D01*
X0056253Y0186793D01*
X0056367Y0186874D01*
X0056483Y0186952D01*
X0056601Y0187026D01*
X0056722Y0187097D01*
X0056844Y0187165D01*
X0056969Y0187229D01*
X0057095Y0187290D01*
X0057222Y0187347D01*
X0057352Y0187400D01*
X0057483Y0187450D01*
X0057615Y0187495D01*
X0057748Y0187538D01*
X0057883Y0187576D01*
X0058018Y0187610D01*
X0058155Y0187641D01*
X0058292Y0187668D01*
X0058430Y0187690D01*
X0058569Y0187709D01*
X0058708Y0187724D01*
X0058847Y0187735D01*
X0058987Y0187742D01*
X0059127Y0187745D01*
X0059267Y0187744D01*
X0059407Y0187739D01*
X0059546Y0187730D01*
X0059686Y0187717D01*
X0059825Y0187700D01*
X0059963Y0187679D01*
X0060101Y0187655D01*
X0060238Y0187626D01*
X0060374Y0187594D01*
X0060509Y0187557D01*
X0060643Y0187517D01*
X0060776Y0187473D01*
X0060907Y0187425D01*
X0061037Y0187374D01*
X0061166Y0187319D01*
X0061293Y0187260D01*
X0061418Y0187197D01*
X0061541Y0187132D01*
X0061663Y0187062D01*
X0061782Y0186989D01*
X0061900Y0186913D01*
X0062015Y0186834D01*
X0062128Y0186751D01*
X0062238Y0186665D01*
X0062346Y0186576D01*
X0062451Y0186484D01*
X0062554Y0186389D01*
X0062654Y0186291D01*
X0062751Y0186191D01*
X0062845Y0186087D01*
X0062937Y0185981D01*
X0063025Y0185873D01*
X0063110Y0185762D01*
X0063192Y0185648D01*
X0063271Y0185532D01*
X0063346Y0185415D01*
X0063418Y0185295D01*
X0063486Y0185173D01*
X0063551Y0185049D01*
X0063613Y0184923D01*
X0063671Y0184796D01*
X0063725Y0184667D01*
X0063776Y0184536D01*
X0063822Y0184404D01*
X0063865Y0184271D01*
X0063905Y0184137D01*
X0063940Y0184002D01*
X0063972Y0183865D01*
X0063999Y0183728D01*
X0064023Y0183590D01*
X0064043Y0183452D01*
X0064059Y0183313D01*
X0064071Y0183173D01*
X0064079Y0183034D01*
X0064083Y0182894D01*
X0064083Y0182754D01*
X0064079Y0182614D01*
X0064071Y0182475D01*
X0064059Y0182335D01*
X0064043Y0182196D01*
X0064023Y0182058D01*
X0063999Y0181920D01*
X0063972Y0181783D01*
X0063940Y0181646D01*
X0063905Y0181511D01*
X0063865Y0181377D01*
X0063822Y0181244D01*
X0063776Y0181112D01*
X0063725Y0180981D01*
X0063671Y0180852D01*
X0063613Y0180725D01*
X0063551Y0180599D01*
X0063486Y0180475D01*
X0063418Y0180353D01*
X0063346Y0180233D01*
X0063271Y0180116D01*
X0063192Y0180000D01*
X0063110Y0179886D01*
X0063025Y0179775D01*
X0062937Y0179667D01*
X0062845Y0179561D01*
X0062751Y0179457D01*
X0062654Y0179357D01*
X0062554Y0179259D01*
X0062451Y0179164D01*
X0062346Y0179072D01*
X0062238Y0178983D01*
X0062128Y0178897D01*
X0062015Y0178814D01*
X0061900Y0178735D01*
X0061782Y0178659D01*
X0061663Y0178586D01*
X0061541Y0178516D01*
X0061418Y0178451D01*
X0061293Y0178388D01*
X0061166Y0178329D01*
X0061037Y0178274D01*
X0060907Y0178223D01*
X0060776Y0178175D01*
X0060643Y0178131D01*
X0060509Y0178091D01*
X0060374Y0178054D01*
X0060238Y0178022D01*
X0060101Y0177993D01*
X0059963Y0177969D01*
X0059825Y0177948D01*
X0059686Y0177931D01*
X0059546Y0177918D01*
X0059407Y0177909D01*
X0059267Y0177904D01*
X0059127Y0177903D01*
X0058987Y0177906D01*
X0058847Y0177913D01*
X0058708Y0177924D01*
X0058569Y0177939D01*
X0058430Y0177958D01*
X0058292Y0177980D01*
X0058155Y0178007D01*
X0058018Y0178038D01*
X0057883Y0178072D01*
X0057748Y0178110D01*
X0057615Y0178153D01*
X0057483Y0178198D01*
X0057352Y0178248D01*
X0057222Y0178301D01*
X0057095Y0178358D01*
X0056969Y0178419D01*
X0056844Y0178483D01*
X0056722Y0178551D01*
X0056601Y0178622D01*
X0056483Y0178696D01*
X0056367Y0178774D01*
X0056253Y0178855D01*
X0056141Y0178940D01*
X0056032Y0179027D01*
X0055925Y0179117D01*
X0055821Y0179211D01*
X0055720Y0179307D01*
X0055621Y0179407D01*
X0055525Y0179509D01*
X0055433Y0179613D01*
X0055343Y0179721D01*
X0055256Y0179831D01*
X0055173Y0179943D01*
X0055092Y0180057D01*
X0055015Y0180174D01*
X0054942Y0180293D01*
X0054871Y0180414D01*
X0054805Y0180537D01*
X0054741Y0180662D01*
X0054682Y0180788D01*
X0054626Y0180917D01*
X0054573Y0181046D01*
X0054525Y0181177D01*
X0054480Y0181310D01*
X0054439Y0181444D01*
X0054401Y0181579D01*
X0054368Y0181714D01*
X0054338Y0181851D01*
X0054312Y0181989D01*
X0054291Y0182127D01*
X0054273Y0182266D01*
X0054259Y0182405D01*
X0054249Y0182544D01*
X0054243Y0182684D01*
X0054241Y0182824D01*
X0349517Y0182824D02*
X0349519Y0182964D01*
X0349525Y0183104D01*
X0349535Y0183243D01*
X0349549Y0183382D01*
X0349567Y0183521D01*
X0349588Y0183659D01*
X0349614Y0183797D01*
X0349644Y0183934D01*
X0349677Y0184069D01*
X0349715Y0184204D01*
X0349756Y0184338D01*
X0349801Y0184471D01*
X0349849Y0184602D01*
X0349902Y0184731D01*
X0349958Y0184860D01*
X0350017Y0184986D01*
X0350081Y0185111D01*
X0350147Y0185234D01*
X0350218Y0185355D01*
X0350291Y0185474D01*
X0350368Y0185591D01*
X0350449Y0185705D01*
X0350532Y0185817D01*
X0350619Y0185927D01*
X0350709Y0186035D01*
X0350801Y0186139D01*
X0350897Y0186241D01*
X0350996Y0186341D01*
X0351097Y0186437D01*
X0351201Y0186531D01*
X0351308Y0186621D01*
X0351417Y0186708D01*
X0351529Y0186793D01*
X0351643Y0186874D01*
X0351759Y0186952D01*
X0351877Y0187026D01*
X0351998Y0187097D01*
X0352120Y0187165D01*
X0352245Y0187229D01*
X0352371Y0187290D01*
X0352498Y0187347D01*
X0352628Y0187400D01*
X0352759Y0187450D01*
X0352891Y0187495D01*
X0353024Y0187538D01*
X0353159Y0187576D01*
X0353294Y0187610D01*
X0353431Y0187641D01*
X0353568Y0187668D01*
X0353706Y0187690D01*
X0353845Y0187709D01*
X0353984Y0187724D01*
X0354123Y0187735D01*
X0354263Y0187742D01*
X0354403Y0187745D01*
X0354543Y0187744D01*
X0354683Y0187739D01*
X0354822Y0187730D01*
X0354962Y0187717D01*
X0355101Y0187700D01*
X0355239Y0187679D01*
X0355377Y0187655D01*
X0355514Y0187626D01*
X0355650Y0187594D01*
X0355785Y0187557D01*
X0355919Y0187517D01*
X0356052Y0187473D01*
X0356183Y0187425D01*
X0356313Y0187374D01*
X0356442Y0187319D01*
X0356569Y0187260D01*
X0356694Y0187197D01*
X0356817Y0187132D01*
X0356939Y0187062D01*
X0357058Y0186989D01*
X0357176Y0186913D01*
X0357291Y0186834D01*
X0357404Y0186751D01*
X0357514Y0186665D01*
X0357622Y0186576D01*
X0357727Y0186484D01*
X0357830Y0186389D01*
X0357930Y0186291D01*
X0358027Y0186191D01*
X0358121Y0186087D01*
X0358213Y0185981D01*
X0358301Y0185873D01*
X0358386Y0185762D01*
X0358468Y0185648D01*
X0358547Y0185532D01*
X0358622Y0185415D01*
X0358694Y0185295D01*
X0358762Y0185173D01*
X0358827Y0185049D01*
X0358889Y0184923D01*
X0358947Y0184796D01*
X0359001Y0184667D01*
X0359052Y0184536D01*
X0359098Y0184404D01*
X0359141Y0184271D01*
X0359181Y0184137D01*
X0359216Y0184002D01*
X0359248Y0183865D01*
X0359275Y0183728D01*
X0359299Y0183590D01*
X0359319Y0183452D01*
X0359335Y0183313D01*
X0359347Y0183173D01*
X0359355Y0183034D01*
X0359359Y0182894D01*
X0359359Y0182754D01*
X0359355Y0182614D01*
X0359347Y0182475D01*
X0359335Y0182335D01*
X0359319Y0182196D01*
X0359299Y0182058D01*
X0359275Y0181920D01*
X0359248Y0181783D01*
X0359216Y0181646D01*
X0359181Y0181511D01*
X0359141Y0181377D01*
X0359098Y0181244D01*
X0359052Y0181112D01*
X0359001Y0180981D01*
X0358947Y0180852D01*
X0358889Y0180725D01*
X0358827Y0180599D01*
X0358762Y0180475D01*
X0358694Y0180353D01*
X0358622Y0180233D01*
X0358547Y0180116D01*
X0358468Y0180000D01*
X0358386Y0179886D01*
X0358301Y0179775D01*
X0358213Y0179667D01*
X0358121Y0179561D01*
X0358027Y0179457D01*
X0357930Y0179357D01*
X0357830Y0179259D01*
X0357727Y0179164D01*
X0357622Y0179072D01*
X0357514Y0178983D01*
X0357404Y0178897D01*
X0357291Y0178814D01*
X0357176Y0178735D01*
X0357058Y0178659D01*
X0356939Y0178586D01*
X0356817Y0178516D01*
X0356694Y0178451D01*
X0356569Y0178388D01*
X0356442Y0178329D01*
X0356313Y0178274D01*
X0356183Y0178223D01*
X0356052Y0178175D01*
X0355919Y0178131D01*
X0355785Y0178091D01*
X0355650Y0178054D01*
X0355514Y0178022D01*
X0355377Y0177993D01*
X0355239Y0177969D01*
X0355101Y0177948D01*
X0354962Y0177931D01*
X0354822Y0177918D01*
X0354683Y0177909D01*
X0354543Y0177904D01*
X0354403Y0177903D01*
X0354263Y0177906D01*
X0354123Y0177913D01*
X0353984Y0177924D01*
X0353845Y0177939D01*
X0353706Y0177958D01*
X0353568Y0177980D01*
X0353431Y0178007D01*
X0353294Y0178038D01*
X0353159Y0178072D01*
X0353024Y0178110D01*
X0352891Y0178153D01*
X0352759Y0178198D01*
X0352628Y0178248D01*
X0352498Y0178301D01*
X0352371Y0178358D01*
X0352245Y0178419D01*
X0352120Y0178483D01*
X0351998Y0178551D01*
X0351877Y0178622D01*
X0351759Y0178696D01*
X0351643Y0178774D01*
X0351529Y0178855D01*
X0351417Y0178940D01*
X0351308Y0179027D01*
X0351201Y0179117D01*
X0351097Y0179211D01*
X0350996Y0179307D01*
X0350897Y0179407D01*
X0350801Y0179509D01*
X0350709Y0179613D01*
X0350619Y0179721D01*
X0350532Y0179831D01*
X0350449Y0179943D01*
X0350368Y0180057D01*
X0350291Y0180174D01*
X0350218Y0180293D01*
X0350147Y0180414D01*
X0350081Y0180537D01*
X0350017Y0180662D01*
X0349958Y0180788D01*
X0349902Y0180917D01*
X0349849Y0181046D01*
X0349801Y0181177D01*
X0349756Y0181310D01*
X0349715Y0181444D01*
X0349677Y0181579D01*
X0349644Y0181714D01*
X0349614Y0181851D01*
X0349588Y0181989D01*
X0349567Y0182127D01*
X0349549Y0182266D01*
X0349535Y0182405D01*
X0349525Y0182544D01*
X0349519Y0182684D01*
X0349517Y0182824D01*
X0349517Y0060776D02*
X0349519Y0060916D01*
X0349525Y0061056D01*
X0349535Y0061195D01*
X0349549Y0061334D01*
X0349567Y0061473D01*
X0349588Y0061611D01*
X0349614Y0061749D01*
X0349644Y0061886D01*
X0349677Y0062021D01*
X0349715Y0062156D01*
X0349756Y0062290D01*
X0349801Y0062423D01*
X0349849Y0062554D01*
X0349902Y0062683D01*
X0349958Y0062812D01*
X0350017Y0062938D01*
X0350081Y0063063D01*
X0350147Y0063186D01*
X0350218Y0063307D01*
X0350291Y0063426D01*
X0350368Y0063543D01*
X0350449Y0063657D01*
X0350532Y0063769D01*
X0350619Y0063879D01*
X0350709Y0063987D01*
X0350801Y0064091D01*
X0350897Y0064193D01*
X0350996Y0064293D01*
X0351097Y0064389D01*
X0351201Y0064483D01*
X0351308Y0064573D01*
X0351417Y0064660D01*
X0351529Y0064745D01*
X0351643Y0064826D01*
X0351759Y0064904D01*
X0351877Y0064978D01*
X0351998Y0065049D01*
X0352120Y0065117D01*
X0352245Y0065181D01*
X0352371Y0065242D01*
X0352498Y0065299D01*
X0352628Y0065352D01*
X0352759Y0065402D01*
X0352891Y0065447D01*
X0353024Y0065490D01*
X0353159Y0065528D01*
X0353294Y0065562D01*
X0353431Y0065593D01*
X0353568Y0065620D01*
X0353706Y0065642D01*
X0353845Y0065661D01*
X0353984Y0065676D01*
X0354123Y0065687D01*
X0354263Y0065694D01*
X0354403Y0065697D01*
X0354543Y0065696D01*
X0354683Y0065691D01*
X0354822Y0065682D01*
X0354962Y0065669D01*
X0355101Y0065652D01*
X0355239Y0065631D01*
X0355377Y0065607D01*
X0355514Y0065578D01*
X0355650Y0065546D01*
X0355785Y0065509D01*
X0355919Y0065469D01*
X0356052Y0065425D01*
X0356183Y0065377D01*
X0356313Y0065326D01*
X0356442Y0065271D01*
X0356569Y0065212D01*
X0356694Y0065149D01*
X0356817Y0065084D01*
X0356939Y0065014D01*
X0357058Y0064941D01*
X0357176Y0064865D01*
X0357291Y0064786D01*
X0357404Y0064703D01*
X0357514Y0064617D01*
X0357622Y0064528D01*
X0357727Y0064436D01*
X0357830Y0064341D01*
X0357930Y0064243D01*
X0358027Y0064143D01*
X0358121Y0064039D01*
X0358213Y0063933D01*
X0358301Y0063825D01*
X0358386Y0063714D01*
X0358468Y0063600D01*
X0358547Y0063484D01*
X0358622Y0063367D01*
X0358694Y0063247D01*
X0358762Y0063125D01*
X0358827Y0063001D01*
X0358889Y0062875D01*
X0358947Y0062748D01*
X0359001Y0062619D01*
X0359052Y0062488D01*
X0359098Y0062356D01*
X0359141Y0062223D01*
X0359181Y0062089D01*
X0359216Y0061954D01*
X0359248Y0061817D01*
X0359275Y0061680D01*
X0359299Y0061542D01*
X0359319Y0061404D01*
X0359335Y0061265D01*
X0359347Y0061125D01*
X0359355Y0060986D01*
X0359359Y0060846D01*
X0359359Y0060706D01*
X0359355Y0060566D01*
X0359347Y0060427D01*
X0359335Y0060287D01*
X0359319Y0060148D01*
X0359299Y0060010D01*
X0359275Y0059872D01*
X0359248Y0059735D01*
X0359216Y0059598D01*
X0359181Y0059463D01*
X0359141Y0059329D01*
X0359098Y0059196D01*
X0359052Y0059064D01*
X0359001Y0058933D01*
X0358947Y0058804D01*
X0358889Y0058677D01*
X0358827Y0058551D01*
X0358762Y0058427D01*
X0358694Y0058305D01*
X0358622Y0058185D01*
X0358547Y0058068D01*
X0358468Y0057952D01*
X0358386Y0057838D01*
X0358301Y0057727D01*
X0358213Y0057619D01*
X0358121Y0057513D01*
X0358027Y0057409D01*
X0357930Y0057309D01*
X0357830Y0057211D01*
X0357727Y0057116D01*
X0357622Y0057024D01*
X0357514Y0056935D01*
X0357404Y0056849D01*
X0357291Y0056766D01*
X0357176Y0056687D01*
X0357058Y0056611D01*
X0356939Y0056538D01*
X0356817Y0056468D01*
X0356694Y0056403D01*
X0356569Y0056340D01*
X0356442Y0056281D01*
X0356313Y0056226D01*
X0356183Y0056175D01*
X0356052Y0056127D01*
X0355919Y0056083D01*
X0355785Y0056043D01*
X0355650Y0056006D01*
X0355514Y0055974D01*
X0355377Y0055945D01*
X0355239Y0055921D01*
X0355101Y0055900D01*
X0354962Y0055883D01*
X0354822Y0055870D01*
X0354683Y0055861D01*
X0354543Y0055856D01*
X0354403Y0055855D01*
X0354263Y0055858D01*
X0354123Y0055865D01*
X0353984Y0055876D01*
X0353845Y0055891D01*
X0353706Y0055910D01*
X0353568Y0055932D01*
X0353431Y0055959D01*
X0353294Y0055990D01*
X0353159Y0056024D01*
X0353024Y0056062D01*
X0352891Y0056105D01*
X0352759Y0056150D01*
X0352628Y0056200D01*
X0352498Y0056253D01*
X0352371Y0056310D01*
X0352245Y0056371D01*
X0352120Y0056435D01*
X0351998Y0056503D01*
X0351877Y0056574D01*
X0351759Y0056648D01*
X0351643Y0056726D01*
X0351529Y0056807D01*
X0351417Y0056892D01*
X0351308Y0056979D01*
X0351201Y0057069D01*
X0351097Y0057163D01*
X0350996Y0057259D01*
X0350897Y0057359D01*
X0350801Y0057461D01*
X0350709Y0057565D01*
X0350619Y0057673D01*
X0350532Y0057783D01*
X0350449Y0057895D01*
X0350368Y0058009D01*
X0350291Y0058126D01*
X0350218Y0058245D01*
X0350147Y0058366D01*
X0350081Y0058489D01*
X0350017Y0058614D01*
X0349958Y0058740D01*
X0349902Y0058869D01*
X0349849Y0058998D01*
X0349801Y0059129D01*
X0349756Y0059262D01*
X0349715Y0059396D01*
X0349677Y0059531D01*
X0349644Y0059666D01*
X0349614Y0059803D01*
X0349588Y0059941D01*
X0349567Y0060079D01*
X0349549Y0060218D01*
X0349535Y0060357D01*
X0349525Y0060496D01*
X0349519Y0060636D01*
X0349517Y0060776D01*
D11*
X0131800Y0041800D03*
X0121800Y0041800D03*
X0106800Y0041800D03*
X0096800Y0041800D03*
D12*
X0261800Y0151800D03*
D13*
X0261800Y0161800D03*
D14*
X0262784Y0060776D03*
X0252784Y0060776D03*
X0242784Y0060776D03*
X0232784Y0060776D03*
X0222784Y0060776D03*
X0212784Y0060776D03*
X0202784Y0060776D03*
X0192784Y0060776D03*
X0182784Y0060776D03*
X0272784Y0060776D03*
X0282784Y0060776D03*
X0292784Y0060776D03*
X0302784Y0060776D03*
X0312784Y0060776D03*
X0322784Y0060776D03*
X0332784Y0060776D03*
D15*
X0271800Y0074200D02*
X0271800Y0079400D01*
X0261800Y0079400D02*
X0261800Y0074200D01*
X0251800Y0074200D02*
X0251800Y0079400D01*
X0241800Y0079400D02*
X0241800Y0074200D01*
X0231800Y0074200D02*
X0231800Y0079400D01*
X0221800Y0079400D02*
X0221800Y0074200D01*
X0211800Y0074200D02*
X0211800Y0079400D01*
X0201800Y0079400D02*
X0201800Y0074200D01*
X0191800Y0074200D02*
X0191800Y0079400D01*
X0181800Y0079400D02*
X0181800Y0074200D01*
X0171800Y0074200D02*
X0171800Y0079400D01*
X0161800Y0079400D02*
X0161800Y0074200D01*
X0151800Y0074200D02*
X0151800Y0079400D01*
X0141800Y0079400D02*
X0141800Y0074200D01*
X0131800Y0074200D02*
X0131800Y0079400D01*
X0121800Y0079400D02*
X0121800Y0074200D01*
X0111800Y0074200D02*
X0111800Y0079400D01*
X0101800Y0079400D02*
X0101800Y0074200D01*
X0091800Y0074200D02*
X0091800Y0079400D01*
X0081800Y0079400D02*
X0081800Y0074200D01*
X0081800Y0134200D02*
X0081800Y0139400D01*
X0091800Y0139400D02*
X0091800Y0134200D01*
X0101800Y0134200D02*
X0101800Y0139400D01*
X0111800Y0139400D02*
X0111800Y0134200D01*
X0121800Y0134200D02*
X0121800Y0139400D01*
X0131800Y0139400D02*
X0131800Y0134200D01*
X0141800Y0134200D02*
X0141800Y0139400D01*
X0151800Y0139400D02*
X0151800Y0134200D01*
X0161800Y0134200D02*
X0161800Y0139400D01*
X0171800Y0139400D02*
X0171800Y0134200D01*
X0181800Y0134200D02*
X0181800Y0139400D01*
X0191800Y0139400D02*
X0191800Y0134200D01*
X0201800Y0134200D02*
X0201800Y0139400D01*
X0211800Y0139400D02*
X0211800Y0134200D01*
X0221800Y0134200D02*
X0221800Y0139400D01*
X0231800Y0139400D02*
X0231800Y0134200D01*
X0241800Y0134200D02*
X0241800Y0139400D01*
X0251800Y0139400D02*
X0251800Y0134200D01*
X0261800Y0134200D02*
X0261800Y0139400D01*
X0271800Y0139400D02*
X0271800Y0134200D01*
X0341800Y0025900D02*
X0341800Y0020700D01*
X0351800Y0020700D02*
X0351800Y0025900D01*
X0361800Y0025900D02*
X0361800Y0020700D01*
D16*
X0373800Y0056800D02*
X0379800Y0056800D01*
X0379800Y0066800D02*
X0373800Y0066800D01*
X0075700Y0047600D02*
X0075700Y0041600D01*
X0057900Y0041600D02*
X0057900Y0047600D01*
X0057900Y0022000D02*
X0057900Y0016000D01*
X0075700Y0016000D02*
X0075700Y0022000D01*
D17*
X0126800Y0026800D03*
X0126800Y0016800D03*
D18*
X0130212Y0014272D02*
X0390701Y0014272D01*
X0390701Y0015870D02*
X0130961Y0015870D01*
X0131000Y0015965D02*
X0130361Y0014421D01*
X0129179Y0013239D01*
X0127635Y0012600D01*
X0125965Y0012600D01*
X0124421Y0013239D01*
X0123239Y0014421D01*
X0122600Y0015965D01*
X0122600Y0017635D01*
X0123239Y0019179D01*
X0124421Y0020361D01*
X0125965Y0021000D01*
X0127635Y0021000D01*
X0129179Y0020361D01*
X0130361Y0019179D01*
X0131000Y0017635D01*
X0131000Y0015965D01*
X0131000Y0017469D02*
X0339091Y0017469D01*
X0339421Y0017139D02*
X0340965Y0016500D01*
X0342635Y0016500D01*
X0344179Y0017139D01*
X0345361Y0018321D01*
X0346000Y0019865D01*
X0346000Y0026735D01*
X0345361Y0028279D01*
X0344179Y0029461D01*
X0342635Y0030100D01*
X0340965Y0030100D01*
X0339421Y0029461D01*
X0338239Y0028279D01*
X0337600Y0026735D01*
X0337600Y0019865D01*
X0338239Y0018321D01*
X0339421Y0017139D01*
X0337930Y0019068D02*
X0130407Y0019068D01*
X0128442Y0020666D02*
X0337600Y0020666D01*
X0337600Y0022265D02*
X0080300Y0022265D01*
X0080300Y0022915D02*
X0079600Y0024606D01*
X0078306Y0025900D01*
X0076615Y0026600D01*
X0074785Y0026600D01*
X0073094Y0025900D01*
X0071800Y0024606D01*
X0071100Y0022915D01*
X0071100Y0015085D01*
X0071800Y0013394D01*
X0073094Y0012100D01*
X0074785Y0011400D01*
X0076615Y0011400D01*
X0078306Y0012100D01*
X0079600Y0013394D01*
X0080300Y0015085D01*
X0080300Y0022915D01*
X0079907Y0023863D02*
X0123797Y0023863D01*
X0123239Y0024421D02*
X0122600Y0025965D01*
X0122600Y0027635D01*
X0123239Y0029179D01*
X0124421Y0030361D01*
X0125965Y0031000D01*
X0127635Y0031000D01*
X0129179Y0030361D01*
X0130361Y0029179D01*
X0131000Y0027635D01*
X0131000Y0025965D01*
X0130361Y0024421D01*
X0129179Y0023239D01*
X0127635Y0022600D01*
X0125965Y0022600D01*
X0124421Y0023239D01*
X0123239Y0024421D01*
X0122808Y0025462D02*
X0078744Y0025462D01*
X0072656Y0025462D02*
X0060944Y0025462D01*
X0060506Y0025900D02*
X0058815Y0026600D01*
X0056985Y0026600D01*
X0055294Y0025900D01*
X0054000Y0024606D01*
X0053300Y0022915D01*
X0053300Y0015085D01*
X0054000Y0013394D01*
X0055294Y0012100D01*
X0056985Y0011400D01*
X0058815Y0011400D01*
X0060506Y0012100D01*
X0061800Y0013394D01*
X0062500Y0015085D01*
X0062500Y0022915D01*
X0061800Y0024606D01*
X0060506Y0025900D01*
X0062107Y0023863D02*
X0071493Y0023863D01*
X0071100Y0022265D02*
X0062500Y0022265D01*
X0062500Y0020666D02*
X0071100Y0020666D01*
X0071100Y0019068D02*
X0062500Y0019068D01*
X0062500Y0017469D02*
X0071100Y0017469D01*
X0071100Y0015870D02*
X0062500Y0015870D01*
X0062163Y0014272D02*
X0071437Y0014272D01*
X0072521Y0012673D02*
X0061079Y0012673D01*
X0054721Y0012673D02*
X0006800Y0012673D01*
X0006800Y0011075D02*
X0390701Y0011075D01*
X0390701Y0012673D02*
X0127813Y0012673D01*
X0125787Y0012673D02*
X0078879Y0012673D01*
X0079963Y0014272D02*
X0123388Y0014272D01*
X0122639Y0015870D02*
X0080300Y0015870D01*
X0080300Y0017469D02*
X0122600Y0017469D01*
X0123193Y0019068D02*
X0080300Y0019068D01*
X0080300Y0020666D02*
X0125158Y0020666D01*
X0129803Y0023863D02*
X0337600Y0023863D01*
X0337600Y0025462D02*
X0130792Y0025462D01*
X0131000Y0027060D02*
X0337734Y0027060D01*
X0338619Y0028659D02*
X0130576Y0028659D01*
X0129283Y0030257D02*
X0361183Y0030257D01*
X0361454Y0030300D02*
X0360770Y0030192D01*
X0360111Y0029978D01*
X0359494Y0029663D01*
X0358934Y0029256D01*
X0358444Y0028766D01*
X0358037Y0028206D01*
X0357722Y0027589D01*
X0357508Y0026930D01*
X0357400Y0026246D01*
X0357400Y0023300D01*
X0361800Y0023300D01*
X0366200Y0023300D01*
X0366200Y0026246D01*
X0366092Y0026930D01*
X0365878Y0027589D01*
X0365563Y0028206D01*
X0365156Y0028766D01*
X0364666Y0029256D01*
X0364106Y0029663D01*
X0363489Y0029978D01*
X0362830Y0030192D01*
X0362146Y0030300D01*
X0361800Y0030300D01*
X0361800Y0023300D01*
X0361800Y0023300D01*
X0361800Y0023300D01*
X0366200Y0023300D01*
X0366200Y0020354D01*
X0366092Y0019670D01*
X0365878Y0019011D01*
X0365563Y0018394D01*
X0365156Y0017834D01*
X0364666Y0017344D01*
X0364106Y0016937D01*
X0363489Y0016622D01*
X0362830Y0016408D01*
X0362146Y0016300D01*
X0361800Y0016300D01*
X0361800Y0023300D01*
X0361800Y0023300D01*
X0361800Y0023300D01*
X0361800Y0030300D01*
X0361454Y0030300D01*
X0361800Y0030257D02*
X0361800Y0030257D01*
X0362417Y0030257D02*
X0390701Y0030257D01*
X0390701Y0028659D02*
X0365234Y0028659D01*
X0366049Y0027060D02*
X0390701Y0027060D01*
X0390701Y0025462D02*
X0366200Y0025462D01*
X0366200Y0023863D02*
X0390701Y0023863D01*
X0390701Y0022265D02*
X0366200Y0022265D01*
X0366200Y0020666D02*
X0390701Y0020666D01*
X0390701Y0019068D02*
X0365896Y0019068D01*
X0364792Y0017469D02*
X0390701Y0017469D01*
X0390701Y0009476D02*
X0006800Y0009476D01*
X0006800Y0007878D02*
X0390701Y0007878D01*
X0390701Y0006800D02*
X0006800Y0006800D01*
X0006800Y0181800D01*
X0049441Y0181800D01*
X0049441Y0180890D01*
X0050921Y0177317D01*
X0053656Y0174582D01*
X0057229Y0173102D01*
X0061096Y0173102D01*
X0064669Y0174582D01*
X0067403Y0177317D01*
X0068883Y0180890D01*
X0068883Y0181800D01*
X0344717Y0181800D01*
X0344717Y0180890D01*
X0346197Y0177317D01*
X0348931Y0174582D01*
X0352504Y0173102D01*
X0356371Y0173102D01*
X0359944Y0174582D01*
X0362679Y0177317D01*
X0364159Y0180890D01*
X0364159Y0181800D01*
X0390701Y0181800D01*
X0390701Y0006800D01*
X0361800Y0016300D02*
X0361800Y0023300D01*
X0357400Y0023300D01*
X0357400Y0020354D01*
X0357508Y0019670D01*
X0357722Y0019011D01*
X0358037Y0018394D01*
X0358444Y0017834D01*
X0358934Y0017344D01*
X0359494Y0016937D01*
X0360111Y0016622D01*
X0360770Y0016408D01*
X0361454Y0016300D01*
X0361800Y0016300D01*
X0361800Y0017469D02*
X0361800Y0017469D01*
X0361800Y0019068D02*
X0361800Y0019068D01*
X0361800Y0020666D02*
X0361800Y0020666D01*
X0361800Y0022265D02*
X0361800Y0022265D01*
X0361800Y0023863D02*
X0361800Y0023863D01*
X0361800Y0025462D02*
X0361800Y0025462D01*
X0361800Y0027060D02*
X0361800Y0027060D01*
X0361800Y0028659D02*
X0361800Y0028659D01*
X0358366Y0028659D02*
X0354981Y0028659D01*
X0355361Y0028279D02*
X0354179Y0029461D01*
X0352635Y0030100D01*
X0350965Y0030100D01*
X0349421Y0029461D01*
X0348239Y0028279D01*
X0347600Y0026735D01*
X0347600Y0019865D01*
X0348239Y0018321D01*
X0349421Y0017139D01*
X0350965Y0016500D01*
X0352635Y0016500D01*
X0354179Y0017139D01*
X0355361Y0018321D01*
X0356000Y0019865D01*
X0356000Y0026735D01*
X0355361Y0028279D01*
X0355866Y0027060D02*
X0357551Y0027060D01*
X0357400Y0025462D02*
X0356000Y0025462D01*
X0356000Y0023863D02*
X0357400Y0023863D01*
X0357400Y0022265D02*
X0356000Y0022265D01*
X0356000Y0020666D02*
X0357400Y0020666D01*
X0357704Y0019068D02*
X0355670Y0019068D01*
X0354509Y0017469D02*
X0358808Y0017469D01*
X0349091Y0017469D02*
X0344509Y0017469D01*
X0345670Y0019068D02*
X0347930Y0019068D01*
X0347600Y0020666D02*
X0346000Y0020666D01*
X0346000Y0022265D02*
X0347600Y0022265D01*
X0347600Y0023863D02*
X0346000Y0023863D01*
X0346000Y0025462D02*
X0347600Y0025462D01*
X0347734Y0027060D02*
X0345866Y0027060D01*
X0344981Y0028659D02*
X0348619Y0028659D01*
X0332784Y0047784D02*
X0326800Y0041800D01*
X0201800Y0041800D01*
X0186800Y0056800D01*
X0186761Y0056800D01*
X0182784Y0060776D01*
X0092824Y0060776D01*
X0081800Y0071800D01*
X0081800Y0076800D01*
X0086200Y0076800D01*
X0086200Y0079746D01*
X0086092Y0080430D01*
X0085878Y0081089D01*
X0085563Y0081706D01*
X0085156Y0082266D01*
X0084666Y0082756D01*
X0084106Y0083163D01*
X0083489Y0083478D01*
X0082830Y0083692D01*
X0082146Y0083800D01*
X0081800Y0083800D01*
X0081800Y0076800D01*
X0081800Y0076800D01*
X0081800Y0076800D01*
X0086200Y0076800D01*
X0086200Y0073854D01*
X0086092Y0073170D01*
X0085878Y0072511D01*
X0085563Y0071894D01*
X0085156Y0071334D01*
X0084666Y0070844D01*
X0084106Y0070437D01*
X0083489Y0070122D01*
X0082830Y0069908D01*
X0082146Y0069800D01*
X0081800Y0069800D01*
X0081800Y0076800D01*
X0081800Y0076800D01*
X0081800Y0076800D01*
X0077400Y0076800D01*
X0077400Y0079746D01*
X0077508Y0080430D01*
X0077722Y0081089D01*
X0078037Y0081706D01*
X0078444Y0082266D01*
X0078934Y0082756D01*
X0079494Y0083163D01*
X0080111Y0083478D01*
X0080770Y0083692D01*
X0081454Y0083800D01*
X0081800Y0083800D01*
X0081800Y0076800D01*
X0081800Y0069800D01*
X0081454Y0069800D01*
X0080770Y0069908D01*
X0080111Y0070122D01*
X0079494Y0070437D01*
X0078934Y0070844D01*
X0078444Y0071334D01*
X0078037Y0071894D01*
X0077722Y0072511D01*
X0077508Y0073170D01*
X0077400Y0073854D01*
X0077400Y0076800D01*
X0081800Y0076800D01*
X0081800Y0076614D02*
X0081800Y0076614D01*
X0081800Y0078212D02*
X0081800Y0078212D01*
X0081800Y0079811D02*
X0081800Y0079811D01*
X0081800Y0081409D02*
X0081800Y0081409D01*
X0081800Y0083008D02*
X0081800Y0083008D01*
X0079280Y0083008D02*
X0006800Y0083008D01*
X0006800Y0084606D02*
X0141212Y0084606D01*
X0139765Y0083159D02*
X0139737Y0083092D01*
X0139421Y0082961D01*
X0138239Y0081779D01*
X0137600Y0080235D01*
X0137600Y0073365D01*
X0138239Y0071821D01*
X0139421Y0070639D01*
X0140965Y0070000D01*
X0142635Y0070000D01*
X0144179Y0070639D01*
X0145361Y0071821D01*
X0146000Y0073365D01*
X0146000Y0080235D01*
X0145361Y0081779D01*
X0145267Y0081873D01*
X0147794Y0084400D01*
X0275806Y0084400D01*
X0289400Y0070806D01*
X0289400Y0064322D01*
X0288630Y0063552D01*
X0287884Y0061751D01*
X0287884Y0059802D01*
X0288630Y0058001D01*
X0290009Y0056622D01*
X0291810Y0055876D01*
X0293759Y0055876D01*
X0295560Y0056622D01*
X0296938Y0058001D01*
X0297684Y0059802D01*
X0297684Y0061751D01*
X0296938Y0063552D01*
X0295560Y0064930D01*
X0294200Y0065494D01*
X0294200Y0072277D01*
X0293835Y0073159D01*
X0293159Y0073835D01*
X0278159Y0088835D01*
X0277277Y0089200D01*
X0146323Y0089200D01*
X0145441Y0088835D01*
X0144765Y0088159D01*
X0139765Y0083159D01*
X0139535Y0083008D02*
X0134065Y0083008D01*
X0134179Y0082961D02*
X0132635Y0083600D01*
X0130965Y0083600D01*
X0129421Y0082961D01*
X0128239Y0081779D01*
X0127600Y0080235D01*
X0127600Y0073365D01*
X0128239Y0071821D01*
X0129421Y0070639D01*
X0130965Y0070000D01*
X0132635Y0070000D01*
X0134179Y0070639D01*
X0135361Y0071821D01*
X0136000Y0073365D01*
X0136000Y0080235D01*
X0135361Y0081779D01*
X0134179Y0082961D01*
X0135514Y0081409D02*
X0138086Y0081409D01*
X0137600Y0079811D02*
X0136000Y0079811D01*
X0136000Y0078212D02*
X0137600Y0078212D01*
X0137600Y0076614D02*
X0136000Y0076614D01*
X0136000Y0075015D02*
X0137600Y0075015D01*
X0137600Y0073417D02*
X0136000Y0073417D01*
X0135358Y0071818D02*
X0138242Y0071818D01*
X0140434Y0070220D02*
X0133166Y0070220D01*
X0130434Y0070220D02*
X0123166Y0070220D01*
X0122635Y0070000D02*
X0124179Y0070639D01*
X0125361Y0071821D01*
X0126000Y0073365D01*
X0126000Y0080235D01*
X0125361Y0081779D01*
X0124179Y0082961D01*
X0122635Y0083600D01*
X0120965Y0083600D01*
X0119421Y0082961D01*
X0118239Y0081779D01*
X0117600Y0080235D01*
X0117600Y0073365D01*
X0118239Y0071821D01*
X0119421Y0070639D01*
X0120965Y0070000D01*
X0122635Y0070000D01*
X0120434Y0070220D02*
X0113166Y0070220D01*
X0112635Y0070000D02*
X0114179Y0070639D01*
X0115361Y0071821D01*
X0116000Y0073365D01*
X0116000Y0080235D01*
X0115361Y0081779D01*
X0114179Y0082961D01*
X0112635Y0083600D01*
X0110965Y0083600D01*
X0109421Y0082961D01*
X0108239Y0081779D01*
X0107600Y0080235D01*
X0107600Y0073365D01*
X0108239Y0071821D01*
X0109421Y0070639D01*
X0110965Y0070000D01*
X0112635Y0070000D01*
X0110434Y0070220D02*
X0103166Y0070220D01*
X0102635Y0070000D02*
X0104179Y0070639D01*
X0105361Y0071821D01*
X0106000Y0073365D01*
X0106000Y0080235D01*
X0105361Y0081779D01*
X0104179Y0082961D01*
X0102635Y0083600D01*
X0100965Y0083600D01*
X0099421Y0082961D01*
X0098239Y0081779D01*
X0097600Y0080235D01*
X0097600Y0073365D01*
X0098239Y0071821D01*
X0099421Y0070639D01*
X0100965Y0070000D01*
X0102635Y0070000D01*
X0100434Y0070220D02*
X0093166Y0070220D01*
X0092635Y0070000D02*
X0094179Y0070639D01*
X0095361Y0071821D01*
X0096000Y0073365D01*
X0096000Y0080235D01*
X0095361Y0081779D01*
X0094179Y0082961D01*
X0092635Y0083600D01*
X0090965Y0083600D01*
X0089421Y0082961D01*
X0088239Y0081779D01*
X0087600Y0080235D01*
X0087600Y0073365D01*
X0088239Y0071821D01*
X0089421Y0070639D01*
X0090965Y0070000D01*
X0092635Y0070000D01*
X0090434Y0070220D02*
X0083680Y0070220D01*
X0081800Y0070220D02*
X0081800Y0070220D01*
X0081800Y0071818D02*
X0081800Y0071818D01*
X0081800Y0073417D02*
X0081800Y0073417D01*
X0081800Y0075015D02*
X0081800Y0075015D01*
X0086200Y0075015D02*
X0087600Y0075015D01*
X0087600Y0073417D02*
X0086131Y0073417D01*
X0085508Y0071818D02*
X0088242Y0071818D01*
X0095358Y0071818D02*
X0098242Y0071818D01*
X0097600Y0073417D02*
X0096000Y0073417D01*
X0096000Y0075015D02*
X0097600Y0075015D01*
X0097600Y0076614D02*
X0096000Y0076614D01*
X0096000Y0078212D02*
X0097600Y0078212D01*
X0097600Y0079811D02*
X0096000Y0079811D01*
X0095514Y0081409D02*
X0098086Y0081409D01*
X0099535Y0083008D02*
X0094065Y0083008D01*
X0089535Y0083008D02*
X0084320Y0083008D01*
X0085714Y0081409D02*
X0088086Y0081409D01*
X0087600Y0079811D02*
X0086190Y0079811D01*
X0086200Y0078212D02*
X0087600Y0078212D01*
X0087600Y0076614D02*
X0086200Y0076614D01*
X0077400Y0076614D02*
X0006800Y0076614D01*
X0006800Y0078212D02*
X0077400Y0078212D01*
X0077410Y0079811D02*
X0006800Y0079811D01*
X0006800Y0081409D02*
X0077886Y0081409D01*
X0077400Y0075015D02*
X0006800Y0075015D01*
X0006800Y0073417D02*
X0077469Y0073417D01*
X0078092Y0071818D02*
X0006800Y0071818D01*
X0006800Y0070220D02*
X0056558Y0070220D01*
X0057229Y0070498D02*
X0053656Y0069018D01*
X0050921Y0066283D01*
X0049441Y0062710D01*
X0049441Y0058843D01*
X0050921Y0055270D01*
X0053656Y0052535D01*
X0055725Y0051678D01*
X0055294Y0051500D01*
X0054000Y0050206D01*
X0053300Y0048515D01*
X0053300Y0040685D01*
X0054000Y0038994D01*
X0055294Y0037700D01*
X0056985Y0037000D01*
X0058815Y0037000D01*
X0060506Y0037700D01*
X0061800Y0038994D01*
X0062500Y0040685D01*
X0062500Y0048515D01*
X0061800Y0050206D01*
X0060950Y0051055D01*
X0061096Y0051055D01*
X0064669Y0052535D01*
X0067403Y0055270D01*
X0068883Y0058843D01*
X0068883Y0062710D01*
X0067403Y0066283D01*
X0064669Y0069018D01*
X0061096Y0070498D01*
X0057229Y0070498D01*
X0053259Y0068621D02*
X0006800Y0068621D01*
X0006800Y0067023D02*
X0051661Y0067023D01*
X0050565Y0065424D02*
X0006800Y0065424D01*
X0006800Y0063826D02*
X0049903Y0063826D01*
X0049441Y0062227D02*
X0006800Y0062227D01*
X0006800Y0060629D02*
X0049441Y0060629D01*
X0049441Y0059030D02*
X0006800Y0059030D01*
X0006800Y0057432D02*
X0050025Y0057432D01*
X0050687Y0055833D02*
X0006800Y0055833D01*
X0006800Y0054235D02*
X0051956Y0054235D01*
X0053554Y0052636D02*
X0006800Y0052636D01*
X0006800Y0051038D02*
X0054832Y0051038D01*
X0053683Y0049439D02*
X0006800Y0049439D01*
X0006800Y0047841D02*
X0053300Y0047841D01*
X0053300Y0046242D02*
X0006800Y0046242D01*
X0006800Y0044644D02*
X0053300Y0044644D01*
X0053300Y0043045D02*
X0006800Y0043045D01*
X0006800Y0041447D02*
X0053300Y0041447D01*
X0053647Y0039848D02*
X0006800Y0039848D01*
X0006800Y0038250D02*
X0054745Y0038250D01*
X0061055Y0038250D02*
X0072545Y0038250D01*
X0073094Y0037700D02*
X0074785Y0037000D01*
X0076615Y0037000D01*
X0078306Y0037700D01*
X0079600Y0038994D01*
X0080300Y0040685D01*
X0080300Y0048515D01*
X0079600Y0050206D01*
X0078306Y0051500D01*
X0076615Y0052200D01*
X0074785Y0052200D01*
X0073094Y0051500D01*
X0071800Y0050206D01*
X0071100Y0048515D01*
X0071100Y0040685D01*
X0071800Y0038994D01*
X0073094Y0037700D01*
X0071447Y0039848D02*
X0062153Y0039848D01*
X0062500Y0041447D02*
X0071100Y0041447D01*
X0071100Y0043045D02*
X0062500Y0043045D01*
X0062500Y0044644D02*
X0071100Y0044644D01*
X0071100Y0046242D02*
X0062500Y0046242D01*
X0062500Y0047841D02*
X0071100Y0047841D01*
X0071483Y0049439D02*
X0062117Y0049439D01*
X0060968Y0051038D02*
X0072632Y0051038D01*
X0078768Y0051038D02*
X0197543Y0051038D01*
X0197543Y0052636D02*
X0064770Y0052636D01*
X0066369Y0054235D02*
X0195971Y0054235D01*
X0197543Y0052663D02*
X0197543Y0048480D01*
X0198480Y0047543D01*
X0205120Y0047543D01*
X0206057Y0048480D01*
X0206057Y0055120D01*
X0205120Y0056057D01*
X0204196Y0056057D01*
X0205560Y0056622D01*
X0206938Y0058001D01*
X0207684Y0059802D01*
X0207684Y0061751D01*
X0206938Y0063552D01*
X0205560Y0064930D01*
X0204917Y0065197D01*
X0204560Y0071020D01*
X0205361Y0071821D01*
X0206000Y0073365D01*
X0206000Y0080235D01*
X0205361Y0081779D01*
X0204179Y0082961D01*
X0202635Y0083600D01*
X0200965Y0083600D01*
X0199421Y0082961D01*
X0198239Y0081779D01*
X0197600Y0080235D01*
X0197600Y0073365D01*
X0198239Y0071821D01*
X0199421Y0070639D01*
X0199783Y0070489D01*
X0200122Y0064977D01*
X0200009Y0064930D01*
X0198630Y0063552D01*
X0197884Y0061751D01*
X0197884Y0059802D01*
X0198373Y0058621D01*
X0197540Y0059454D01*
X0197684Y0059802D01*
X0197684Y0061751D01*
X0196938Y0063552D01*
X0195560Y0064930D01*
X0193759Y0065676D01*
X0191810Y0065676D01*
X0190009Y0064930D01*
X0188630Y0063552D01*
X0187884Y0061751D01*
X0187884Y0059802D01*
X0188630Y0058001D01*
X0190009Y0056622D01*
X0191810Y0055876D01*
X0193759Y0055876D01*
X0194162Y0056044D01*
X0197543Y0052663D01*
X0201800Y0051800D02*
X0192824Y0060776D01*
X0192784Y0060776D01*
X0188204Y0059030D02*
X0187579Y0059030D01*
X0187511Y0058819D02*
X0187759Y0059582D01*
X0187884Y0060375D01*
X0187884Y0060592D01*
X0182969Y0060592D01*
X0182969Y0060961D01*
X0187884Y0060961D01*
X0187884Y0061178D01*
X0187759Y0061971D01*
X0187511Y0062734D01*
X0187146Y0063449D01*
X0186674Y0064099D01*
X0186107Y0064666D01*
X0185457Y0065138D01*
X0184742Y0065503D01*
X0183979Y0065751D01*
X0183186Y0065876D01*
X0182969Y0065876D01*
X0182969Y0060961D01*
X0182600Y0060961D01*
X0182600Y0065876D01*
X0182383Y0065876D01*
X0181590Y0065751D01*
X0180827Y0065503D01*
X0180111Y0065138D01*
X0179462Y0064666D01*
X0178894Y0064099D01*
X0178422Y0063449D01*
X0178058Y0062734D01*
X0177810Y0061971D01*
X0177684Y0061178D01*
X0177684Y0060961D01*
X0182600Y0060961D01*
X0182600Y0060592D01*
X0182969Y0060592D01*
X0182969Y0055676D01*
X0183186Y0055676D01*
X0183979Y0055802D01*
X0184742Y0056050D01*
X0185457Y0056414D01*
X0186107Y0056886D01*
X0186674Y0057454D01*
X0187146Y0058103D01*
X0187511Y0058819D01*
X0186652Y0057432D02*
X0189199Y0057432D01*
X0184075Y0055833D02*
X0194373Y0055833D01*
X0197964Y0059030D02*
X0198204Y0059030D01*
X0197884Y0060629D02*
X0197684Y0060629D01*
X0197487Y0062227D02*
X0198082Y0062227D01*
X0198904Y0063826D02*
X0196664Y0063826D01*
X0194367Y0065424D02*
X0200094Y0065424D01*
X0199996Y0067023D02*
X0066664Y0067023D01*
X0067759Y0065424D02*
X0180673Y0065424D01*
X0182600Y0065424D02*
X0182969Y0065424D01*
X0182969Y0063826D02*
X0182600Y0063826D01*
X0182600Y0062227D02*
X0182969Y0062227D01*
X0182969Y0060629D02*
X0187884Y0060629D01*
X0188082Y0062227D02*
X0187675Y0062227D01*
X0186873Y0063826D02*
X0188904Y0063826D01*
X0191201Y0065424D02*
X0184896Y0065424D01*
X0182600Y0060629D02*
X0068883Y0060629D01*
X0068883Y0062227D02*
X0177893Y0062227D01*
X0177684Y0060592D02*
X0177684Y0060375D01*
X0177810Y0059582D01*
X0178058Y0058819D01*
X0178422Y0058103D01*
X0178894Y0057454D01*
X0179462Y0056886D01*
X0180111Y0056414D01*
X0180827Y0056050D01*
X0181590Y0055802D01*
X0182383Y0055676D01*
X0182600Y0055676D01*
X0182600Y0060592D01*
X0177684Y0060592D01*
X0177989Y0059030D02*
X0068883Y0059030D01*
X0068299Y0057432D02*
X0178916Y0057432D01*
X0181494Y0055833D02*
X0067637Y0055833D01*
X0068421Y0063826D02*
X0178696Y0063826D01*
X0182600Y0059030D02*
X0182969Y0059030D01*
X0182969Y0057432D02*
X0182600Y0057432D01*
X0182600Y0055833D02*
X0182969Y0055833D01*
X0197543Y0049439D02*
X0079917Y0049439D01*
X0080300Y0047841D02*
X0198182Y0047841D01*
X0205418Y0047841D02*
X0390701Y0047841D01*
X0390701Y0049439D02*
X0206057Y0049439D01*
X0206057Y0051038D02*
X0390701Y0051038D01*
X0390701Y0052636D02*
X0382201Y0052636D01*
X0382316Y0052695D02*
X0382927Y0053139D01*
X0383461Y0053673D01*
X0383905Y0054284D01*
X0384248Y0054957D01*
X0384482Y0055676D01*
X0384600Y0056422D01*
X0384600Y0056600D01*
X0377000Y0056600D01*
X0377000Y0057000D01*
X0376600Y0057000D01*
X0376600Y0061600D01*
X0373422Y0061600D01*
X0372676Y0061482D01*
X0371957Y0061248D01*
X0371284Y0060905D01*
X0370673Y0060461D01*
X0370139Y0059927D01*
X0369695Y0059316D01*
X0369352Y0058643D01*
X0369118Y0057924D01*
X0369000Y0057178D01*
X0369000Y0057000D01*
X0376600Y0057000D01*
X0376600Y0056600D01*
X0377000Y0056600D01*
X0377000Y0052000D01*
X0380178Y0052000D01*
X0380924Y0052118D01*
X0381643Y0052352D01*
X0382316Y0052695D01*
X0383869Y0054235D02*
X0390701Y0054235D01*
X0390701Y0055833D02*
X0384507Y0055833D01*
X0384600Y0057000D02*
X0384600Y0057178D01*
X0384482Y0057924D01*
X0384248Y0058643D01*
X0383905Y0059316D01*
X0383461Y0059927D01*
X0382927Y0060461D01*
X0382316Y0060905D01*
X0381643Y0061248D01*
X0380924Y0061482D01*
X0380178Y0061600D01*
X0377000Y0061600D01*
X0377000Y0057000D01*
X0384600Y0057000D01*
X0384560Y0057432D02*
X0390701Y0057432D01*
X0390701Y0059030D02*
X0384051Y0059030D01*
X0382696Y0060629D02*
X0390701Y0060629D01*
X0390701Y0062227D02*
X0380781Y0062227D01*
X0380715Y0062200D02*
X0382406Y0062900D01*
X0383700Y0064194D01*
X0384400Y0065885D01*
X0384400Y0067715D01*
X0383700Y0069406D01*
X0382406Y0070700D01*
X0380715Y0071400D01*
X0372885Y0071400D01*
X0371194Y0070700D01*
X0369900Y0069406D01*
X0369200Y0067715D01*
X0369200Y0065885D01*
X0369900Y0064194D01*
X0371194Y0062900D01*
X0372885Y0062200D01*
X0380715Y0062200D01*
X0383331Y0063826D02*
X0390701Y0063826D01*
X0390701Y0065424D02*
X0384209Y0065424D01*
X0384400Y0067023D02*
X0390701Y0067023D01*
X0390701Y0068621D02*
X0384025Y0068621D01*
X0382885Y0070220D02*
X0390701Y0070220D01*
X0390701Y0071818D02*
X0294200Y0071818D01*
X0294200Y0070220D02*
X0351834Y0070220D01*
X0352504Y0070498D02*
X0348931Y0069018D01*
X0346197Y0066283D01*
X0344717Y0062710D01*
X0344717Y0058843D01*
X0346197Y0055270D01*
X0348931Y0052535D01*
X0352504Y0051055D01*
X0356371Y0051055D01*
X0359944Y0052535D01*
X0362679Y0055270D01*
X0364159Y0058843D01*
X0364159Y0062710D01*
X0362679Y0066283D01*
X0359944Y0069018D01*
X0356371Y0070498D01*
X0352504Y0070498D01*
X0348535Y0068621D02*
X0294200Y0068621D01*
X0294200Y0067023D02*
X0346936Y0067023D01*
X0345841Y0065424D02*
X0334896Y0065424D01*
X0334742Y0065503D02*
X0335457Y0065138D01*
X0336107Y0064666D01*
X0336674Y0064099D01*
X0337146Y0063449D01*
X0337511Y0062734D01*
X0337759Y0061971D01*
X0337884Y0061178D01*
X0337884Y0060961D01*
X0332969Y0060961D01*
X0332969Y0060592D01*
X0337884Y0060592D01*
X0337884Y0060375D01*
X0337759Y0059582D01*
X0337511Y0058819D01*
X0337146Y0058103D01*
X0336674Y0057454D01*
X0336107Y0056886D01*
X0335457Y0056414D01*
X0334742Y0056050D01*
X0333979Y0055802D01*
X0333186Y0055676D01*
X0332969Y0055676D01*
X0332969Y0060592D01*
X0332600Y0060592D01*
X0332600Y0055676D01*
X0332383Y0055676D01*
X0331590Y0055802D01*
X0330827Y0056050D01*
X0330111Y0056414D01*
X0329462Y0056886D01*
X0328894Y0057454D01*
X0328422Y0058103D01*
X0328058Y0058819D01*
X0327810Y0059582D01*
X0327684Y0060375D01*
X0327684Y0060592D01*
X0332600Y0060592D01*
X0332600Y0060961D01*
X0332600Y0065876D01*
X0332383Y0065876D01*
X0331590Y0065751D01*
X0330827Y0065503D01*
X0330111Y0065138D01*
X0329462Y0064666D01*
X0328894Y0064099D01*
X0328422Y0063449D01*
X0328058Y0062734D01*
X0327810Y0061971D01*
X0327684Y0061178D01*
X0327684Y0060961D01*
X0332600Y0060961D01*
X0332969Y0060961D01*
X0332969Y0065876D01*
X0333186Y0065876D01*
X0333979Y0065751D01*
X0334742Y0065503D01*
X0332969Y0065424D02*
X0332600Y0065424D01*
X0332600Y0063826D02*
X0332969Y0063826D01*
X0332969Y0062227D02*
X0332600Y0062227D01*
X0332784Y0060776D02*
X0332784Y0047784D01*
X0332600Y0055833D02*
X0332969Y0055833D01*
X0334075Y0055833D02*
X0345963Y0055833D01*
X0345301Y0057432D02*
X0336652Y0057432D01*
X0337579Y0059030D02*
X0344717Y0059030D01*
X0344717Y0060629D02*
X0332969Y0060629D01*
X0332600Y0060629D02*
X0327684Y0060629D01*
X0327684Y0059802D02*
X0327684Y0061751D01*
X0326938Y0063552D01*
X0325560Y0064930D01*
X0323759Y0065676D01*
X0321810Y0065676D01*
X0320009Y0064930D01*
X0318630Y0063552D01*
X0317884Y0061751D01*
X0317884Y0059802D01*
X0318630Y0058001D01*
X0320009Y0056622D01*
X0321810Y0055876D01*
X0323759Y0055876D01*
X0325560Y0056622D01*
X0326938Y0058001D01*
X0327684Y0059802D01*
X0327989Y0059030D02*
X0327365Y0059030D01*
X0326369Y0057432D02*
X0328916Y0057432D01*
X0331494Y0055833D02*
X0205344Y0055833D01*
X0206057Y0054235D02*
X0347231Y0054235D01*
X0348830Y0052636D02*
X0206057Y0052636D01*
X0206369Y0057432D02*
X0209199Y0057432D01*
X0208630Y0058001D02*
X0210009Y0056622D01*
X0211810Y0055876D01*
X0213759Y0055876D01*
X0215560Y0056622D01*
X0216938Y0058001D01*
X0217684Y0059802D01*
X0217684Y0061751D01*
X0216938Y0063552D01*
X0215560Y0064930D01*
X0214917Y0065197D01*
X0214560Y0071020D01*
X0215361Y0071821D01*
X0216000Y0073365D01*
X0216000Y0080235D01*
X0215361Y0081779D01*
X0214179Y0082961D01*
X0212635Y0083600D01*
X0210965Y0083600D01*
X0209421Y0082961D01*
X0208239Y0081779D01*
X0207600Y0080235D01*
X0207600Y0073365D01*
X0208239Y0071821D01*
X0209421Y0070639D01*
X0209783Y0070489D01*
X0210122Y0064977D01*
X0210009Y0064930D01*
X0208630Y0063552D01*
X0207884Y0061751D01*
X0207884Y0059802D01*
X0208630Y0058001D01*
X0208204Y0059030D02*
X0207365Y0059030D01*
X0207684Y0060629D02*
X0207884Y0060629D01*
X0208082Y0062227D02*
X0207487Y0062227D01*
X0206664Y0063826D02*
X0208904Y0063826D01*
X0210094Y0065424D02*
X0204903Y0065424D01*
X0204805Y0067023D02*
X0209996Y0067023D01*
X0209898Y0068621D02*
X0204707Y0068621D01*
X0204609Y0070220D02*
X0209800Y0070220D01*
X0208242Y0071818D02*
X0205358Y0071818D01*
X0206000Y0073417D02*
X0207600Y0073417D01*
X0207600Y0075015D02*
X0206000Y0075015D01*
X0206000Y0076614D02*
X0207600Y0076614D01*
X0207600Y0078212D02*
X0206000Y0078212D01*
X0206000Y0079811D02*
X0207600Y0079811D01*
X0208086Y0081409D02*
X0205514Y0081409D01*
X0204065Y0083008D02*
X0209535Y0083008D01*
X0214065Y0083008D02*
X0219535Y0083008D01*
X0219421Y0082961D02*
X0218239Y0081779D01*
X0217600Y0080235D01*
X0217600Y0073365D01*
X0218239Y0071821D01*
X0219421Y0070639D01*
X0219783Y0070489D01*
X0220122Y0064977D01*
X0220009Y0064930D01*
X0218630Y0063552D01*
X0217884Y0061751D01*
X0217884Y0059802D01*
X0218630Y0058001D01*
X0220009Y0056622D01*
X0221810Y0055876D01*
X0223759Y0055876D01*
X0225560Y0056622D01*
X0226938Y0058001D01*
X0227684Y0059802D01*
X0227684Y0061751D01*
X0226938Y0063552D01*
X0225560Y0064930D01*
X0224917Y0065197D01*
X0224560Y0071020D01*
X0225361Y0071821D01*
X0226000Y0073365D01*
X0226000Y0080235D01*
X0225361Y0081779D01*
X0224179Y0082961D01*
X0222635Y0083600D01*
X0220965Y0083600D01*
X0219421Y0082961D01*
X0218086Y0081409D02*
X0215514Y0081409D01*
X0216000Y0079811D02*
X0217600Y0079811D01*
X0217600Y0078212D02*
X0216000Y0078212D01*
X0216000Y0076614D02*
X0217600Y0076614D01*
X0217600Y0075015D02*
X0216000Y0075015D01*
X0216000Y0073417D02*
X0217600Y0073417D01*
X0218242Y0071818D02*
X0215358Y0071818D01*
X0214609Y0070220D02*
X0219800Y0070220D01*
X0219898Y0068621D02*
X0214707Y0068621D01*
X0214805Y0067023D02*
X0219996Y0067023D01*
X0220094Y0065424D02*
X0214903Y0065424D01*
X0216664Y0063826D02*
X0218904Y0063826D01*
X0218082Y0062227D02*
X0217487Y0062227D01*
X0217684Y0060629D02*
X0217884Y0060629D01*
X0218204Y0059030D02*
X0217365Y0059030D01*
X0216369Y0057432D02*
X0219199Y0057432D01*
X0222784Y0060776D02*
X0221800Y0076800D01*
X0226000Y0076614D02*
X0227600Y0076614D01*
X0227600Y0078212D02*
X0226000Y0078212D01*
X0226000Y0079811D02*
X0227600Y0079811D01*
X0227600Y0080235D02*
X0227600Y0073365D01*
X0228239Y0071821D01*
X0229421Y0070639D01*
X0229783Y0070489D01*
X0230122Y0064977D01*
X0230009Y0064930D01*
X0228630Y0063552D01*
X0227884Y0061751D01*
X0227884Y0059802D01*
X0228630Y0058001D01*
X0230009Y0056622D01*
X0231810Y0055876D01*
X0233759Y0055876D01*
X0235560Y0056622D01*
X0236938Y0058001D01*
X0237684Y0059802D01*
X0237684Y0061751D01*
X0236938Y0063552D01*
X0235560Y0064930D01*
X0234917Y0065197D01*
X0234560Y0071020D01*
X0235361Y0071821D01*
X0236000Y0073365D01*
X0236000Y0080235D01*
X0235361Y0081779D01*
X0234179Y0082961D01*
X0232635Y0083600D01*
X0230965Y0083600D01*
X0229421Y0082961D01*
X0228239Y0081779D01*
X0227600Y0080235D01*
X0228086Y0081409D02*
X0225514Y0081409D01*
X0224065Y0083008D02*
X0229535Y0083008D01*
X0234065Y0083008D02*
X0239535Y0083008D01*
X0239421Y0082961D02*
X0238239Y0081779D01*
X0237600Y0080235D01*
X0237600Y0073365D01*
X0238239Y0071821D01*
X0239421Y0070639D01*
X0239783Y0070489D01*
X0240122Y0064977D01*
X0240009Y0064930D01*
X0238630Y0063552D01*
X0237884Y0061751D01*
X0237884Y0059802D01*
X0238630Y0058001D01*
X0240009Y0056622D01*
X0241810Y0055876D01*
X0243759Y0055876D01*
X0245560Y0056622D01*
X0246938Y0058001D01*
X0247684Y0059802D01*
X0247684Y0061751D01*
X0246938Y0063552D01*
X0245560Y0064930D01*
X0244917Y0065197D01*
X0244560Y0071020D01*
X0245361Y0071821D01*
X0246000Y0073365D01*
X0246000Y0080235D01*
X0245361Y0081779D01*
X0244179Y0082961D01*
X0242635Y0083600D01*
X0240965Y0083600D01*
X0239421Y0082961D01*
X0238086Y0081409D02*
X0235514Y0081409D01*
X0236000Y0079811D02*
X0237600Y0079811D01*
X0237600Y0078212D02*
X0236000Y0078212D01*
X0236000Y0076614D02*
X0237600Y0076614D01*
X0237600Y0075015D02*
X0236000Y0075015D01*
X0236000Y0073417D02*
X0237600Y0073417D01*
X0238242Y0071818D02*
X0235358Y0071818D01*
X0234609Y0070220D02*
X0239800Y0070220D01*
X0239898Y0068621D02*
X0234707Y0068621D01*
X0234805Y0067023D02*
X0239996Y0067023D01*
X0240094Y0065424D02*
X0234903Y0065424D01*
X0236664Y0063826D02*
X0238904Y0063826D01*
X0238082Y0062227D02*
X0237487Y0062227D01*
X0237684Y0060629D02*
X0237884Y0060629D01*
X0238204Y0059030D02*
X0237365Y0059030D01*
X0236369Y0057432D02*
X0239199Y0057432D01*
X0246369Y0057432D02*
X0249199Y0057432D01*
X0248630Y0058001D02*
X0250009Y0056622D01*
X0251810Y0055876D01*
X0253759Y0055876D01*
X0255560Y0056622D01*
X0256938Y0058001D01*
X0257684Y0059802D01*
X0257684Y0061751D01*
X0256938Y0063552D01*
X0255560Y0064930D01*
X0254917Y0065197D01*
X0254560Y0071020D01*
X0255361Y0071821D01*
X0256000Y0073365D01*
X0256000Y0080235D01*
X0255361Y0081779D01*
X0254179Y0082961D01*
X0252635Y0083600D01*
X0250965Y0083600D01*
X0249421Y0082961D01*
X0248239Y0081779D01*
X0247600Y0080235D01*
X0247600Y0073365D01*
X0248239Y0071821D01*
X0249421Y0070639D01*
X0249783Y0070489D01*
X0250122Y0064977D01*
X0250009Y0064930D01*
X0248630Y0063552D01*
X0247884Y0061751D01*
X0247884Y0059802D01*
X0248630Y0058001D01*
X0248204Y0059030D02*
X0247365Y0059030D01*
X0247684Y0060629D02*
X0247884Y0060629D01*
X0248082Y0062227D02*
X0247487Y0062227D01*
X0246664Y0063826D02*
X0248904Y0063826D01*
X0250094Y0065424D02*
X0244903Y0065424D01*
X0244805Y0067023D02*
X0249996Y0067023D01*
X0249898Y0068621D02*
X0244707Y0068621D01*
X0244609Y0070220D02*
X0249800Y0070220D01*
X0248242Y0071818D02*
X0245358Y0071818D01*
X0246000Y0073417D02*
X0247600Y0073417D01*
X0247600Y0075015D02*
X0246000Y0075015D01*
X0246000Y0076614D02*
X0247600Y0076614D01*
X0247600Y0078212D02*
X0246000Y0078212D01*
X0246000Y0079811D02*
X0247600Y0079811D01*
X0248086Y0081409D02*
X0245514Y0081409D01*
X0244065Y0083008D02*
X0249535Y0083008D01*
X0254065Y0083008D02*
X0259535Y0083008D01*
X0259421Y0082961D02*
X0258239Y0081779D01*
X0257600Y0080235D01*
X0257600Y0073365D01*
X0258239Y0071821D01*
X0259421Y0070639D01*
X0259783Y0070489D01*
X0260122Y0064977D01*
X0260009Y0064930D01*
X0258630Y0063552D01*
X0257884Y0061751D01*
X0257884Y0059802D01*
X0258630Y0058001D01*
X0260009Y0056622D01*
X0261810Y0055876D01*
X0263759Y0055876D01*
X0265560Y0056622D01*
X0266938Y0058001D01*
X0267684Y0059802D01*
X0267684Y0061751D01*
X0266938Y0063552D01*
X0265560Y0064930D01*
X0264917Y0065197D01*
X0264560Y0071020D01*
X0265361Y0071821D01*
X0266000Y0073365D01*
X0266000Y0080235D01*
X0265361Y0081779D01*
X0264179Y0082961D01*
X0262635Y0083600D01*
X0260965Y0083600D01*
X0259421Y0082961D01*
X0258086Y0081409D02*
X0255514Y0081409D01*
X0256000Y0079811D02*
X0257600Y0079811D01*
X0257600Y0078212D02*
X0256000Y0078212D01*
X0256000Y0076614D02*
X0257600Y0076614D01*
X0257600Y0075015D02*
X0256000Y0075015D01*
X0256000Y0073417D02*
X0257600Y0073417D01*
X0258242Y0071818D02*
X0255358Y0071818D01*
X0254609Y0070220D02*
X0259800Y0070220D01*
X0259898Y0068621D02*
X0254707Y0068621D01*
X0254805Y0067023D02*
X0259996Y0067023D01*
X0260094Y0065424D02*
X0254903Y0065424D01*
X0256664Y0063826D02*
X0258904Y0063826D01*
X0258082Y0062227D02*
X0257487Y0062227D01*
X0257684Y0060629D02*
X0257884Y0060629D01*
X0258204Y0059030D02*
X0257365Y0059030D01*
X0256369Y0057432D02*
X0259199Y0057432D01*
X0266369Y0057432D02*
X0269199Y0057432D01*
X0268630Y0058001D02*
X0270009Y0056622D01*
X0271810Y0055876D01*
X0273759Y0055876D01*
X0275560Y0056622D01*
X0276938Y0058001D01*
X0277684Y0059802D01*
X0277684Y0061751D01*
X0276938Y0063552D01*
X0275560Y0064930D01*
X0274200Y0065494D01*
X0274200Y0070660D01*
X0275361Y0071821D01*
X0276000Y0073365D01*
X0276000Y0080235D01*
X0275361Y0081779D01*
X0274179Y0082961D01*
X0272635Y0083600D01*
X0270965Y0083600D01*
X0269421Y0082961D01*
X0268239Y0081779D01*
X0267600Y0080235D01*
X0267600Y0073365D01*
X0268239Y0071821D01*
X0269400Y0070660D01*
X0269400Y0064322D01*
X0268630Y0063552D01*
X0267884Y0061751D01*
X0267884Y0059802D01*
X0268630Y0058001D01*
X0268204Y0059030D02*
X0267365Y0059030D01*
X0267684Y0060629D02*
X0267884Y0060629D01*
X0268082Y0062227D02*
X0267487Y0062227D01*
X0266664Y0063826D02*
X0268904Y0063826D01*
X0269400Y0065424D02*
X0264903Y0065424D01*
X0264805Y0067023D02*
X0269400Y0067023D01*
X0269400Y0068621D02*
X0264707Y0068621D01*
X0264609Y0070220D02*
X0269400Y0070220D01*
X0268242Y0071818D02*
X0265358Y0071818D01*
X0266000Y0073417D02*
X0267600Y0073417D01*
X0267600Y0075015D02*
X0266000Y0075015D01*
X0266000Y0076614D02*
X0267600Y0076614D01*
X0267600Y0078212D02*
X0266000Y0078212D01*
X0266000Y0079811D02*
X0267600Y0079811D01*
X0268086Y0081409D02*
X0265514Y0081409D01*
X0264065Y0083008D02*
X0269535Y0083008D01*
X0274065Y0083008D02*
X0277198Y0083008D01*
X0278796Y0081409D02*
X0275514Y0081409D01*
X0276000Y0079811D02*
X0280395Y0079811D01*
X0281993Y0078212D02*
X0276000Y0078212D01*
X0276000Y0076614D02*
X0283592Y0076614D01*
X0285190Y0075015D02*
X0276000Y0075015D01*
X0276000Y0073417D02*
X0286789Y0073417D01*
X0288388Y0071818D02*
X0275358Y0071818D01*
X0274200Y0070220D02*
X0289400Y0070220D01*
X0289400Y0068621D02*
X0274200Y0068621D01*
X0274200Y0067023D02*
X0289400Y0067023D01*
X0289400Y0065424D02*
X0284367Y0065424D01*
X0283759Y0065676D02*
X0281810Y0065676D01*
X0280009Y0064930D01*
X0278630Y0063552D01*
X0277884Y0061751D01*
X0277884Y0059802D01*
X0278630Y0058001D01*
X0280009Y0056622D01*
X0281810Y0055876D01*
X0283759Y0055876D01*
X0285560Y0056622D01*
X0286938Y0058001D01*
X0287684Y0059802D01*
X0287684Y0061751D01*
X0286938Y0063552D01*
X0285560Y0064930D01*
X0283759Y0065676D01*
X0281201Y0065424D02*
X0274367Y0065424D01*
X0276664Y0063826D02*
X0278904Y0063826D01*
X0278082Y0062227D02*
X0277487Y0062227D01*
X0277684Y0060629D02*
X0277884Y0060629D01*
X0278204Y0059030D02*
X0277365Y0059030D01*
X0276369Y0057432D02*
X0279199Y0057432D01*
X0286369Y0057432D02*
X0289199Y0057432D01*
X0288204Y0059030D02*
X0287365Y0059030D01*
X0287684Y0060629D02*
X0287884Y0060629D01*
X0288082Y0062227D02*
X0287487Y0062227D01*
X0286664Y0063826D02*
X0288904Y0063826D01*
X0291800Y0061761D02*
X0292784Y0060776D01*
X0291800Y0061761D02*
X0291800Y0071800D01*
X0276800Y0086800D01*
X0146800Y0086800D01*
X0141800Y0081800D01*
X0141800Y0076800D01*
X0146000Y0076614D02*
X0147600Y0076614D01*
X0147600Y0078212D02*
X0146000Y0078212D01*
X0146000Y0079811D02*
X0147600Y0079811D01*
X0147600Y0080235D02*
X0148239Y0081779D01*
X0149421Y0082961D01*
X0150965Y0083600D01*
X0152635Y0083600D01*
X0154179Y0082961D01*
X0155361Y0081779D01*
X0156000Y0080235D01*
X0156000Y0073365D01*
X0155361Y0071821D01*
X0154179Y0070639D01*
X0152635Y0070000D01*
X0150965Y0070000D01*
X0149421Y0070639D01*
X0148239Y0071821D01*
X0147600Y0073365D01*
X0147600Y0080235D01*
X0148086Y0081409D02*
X0145514Y0081409D01*
X0146402Y0083008D02*
X0149535Y0083008D01*
X0154065Y0083008D02*
X0159535Y0083008D01*
X0159421Y0082961D02*
X0160965Y0083600D01*
X0162635Y0083600D01*
X0164179Y0082961D01*
X0165361Y0081779D01*
X0166000Y0080235D01*
X0166000Y0073365D01*
X0165361Y0071821D01*
X0164179Y0070639D01*
X0162635Y0070000D01*
X0160965Y0070000D01*
X0159421Y0070639D01*
X0158239Y0071821D01*
X0157600Y0073365D01*
X0157600Y0080235D01*
X0158239Y0081779D01*
X0159421Y0082961D01*
X0158086Y0081409D02*
X0155514Y0081409D01*
X0156000Y0079811D02*
X0157600Y0079811D01*
X0157600Y0078212D02*
X0156000Y0078212D01*
X0156000Y0076614D02*
X0157600Y0076614D01*
X0157600Y0075015D02*
X0156000Y0075015D01*
X0156000Y0073417D02*
X0157600Y0073417D01*
X0158242Y0071818D02*
X0155358Y0071818D01*
X0153166Y0070220D02*
X0160434Y0070220D01*
X0163166Y0070220D02*
X0170434Y0070220D01*
X0170965Y0070000D02*
X0172635Y0070000D01*
X0174179Y0070639D01*
X0175361Y0071821D01*
X0176000Y0073365D01*
X0176000Y0080235D01*
X0175361Y0081779D01*
X0174179Y0082961D01*
X0172635Y0083600D01*
X0170965Y0083600D01*
X0169421Y0082961D01*
X0168239Y0081779D01*
X0167600Y0080235D01*
X0167600Y0073365D01*
X0168239Y0071821D01*
X0169421Y0070639D01*
X0170965Y0070000D01*
X0173166Y0070220D02*
X0180434Y0070220D01*
X0180965Y0070000D02*
X0182635Y0070000D01*
X0184179Y0070639D01*
X0185361Y0071821D01*
X0186000Y0073365D01*
X0186000Y0080235D01*
X0185361Y0081779D01*
X0184179Y0082961D01*
X0182635Y0083600D01*
X0180965Y0083600D01*
X0179421Y0082961D01*
X0178239Y0081779D01*
X0177600Y0080235D01*
X0177600Y0073365D01*
X0178239Y0071821D01*
X0179421Y0070639D01*
X0180965Y0070000D01*
X0183166Y0070220D02*
X0190434Y0070220D01*
X0190965Y0070000D02*
X0192635Y0070000D01*
X0194179Y0070639D01*
X0195361Y0071821D01*
X0196000Y0073365D01*
X0196000Y0080235D01*
X0195361Y0081779D01*
X0194179Y0082961D01*
X0192635Y0083600D01*
X0190965Y0083600D01*
X0189421Y0082961D01*
X0188239Y0081779D01*
X0187600Y0080235D01*
X0187600Y0073365D01*
X0188239Y0071821D01*
X0189421Y0070639D01*
X0190965Y0070000D01*
X0193166Y0070220D02*
X0199800Y0070220D01*
X0199898Y0068621D02*
X0065065Y0068621D01*
X0061766Y0070220D02*
X0079920Y0070220D01*
X0105358Y0071818D02*
X0108242Y0071818D01*
X0107600Y0073417D02*
X0106000Y0073417D01*
X0106000Y0075015D02*
X0107600Y0075015D01*
X0107600Y0076614D02*
X0106000Y0076614D01*
X0106000Y0078212D02*
X0107600Y0078212D01*
X0107600Y0079811D02*
X0106000Y0079811D01*
X0105514Y0081409D02*
X0108086Y0081409D01*
X0109535Y0083008D02*
X0104065Y0083008D01*
X0114065Y0083008D02*
X0119535Y0083008D01*
X0118086Y0081409D02*
X0115514Y0081409D01*
X0116000Y0079811D02*
X0117600Y0079811D01*
X0117600Y0078212D02*
X0116000Y0078212D01*
X0116000Y0076614D02*
X0117600Y0076614D01*
X0117600Y0075015D02*
X0116000Y0075015D01*
X0116000Y0073417D02*
X0117600Y0073417D01*
X0118242Y0071818D02*
X0115358Y0071818D01*
X0125358Y0071818D02*
X0128242Y0071818D01*
X0127600Y0073417D02*
X0126000Y0073417D01*
X0126000Y0075015D02*
X0127600Y0075015D01*
X0127600Y0076614D02*
X0126000Y0076614D01*
X0126000Y0078212D02*
X0127600Y0078212D01*
X0127600Y0079811D02*
X0126000Y0079811D01*
X0125514Y0081409D02*
X0128086Y0081409D01*
X0129535Y0083008D02*
X0124065Y0083008D01*
X0142811Y0086205D02*
X0006800Y0086205D01*
X0006800Y0087803D02*
X0144409Y0087803D01*
X0164065Y0083008D02*
X0169535Y0083008D01*
X0168086Y0081409D02*
X0165514Y0081409D01*
X0166000Y0079811D02*
X0167600Y0079811D01*
X0167600Y0078212D02*
X0166000Y0078212D01*
X0166000Y0076614D02*
X0167600Y0076614D01*
X0167600Y0075015D02*
X0166000Y0075015D01*
X0166000Y0073417D02*
X0167600Y0073417D01*
X0168242Y0071818D02*
X0165358Y0071818D01*
X0175358Y0071818D02*
X0178242Y0071818D01*
X0177600Y0073417D02*
X0176000Y0073417D01*
X0176000Y0075015D02*
X0177600Y0075015D01*
X0177600Y0076614D02*
X0176000Y0076614D01*
X0176000Y0078212D02*
X0177600Y0078212D01*
X0177600Y0079811D02*
X0176000Y0079811D01*
X0175514Y0081409D02*
X0178086Y0081409D01*
X0179535Y0083008D02*
X0174065Y0083008D01*
X0184065Y0083008D02*
X0189535Y0083008D01*
X0188086Y0081409D02*
X0185514Y0081409D01*
X0186000Y0079811D02*
X0187600Y0079811D01*
X0187600Y0078212D02*
X0186000Y0078212D01*
X0186000Y0076614D02*
X0187600Y0076614D01*
X0187600Y0075015D02*
X0186000Y0075015D01*
X0186000Y0073417D02*
X0187600Y0073417D01*
X0188242Y0071818D02*
X0185358Y0071818D01*
X0195358Y0071818D02*
X0198242Y0071818D01*
X0197600Y0073417D02*
X0196000Y0073417D01*
X0196000Y0075015D02*
X0197600Y0075015D01*
X0197600Y0076614D02*
X0196000Y0076614D01*
X0196000Y0078212D02*
X0197600Y0078212D01*
X0197600Y0079811D02*
X0196000Y0079811D01*
X0195514Y0081409D02*
X0198086Y0081409D01*
X0199535Y0083008D02*
X0194065Y0083008D01*
X0201800Y0076800D02*
X0202784Y0060776D01*
X0212784Y0060776D02*
X0211800Y0076800D01*
X0226000Y0075015D02*
X0227600Y0075015D01*
X0227600Y0073417D02*
X0226000Y0073417D01*
X0225358Y0071818D02*
X0228242Y0071818D01*
X0229800Y0070220D02*
X0224609Y0070220D01*
X0224707Y0068621D02*
X0229898Y0068621D01*
X0229996Y0067023D02*
X0224805Y0067023D01*
X0224903Y0065424D02*
X0230094Y0065424D01*
X0228904Y0063826D02*
X0226664Y0063826D01*
X0227487Y0062227D02*
X0228082Y0062227D01*
X0227884Y0060629D02*
X0227684Y0060629D01*
X0227365Y0059030D02*
X0228204Y0059030D01*
X0229199Y0057432D02*
X0226369Y0057432D01*
X0232784Y0060776D02*
X0231800Y0076800D01*
X0241800Y0076800D02*
X0242784Y0060776D01*
X0252784Y0060776D02*
X0251800Y0076800D01*
X0261800Y0076800D02*
X0262784Y0060776D01*
X0271800Y0061761D02*
X0272784Y0060776D01*
X0271800Y0061761D02*
X0271800Y0076800D01*
X0283986Y0083008D02*
X0390701Y0083008D01*
X0390701Y0084606D02*
X0282388Y0084606D01*
X0280789Y0086205D02*
X0390701Y0086205D01*
X0390701Y0087803D02*
X0279191Y0087803D01*
X0285585Y0081409D02*
X0390701Y0081409D01*
X0390701Y0079811D02*
X0287183Y0079811D01*
X0288782Y0078212D02*
X0390701Y0078212D01*
X0390701Y0076614D02*
X0290380Y0076614D01*
X0291979Y0075015D02*
X0390701Y0075015D01*
X0390701Y0073417D02*
X0293577Y0073417D01*
X0294367Y0065424D02*
X0301201Y0065424D01*
X0301810Y0065676D02*
X0300009Y0064930D01*
X0298630Y0063552D01*
X0297884Y0061751D01*
X0297884Y0059802D01*
X0298630Y0058001D01*
X0300009Y0056622D01*
X0301810Y0055876D01*
X0303759Y0055876D01*
X0305560Y0056622D01*
X0306938Y0058001D01*
X0307684Y0059802D01*
X0307684Y0061751D01*
X0306938Y0063552D01*
X0305560Y0064930D01*
X0303759Y0065676D01*
X0301810Y0065676D01*
X0304367Y0065424D02*
X0311201Y0065424D01*
X0311810Y0065676D02*
X0310009Y0064930D01*
X0308630Y0063552D01*
X0307884Y0061751D01*
X0307884Y0059802D01*
X0308630Y0058001D01*
X0310009Y0056622D01*
X0311810Y0055876D01*
X0313759Y0055876D01*
X0315560Y0056622D01*
X0316938Y0058001D01*
X0317684Y0059802D01*
X0317684Y0061751D01*
X0316938Y0063552D01*
X0315560Y0064930D01*
X0313759Y0065676D01*
X0311810Y0065676D01*
X0314367Y0065424D02*
X0321201Y0065424D01*
X0318904Y0063826D02*
X0316664Y0063826D01*
X0317487Y0062227D02*
X0318082Y0062227D01*
X0317884Y0060629D02*
X0317684Y0060629D01*
X0317365Y0059030D02*
X0318204Y0059030D01*
X0319199Y0057432D02*
X0316369Y0057432D01*
X0309199Y0057432D02*
X0306369Y0057432D01*
X0307365Y0059030D02*
X0308204Y0059030D01*
X0307884Y0060629D02*
X0307684Y0060629D01*
X0307487Y0062227D02*
X0308082Y0062227D01*
X0308904Y0063826D02*
X0306664Y0063826D01*
X0298904Y0063826D02*
X0296664Y0063826D01*
X0297487Y0062227D02*
X0298082Y0062227D01*
X0297884Y0060629D02*
X0297684Y0060629D01*
X0297365Y0059030D02*
X0298204Y0059030D01*
X0299199Y0057432D02*
X0296369Y0057432D01*
X0324367Y0065424D02*
X0330673Y0065424D01*
X0328696Y0063826D02*
X0326664Y0063826D01*
X0327487Y0062227D02*
X0327893Y0062227D01*
X0332600Y0059030D02*
X0332969Y0059030D01*
X0332969Y0057432D02*
X0332600Y0057432D01*
X0337675Y0062227D02*
X0344717Y0062227D01*
X0345179Y0063826D02*
X0336873Y0063826D01*
X0357042Y0070220D02*
X0370714Y0070220D01*
X0369575Y0068621D02*
X0360341Y0068621D01*
X0361939Y0067023D02*
X0369200Y0067023D01*
X0369391Y0065424D02*
X0363035Y0065424D01*
X0363697Y0063826D02*
X0370269Y0063826D01*
X0372819Y0062227D02*
X0364159Y0062227D01*
X0364159Y0060629D02*
X0370904Y0060629D01*
X0369549Y0059030D02*
X0364159Y0059030D01*
X0363575Y0057432D02*
X0369040Y0057432D01*
X0369000Y0056600D02*
X0369000Y0056422D01*
X0369118Y0055676D01*
X0369352Y0054957D01*
X0369695Y0054284D01*
X0370139Y0053673D01*
X0370673Y0053139D01*
X0371284Y0052695D01*
X0371957Y0052352D01*
X0372676Y0052118D01*
X0373422Y0052000D01*
X0376600Y0052000D01*
X0376600Y0056600D01*
X0369000Y0056600D01*
X0369093Y0055833D02*
X0362912Y0055833D01*
X0361644Y0054235D02*
X0369731Y0054235D01*
X0371399Y0052636D02*
X0360046Y0052636D01*
X0376600Y0052636D02*
X0377000Y0052636D01*
X0377000Y0054235D02*
X0376600Y0054235D01*
X0376600Y0055833D02*
X0377000Y0055833D01*
X0377000Y0057432D02*
X0376600Y0057432D01*
X0376600Y0059030D02*
X0377000Y0059030D01*
X0377000Y0060629D02*
X0376600Y0060629D01*
X0390701Y0046242D02*
X0080300Y0046242D01*
X0080300Y0044644D02*
X0093704Y0044644D01*
X0092600Y0043540D02*
X0095060Y0046000D01*
X0098540Y0046000D01*
X0101000Y0043540D01*
X0101000Y0040060D01*
X0098540Y0037600D01*
X0095060Y0037600D01*
X0092600Y0040060D01*
X0092600Y0043540D01*
X0092600Y0043045D02*
X0080300Y0043045D01*
X0080300Y0041447D02*
X0092600Y0041447D01*
X0092812Y0039848D02*
X0079953Y0039848D01*
X0078855Y0038250D02*
X0094411Y0038250D01*
X0099189Y0038250D02*
X0104128Y0038250D01*
X0104977Y0037400D02*
X0106800Y0037400D01*
X0108623Y0037400D01*
X0111200Y0039977D01*
X0111200Y0041800D01*
X0111200Y0043623D01*
X0108623Y0046200D01*
X0106800Y0046200D01*
X0106800Y0041800D01*
X0111200Y0041800D01*
X0106800Y0041800D01*
X0106800Y0041800D01*
X0106800Y0041800D01*
X0106800Y0037400D01*
X0106800Y0041800D01*
X0106800Y0041800D01*
X0106800Y0041800D01*
X0102400Y0041800D01*
X0102400Y0043623D01*
X0104977Y0046200D01*
X0106800Y0046200D01*
X0106800Y0041800D01*
X0102400Y0041800D01*
X0102400Y0039977D01*
X0104977Y0037400D01*
X0106800Y0038250D02*
X0106800Y0038250D01*
X0106800Y0039848D02*
X0106800Y0039848D01*
X0106800Y0041447D02*
X0106800Y0041447D01*
X0106800Y0043045D02*
X0106800Y0043045D01*
X0106800Y0044644D02*
X0106800Y0044644D01*
X0110179Y0044644D02*
X0118421Y0044644D01*
X0117400Y0043623D02*
X0117400Y0041800D01*
X0121800Y0041800D01*
X0126200Y0041800D01*
X0126200Y0043623D01*
X0123623Y0046200D01*
X0121800Y0046200D01*
X0121800Y0041800D01*
X0121800Y0041800D01*
X0121800Y0041800D01*
X0126200Y0041800D01*
X0126200Y0039977D01*
X0123623Y0037400D01*
X0121800Y0037400D01*
X0121800Y0041800D01*
X0121800Y0041800D01*
X0121800Y0041800D01*
X0121800Y0046200D01*
X0119977Y0046200D01*
X0117400Y0043623D01*
X0117400Y0043045D02*
X0111200Y0043045D01*
X0111200Y0041447D02*
X0117400Y0041447D01*
X0117400Y0041800D02*
X0117400Y0039977D01*
X0119977Y0037400D01*
X0121800Y0037400D01*
X0121800Y0041800D01*
X0117400Y0041800D01*
X0117529Y0039848D02*
X0111071Y0039848D01*
X0109472Y0038250D02*
X0119128Y0038250D01*
X0121800Y0038250D02*
X0121800Y0038250D01*
X0121800Y0039848D02*
X0121800Y0039848D01*
X0121800Y0041447D02*
X0121800Y0041447D01*
X0121800Y0043045D02*
X0121800Y0043045D01*
X0121800Y0044644D02*
X0121800Y0044644D01*
X0125179Y0044644D02*
X0128704Y0044644D01*
X0127600Y0043540D02*
X0130060Y0046000D01*
X0133540Y0046000D01*
X0136000Y0043540D01*
X0136000Y0040060D01*
X0133540Y0037600D01*
X0130060Y0037600D01*
X0127600Y0040060D01*
X0127600Y0043540D01*
X0127600Y0043045D02*
X0126200Y0043045D01*
X0126200Y0041447D02*
X0127600Y0041447D01*
X0127812Y0039848D02*
X0126071Y0039848D01*
X0124472Y0038250D02*
X0129411Y0038250D01*
X0134189Y0038250D02*
X0390701Y0038250D01*
X0390701Y0039848D02*
X0135788Y0039848D01*
X0136000Y0041447D02*
X0390701Y0041447D01*
X0390701Y0043045D02*
X0136000Y0043045D01*
X0134896Y0044644D02*
X0390701Y0044644D01*
X0390701Y0036651D02*
X0006800Y0036651D01*
X0006800Y0035053D02*
X0390701Y0035053D01*
X0390701Y0033454D02*
X0006800Y0033454D01*
X0006800Y0031856D02*
X0390701Y0031856D01*
X0390701Y0089402D02*
X0006800Y0089402D01*
X0006800Y0091001D02*
X0390701Y0091001D01*
X0390701Y0092599D02*
X0006800Y0092599D01*
X0006800Y0094198D02*
X0390701Y0094198D01*
X0390701Y0095796D02*
X0006800Y0095796D01*
X0006800Y0097395D02*
X0390701Y0097395D01*
X0390701Y0098993D02*
X0006800Y0098993D01*
X0006800Y0100592D02*
X0390701Y0100592D01*
X0390701Y0102190D02*
X0006800Y0102190D01*
X0006800Y0103789D02*
X0390701Y0103789D01*
X0390701Y0105387D02*
X0006800Y0105387D01*
X0006800Y0106986D02*
X0390701Y0106986D01*
X0390701Y0108584D02*
X0006800Y0108584D01*
X0006800Y0110183D02*
X0390701Y0110183D01*
X0390701Y0111781D02*
X0006800Y0111781D01*
X0006800Y0113380D02*
X0390701Y0113380D01*
X0390701Y0114978D02*
X0006800Y0114978D01*
X0006800Y0116577D02*
X0390701Y0116577D01*
X0390701Y0118175D02*
X0006800Y0118175D01*
X0006800Y0119774D02*
X0390701Y0119774D01*
X0390701Y0121372D02*
X0006800Y0121372D01*
X0006800Y0122971D02*
X0390701Y0122971D01*
X0390701Y0124569D02*
X0006800Y0124569D01*
X0006800Y0126168D02*
X0390701Y0126168D01*
X0390701Y0127766D02*
X0006800Y0127766D01*
X0006800Y0129365D02*
X0390701Y0129365D01*
X0390701Y0130963D02*
X0274503Y0130963D01*
X0274179Y0130639D02*
X0275361Y0131821D01*
X0276000Y0133365D01*
X0276000Y0140235D01*
X0275361Y0141779D01*
X0274179Y0142961D01*
X0272635Y0143600D01*
X0270965Y0143600D01*
X0269421Y0142961D01*
X0268239Y0141779D01*
X0267600Y0140235D01*
X0267600Y0133365D01*
X0268239Y0131821D01*
X0269421Y0130639D01*
X0270965Y0130000D01*
X0272635Y0130000D01*
X0274179Y0130639D01*
X0275667Y0132562D02*
X0390701Y0132562D01*
X0390701Y0134160D02*
X0276000Y0134160D01*
X0276000Y0135759D02*
X0390701Y0135759D01*
X0390701Y0137357D02*
X0276000Y0137357D01*
X0276000Y0138956D02*
X0390701Y0138956D01*
X0390701Y0140554D02*
X0275868Y0140554D01*
X0274987Y0142153D02*
X0390701Y0142153D01*
X0390701Y0143751D02*
X0006800Y0143751D01*
X0006800Y0142153D02*
X0078613Y0142153D01*
X0078239Y0141779D02*
X0077600Y0140235D01*
X0077600Y0133365D01*
X0078239Y0131821D01*
X0079421Y0130639D01*
X0080965Y0130000D01*
X0082635Y0130000D01*
X0084179Y0130639D01*
X0085361Y0131821D01*
X0086000Y0133365D01*
X0086000Y0140235D01*
X0085361Y0141779D01*
X0084179Y0142961D01*
X0082635Y0143600D01*
X0080965Y0143600D01*
X0079421Y0142961D01*
X0078239Y0141779D01*
X0077732Y0140554D02*
X0006800Y0140554D01*
X0006800Y0138956D02*
X0077600Y0138956D01*
X0077600Y0137357D02*
X0006800Y0137357D01*
X0006800Y0135759D02*
X0077600Y0135759D01*
X0077600Y0134160D02*
X0006800Y0134160D01*
X0006800Y0132562D02*
X0077933Y0132562D01*
X0079097Y0130963D02*
X0006800Y0130963D01*
X0006800Y0145350D02*
X0390701Y0145350D01*
X0390701Y0146948D02*
X0006800Y0146948D01*
X0006800Y0148547D02*
X0258336Y0148547D01*
X0257050Y0149832D02*
X0259832Y0147050D01*
X0263768Y0147050D01*
X0266550Y0149832D01*
X0266550Y0153768D01*
X0263768Y0156550D01*
X0259832Y0156550D01*
X0257050Y0153768D01*
X0257050Y0149832D01*
X0257050Y0150145D02*
X0006800Y0150145D01*
X0006800Y0151744D02*
X0257050Y0151744D01*
X0257050Y0153342D02*
X0006800Y0153342D01*
X0006800Y0154941D02*
X0258223Y0154941D01*
X0259822Y0156539D02*
X0006800Y0156539D01*
X0006800Y0158138D02*
X0258744Y0158138D01*
X0259109Y0157773D02*
X0257773Y0159109D01*
X0257050Y0160855D01*
X0257050Y0162745D01*
X0257773Y0164491D01*
X0259109Y0165827D01*
X0260855Y0166550D01*
X0262745Y0166550D01*
X0264491Y0165827D01*
X0265827Y0164491D01*
X0266550Y0162745D01*
X0266550Y0160855D01*
X0265827Y0159109D01*
X0264491Y0157773D01*
X0262745Y0157050D01*
X0260855Y0157050D01*
X0259109Y0157773D01*
X0257513Y0159737D02*
X0006800Y0159737D01*
X0006800Y0161335D02*
X0257050Y0161335D01*
X0257128Y0162934D02*
X0006800Y0162934D01*
X0006800Y0164532D02*
X0257815Y0164532D01*
X0259843Y0166131D02*
X0006800Y0166131D01*
X0006800Y0167729D02*
X0390701Y0167729D01*
X0390701Y0166131D02*
X0263757Y0166131D01*
X0265785Y0164532D02*
X0390701Y0164532D01*
X0390701Y0162934D02*
X0266472Y0162934D01*
X0266550Y0161335D02*
X0390701Y0161335D01*
X0390701Y0159737D02*
X0266087Y0159737D01*
X0264855Y0158138D02*
X0390701Y0158138D01*
X0390701Y0156539D02*
X0263778Y0156539D01*
X0265377Y0154941D02*
X0390701Y0154941D01*
X0390701Y0153342D02*
X0266550Y0153342D01*
X0266550Y0151744D02*
X0390701Y0151744D01*
X0390701Y0150145D02*
X0266550Y0150145D01*
X0265264Y0148547D02*
X0390701Y0148547D01*
X0390701Y0169328D02*
X0006800Y0169328D01*
X0006800Y0170926D02*
X0390701Y0170926D01*
X0390701Y0172525D02*
X0006800Y0172525D01*
X0006800Y0174123D02*
X0054764Y0174123D01*
X0052516Y0175722D02*
X0006800Y0175722D01*
X0006800Y0177320D02*
X0050920Y0177320D01*
X0050257Y0178919D02*
X0006800Y0178919D01*
X0006800Y0180517D02*
X0049595Y0180517D01*
X0063560Y0174123D02*
X0350040Y0174123D01*
X0347792Y0175722D02*
X0065808Y0175722D01*
X0067405Y0177320D02*
X0346195Y0177320D01*
X0345533Y0178919D02*
X0068067Y0178919D01*
X0068729Y0180517D02*
X0344871Y0180517D01*
X0358836Y0174123D02*
X0390701Y0174123D01*
X0390701Y0175722D02*
X0361084Y0175722D01*
X0362680Y0177320D02*
X0390701Y0177320D01*
X0390701Y0178919D02*
X0363342Y0178919D01*
X0364005Y0180517D02*
X0390701Y0180517D01*
X0268613Y0142153D02*
X0264987Y0142153D01*
X0265361Y0141779D02*
X0264179Y0142961D01*
X0262635Y0143600D01*
X0260965Y0143600D01*
X0259421Y0142961D01*
X0258239Y0141779D01*
X0257600Y0140235D01*
X0257600Y0133365D01*
X0258239Y0131821D01*
X0259421Y0130639D01*
X0260965Y0130000D01*
X0262635Y0130000D01*
X0264179Y0130639D01*
X0265361Y0131821D01*
X0266000Y0133365D01*
X0266000Y0140235D01*
X0265361Y0141779D01*
X0265868Y0140554D02*
X0267732Y0140554D01*
X0267600Y0138956D02*
X0266000Y0138956D01*
X0266000Y0137357D02*
X0267600Y0137357D01*
X0267600Y0135759D02*
X0266000Y0135759D01*
X0266000Y0134160D02*
X0267600Y0134160D01*
X0267933Y0132562D02*
X0265667Y0132562D01*
X0264503Y0130963D02*
X0269097Y0130963D01*
X0259097Y0130963D02*
X0254503Y0130963D01*
X0254179Y0130639D02*
X0255361Y0131821D01*
X0256000Y0133365D01*
X0256000Y0140235D01*
X0255361Y0141779D01*
X0254179Y0142961D01*
X0252635Y0143600D01*
X0250965Y0143600D01*
X0249421Y0142961D01*
X0248239Y0141779D01*
X0247600Y0140235D01*
X0247600Y0133365D01*
X0248239Y0131821D01*
X0249421Y0130639D01*
X0250965Y0130000D01*
X0252635Y0130000D01*
X0254179Y0130639D01*
X0255667Y0132562D02*
X0257933Y0132562D01*
X0257600Y0134160D02*
X0256000Y0134160D01*
X0256000Y0135759D02*
X0257600Y0135759D01*
X0257600Y0137357D02*
X0256000Y0137357D01*
X0256000Y0138956D02*
X0257600Y0138956D01*
X0257732Y0140554D02*
X0255868Y0140554D01*
X0254987Y0142153D02*
X0258613Y0142153D01*
X0248613Y0142153D02*
X0244987Y0142153D01*
X0245361Y0141779D02*
X0244179Y0142961D01*
X0242635Y0143600D01*
X0240965Y0143600D01*
X0239421Y0142961D01*
X0238239Y0141779D01*
X0237600Y0140235D01*
X0237600Y0133365D01*
X0238239Y0131821D01*
X0239421Y0130639D01*
X0240965Y0130000D01*
X0242635Y0130000D01*
X0244179Y0130639D01*
X0245361Y0131821D01*
X0246000Y0133365D01*
X0246000Y0140235D01*
X0245361Y0141779D01*
X0245868Y0140554D02*
X0247732Y0140554D01*
X0247600Y0138956D02*
X0246000Y0138956D01*
X0246000Y0137357D02*
X0247600Y0137357D01*
X0247600Y0135759D02*
X0246000Y0135759D01*
X0246000Y0134160D02*
X0247600Y0134160D01*
X0247933Y0132562D02*
X0245667Y0132562D01*
X0244503Y0130963D02*
X0249097Y0130963D01*
X0239097Y0130963D02*
X0234503Y0130963D01*
X0234179Y0130639D02*
X0235361Y0131821D01*
X0236000Y0133365D01*
X0236000Y0140235D01*
X0235361Y0141779D01*
X0234179Y0142961D01*
X0232635Y0143600D01*
X0230965Y0143600D01*
X0229421Y0142961D01*
X0228239Y0141779D01*
X0227600Y0140235D01*
X0227600Y0133365D01*
X0228239Y0131821D01*
X0229421Y0130639D01*
X0230965Y0130000D01*
X0232635Y0130000D01*
X0234179Y0130639D01*
X0235667Y0132562D02*
X0237933Y0132562D01*
X0237600Y0134160D02*
X0236000Y0134160D01*
X0236000Y0135759D02*
X0237600Y0135759D01*
X0237600Y0137357D02*
X0236000Y0137357D01*
X0236000Y0138956D02*
X0237600Y0138956D01*
X0237732Y0140554D02*
X0235868Y0140554D01*
X0234987Y0142153D02*
X0238613Y0142153D01*
X0228613Y0142153D02*
X0224987Y0142153D01*
X0225361Y0141779D02*
X0224179Y0142961D01*
X0222635Y0143600D01*
X0220965Y0143600D01*
X0219421Y0142961D01*
X0218239Y0141779D01*
X0217600Y0140235D01*
X0217600Y0133365D01*
X0218239Y0131821D01*
X0219421Y0130639D01*
X0220965Y0130000D01*
X0222635Y0130000D01*
X0224179Y0130639D01*
X0225361Y0131821D01*
X0226000Y0133365D01*
X0226000Y0140235D01*
X0225361Y0141779D01*
X0225868Y0140554D02*
X0227732Y0140554D01*
X0227600Y0138956D02*
X0226000Y0138956D01*
X0226000Y0137357D02*
X0227600Y0137357D01*
X0227600Y0135759D02*
X0226000Y0135759D01*
X0226000Y0134160D02*
X0227600Y0134160D01*
X0227933Y0132562D02*
X0225667Y0132562D01*
X0224503Y0130963D02*
X0229097Y0130963D01*
X0219097Y0130963D02*
X0214503Y0130963D01*
X0214179Y0130639D02*
X0215361Y0131821D01*
X0216000Y0133365D01*
X0216000Y0140235D01*
X0215361Y0141779D01*
X0214179Y0142961D01*
X0212635Y0143600D01*
X0210965Y0143600D01*
X0209421Y0142961D01*
X0208239Y0141779D01*
X0207600Y0140235D01*
X0207600Y0133365D01*
X0208239Y0131821D01*
X0209421Y0130639D01*
X0210965Y0130000D01*
X0212635Y0130000D01*
X0214179Y0130639D01*
X0215667Y0132562D02*
X0217933Y0132562D01*
X0217600Y0134160D02*
X0216000Y0134160D01*
X0216000Y0135759D02*
X0217600Y0135759D01*
X0217600Y0137357D02*
X0216000Y0137357D01*
X0216000Y0138956D02*
X0217600Y0138956D01*
X0217732Y0140554D02*
X0215868Y0140554D01*
X0214987Y0142153D02*
X0218613Y0142153D01*
X0208613Y0142153D02*
X0204987Y0142153D01*
X0205361Y0141779D02*
X0204179Y0142961D01*
X0202635Y0143600D01*
X0200965Y0143600D01*
X0199421Y0142961D01*
X0198239Y0141779D01*
X0197600Y0140235D01*
X0197600Y0133365D01*
X0198239Y0131821D01*
X0199421Y0130639D01*
X0200965Y0130000D01*
X0202635Y0130000D01*
X0204179Y0130639D01*
X0205361Y0131821D01*
X0206000Y0133365D01*
X0206000Y0140235D01*
X0205361Y0141779D01*
X0205868Y0140554D02*
X0207732Y0140554D01*
X0207600Y0138956D02*
X0206000Y0138956D01*
X0206000Y0137357D02*
X0207600Y0137357D01*
X0207600Y0135759D02*
X0206000Y0135759D01*
X0206000Y0134160D02*
X0207600Y0134160D01*
X0207933Y0132562D02*
X0205667Y0132562D01*
X0204503Y0130963D02*
X0209097Y0130963D01*
X0199097Y0130963D02*
X0194503Y0130963D01*
X0194179Y0130639D02*
X0195361Y0131821D01*
X0196000Y0133365D01*
X0196000Y0140235D01*
X0195361Y0141779D01*
X0194179Y0142961D01*
X0192635Y0143600D01*
X0190965Y0143600D01*
X0189421Y0142961D01*
X0188239Y0141779D01*
X0187600Y0140235D01*
X0187600Y0133365D01*
X0188239Y0131821D01*
X0189421Y0130639D01*
X0190965Y0130000D01*
X0192635Y0130000D01*
X0194179Y0130639D01*
X0195667Y0132562D02*
X0197933Y0132562D01*
X0197600Y0134160D02*
X0196000Y0134160D01*
X0196000Y0135759D02*
X0197600Y0135759D01*
X0197600Y0137357D02*
X0196000Y0137357D01*
X0196000Y0138956D02*
X0197600Y0138956D01*
X0197732Y0140554D02*
X0195868Y0140554D01*
X0194987Y0142153D02*
X0198613Y0142153D01*
X0188613Y0142153D02*
X0184987Y0142153D01*
X0185361Y0141779D02*
X0184179Y0142961D01*
X0182635Y0143600D01*
X0180965Y0143600D01*
X0179421Y0142961D01*
X0178239Y0141779D01*
X0177600Y0140235D01*
X0177600Y0133365D01*
X0178239Y0131821D01*
X0179421Y0130639D01*
X0180965Y0130000D01*
X0182635Y0130000D01*
X0184179Y0130639D01*
X0185361Y0131821D01*
X0186000Y0133365D01*
X0186000Y0140235D01*
X0185361Y0141779D01*
X0185868Y0140554D02*
X0187732Y0140554D01*
X0187600Y0138956D02*
X0186000Y0138956D01*
X0186000Y0137357D02*
X0187600Y0137357D01*
X0187600Y0135759D02*
X0186000Y0135759D01*
X0186000Y0134160D02*
X0187600Y0134160D01*
X0187933Y0132562D02*
X0185667Y0132562D01*
X0184503Y0130963D02*
X0189097Y0130963D01*
X0179097Y0130963D02*
X0174503Y0130963D01*
X0174179Y0130639D02*
X0175361Y0131821D01*
X0176000Y0133365D01*
X0176000Y0140235D01*
X0175361Y0141779D01*
X0174179Y0142961D01*
X0172635Y0143600D01*
X0170965Y0143600D01*
X0169421Y0142961D01*
X0168239Y0141779D01*
X0167600Y0140235D01*
X0167600Y0133365D01*
X0168239Y0131821D01*
X0169421Y0130639D01*
X0170965Y0130000D01*
X0172635Y0130000D01*
X0174179Y0130639D01*
X0175667Y0132562D02*
X0177933Y0132562D01*
X0177600Y0134160D02*
X0176000Y0134160D01*
X0176000Y0135759D02*
X0177600Y0135759D01*
X0177600Y0137357D02*
X0176000Y0137357D01*
X0176000Y0138956D02*
X0177600Y0138956D01*
X0177732Y0140554D02*
X0175868Y0140554D01*
X0174987Y0142153D02*
X0178613Y0142153D01*
X0168613Y0142153D02*
X0164987Y0142153D01*
X0165361Y0141779D02*
X0164179Y0142961D01*
X0162635Y0143600D01*
X0160965Y0143600D01*
X0159421Y0142961D01*
X0158239Y0141779D01*
X0157600Y0140235D01*
X0157600Y0133365D01*
X0158239Y0131821D01*
X0159421Y0130639D01*
X0160965Y0130000D01*
X0162635Y0130000D01*
X0164179Y0130639D01*
X0165361Y0131821D01*
X0166000Y0133365D01*
X0166000Y0140235D01*
X0165361Y0141779D01*
X0165868Y0140554D02*
X0167732Y0140554D01*
X0167600Y0138956D02*
X0166000Y0138956D01*
X0166000Y0137357D02*
X0167600Y0137357D01*
X0167600Y0135759D02*
X0166000Y0135759D01*
X0166000Y0134160D02*
X0167600Y0134160D01*
X0167933Y0132562D02*
X0165667Y0132562D01*
X0164503Y0130963D02*
X0169097Y0130963D01*
X0159097Y0130963D02*
X0154503Y0130963D01*
X0154179Y0130639D02*
X0155361Y0131821D01*
X0156000Y0133365D01*
X0156000Y0140235D01*
X0155361Y0141779D01*
X0154179Y0142961D01*
X0152635Y0143600D01*
X0150965Y0143600D01*
X0149421Y0142961D01*
X0148239Y0141779D01*
X0147600Y0140235D01*
X0147600Y0133365D01*
X0148239Y0131821D01*
X0149421Y0130639D01*
X0150965Y0130000D01*
X0152635Y0130000D01*
X0154179Y0130639D01*
X0155667Y0132562D02*
X0157933Y0132562D01*
X0157600Y0134160D02*
X0156000Y0134160D01*
X0156000Y0135759D02*
X0157600Y0135759D01*
X0157600Y0137357D02*
X0156000Y0137357D01*
X0156000Y0138956D02*
X0157600Y0138956D01*
X0157732Y0140554D02*
X0155868Y0140554D01*
X0154987Y0142153D02*
X0158613Y0142153D01*
X0148613Y0142153D02*
X0144987Y0142153D01*
X0145361Y0141779D02*
X0144179Y0142961D01*
X0142635Y0143600D01*
X0140965Y0143600D01*
X0139421Y0142961D01*
X0138239Y0141779D01*
X0137600Y0140235D01*
X0137600Y0133365D01*
X0138239Y0131821D01*
X0139421Y0130639D01*
X0140965Y0130000D01*
X0142635Y0130000D01*
X0144179Y0130639D01*
X0145361Y0131821D01*
X0146000Y0133365D01*
X0146000Y0140235D01*
X0145361Y0141779D01*
X0145868Y0140554D02*
X0147732Y0140554D01*
X0147600Y0138956D02*
X0146000Y0138956D01*
X0146000Y0137357D02*
X0147600Y0137357D01*
X0147600Y0135759D02*
X0146000Y0135759D01*
X0146000Y0134160D02*
X0147600Y0134160D01*
X0147933Y0132562D02*
X0145667Y0132562D01*
X0144503Y0130963D02*
X0149097Y0130963D01*
X0139097Y0130963D02*
X0134503Y0130963D01*
X0134179Y0130639D02*
X0135361Y0131821D01*
X0136000Y0133365D01*
X0136000Y0140235D01*
X0135361Y0141779D01*
X0134179Y0142961D01*
X0132635Y0143600D01*
X0130965Y0143600D01*
X0129421Y0142961D01*
X0128239Y0141779D01*
X0127600Y0140235D01*
X0127600Y0133365D01*
X0128239Y0131821D01*
X0129421Y0130639D01*
X0130965Y0130000D01*
X0132635Y0130000D01*
X0134179Y0130639D01*
X0135667Y0132562D02*
X0137933Y0132562D01*
X0137600Y0134160D02*
X0136000Y0134160D01*
X0136000Y0135759D02*
X0137600Y0135759D01*
X0137600Y0137357D02*
X0136000Y0137357D01*
X0136000Y0138956D02*
X0137600Y0138956D01*
X0137732Y0140554D02*
X0135868Y0140554D01*
X0134987Y0142153D02*
X0138613Y0142153D01*
X0128613Y0142153D02*
X0124987Y0142153D01*
X0125361Y0141779D02*
X0124179Y0142961D01*
X0122635Y0143600D01*
X0120965Y0143600D01*
X0119421Y0142961D01*
X0118239Y0141779D01*
X0117600Y0140235D01*
X0117600Y0133365D01*
X0118239Y0131821D01*
X0119421Y0130639D01*
X0120965Y0130000D01*
X0122635Y0130000D01*
X0124179Y0130639D01*
X0125361Y0131821D01*
X0126000Y0133365D01*
X0126000Y0140235D01*
X0125361Y0141779D01*
X0125868Y0140554D02*
X0127732Y0140554D01*
X0127600Y0138956D02*
X0126000Y0138956D01*
X0126000Y0137357D02*
X0127600Y0137357D01*
X0127600Y0135759D02*
X0126000Y0135759D01*
X0126000Y0134160D02*
X0127600Y0134160D01*
X0127933Y0132562D02*
X0125667Y0132562D01*
X0124503Y0130963D02*
X0129097Y0130963D01*
X0119097Y0130963D02*
X0114503Y0130963D01*
X0114179Y0130639D02*
X0115361Y0131821D01*
X0116000Y0133365D01*
X0116000Y0140235D01*
X0115361Y0141779D01*
X0114179Y0142961D01*
X0112635Y0143600D01*
X0110965Y0143600D01*
X0109421Y0142961D01*
X0108239Y0141779D01*
X0107600Y0140235D01*
X0107600Y0133365D01*
X0108239Y0131821D01*
X0109421Y0130639D01*
X0110965Y0130000D01*
X0112635Y0130000D01*
X0114179Y0130639D01*
X0115667Y0132562D02*
X0117933Y0132562D01*
X0117600Y0134160D02*
X0116000Y0134160D01*
X0116000Y0135759D02*
X0117600Y0135759D01*
X0117600Y0137357D02*
X0116000Y0137357D01*
X0116000Y0138956D02*
X0117600Y0138956D01*
X0117732Y0140554D02*
X0115868Y0140554D01*
X0114987Y0142153D02*
X0118613Y0142153D01*
X0108613Y0142153D02*
X0104987Y0142153D01*
X0105361Y0141779D02*
X0104179Y0142961D01*
X0102635Y0143600D01*
X0100965Y0143600D01*
X0099421Y0142961D01*
X0098239Y0141779D01*
X0097600Y0140235D01*
X0097600Y0133365D01*
X0098239Y0131821D01*
X0099421Y0130639D01*
X0100965Y0130000D01*
X0102635Y0130000D01*
X0104179Y0130639D01*
X0105361Y0131821D01*
X0106000Y0133365D01*
X0106000Y0140235D01*
X0105361Y0141779D01*
X0105868Y0140554D02*
X0107732Y0140554D01*
X0107600Y0138956D02*
X0106000Y0138956D01*
X0106000Y0137357D02*
X0107600Y0137357D01*
X0107600Y0135759D02*
X0106000Y0135759D01*
X0106000Y0134160D02*
X0107600Y0134160D01*
X0107933Y0132562D02*
X0105667Y0132562D01*
X0104503Y0130963D02*
X0109097Y0130963D01*
X0099097Y0130963D02*
X0094503Y0130963D01*
X0094179Y0130639D02*
X0095361Y0131821D01*
X0096000Y0133365D01*
X0096000Y0140235D01*
X0095361Y0141779D01*
X0094179Y0142961D01*
X0092635Y0143600D01*
X0090965Y0143600D01*
X0089421Y0142961D01*
X0088239Y0141779D01*
X0087600Y0140235D01*
X0087600Y0133365D01*
X0088239Y0131821D01*
X0089421Y0130639D01*
X0090965Y0130000D01*
X0092635Y0130000D01*
X0094179Y0130639D01*
X0095667Y0132562D02*
X0097933Y0132562D01*
X0097600Y0134160D02*
X0096000Y0134160D01*
X0096000Y0135759D02*
X0097600Y0135759D01*
X0097600Y0137357D02*
X0096000Y0137357D01*
X0096000Y0138956D02*
X0097600Y0138956D01*
X0097732Y0140554D02*
X0095868Y0140554D01*
X0094987Y0142153D02*
X0098613Y0142153D01*
X0088613Y0142153D02*
X0084987Y0142153D01*
X0085868Y0140554D02*
X0087732Y0140554D01*
X0087600Y0138956D02*
X0086000Y0138956D01*
X0086000Y0137357D02*
X0087600Y0137357D01*
X0087600Y0135759D02*
X0086000Y0135759D01*
X0086000Y0134160D02*
X0087600Y0134160D01*
X0087933Y0132562D02*
X0085667Y0132562D01*
X0084503Y0130963D02*
X0089097Y0130963D01*
X0146000Y0075015D02*
X0147600Y0075015D01*
X0147600Y0073417D02*
X0146000Y0073417D01*
X0145358Y0071818D02*
X0148242Y0071818D01*
X0150434Y0070220D02*
X0143166Y0070220D01*
X0103421Y0044644D02*
X0099896Y0044644D01*
X0101000Y0043045D02*
X0102400Y0043045D01*
X0102400Y0041447D02*
X0101000Y0041447D01*
X0100788Y0039848D02*
X0102529Y0039848D01*
X0123024Y0028659D02*
X0006800Y0028659D01*
X0006800Y0030257D02*
X0124317Y0030257D01*
X0122600Y0027060D02*
X0006800Y0027060D01*
X0006800Y0025462D02*
X0054856Y0025462D01*
X0053693Y0023863D02*
X0006800Y0023863D01*
X0006800Y0022265D02*
X0053300Y0022265D01*
X0053300Y0020666D02*
X0006800Y0020666D01*
X0006800Y0019068D02*
X0053300Y0019068D01*
X0053300Y0017469D02*
X0006800Y0017469D01*
X0006800Y0015870D02*
X0053300Y0015870D01*
X0053637Y0014272D02*
X0006800Y0014272D01*
D19*
X0201800Y0051800D03*
M02*
