G75*
%MOIN*%
%OFA0B0*%
%FSLAX25Y25*%
%IPPOS*%
%LPD*%
%AMOC8*
5,1,8,0,0,1.08239X$1,22.5*
%
%ADD10C,0.00600*%
D10*
X0072800Y0080800D02*
X0280800Y0080800D01*
X0280800Y0101800D01*
X0280660Y0101802D01*
X0280520Y0101808D01*
X0280380Y0101818D01*
X0280240Y0101831D01*
X0280101Y0101849D01*
X0279962Y0101871D01*
X0279825Y0101896D01*
X0279687Y0101925D01*
X0279551Y0101958D01*
X0279416Y0101995D01*
X0279282Y0102036D01*
X0279149Y0102081D01*
X0279017Y0102129D01*
X0278887Y0102181D01*
X0278758Y0102236D01*
X0278631Y0102295D01*
X0278505Y0102358D01*
X0278381Y0102424D01*
X0278260Y0102493D01*
X0278140Y0102566D01*
X0278022Y0102643D01*
X0277907Y0102722D01*
X0277793Y0102805D01*
X0277683Y0102891D01*
X0277574Y0102980D01*
X0277468Y0103072D01*
X0277365Y0103167D01*
X0277264Y0103264D01*
X0277167Y0103365D01*
X0277072Y0103468D01*
X0276980Y0103574D01*
X0276891Y0103683D01*
X0276805Y0103793D01*
X0276722Y0103907D01*
X0276643Y0104022D01*
X0276566Y0104140D01*
X0276493Y0104260D01*
X0276424Y0104381D01*
X0276358Y0104505D01*
X0276295Y0104631D01*
X0276236Y0104758D01*
X0276181Y0104887D01*
X0276129Y0105017D01*
X0276081Y0105149D01*
X0276036Y0105282D01*
X0275995Y0105416D01*
X0275958Y0105551D01*
X0275925Y0105687D01*
X0275896Y0105825D01*
X0275871Y0105962D01*
X0275849Y0106101D01*
X0275831Y0106240D01*
X0275818Y0106380D01*
X0275808Y0106520D01*
X0275802Y0106660D01*
X0275800Y0106800D01*
X0275802Y0106940D01*
X0275808Y0107080D01*
X0275818Y0107220D01*
X0275831Y0107360D01*
X0275849Y0107499D01*
X0275871Y0107638D01*
X0275896Y0107775D01*
X0275925Y0107913D01*
X0275958Y0108049D01*
X0275995Y0108184D01*
X0276036Y0108318D01*
X0276081Y0108451D01*
X0276129Y0108583D01*
X0276181Y0108713D01*
X0276236Y0108842D01*
X0276295Y0108969D01*
X0276358Y0109095D01*
X0276424Y0109219D01*
X0276493Y0109340D01*
X0276566Y0109460D01*
X0276643Y0109578D01*
X0276722Y0109693D01*
X0276805Y0109807D01*
X0276891Y0109917D01*
X0276980Y0110026D01*
X0277072Y0110132D01*
X0277167Y0110235D01*
X0277264Y0110336D01*
X0277365Y0110433D01*
X0277468Y0110528D01*
X0277574Y0110620D01*
X0277683Y0110709D01*
X0277793Y0110795D01*
X0277907Y0110878D01*
X0278022Y0110957D01*
X0278140Y0111034D01*
X0278260Y0111107D01*
X0278381Y0111176D01*
X0278505Y0111242D01*
X0278631Y0111305D01*
X0278758Y0111364D01*
X0278887Y0111419D01*
X0279017Y0111471D01*
X0279149Y0111519D01*
X0279282Y0111564D01*
X0279416Y0111605D01*
X0279551Y0111642D01*
X0279687Y0111675D01*
X0279825Y0111704D01*
X0279962Y0111729D01*
X0280101Y0111751D01*
X0280240Y0111769D01*
X0280380Y0111782D01*
X0280520Y0111792D01*
X0280660Y0111798D01*
X0280800Y0111800D01*
X0280800Y0132800D01*
X0072800Y0132800D01*
X0072800Y0080800D01*
X0255800Y0162300D02*
X0256800Y0162300D01*
X0256800Y0161300D01*
X0256800Y0162300D02*
X0257800Y0162300D01*
X0256800Y0162300D02*
X0256800Y0163300D01*
X0251800Y0156800D02*
X0251803Y0157045D01*
X0251812Y0157291D01*
X0251827Y0157536D01*
X0251848Y0157780D01*
X0251875Y0158024D01*
X0251908Y0158267D01*
X0251947Y0158510D01*
X0251992Y0158751D01*
X0252043Y0158991D01*
X0252100Y0159230D01*
X0252162Y0159467D01*
X0252231Y0159703D01*
X0252305Y0159937D01*
X0252385Y0160169D01*
X0252470Y0160399D01*
X0252561Y0160627D01*
X0252658Y0160852D01*
X0252760Y0161076D01*
X0252868Y0161296D01*
X0252981Y0161514D01*
X0253099Y0161729D01*
X0253223Y0161941D01*
X0253351Y0162150D01*
X0253485Y0162356D01*
X0253624Y0162558D01*
X0253768Y0162757D01*
X0253917Y0162952D01*
X0254070Y0163144D01*
X0254228Y0163332D01*
X0254390Y0163516D01*
X0254558Y0163695D01*
X0254729Y0163871D01*
X0254905Y0164042D01*
X0255084Y0164210D01*
X0255268Y0164372D01*
X0255456Y0164530D01*
X0255648Y0164683D01*
X0255843Y0164832D01*
X0256042Y0164976D01*
X0256244Y0165115D01*
X0256450Y0165249D01*
X0256659Y0165377D01*
X0256871Y0165501D01*
X0257086Y0165619D01*
X0257304Y0165732D01*
X0257524Y0165840D01*
X0257748Y0165942D01*
X0257973Y0166039D01*
X0258201Y0166130D01*
X0258431Y0166215D01*
X0258663Y0166295D01*
X0258897Y0166369D01*
X0259133Y0166438D01*
X0259370Y0166500D01*
X0259609Y0166557D01*
X0259849Y0166608D01*
X0260090Y0166653D01*
X0260333Y0166692D01*
X0260576Y0166725D01*
X0260820Y0166752D01*
X0261064Y0166773D01*
X0261309Y0166788D01*
X0261555Y0166797D01*
X0261800Y0166800D01*
X0262045Y0166797D01*
X0262291Y0166788D01*
X0262536Y0166773D01*
X0262780Y0166752D01*
X0263024Y0166725D01*
X0263267Y0166692D01*
X0263510Y0166653D01*
X0263751Y0166608D01*
X0263991Y0166557D01*
X0264230Y0166500D01*
X0264467Y0166438D01*
X0264703Y0166369D01*
X0264937Y0166295D01*
X0265169Y0166215D01*
X0265399Y0166130D01*
X0265627Y0166039D01*
X0265852Y0165942D01*
X0266076Y0165840D01*
X0266296Y0165732D01*
X0266514Y0165619D01*
X0266729Y0165501D01*
X0266941Y0165377D01*
X0267150Y0165249D01*
X0267356Y0165115D01*
X0267558Y0164976D01*
X0267757Y0164832D01*
X0267952Y0164683D01*
X0268144Y0164530D01*
X0268332Y0164372D01*
X0268516Y0164210D01*
X0268695Y0164042D01*
X0268871Y0163871D01*
X0269042Y0163695D01*
X0269210Y0163516D01*
X0269372Y0163332D01*
X0269530Y0163144D01*
X0269683Y0162952D01*
X0269832Y0162757D01*
X0269976Y0162558D01*
X0270115Y0162356D01*
X0270249Y0162150D01*
X0270377Y0161941D01*
X0270501Y0161729D01*
X0270619Y0161514D01*
X0270732Y0161296D01*
X0270840Y0161076D01*
X0270942Y0160852D01*
X0271039Y0160627D01*
X0271130Y0160399D01*
X0271215Y0160169D01*
X0271295Y0159937D01*
X0271369Y0159703D01*
X0271438Y0159467D01*
X0271500Y0159230D01*
X0271557Y0158991D01*
X0271608Y0158751D01*
X0271653Y0158510D01*
X0271692Y0158267D01*
X0271725Y0158024D01*
X0271752Y0157780D01*
X0271773Y0157536D01*
X0271788Y0157291D01*
X0271797Y0157045D01*
X0271800Y0156800D01*
X0271797Y0156555D01*
X0271788Y0156309D01*
X0271773Y0156064D01*
X0271752Y0155820D01*
X0271725Y0155576D01*
X0271692Y0155333D01*
X0271653Y0155090D01*
X0271608Y0154849D01*
X0271557Y0154609D01*
X0271500Y0154370D01*
X0271438Y0154133D01*
X0271369Y0153897D01*
X0271295Y0153663D01*
X0271215Y0153431D01*
X0271130Y0153201D01*
X0271039Y0152973D01*
X0270942Y0152748D01*
X0270840Y0152524D01*
X0270732Y0152304D01*
X0270619Y0152086D01*
X0270501Y0151871D01*
X0270377Y0151659D01*
X0270249Y0151450D01*
X0270115Y0151244D01*
X0269976Y0151042D01*
X0269832Y0150843D01*
X0269683Y0150648D01*
X0269530Y0150456D01*
X0269372Y0150268D01*
X0269210Y0150084D01*
X0269042Y0149905D01*
X0268871Y0149729D01*
X0268695Y0149558D01*
X0268516Y0149390D01*
X0268332Y0149228D01*
X0268144Y0149070D01*
X0267952Y0148917D01*
X0267757Y0148768D01*
X0267558Y0148624D01*
X0267356Y0148485D01*
X0267150Y0148351D01*
X0266941Y0148223D01*
X0266729Y0148099D01*
X0266514Y0147981D01*
X0266296Y0147868D01*
X0266076Y0147760D01*
X0265852Y0147658D01*
X0265627Y0147561D01*
X0265399Y0147470D01*
X0265169Y0147385D01*
X0264937Y0147305D01*
X0264703Y0147231D01*
X0264467Y0147162D01*
X0264230Y0147100D01*
X0263991Y0147043D01*
X0263751Y0146992D01*
X0263510Y0146947D01*
X0263267Y0146908D01*
X0263024Y0146875D01*
X0262780Y0146848D01*
X0262536Y0146827D01*
X0262291Y0146812D01*
X0262045Y0146803D01*
X0261800Y0146800D01*
X0261555Y0146803D01*
X0261309Y0146812D01*
X0261064Y0146827D01*
X0260820Y0146848D01*
X0260576Y0146875D01*
X0260333Y0146908D01*
X0260090Y0146947D01*
X0259849Y0146992D01*
X0259609Y0147043D01*
X0259370Y0147100D01*
X0259133Y0147162D01*
X0258897Y0147231D01*
X0258663Y0147305D01*
X0258431Y0147385D01*
X0258201Y0147470D01*
X0257973Y0147561D01*
X0257748Y0147658D01*
X0257524Y0147760D01*
X0257304Y0147868D01*
X0257086Y0147981D01*
X0256871Y0148099D01*
X0256659Y0148223D01*
X0256450Y0148351D01*
X0256244Y0148485D01*
X0256042Y0148624D01*
X0255843Y0148768D01*
X0255648Y0148917D01*
X0255456Y0149070D01*
X0255268Y0149228D01*
X0255084Y0149390D01*
X0254905Y0149558D01*
X0254729Y0149729D01*
X0254558Y0149905D01*
X0254390Y0150084D01*
X0254228Y0150268D01*
X0254070Y0150456D01*
X0253917Y0150648D01*
X0253768Y0150843D01*
X0253624Y0151042D01*
X0253485Y0151244D01*
X0253351Y0151450D01*
X0253223Y0151659D01*
X0253099Y0151871D01*
X0252981Y0152086D01*
X0252868Y0152304D01*
X0252760Y0152524D01*
X0252658Y0152748D01*
X0252561Y0152973D01*
X0252470Y0153201D01*
X0252385Y0153431D01*
X0252305Y0153663D01*
X0252231Y0153897D01*
X0252162Y0154133D01*
X0252100Y0154370D01*
X0252043Y0154609D01*
X0251992Y0154849D01*
X0251947Y0155090D01*
X0251908Y0155333D01*
X0251875Y0155576D01*
X0251848Y0155820D01*
X0251827Y0156064D01*
X0251812Y0156309D01*
X0251803Y0156555D01*
X0251800Y0156800D01*
M02*
